<svg width="139" height="110" fill="none" xmlns="http://www.w3.org/2000/svg"><path d="M105.28 59.142H33.72L21.668 94.425 69.5 77.927l47.832 16.498-12.052-35.283z" fill="#2F302A"/><path d="M33.72 24.38 23.254 55.909l-1.586 3.843L65.322 76.34l3.344-38.271L33.72 24.38zm83.612 35.372-1.586-3.843-10.466-31.53-34.946 13.689 3.344 38.271 43.654-16.587z" fill="#E9A400"/><path d="m68.666 38.068-3.344 38.271 4.178 1.588 4.178-1.588-3.344-38.271h-1.668z" fill="#F56E44"/><path d="M117.332 59.752 105.28 24.38l10.466 31.529 1.586 3.843zM33.72 24.38 21.668 59.752l1.586-3.843 10.466-31.53z" fill="#2F302A"/><path d="M61.97 77.927 21.667 94.425l1.586 3.843 40.588-16.62a6.336 6.336 0 0 1-1.873-3.72zm12.714-.717 42.648-17.458-1.586-3.843-42.354 17.344a6.322 6.322 0 0 1 1.292 3.835v.123z" fill="#955B3B"/><path d="M74.684 77.088a6.322 6.322 0 0 0-1.292-3.835L61.97 77.927a6.3 6.3 0 0 0 1.88 3.721l10.834-4.437v-.123z" fill="#2F302A"/><path d="m77.03 77.927 40.302 16.498-1.586 3.843-40.588-16.62a6.335 6.335 0 0 0 1.873-3.72zm-12.714-.717L21.668 59.753l1.586-3.843 42.354 17.344a6.321 6.321 0 0 0-1.292 3.835v.123z" fill="#955B3B"/><path d="M64.316 77.088c0-1.44.483-2.768 1.292-3.835l11.422 4.674a6.3 6.3 0 0 1-1.88 3.721l-10.834-4.437v-.123z" fill="#2F302A"/><path d="M69.5 72.577c-2.502 0-4.53 2.02-4.53 4.511 0 2.492 2.028 4.512 4.53 4.512 2.502 0 4.53-2.02 4.53-4.512 0-2.491-2.028-4.51-4.53-4.51zm1.807 5.586c0 .994-.81 1.8-1.807 1.8a1.804 1.804 0 0 1-1.807-1.8v-.952c0-.994.81-1.8 1.807-1.8.998 0 1.807.806 1.807 1.8v.952z" fill="#955B3B"/><path d="M69.5 75.42c-.998 0-1.807.805-1.807 1.799v.952c0-.993.81-1.8 1.807-1.8.998 0 1.807.807 1.807 1.8v-.952c0-.994-.81-1.8-1.807-1.8z" fill="#2F302A"/><path d="M69.5 76.364c-.998 0-1.807.806-1.807 1.8 0 .993.81 1.799 1.807 1.799.998 0 1.807-.806 1.807-1.8 0-.993-.81-1.8-1.807-1.8z" fill="#F7F3E7"/><path d="M69.5 75.42c-.998 0-1.807.805-1.807 1.799v.952c0-.993.81-1.8 1.807-1.8.998 0 1.807.807 1.807 1.8v-.952c0-.994-.81-1.8-1.807-1.8z" fill="#2F302A"/><path d="M69.5 76.364c-.998 0-1.807.806-1.807 1.8 0 .993.81 1.799 1.807 1.799.998 0 1.807-.806 1.807-1.8 0-.993-.81-1.8-1.807-1.8z" fill="#F7F3E7"/><path d="m38.683 24.999-9.354 29.33 36.663 13.933 2.494-31.798-29.803-11.465zm61.634 0 9.354 29.33-36.663 13.933-2.494-31.798 29.803-11.465z" fill="#1E4F47"/><path d="M70.514 36.464h-2.028l-2.494 31.798h7.016l-2.494-31.798z" fill="#2F302A"/><path d="m39.697 47.668-6.01-.952-1.096 6.147 33.663 12.63 3.246-5.097-4.546-2.98a64.37 64.37 0 0 0-25.257-9.748z" fill="#E2D3AF"/><path d="M69.5 65.501v-5.097L66.254 65.5H69.5z" fill="#D8C18F"/><path d="M69.5 31.155a64.325 64.325 0 0 0-27.056-10.521l-.409-.057-8.34 26.147 6.01.952a64.306 64.306 0 0 1 25.257 9.756l4.546 2.98-.008-29.257z" fill="#F7F3E7"/><path d="m67.023 55.274-1.325-.847a66.939 66.939 0 0 0-11.954-6.058 67.11 67.11 0 0 0-13.655-3.673l-3.156-.497 6.828-21.39.744.138c7.8 1.449 15.453 4.47 22.125 8.745l.393.252v23.33zm-27.858-12.45 1.186.187a69.038 69.038 0 0 1 14.014 3.762 68.498 68.498 0 0 1 10.94 5.39v-19.29a61.083 61.083 0 0 0-20.375-8.11l-5.765 18.06z" fill="#F56E44"/><path d="m99.303 47.668 6.01-.952 1.096 6.147-33.663 12.638-3.246-5.097 4.546-2.98a64.26 64.26 0 0 1 25.257-9.756z" fill="#E2D3AF"/><path d="M69.5 65.501v-5.097l3.246 5.097H69.5z" fill="#D8C18F"/><path d="m98.64 43.01 1.186-.187-5.764-18.052a61.16 61.16 0 0 0-13.458 4.372 32.322 32.322 0 0 0-6.885 19.975c0 .993.05 1.978.13 2.947a69.297 69.297 0 0 1 10.761-5.284 69.497 69.497 0 0 1 14.03-3.77z" fill="#F7F3E7"/><path d="M80.612 29.143a59.394 59.394 0 0 0-6.917 3.738v19.29c.057-.032.114-.073.171-.106-.09-.969-.13-1.954-.13-2.947a32.316 32.316 0 0 1 6.876-19.975z" fill="#EFE6CE"/><path d="m73.302 54.427-1.325.847v-23.33l.393-.252a62.168 62.168 0 0 1 10.867-5.52 31.765 31.765 0 0 1 4.161-3.519 64.276 64.276 0 0 0-17.898 8.51v29.249l4.546-2.98c.22-.147.442-.285.654-.424a31.4 31.4 0 0 1-.613-3.07c-.262.155-.523.318-.785.489z" fill="#EFE6CE"/><path d="m105.305 46.724-8.34-26.147-.41.057a64.268 64.268 0 0 0-9.149 2.011 33.657 33.657 0 0 0-4.161 3.518 62.062 62.062 0 0 1 11.259-3.225l.744-.138 6.827 21.391-3.156.497a66.595 66.595 0 0 0-13.655 3.672 66.606 66.606 0 0 0-11.16 5.562c.155 1.042.36 2.06.613 3.07A64.436 64.436 0 0 1 99.31 47.66l5.994-.936z" fill="#F7F3E7"/><path d="M71.978 31.944v23.338l1.324-.847c.262-.171.523-.334.793-.497a34.484 34.484 0 0 1-.22-1.873 2.1 2.1 0 0 0-.172.106V32.873a60.082 60.082 0 0 1 6.917-3.738 33.655 33.655 0 0 1 2.625-2.972 62.158 62.158 0 0 0-10.867 5.52l-.4.261z" fill="#955B3B"/><path d="m94.07 24.77 5.765 18.053-1.186.188a69.04 69.04 0 0 0-14.014 3.762 68.593 68.593 0 0 0-10.76 5.284c.057.627.13 1.254.22 1.873a67.23 67.23 0 0 1 11.161-5.561 67.11 67.11 0 0 1 13.655-3.673l3.156-.497-6.827-21.39-.745.138a62.434 62.434 0 0 0-11.259 3.224 32.395 32.395 0 0 0-2.624 2.972 61.158 61.158 0 0 1 13.458-4.372z" fill="#F56E44"/><path d="m31.259 15.732.825 2.63 2.641.83-2.64.823-.826 2.63-.834-2.63-2.641-.822 2.64-.83.835-2.631zm83.416 11.799.703 2.215 2.224.7-2.224.7-.703 2.215-.703-2.215-2.224-.7 2.224-.7.703-2.215zM26.639 65.916l.564 1.784 1.799.562-1.799.561-.564 1.784-.564-1.784-1.79-.561 1.79-.562.564-1.784zm48.486-45.241.507 1.604 1.603.505-1.603.505-.507 1.604-.507-1.604-1.61-.505 1.61-.505.507-1.604z" fill="#F7F3E7"/></svg>