<svg width="195" height="288" fill="none" xmlns="http://www.w3.org/2000/svg">
    <g clip-path="url(#prefix__clip0_412_1268)">
        <rect width="195" height="288" rx="16" fill="url(#prefix__paint0_linear_412_1268)" />
        <circle cx="97" cy="38" r="17" fill="#F9EBB1" />
        <ellipse cx="44.984" cy="20.607" rx="9.984" ry="7.116" fill="url(#prefix__paint1_linear_412_1268)" />
        <ellipse cx="67.016" cy="20.607" rx="9.984" ry="7.116" fill="url(#prefix__paint2_linear_412_1268)" />
        <ellipse cx="55.656" cy="20.852" rx="11.016" ry="7.852" fill="url(#prefix__paint3_linear_412_1268)" />
        <ellipse cx="144.984" cy="37.607" rx="9.984" ry="7.116" fill="url(#prefix__paint4_linear_412_1268)" />
        <ellipse cx="167.016" cy="37.607" rx="9.984" ry="7.116" fill="url(#prefix__paint5_linear_412_1268)" />
        <ellipse cx="155.656" cy="37.852" rx="11.016" ry="7.852" fill="url(#prefix__paint6_linear_412_1268)" />
        <ellipse cx="102.984" cy="98.607" rx="9.984" ry="7.116" fill="url(#prefix__paint7_linear_412_1268)" />
        <ellipse cx="125.016" cy="98.607" rx="9.984" ry="7.116" fill="url(#prefix__paint8_linear_412_1268)" />
        <ellipse cx="113.656" cy="98.852" rx="11.016" ry="7.852" fill="url(#prefix__paint9_linear_412_1268)" />
        <ellipse cx="2.984" cy="90.607" rx="9.984" ry="7.116" fill="url(#prefix__paint10_linear_412_1268)" />
        <ellipse cx="25.016" cy="90.607" rx="9.984" ry="7.116" fill="url(#prefix__paint11_linear_412_1268)" />
        <ellipse cx="13.656" cy="90.852" rx="11.016" ry="7.852" fill="url(#prefix__paint12_linear_412_1268)" />
        <ellipse cx="161.529" cy="79.594" rx="16.529" ry="11.781" fill="url(#prefix__paint13_linear_412_1268)" />
        <ellipse cx="198.005" cy="79.594" rx="16.529" ry="11.781" fill="url(#prefix__paint14_linear_412_1268)" />
        <ellipse cx="179.197" cy="80" rx="18.238" ry="13" fill="url(#prefix__paint15_linear_412_1268)" />
        <ellipse cx="5.529" cy="62.594" rx="16.529" ry="11.781" fill="url(#prefix__paint16_linear_412_1268)" />
        <ellipse cx="42.005" cy="62.594" rx="16.529" ry="11.781" fill="url(#prefix__paint17_linear_412_1268)" />
        <ellipse cx="23.197" cy="63" rx="18.238" ry="13" fill="url(#prefix__paint18_linear_412_1268)" />
        <path fill="url(#prefix__paint19_linear_412_1268)" d="M-7 148h220v141H-7z" />
        <path d="M213 148.5a38.502 38.502 0 00-38.5-38.5 38.502 38.502 0 00-38.5 38.5h77z"
            fill="url(#prefix__paint20_linear_412_1268)" />
        <path d="M80 161.5a51.5 51.5 0 10-103 0H80z" fill="url(#prefix__paint21_linear_412_1268)" />
        <path d="M128 186.5a51.5 51.5 0 10-103 0h103z" fill="url(#prefix__paint22_linear_412_1268)" />
        <path d="M62 195.5a42.499 42.499 0 10-85 0h85z" fill="url(#prefix__paint23_linear_412_1268)" />
        <path d="M89 210.5a34.5 34.5 0 10-69 0h69z" fill="url(#prefix__paint24_linear_412_1268)" />
        <path d="M160 254.5a34.5 34.5 0 00-69 0h69z" fill="url(#prefix__paint25_linear_412_1268)" />
        <path d="M240 260a56 56 0 00-112 0h112z" fill="url(#prefix__paint26_linear_412_1268)" />
        <path d="M226 288a45 45 0 10-90 0h90z" fill="url(#prefix__paint27_linear_412_1268)" />
        <path d="M158 289a45 45 0 10-90 0h90z" fill="url(#prefix__paint28_linear_412_1268)" />
        <path d="M51 301a45 45 0 10-90 0h90z" fill="url(#prefix__paint29_linear_412_1268)" />
    </g>
    <defs>
        <linearGradient id="prefix__paint0_linear_412_1268" x1="97.5" y1="0" x2="97.5" y2="288"
            gradientUnits="userSpaceOnUse">
            <stop stop-color="#663C8C" />
            <stop offset=".545" stop-color="#FDC6D1" />
        </linearGradient>
        <linearGradient id="prefix__paint1_linear_412_1268" x1="44.746" y1="31.163" x2="45.608" y2="13.521"
            gradientUnits="userSpaceOnUse">
            <stop stop-color="#D49EC5" />
            <stop offset="1" stop-color="#7166D3" />
        </linearGradient>
        <linearGradient id="prefix__paint2_linear_412_1268" x1="66.779" y1="31.163" x2="67.641" y2="13.521"
            gradientUnits="userSpaceOnUse">
            <stop stop-color="#D49EC5" />
            <stop offset="1" stop-color="#7166D3" />
        </linearGradient>
        <linearGradient id="prefix__paint3_linear_412_1268" x1="55.394" y1="32.5" x2="56.345" y2="13.034"
            gradientUnits="userSpaceOnUse">
            <stop stop-color="#D49EC5" />
            <stop offset="1" stop-color="#7166D3" />
        </linearGradient>
        <linearGradient id="prefix__paint4_linear_412_1268" x1="144.746" y1="48.163" x2="145.608" y2="30.521"
            gradientUnits="userSpaceOnUse">
            <stop stop-color="#D49EC5" />
            <stop offset="1" stop-color="#7166D3" />
        </linearGradient>
        <linearGradient id="prefix__paint5_linear_412_1268" x1="166.779" y1="48.163" x2="167.641" y2="30.521"
            gradientUnits="userSpaceOnUse">
            <stop stop-color="#D49EC5" />
            <stop offset="1" stop-color="#7166D3" />
        </linearGradient>
        <linearGradient id="prefix__paint6_linear_412_1268" x1="155.393" y1="49.5" x2="156.345" y2="30.034"
            gradientUnits="userSpaceOnUse">
            <stop stop-color="#D49EC5" />
            <stop offset="1" stop-color="#7166D3" />
        </linearGradient>
        <linearGradient id="prefix__paint7_linear_412_1268" x1="102.746" y1="109.163" x2="103.608" y2="91.521"
            gradientUnits="userSpaceOnUse">
            <stop stop-color="#D49EC5" />
            <stop offset="1" stop-color="#7166D3" />
        </linearGradient>
        <linearGradient id="prefix__paint8_linear_412_1268" x1="124.779" y1="109.163" x2="125.641" y2="91.521"
            gradientUnits="userSpaceOnUse">
            <stop stop-color="#D49EC5" />
            <stop offset="1" stop-color="#7166D3" />
        </linearGradient>
        <linearGradient id="prefix__paint9_linear_412_1268" x1="113.393" y1="110.5" x2="114.345" y2="91.034"
            gradientUnits="userSpaceOnUse">
            <stop stop-color="#D49EC5" />
            <stop offset="1" stop-color="#7166D3" />
        </linearGradient>
        <linearGradient id="prefix__paint10_linear_412_1268" x1="2.746" y1="101.163" x2="3.608" y2="83.521"
            gradientUnits="userSpaceOnUse">
            <stop stop-color="#D49EC5" />
            <stop offset="1" stop-color="#7166D3" />
        </linearGradient>
        <linearGradient id="prefix__paint11_linear_412_1268" x1="24.779" y1="101.163" x2="25.641" y2="83.521"
            gradientUnits="userSpaceOnUse">
            <stop stop-color="#D49EC5" />
            <stop offset="1" stop-color="#7166D3" />
        </linearGradient>
        <linearGradient id="prefix__paint12_linear_412_1268" x1="13.393" y1="102.5" x2="14.345" y2="83.034"
            gradientUnits="userSpaceOnUse">
            <stop stop-color="#D49EC5" />
            <stop offset="1" stop-color="#7166D3" />
        </linearGradient>
        <linearGradient id="prefix__paint13_linear_412_1268" x1="161.135" y1="97.069" x2="162.562" y2="67.863"
            gradientUnits="userSpaceOnUse">
            <stop stop-color="#D49EC5" />
            <stop offset="1" stop-color="#7166D3" />
        </linearGradient>
        <linearGradient id="prefix__paint14_linear_412_1268" x1="197.612" y1="97.069" x2="199.039" y2="67.863"
            gradientUnits="userSpaceOnUse">
            <stop stop-color="#D49EC5" />
            <stop offset="1" stop-color="#7166D3" />
        </linearGradient>
        <linearGradient id="prefix__paint15_linear_412_1268" x1="178.763" y1="99.284" x2="180.338" y2="67.056"
            gradientUnits="userSpaceOnUse">
            <stop stop-color="#D49EC5" />
            <stop offset="1" stop-color="#7166D3" />
        </linearGradient>
        <linearGradient id="prefix__paint16_linear_412_1268" x1="5.135" y1="80.069" x2="6.563" y2="50.863"
            gradientUnits="userSpaceOnUse">
            <stop stop-color="#D49EC5" />
            <stop offset="1" stop-color="#7166D3" />
        </linearGradient>
        <linearGradient id="prefix__paint17_linear_412_1268" x1="41.612" y1="80.069" x2="43.039" y2="50.863"
            gradientUnits="userSpaceOnUse">
            <stop stop-color="#D49EC5" />
            <stop offset="1" stop-color="#7166D3" />
        </linearGradient>
        <linearGradient id="prefix__paint18_linear_412_1268" x1="22.763" y1="82.284" x2="24.338" y2="50.056"
            gradientUnits="userSpaceOnUse">
            <stop stop-color="#D49EC5" />
            <stop offset="1" stop-color="#7166D3" />
        </linearGradient>
        <linearGradient id="prefix__paint19_linear_412_1268" x1="103" y1="148" x2="103" y2="293.5"
            gradientUnits="userSpaceOnUse">
            <stop stop-color="#6B437A" />
            <stop offset="1" stop-color="#2C1254" />
        </linearGradient>
        <linearGradient id="prefix__paint20_linear_412_1268" x1="174.5" y1="110" x2="174" y2="160"
            gradientUnits="userSpaceOnUse">
            <stop stop-color="#59336F" />
            <stop offset="1" stop-color="#1B0549" />
        </linearGradient>
        <linearGradient id="prefix__paint21_linear_412_1268" x1="28.5" y1="110" x2="27.831" y2="176.883"
            gradientUnits="userSpaceOnUse">
            <stop stop-color="#59336F" />
            <stop offset="1" stop-color="#1B0549" />
        </linearGradient>
        <linearGradient id="prefix__paint22_linear_412_1268" x1="76.5" y1="135" x2="75.831" y2="201.883"
            gradientUnits="userSpaceOnUse">
            <stop stop-color="#59336F" />
            <stop offset="1" stop-color="#1B0549" />
        </linearGradient>
        <linearGradient id="prefix__paint23_linear_412_1268" x1="19.5" y1="153" x2="18.948" y2="208.195"
            gradientUnits="userSpaceOnUse">
            <stop stop-color="#59336F" />
            <stop offset="1" stop-color="#1B0549" />
        </linearGradient>
        <linearGradient id="prefix__paint24_linear_412_1268" x1="54.5" y1="176" x2="54.052" y2="220.805"
            gradientUnits="userSpaceOnUse">
            <stop stop-color="#59336F" />
            <stop offset="1" stop-color="#1B0549" />
        </linearGradient>
        <linearGradient id="prefix__paint25_linear_412_1268" x1="125.5" y1="220" x2="125.052" y2="264.805"
            gradientUnits="userSpaceOnUse">
            <stop stop-color="#59336F" />
            <stop offset="1" stop-color="#1B0549" />
        </linearGradient>
        <linearGradient id="prefix__paint26_linear_412_1268" x1="184" y1="204" x2="183.273" y2="276.727"
            gradientUnits="userSpaceOnUse">
            <stop stop-color="#59336F" />
            <stop offset="1" stop-color="#1B0549" />
        </linearGradient>
        <linearGradient id="prefix__paint27_linear_412_1268" x1="181" y1="243" x2="180.416" y2="301.442"
            gradientUnits="userSpaceOnUse">
            <stop stop-color="#59336F" />
            <stop offset="1" stop-color="#1B0549" />
        </linearGradient>
        <linearGradient id="prefix__paint28_linear_412_1268" x1="113" y1="244" x2="112.416" y2="302.442"
            gradientUnits="userSpaceOnUse">
            <stop stop-color="#59336F" />
            <stop offset="1" stop-color="#1B0549" />
        </linearGradient>
        <linearGradient id="prefix__paint29_linear_412_1268" x1="6" y1="256" x2="5.416" y2="314.442"
            gradientUnits="userSpaceOnUse">
            <stop stop-color="#59336F" />
            <stop offset="1" stop-color="#1B0549" />
        </linearGradient>
        <clipPath id="prefix__clip0_412_1268">
            <rect width="195" height="288" rx="16" fill="#fff" />
        </clipPath>
    </defs>
</svg>