<?xml version="1.0" encoding="UTF-8"?>
<svg version="1.1" xmlns="http://www.w3.org/2000/svg" width="692" height="967">
<path d="M0 0 C215.16 0 430.32 0 652 0 C652 0.66 652 1.32 652 2 C653.32 2 654.64 2 656 2 C656 2.66 656 3.32 656 4 C657.32 4 658.64 4 660 4 C660 4.66 660 5.32 660 6 C660.66 6 661.32 6 662 6 C662 6.66 662 7.32 662 8 C662.66 8 663.32 8 664 8 C664 8.66 664 9.32 664 10 C664.66 10 665.32 10 666 10 C666 10.66 666 11.32 666 12 C666.66 12 667.32 12 668 12 C668 13.32 668 14.64 668 16 C668.66 16 669.32 16 670 16 C670 18.64 670 21.28 670 24 C670.66 24 671.32 24 672 24 C672 326.28 672 628.56 672 940 C671.34 940 670.68 940 670 940 C670 941.98 670 943.96 670 946 C669.34 946 668.68 946 668 946 C668 947.32 668 948.64 668 950 C667.34 950 666.68 950 666 950 C666 951.32 666 952.64 666 954 C665.34 954 664.68 954 664 954 C664 954.66 664 955.32 664 956 C663.34 956 662.68 956 662 956 C662 956.66 662 957.32 662 958 C660.68 958 659.36 958 658 958 C658 958.66 658 959.32 658 960 C656.68 960 655.36 960 654 960 C654 960.66 654 961.32 654 962 C652.68 962 651.36 962 650 962 C650 962.66 650 963.32 650 964 C436.16 964 222.32 964 2 964 C2 963.34 2 962.68 2 962 C0.02 962 -1.96 962 -4 962 C-4 961.34 -4 960.68 -4 960 C-5.32 960 -6.64 960 -8 960 C-8 959.34 -8 958.68 -8 958 C-8.66 958 -9.32 958 -10 958 C-10 957.34 -10 956.68 -10 956 C-10.66 956 -11.32 956 -12 956 C-12 955.34 -12 954.68 -12 954 C-12.66 954 -13.32 954 -14 954 C-14 953.34 -14 952.68 -14 952 C-14.66 952 -15.32 952 -16 952 C-16 950.68 -16 949.36 -16 948 C-16.66 948 -17.32 948 -18 948 C-18 946.68 -18 945.36 -18 944 C-18.66 944 -19.32 944 -20 944 C-20 638.42 -20 332.84 -20 18 C-19.34 18 -18.68 18 -18 18 C-18 16.68 -18 15.36 -18 14 C-17.34 14 -16.68 14 -16 14 C-16 13.34 -16 12.68 -16 12 C-15.34 12 -14.68 12 -14 12 C-14 10.68 -14 9.36 -14 8 C-13.34 8 -12.68 8 -12 8 C-12 7.34 -12 6.68 -12 6 C-11.34 6 -10.68 6 -10 6 C-10 5.34 -10 4.68 -10 4 C-8.68 4 -7.36 4 -6 4 C-6 3.34 -6 2.68 -6 2 C-4.02 2 -2.04 2 0 2 C0 1.34 0 0.68 0 0 Z " fill="#362361" transform="translate(20,2)"/>
<path d="M0 0 C215.16 0 430.32 0 652 0 C652 0.66 652 1.32 652 2 C653.32 2 654.64 2 656 2 C656 2.66 656 3.32 656 4 C657.32 4 658.64 4 660 4 C660 4.66 660 5.32 660 6 C660.66 6 661.32 6 662 6 C662 6.66 662 7.32 662 8 C662.66 8 663.32 8 664 8 C664 8.66 664 9.32 664 10 C664.66 10 665.32 10 666 10 C666 10.66 666 11.32 666 12 C666.66 12 667.32 12 668 12 C668 13.32 668 14.64 668 16 C668.66 16 669.32 16 670 16 C670 18.64 670 21.28 670 24 C670.66 24 671.32 24 672 24 C672 326.28 672 628.56 672 940 C671.34 940 670.68 940 670 940 C670 941.98 670 943.96 670 946 C669.34 946 668.68 946 668 946 C668 947.32 668 948.64 668 950 C667.34 950 666.68 950 666 950 C666 951.32 666 952.64 666 954 C665.34 954 664.68 954 664 954 C664 954.66 664 955.32 664 956 C663.34 956 662.68 956 662 956 C662 956.66 662 957.32 662 958 C660.68 958 659.36 958 658 958 C658 958.66 658 959.32 658 960 C656.68 960 655.36 960 654 960 C654 960.66 654 961.32 654 962 C652.68 962 651.36 962 650 962 C650 962.66 650 963.32 650 964 C436.16 964 222.32 964 2 964 C2 963.34 2 962.68 2 962 C2.55403998 962.00046794 3.10807996 962.00093588 3.67890903 962.00141801 C63.9937479 962.05225341 124.30858914 962.09937018 184.6234436 962.12702942 C185.52429506 962.12744359 186.42514652 962.12785776 187.3532965 962.12828448 C206.93086396 962.13726305 226.50843165 962.14557361 246.08599969 962.15319599 C255.68672771 962.15693802 265.28745567 962.16082768 274.88818359 962.16479492 C276.32127119 962.16538334 276.32127119 962.16538334 277.78331006 962.16598364 C308.75457908 962.17876943 339.72583169 962.20130466 370.69709077 962.22889166 C402.5220442 962.25718761 434.34698855 962.27565591 466.17195435 962.28174497 C470.66621732 962.28260944 475.16048026 962.28358636 479.65474319 962.28463173 C480.53928527 962.284834 481.42382735 962.28503627 482.33517373 962.28524467 C496.57825554 962.28879087 510.82130927 962.30270791 525.06437963 962.3204961 C539.38080973 962.33815485 553.69721199 962.34490468 568.01365261 962.34050413 C576.52102642 962.33822109 585.02829835 962.34431729 593.53565379 962.36239263 C599.21918793 962.37364402 604.90265537 962.37398975 610.58619413 962.36549544 C613.82423759 962.36096742 617.06204963 962.36281555 620.30008022 962.37464955 C623.79169094 962.38667002 627.28280162 962.38021054 630.77440453 962.36914349 C631.77491547 962.37702453 632.77542642 962.38490557 633.80625588 962.39302543 C644.60726677 962.31554674 653.23096681 959.69226409 661 952 C667.28454526 944.19796698 668.29865956 936.33300922 668.26171303 926.61206913 C668.26570909 925.57408427 668.26970515 924.53609941 668.27382231 923.46666047 C668.284818 919.97781205 668.28159222 916.48912167 668.2784729 913.0002594 C668.28347453 910.47808796 668.28934993 907.95591813 668.29602563 905.43375057 C668.30854762 899.94467615 668.31488321 894.45564804 668.31578636 888.96656036 C668.31716276 880.80450982 668.32994851 872.642505 668.3450741 864.48046977 C668.37019485 850.75044354 668.38605964 837.02042117 668.39665604 823.29037666 C668.40717857 809.6951877 668.42181088 796.1000134 668.44193649 782.50483513 C668.44380979 781.23704959 668.44380979 781.23704959 668.44572094 779.94365223 C668.45208466 775.65138745 668.45852185 771.35912279 668.46498732 767.06685816 C668.51065447 736.66184863 668.54710021 706.25683434 668.578125 675.85180664 C668.60828694 646.31306257 668.64262455 616.77432817 668.68261719 587.2355957 C668.68446369 585.86991557 668.68446369 585.86991557 668.6863475 584.47664594 C668.69871432 575.33352922 668.71116604 566.19041261 668.72367998 557.04729609 C668.74917057 538.42158164 668.7740944 519.79586643 668.79867554 501.17015076 C668.79980645 500.31376354 668.80093736 499.45737633 668.80210253 498.57503799 C668.87756248 441.38336989 668.93976929 384.19168592 669 327 C667.87980721 326.80145164 667.87980721 326.80145164 666.73698425 326.59889221 C665.75281021 326.42260788 664.76863617 326.24632355 663.75463867 326.06469727 C662.78096848 325.8910817 661.80729828 325.71746613 660.80412292 325.53858948 C656.00853497 324.61749818 651.37113017 323.23882867 646.67578125 321.90234375 C631.16955579 318.09582081 613.57941736 319.07570807 598 322 C597.02184326 322.17740723 597.02184326 322.17740723 596.02392578 322.35839844 C571.47292123 326.9518499 548.63230641 338.8796747 530.38671875 355.82421875 C528.65623752 357.40176056 526.86271745 358.91102476 525.03515625 360.375 C521.85049851 363.01362975 519.27115977 366.04694004 516.75 369.3125 C516.28255371 369.91425049 515.81510742 370.51600098 515.33349609 371.13598633 C507.59584506 381.2866073 500.73419644 392.11580318 496 404 C495.71769531 404.70382812 495.43539062 405.40765625 495.14453125 406.1328125 C494.39338222 408.0774115 493.69128071 410.03342558 493 412 C492.75507812 412.64839844 492.51015625 413.29679687 492.2578125 413.96484375 C488.39501422 424.65722867 486.91659418 435.75558385 485.91015625 447.015625 C485.77679871 448.46219482 485.77679871 448.46219482 485.64074707 449.93798828 C485.42418472 452.29173663 485.21066503 454.64571777 485 457 C470.82133638 457.21141165 456.64292146 457.36891382 442.46299839 457.46630955 C435.87703472 457.51307911 429.29213729 457.57641502 422.70678711 457.67895508 C416.33945835 457.7774685 409.97314852 457.83070938 403.60511589 457.85389519 C401.1879671 457.87039635 398.77086776 457.90261699 396.3541584 457.95157051 C381.71277703 458.23608325 371.00019026 457.27583951 358.64938164 449.04693413 C342.27741697 438.65493742 318.73431183 434.12731566 299.6875 431.8125 C298.62486938 431.68294922 298.62486938 431.68294922 297.54077148 431.55078125 C292.58640799 431.04128056 287.74843363 431.01763947 282.76953125 431.15234375 C261.78994477 431.54063374 261.78994477 431.54063374 257.234375 427.2109375 C254.96391444 424.31369036 253.3621007 421.14312392 251.85693359 417.79541016 C243.16945852 399.59378859 220.18542182 381.19105722 203.0234375 371.28125 C202.35570312 370.8584375 201.68796875 370.435625 201 370 C201 369.34 201 368.68 201 368 C199.8553125 367.690625 199.8553125 367.690625 198.6875 367.375 C194.40216332 365.77707785 190.62102714 363.6270411 186.63671875 361.3984375 C183.83213042 359.91096695 181.06551542 358.82851768 178 358 C178 357.34 178 356.68 178 356 C177.47535156 355.85304688 176.95070312 355.70609375 176.41015625 355.5546875 C171.6292531 354.17053251 166.94993311 352.62817128 162.28271484 350.89599609 C155.09380546 348.25062487 147.88404907 346.05335963 140.4375 344.25 C139.63658936 344.05164551 138.83567871 343.85329102 138.01049805 343.64892578 C123.40986817 340.24991427 108.74220856 339.52458584 93.8125 339.5 C92.89779938 339.4976535 91.98309875 339.49530701 91.04067993 339.4928894 C65.38715325 339.51994273 38.77577426 344.05229937 15.81762695 356.07885742 C13.91105564 357.0450755 11.97584841 357.87363322 10 358.6875 C5.51777015 360.65625721 1.26780948 362.98576047 -3 365.375 C-3.65226562 365.73811279 -4.30453125 366.10122559 -4.9765625 366.4753418 C-10.18776665 369.4267571 -14.98131927 372.65421285 -20 376 C-20 257.86 -20 139.72 -20 18 C-19.34 18 -18.68 18 -18 18 C-18 16.68 -18 15.36 -18 14 C-17.34 14 -16.68 14 -16 14 C-16 13.34 -16 12.68 -16 12 C-15.34 12 -14.68 12 -14 12 C-14 10.68 -14 9.36 -14 8 C-13.34 8 -12.68 8 -12 8 C-12 7.34 -12 6.68 -12 6 C-11.34 6 -10.68 6 -10 6 C-10 5.34 -10 4.68 -10 4 C-8.68 4 -7.36 4 -6 4 C-6 3.34 -6 2.68 -6 2 C-4.02 2 -2.04 2 0 2 C0 1.34 0 0.68 0 0 Z " fill="#A684B6" transform="translate(20,2)"/>
<path d="M0 0 C0.87720703 -0.00773437 1.75441406 -0.01546875 2.65820312 -0.0234375 C12.17864125 0.00462569 20.49540449 1.71389668 29.0625 5.875 C29.79662109 6.22836426 30.53074219 6.58172852 31.28710938 6.94580078 C37.39927985 9.98705066 42.61565452 13.51478428 47.5625 18.25 C48.31660156 18.95253906 49.07070313 19.65507813 49.84765625 20.37890625 C62.71655491 33.42439357 68.43000085 49.66799309 68.9375 67.75 C68.7900729 75.48992272 67.35171399 82.74169128 65.5625 90.25 C64.9025 90.25 64.2425 90.25 63.5625 90.25 C63.44519531 91.13558594 63.32789063 92.02117187 63.20703125 92.93359375 C60.84015866 105.11222905 50.15842963 116.63603063 40.1875 123.625 C38.66599018 124.53459826 37.12153927 125.40634268 35.5625 126.25 C34.4796875 126.85585937 33.396875 127.46171875 32.28125 128.0859375 C17.47612925 136.11676698 -1.34841522 138.31869903 -17.8125 133.9375 C-19.3665811 133.41026732 -20.91009554 132.8501483 -22.4375 132.25 C-23.23800781 131.96382812 -24.03851563 131.67765625 -24.86328125 131.3828125 C-26.73350804 130.7044919 -28.58795547 129.9828384 -30.4375 129.25 C-30.4375 128.59 -30.4375 127.93 -30.4375 127.25 C-31.2625 127.04375 -32.0875 126.8375 -32.9375 126.625 C-45.86738102 121.54540388 -55.75581293 108.74144461 -61.72265625 96.64453125 C-62.74231002 94.20589163 -63.61021026 91.75984519 -64.4375 89.25 C-64.73527344 88.48171875 -65.03304688 87.7134375 -65.33984375 86.921875 C-70.95976657 70.45058045 -67.81438492 52.27999436 -60.625 36.9375 C-57.76642458 31.54274488 -54.46155603 26.8329527 -50.4375 22.25 C-49.85484375 21.57324219 -49.2721875 20.89648438 -48.671875 20.19921875 C-35.99639583 6.48520242 -18.34441929 -0.16103367 0 0 Z " fill="#F8E5AA" transform="translate(336.4375,91.75)"/>
<path d="M0 0 C20.73981742 0 20.73981742 0 26.9375 2.375 C27.59427734 2.59671875 28.25105469 2.8184375 28.92773438 3.046875 C31.93424571 4.09101581 34.33793781 5.22529187 37 7 C40.9360469 6.80799771 44.16131615 5.566705 47.75 4.0625 C64.07834718 -2.57013733 81.87021808 -1.73655598 98 5 C99.33417969 5.82564453 99.33417969 5.82564453 100.6953125 6.66796875 C103.13354065 8.33359989 103.13354065 8.33359989 107 8 C107 7.34 107 6.68 107 6 C112.07874454 3.62370668 116.78951686 2.2218743 122.3125 1.3125 C123.06523193 1.1872998 123.81796387 1.06209961 124.59350586 0.93310547 C138.41296211 -1.25573202 153.61608219 -0.03116213 166 7 C166.86882812 7.48210937 167.73765625 7.96421875 168.6328125 8.4609375 C183.85582267 17.49297417 193.99165668 31.05086076 199 48 C200 52 200 52 200 64 C134 64 68 64 0 64 C0 42.88 0 21.76 0 0 Z " fill="#CBB6D8" transform="translate(0,147)"/>
<path d="M0 0 C4.42310962 1.43207238 7.68948016 0.3235455 11.984375 -1.13671875 C14.859375 -2.07421875 14.859375 -2.07421875 18.859375 -2.07421875 C18.859375 -2.73421875 18.859375 -3.39421875 18.859375 -4.07421875 C25.08124252 -5.90460536 30.642991 -6.35286214 37.109375 -6.26171875 C38.43582031 -6.26075195 38.43582031 -6.26075195 39.7890625 -6.25976562 C43.66514285 -6.23341765 47.11181628 -6.14092165 50.859375 -5.07421875 C50.859375 -4.41421875 50.859375 -3.75421875 50.859375 -3.07421875 C51.42785156 -3.03683594 51.99632812 -2.99945313 52.58203125 -2.9609375 C56.54862669 -2.62321402 59.98052333 -2.20998929 63.609375 -0.51171875 C66.8702948 0.93061116 68.38508626 1.44692456 71.859375 0.92578125 C74.19493963 -0.06899628 76.52812571 -1.06936992 78.859375 -2.07421875 C82.324375 -2.56921875 82.324375 -2.56921875 85.859375 -3.07421875 C85.859375 17.05578125 85.859375 37.18578125 85.859375 57.92578125 C27.779375 57.92578125 -30.300625 57.92578125 -90.140625 57.92578125 C-90.140625 44.29285655 -89.50362988 30.76916761 -79.64453125 20.34375 C-79.14824219 19.87582031 -78.65195312 19.40789062 -78.140625 18.92578125 C-77.11587072 17.69988156 -76.09534391 16.47044077 -75.078125 15.23828125 C-55.96130884 -6.46188844 -25.9833576 -12.46498912 0 0 Z " fill="#D9C0DB" transform="translate(603.140625,215.07421875)"/>
<path d="M0 0 C5.33519072 1.24487784 8.15752163 0.81071955 13.05078125 -1.23046875 C22.22892289 -4.85390343 34.70573725 -3.91546347 44 -1 C45.3303125 -0.4121875 45.3303125 -0.4121875 46.6875 0.1875 C50.3421896 1.47158013 53.33903866 0.64801367 56.90234375 -0.7421875 C63.09289454 -3.02692505 68.90520448 -3.29795275 75.4375 -3.3125 C76.77095459 -3.32035522 76.77095459 -3.32035522 78.13134766 -3.32836914 C84.61253149 -3.25831234 84.61253149 -3.25831234 88 -1 C89.51303324 -0.59467366 91.03528446 -0.22309728 92.5625 0.125 C103.30126265 3.28254011 110.36084406 11.70125326 116 21 C119.7527755 28.07044659 120.24869706 33.73566763 121 42 C59.62 42 -1.76 42 -65 42 C-65 29.59962968 -60.37597967 18.71452727 -51.79296875 9.67578125 C-36.79637856 -4.14560766 -19.08108423 -5.37534969 0 0 Z " fill="#B699C8" transform="translate(486,73)"/>
<path d="M0 0 C5.22168468 1.86607591 8.90695435 2.63935678 14.25 0.625 C15.84116076 -0.15081441 17.42557265 -0.94076636 19 -1.75 C29.08997472 -4.89213913 38.52877664 -1.43738919 48.07421875 1.99609375 C50.79342013 2.35460914 52.45336276 1.4850151 54.9375 0.375 C66.37292714 -4.67991834 76.53828114 -3.13622867 88 1.25 C99.55439115 6.16192725 106.37960412 15.97480942 111.3125 27.25 C112.29265049 31.5270203 112.89249712 35.85892084 113 40.25 C111.13868293 42.11131707 108.03028301 41.37622187 105.54650879 41.37698364 C104.86440669 41.37854363 104.18230458 41.38010362 103.47953272 41.38171089 C101.17708885 41.38572296 98.87471007 41.38253046 96.57226562 41.37939453 C94.92844097 41.38074848 93.28461662 41.38252838 91.64079285 41.38470459 C87.16364746 41.38927968 82.68652501 41.38748905 78.2093792 41.3843255 C73.5346457 41.38180229 68.85991423 41.38413933 64.18518066 41.38571167 C56.33324835 41.38753348 48.48132542 41.38512676 40.62939453 41.38037109 C31.53795001 41.37492845 22.44652792 41.3766911 13.35508394 41.3821975 C5.56402789 41.38672831 -2.22702139 41.38737934 -10.01807833 41.38475883 C-14.67776132 41.38319588 -19.33743376 41.38300279 -23.99711609 41.38629532 C-28.37680301 41.38917356 -32.75646088 41.38719921 -37.13614464 41.38140106 C-38.74828226 41.38007321 -40.3604223 41.380468 -41.97255898 41.38266373 C-44.16390914 41.38537427 -46.35516474 41.38199532 -48.54650879 41.37698364 C-50.39045101 41.3764181 -50.39045101 41.3764181 -52.27164459 41.37584114 C-55 41.25 -55 41.25 -56 40.25 C-56.80817563 30.22862213 -53.64044059 21.52345323 -47.8125 13.37890625 C-35.66236695 -0.89226295 -17.45584742 -6.36404672 0 0 Z " fill="#E8C8D9" transform="translate(400,290.75)"/>
<path d="M0 0 C1.06927734 -0.0009668 1.06927734 -0.0009668 2.16015625 -0.00195312 C7.19542014 0.04867567 11.4905038 0.60100127 16.25 2.1875 C16.25 2.8475 16.25 3.5075 16.25 4.1875 C17.85495567 4.07307539 19.45898119 3.94555306 21.0625 3.8125 C22.40248047 3.70808594 22.40248047 3.70808594 23.76953125 3.6015625 C26.49398499 3.32104964 26.49398499 3.32104964 29.25 1.1875 C38.50142924 -1.35050271 49.58279388 -1.06322001 58.13671875 3.3125 C60.71625766 4.38055308 62.47756127 4.46517774 65.25 4.1875 C67.37014292 3.32715422 67.37014292 3.32715422 69.5 2.1875 C79.03472606 -1.77701352 89.97383068 -1.06825865 99.5 2.5 C103.25970684 4.12173883 106.86032529 5.8802944 110.25 8.1875 C110.25 8.8475 110.25 9.5075 110.25 10.1875 C111.24 10.5175 112.23 10.8475 113.25 11.1875 C113.25 11.8475 113.25 12.5075 113.25 13.1875 C113.91 13.1875 114.57 13.1875 115.25 13.1875 C115.25 13.8475 115.25 14.5075 115.25 15.1875 C115.91 15.1875 116.57 15.1875 117.25 15.1875 C123.5719688 23.19532714 125.23782462 31.06574619 126.25 41.1875 C70.81 41.1875 15.37 41.1875 -41.75 41.1875 C-40.4644904 30.90342319 -38.70822117 22.21174392 -31.75 14.1875 C-31.09 14.1875 -30.43 14.1875 -29.75 14.1875 C-29.75 13.5275 -29.75 12.8675 -29.75 12.1875 C-21.2099091 3.99062788 -11.71257822 -0.01082493 0 0 Z " fill="#9D89C0" transform="translate(166.75,27.8125)"/>
<path d="M0 0 C0 -0.66 0 -1.32 0 -2 C5.37597708 -4.21571469 10.22079384 -4.33362604 15.9375 -4.3125 C17.23977539 -4.33666992 17.23977539 -4.33666992 18.56835938 -4.36132812 C29.50827979 -4.36959715 36.54997769 0.72058709 44.24609375 8.17578125 C51.8122765 16.21398274 52.86536668 21.65366684 54 33 C13.41 33 -27.18 33 -69 33 C-69 -3 -69 -3 -68 -4 C-59.15190529 -4.50839881 -51.13820596 -4.8387764 -43 -1 C-41.01043215 -0.60919203 -39.01193023 -0.25149128 -37 0 C-37 -0.66 -37 -1.32 -37 -2 C-23.00158257 -5.91955688 -13.67179441 -4.80360344 0 0 Z " fill="#D9C0DB" transform="translate(69,231)"/>
<path d="M0 0 C0.66 0 1.32 0 2 0 C2 212.52 2 425.04 2 644 C1.34 644 0.68 644 0 644 C0 645.98 0 647.96 0 650 C-0.66 650 -1.32 650 -2 650 C-2 651.32 -2 652.64 -2 654 C-2.66 654 -3.32 654 -4 654 C-4 655.32 -4 656.64 -4 658 C-4.66 658 -5.32 658 -6 658 C-6 658.66 -6 659.32 -6 660 C-6.66 660 -7.32 660 -8 660 C-8 660.66 -8 661.32 -8 662 C-9.32 662 -10.64 662 -12 662 C-12 662.66 -12 663.32 -12 664 C-13.32 664 -14.64 664 -16 664 C-16 664.66 -16 665.32 -16 666 C-17.32 666 -18.64 666 -20 666 C-20 666.66 -20 667.32 -20 668 C-233.84 668 -447.68 668 -668 668 C-668 667.34 -668 666.68 -668 666 C-667.44596002 666.00046794 -666.89192004 666.00093588 -666.32109097 666.00141801 C-606.0062521 666.05225341 -545.69141086 666.09937018 -485.3765564 666.12702942 C-484.47570494 666.12744359 -483.57485348 666.12785776 -482.6467035 666.12828448 C-463.06913604 666.13726305 -443.49156835 666.14557361 -423.91400031 666.15319599 C-414.31327229 666.15693802 -404.71254433 666.16082768 -395.11181641 666.16479492 C-393.67872881 666.16538334 -393.67872881 666.16538334 -392.21668994 666.16598364 C-361.24542092 666.17876943 -330.27416831 666.20130466 -299.30290923 666.22889166 C-267.4779558 666.25718761 -235.65301145 666.27565591 -203.82804565 666.28174497 C-199.33378268 666.28260944 -194.83951974 666.28358636 -190.34525681 666.28463173 C-189.46071473 666.284834 -188.57617265 666.28503627 -187.66482627 666.28524467 C-173.42174446 666.28879087 -159.17869073 666.30270791 -144.93562037 666.3204961 C-130.61919027 666.33815485 -116.30278801 666.34490468 -101.98634739 666.34050413 C-93.47897358 666.33822109 -84.97170165 666.34431729 -76.46434621 666.36239263 C-70.78081207 666.37364402 -65.09734463 666.37398975 -59.41380587 666.36549544 C-56.17576241 666.36096742 -52.93795037 666.36281555 -49.69991978 666.37464955 C-46.20830906 666.38667002 -42.71719838 666.38021054 -39.22559547 666.36914349 C-38.22508453 666.37702453 -37.22457358 666.38490557 -36.19374412 666.39302543 C-25.39273323 666.31554674 -16.76903319 663.69226409 -9 656 C-2.73837831 648.22642575 -1.70100713 640.38620555 -1.74108028 630.6986618 C-1.73738382 629.66996444 -1.73368735 628.64126707 -1.72987887 627.58139706 C-1.71988856 624.12383418 -1.72412829 620.66643505 -1.72825623 617.2088623 C-1.72397033 614.70878456 -1.71880747 612.2087082 -1.71284157 609.7086339 C-1.70185688 604.26699856 -1.69705349 598.8254116 -1.69767189 593.38376617 C-1.69855158 585.29060296 -1.6879936 577.19748293 -1.67505047 569.10433146 C-1.65356981 555.48219031 -1.64121872 541.86005528 -1.63390923 528.23789978 C-1.62660214 514.72923457 -1.61474824 501.220585 -1.59700203 487.71192932 C-1.59534642 486.45089208 -1.59534642 486.45089208 -1.59365735 485.16437935 C-1.58802078 480.89414874 -1.58229296 476.62391825 -1.57652331 472.35368782 C-1.53572737 442.08736072 -1.50343185 411.82103016 -1.47680664 381.5546875 C-1.47519341 379.72419773 -1.47357997 377.89370795 -1.47196633 376.06321818 C-1.47076761 374.70285397 -1.47076761 374.70285397 -1.46954467 373.31500766 C-1.46550173 368.72782737 -1.46145336 364.14064708 -1.45739746 359.5534668 C-1.45659426 358.64406867 -1.45579107 357.73467054 -1.45496353 356.79771489 C-1.43630461 335.72321404 -1.41502432 314.64871613 -1.39282227 293.57421875 C-1.39187433 292.67254029 -1.39092639 291.77086183 -1.38994972 290.84185978 C-1.36825097 270.2228413 -1.34537768 249.60382453 -1.32029057 228.98480988 C-1.31923471 228.11599565 -1.31817886 227.24718143 -1.31709102 226.3520395 C-1.30757825 218.53215185 -1.29802211 210.71226426 -1.28822399 202.89237696 C-1.26385672 183.44094835 -1.2423214 163.98952374 -1.22795228 144.53808496 C-1.21791722 130.964845 -1.20473557 117.39161144 -1.18830519 103.81837767 C-1.17953563 96.47897229 -1.17235103 89.13957362 -1.16966438 81.80016327 C-1.14729636 24.51998042 -1.14729636 24.51998042 0 0 Z " fill="#BC8597" transform="translate(690,298)"/>
<path d="M0 0 C1.07506442 -0.00175304 2.15012883 -0.00350607 3.25777096 -0.00531223 C6.87876033 -0.00998327 10.49970975 -0.00750389 14.12070084 -0.00507832 C16.73545275 -0.00694572 19.35020438 -0.00924613 21.96495557 -0.01194364 C27.65945791 -0.01709815 33.35395175 -0.01851475 39.04845619 -0.01748753 C47.51609413 -0.01596377 55.98372265 -0.02012165 64.45135875 -0.02536215 C80.45164982 -0.03503778 96.45193768 -0.03784644 112.45223132 -0.03841921 C124.80285503 -0.03887845 137.15347749 -0.04093521 149.5041008 -0.04411983 C153.05691886 -0.04501734 156.60973692 -0.04590716 160.16255498 -0.04679471 C161.04573512 -0.04701576 161.92891526 -0.04723681 162.83885843 -0.04746456 C187.68241287 -0.05361917 212.52596686 -0.05756506 237.36952209 -0.05712128 C238.30632611 -0.0571057 239.24313012 -0.05709012 240.20832213 -0.05707407 C244.95665694 -0.05699096 249.70499175 -0.05689192 254.45332655 -0.05678936 C255.39640093 -0.05676942 256.3394753 -0.05674947 257.31112769 -0.05672892 C259.21825148 -0.05668848 261.12537526 -0.05664669 263.03249905 -0.05660353 C292.72615014 -0.05599032 322.41978983 -0.0635055 352.11343765 -0.07717609 C385.45545583 -0.09251994 418.79746652 -0.1011434 452.13948846 -0.10021287 C455.6910491 -0.10013824 459.24260974 -0.10008953 462.79417038 -0.10005856 C463.66869079 -0.1000469 464.54321119 -0.10003525 465.44423222 -0.10002324 C479.54536101 -0.09999241 493.64647993 -0.10639047 507.74760578 -0.11499082 C521.90409443 -0.12344676 536.06056856 -0.12447342 550.21705833 -0.1178815 C558.63724974 -0.11417253 567.05739719 -0.11605818 575.47758398 -0.12582384 C581.74891008 -0.13248561 588.0201887 -0.12880753 594.29151252 -0.12095062 C596.84047736 -0.11940032 599.38944687 -0.12128842 601.9384062 -0.12681069 C605.38114231 -0.13378014 608.82364503 -0.12864934 612.26637268 -0.12025452 C613.27495423 -0.1252227 614.28353578 -0.13019088 615.32268041 -0.13530961 C616.23299074 -0.1305588 617.14330106 -0.12580798 618.08119655 -0.12091321 C618.86942803 -0.12100143 619.65765951 -0.12108965 620.46977679 -0.12118055 C622.38150406 0.12863445 622.38150406 0.12863445 624.38150406 2.12863445 C620.99116237 3.25874835 618.83556197 2.82611695 615.38150406 2.12863445 C613.82328831 2.04554115 612.26212427 2.00807197 610.70169705 2.01084799 C609.7831075 2.01003411 608.86451794 2.00922023 607.91809234 2.00838169 C606.91567674 2.01261305 605.91326115 2.01684441 604.88046932 2.02120399 C603.80595956 2.02173852 602.73144979 2.02227305 601.62437913 2.02282378 C597.9992641 2.02586841 594.374205 2.03614358 590.74910355 2.0463438 C588.13379021 2.05003618 585.51847622 2.05328581 582.90316182 2.05612904 C577.204379 2.06304069 571.50561271 2.07370307 565.8068409 2.08680439 C557.33294823 2.10626873 548.85905314 2.11996448 540.38514769 2.13246617 C526.13136829 2.15365898 511.87760101 2.17954808 497.62383461 2.20810032 C483.50786233 2.23636124 469.39188873 2.26254304 455.27590752 2.28593922 C454.3986937 2.2873943 453.52147989 2.28884939 452.61768384 2.29034857 C448.16288025 2.29772717 443.7080766 2.30506854 439.25327293 2.31239558 C407.6880174 2.36437952 376.12277182 2.42103848 344.55752945 2.48044109 C313.88956457 2.53814444 283.22159706 2.59373371 252.5536232 2.64645672 C251.13600356 2.64889509 251.13600356 2.64889509 249.68974513 2.65138272 C240.19899115 2.66770494 230.70823709 2.68398412 221.21748298 2.70023178 C201.88318427 2.73333205 182.54888607 2.7667195 163.21458817 2.80028057 C161.88110611 2.80259474 161.88110611 2.80259474 160.52068502 2.80495566 C101.14094937 2.90803812 41.76122572 3.01781557 -17.61849594 3.12863445 C-17.28849594 2.46863445 -16.95849594 1.80863445 -16.61849594 1.12863445 C-11.18331877 -0.26924252 -5.57249953 -0.01146224 0 0 Z " fill="#5A5EA9" transform="translate(41.61849594116211,1.8713655471801758)"/>
<path d="M0 0 C2.64 0 5.28 0 8 0 C8 0.66 8 1.32 8 2 C9.32 2 10.64 2 12 2 C12 2.66 12 3.32 12 4 C13.32 4 14.64 4 16 4 C16 4.66 16 5.32 16 6 C16.66 6 17.32 6 18 6 C18 6.66 18 7.32 18 8 C18.66 8 19.32 8 20 8 C20 8.66 20 9.32 20 10 C20.66 10 21.32 10 22 10 C22 10.66 22 11.32 22 12 C22.66 12 23.32 12 24 12 C24 13.32 24 14.64 24 16 C24.66 16 25.32 16 26 16 C26 18.64 26 21.28 26 24 C26.66 24 27.32 24 28 24 C28 113.76 28 203.52 28 296 C27.34 296 26.68 296 26 296 C26 306.23 26 316.46 26 327 C25.67 327 25.34 327 25 327 C25 309.18 25 291.36 25 273 C19.67891113 273.01047363 14.35782227 273.02094727 8.87548828 273.03173828 C-8.66267543 273.06480839 -26.20084033 273.08704344 -43.73902702 273.10362434 C-54.37730368 273.1139487 -65.01555086 273.1280311 -75.65380859 273.15087891 C-84.92321356 273.17077738 -94.19259718 273.183708 -103.4620229 273.18817699 C-108.37272795 273.19079039 -113.28337193 273.19695694 -118.19405746 273.21146011 C-122.81177136 273.22498813 -127.42939875 273.22923238 -132.04713058 273.22621536 C-133.74593068 273.22676768 -135.44473353 273.23077349 -137.14351654 273.23841095 C-139.45506905 273.24829757 -141.76629088 273.24599214 -144.07785034 273.24050903 C-146.02191175 273.24327441 -146.02191175 273.24327441 -148.00524712 273.24609566 C-151 273 -151 273 -153 271 C-152.9765625 267.9609375 -152.9765625 267.9609375 -152.625 264.375 C-152.51414062 263.18648438 -152.40328125 261.99796875 -152.2890625 260.7734375 C-152.19367188 259.85820312 -152.09828125 258.94296875 -152 258 C-151.67 258 -151.34 258 -151 258 C-151 262.29 -151 266.58 -151 271 C-92.92 271 -34.84 271 25 271 C25 250.87 25 230.74 25 210 C22.69 210.33 20.38 210.66 18 211 C21.22791555 208.8480563 22.28400809 208.79913557 26 209 C25.93943719 185.42550607 25.86191714 161.85112047 25.76428509 138.27674961 C25.71934553 127.33042426 25.67992657 116.3841313 25.65356445 105.43774414 C25.63056953 95.89536614 25.59715469 86.35309083 25.55129844 76.81079429 C25.52738648 71.75959025 25.50864438 66.70848779 25.50238609 61.65722847 C25.49632612 56.89904421 25.47629316 52.1411198 25.44572449 47.38303185 C25.43695891 45.64043102 25.43321861 43.89779622 25.43499184 42.15517426 C25.44371333 29.62503495 24.7024919 19.75021205 16 10 C11.27685821 5.27685821 6.18823795 3.18911975 0 1 C0 0.67 0 0.34 0 0 Z " fill="#D09BB0" transform="translate(664,2)"/>
<path d="M0 0 C0.33 0 0.66 0 1 0 C1 5.94 1 11.88 1 18 C-35.63 18 -72.26 18 -110 18 C-110.33 17.34 -110.66 16.68 -111 16 C-74.7 15.67 -38.4 15.34 -1 15 C-0.67 10.05 -0.34 5.1 0 0 Z " fill="#C18BA2" transform="translate(504,441)"/>
<path d="M0 0 C2.64 0 5.28 0 8 0 C8 0.66 8 1.32 8 2 C9.32 2 10.64 2 12 2 C12 2.66 12 3.32 12 4 C13.32 4 14.64 4 16 4 C16 4.66 16 5.32 16 6 C16.66 6 17.32 6 18 6 C18 6.66 18 7.32 18 8 C18.66 8 19.32 8 20 8 C20 8.66 20 9.32 20 10 C20.66 10 21.32 10 22 10 C22 10.66 22 11.32 22 12 C22.66 12 23.32 12 24 12 C24 13.32 24 14.64 24 16 C24.66 16 25.32 16 26 16 C26 18.64 26 21.28 26 24 C26.66 24 27.32 24 28 24 C27.67 28.29 27.34 32.58 27 37 C26.67 37 26.34 37 26 37 C25.92523437 36.03320312 25.85046875 35.06640625 25.7734375 34.0703125 C24.60042204 22.45515937 21.56807402 14.12411882 12.234375 6.47265625 C8.42825144 3.96407481 4.31189122 2.42257067 0 1 C0 0.67 0 0.34 0 0 Z " fill="#E8BCC3" transform="translate(664,2)"/>
<path d="M0 0 C0 0.33 0 0.66 0 1 C-6.16826366 1.10167468 -12.23051328 1.01632846 -18.375 0.4375 C-28.25140814 -0.36328985 -38.12637869 0.40854836 -48 1 C-48 0.67 -48 0.34 -48 0 C-32.52517421 -2.69965808 -15.32676168 -4.10669212 0 0 Z " fill="#724985" transform="translate(666,323)"/>
<path d="M0 0 C1.65 0 3.3 0 5 0 C0.75259665 3.45101522 -3.61105071 6.73279209 -8 10 C-8 8.68 -8 7.36 -8 6 C-7.34 6 -6.68 6 -6 6 C-6 5.34 -6 4.68 -6 4 C-5.34 4 -4.68 4 -4 4 C-4 3.34 -4 2.68 -4 2 C-2.68 2 -1.36 2 0 2 C0 1.34 0 0.68 0 0 Z " fill="#EBC7D0" transform="translate(14,4)"/>
<path d="M0 0 C2.64 0 5.28 0 8 0 C8 0.66 8 1.32 8 2 C9.32 2 10.64 2 12 2 C12.33 2.99 12.66 3.98 13 5 C8.39146203 4.27991594 4.32762591 2.68704061 0 1 C0 0.67 0 0.34 0 0 Z " fill="#F0C6CA" transform="translate(664,2)"/>
<path d="M0 0 C0.99 0 1.98 0 3 0 C2.67 4.29 2.34 8.58 2 13 C1.67 13 1.34 13 1 13 C0.67 8.71 0.34 4.42 0 0 Z " fill="#E5B2B7" transform="translate(689,26)"/>
<path d="M0 0 C0.99 0.33 1.98 0.66 3 1 C2.01 1.33 1.02 1.66 0 2 C0 2.66 0 3.32 0 4 C-1.32 4 -2.64 4 -4 4 C-4 4.66 -4 5.32 -4 6 C-4.99 5.67 -5.98 5.34 -7 5 C-2.25 1.125 -2.25 1.125 0 0 Z " fill="#CF94A0" transform="translate(674,960)"/>
<path d="M0 0 C1.88343932 3.76687864 2.22057835 5.02958963 2 9 C0.68 9 -0.64 9 -2 9 C-1.34 6.03 -0.68 3.06 0 0 Z " fill="#B58193" transform="translate(688,939)"/>
<path d="M0 0 C0.66 0.33 1.32 0.66 2 1 C-0.64 3.97 -3.28 6.94 -6 10 C-6.33 9.34 -6.66 8.68 -7 8 C-4.69 5.36 -2.38 2.72 0 0 Z " fill="#6766AC" transform="translate(11,9)"/>
<path d="M0 0 C0.99 0.33 1.98 0.66 3 1 C2.67 1.99 2.34 2.98 2 4 C1.01 3.67 0.02 3.34 -1 3 C-0.67 2.01 -0.34 1.02 0 0 Z " fill="#F7D0D4" transform="translate(1,8)"/>
<path d="M0 0 C0.99 0.33 1.98 0.66 3 1 C2.67 1.99 2.34 2.98 2 4 C1.01 3.67 0.02 3.34 -1 3 C-0.67 2.01 -0.34 1.02 0 0 Z " fill="#F7D0D4" transform="translate(9,0)"/>
</svg>
