<svg xmlns="http://www.w3.org/2000/svg" width="308.311" height="95.596" version="1.0" viewBox="-8584 0 17168 3372"><path style="fill:#a4a7d3" d="M7454.735 2780.322c0 55.13-152.327 160.38-456.98 310.737-288.895 143.673-456.98 215.51-506.004 215.51 42.021-91.884 185.593-207.157 428.966-349.16 236.368-136.992 409.706-212.17 521.762-223.864 8.754 5.012 12.256 20.047 12.256 46.777zm-101.551-329.112c0 23.388-7.004 60.142-22.762 110.26-19.26 58.472-36.768 88.544-52.526 88.544-24.512 0-68.284-20.048-134.818-60.143-64.782-40.095-99.8-68.496-103.302-86.872 0-30.072 10.506-66.825 29.765-108.591 21.011-50.119 45.523-75.178 70.036-75.178 17.508 0 56.028 18.377 119.06 55.13 63.031 38.425 94.547 63.484 94.547 76.85zM6428.72 1059.578c0 13.365-12.257 46.778-38.52 101.908-33.267 78.52-92.796 133.65-178.59 160.38-84.042 28.401-168.084 55.131-250.375 80.19l-7.004-11.694c0-28.4 38.52-65.154 112.056-110.261 61.281-36.754 113.808-63.484 157.58-78.52-45.523-10.023-70.036-15.035-77.04-15.035-120.81 0-185.592 3.341-196.098 11.694-35.017 28.4-50.775 41.766-47.273 41.766-7.004 0-40.27-13.365-40.27-21.718 0-160.38 182.09-227.205 322.161-227.205 117.31 0 189.095 3.34 217.11 8.353 17.508 5.012 26.262 25.06 26.262 60.142zM4354.86 2530.696c0 56.8-152.326 160.38-456.98 310.736-285.392 143.674-455.228 215.51-506.003 215.51 43.772-93.554 183.842-208.828 423.713-349.16 231.116-131.98 406.203-205.487 525.263-220.523 8.755 1.671 14.007 16.707 14.007 43.437zm-367.684-1040.8c0 51.79-15.758 81.86-47.274 86.873-26.263-233.888-50.776-467.775-77.039-701.663-31.516-268.97-64.782-501.188-101.55-694.98l89.294-150.356c91.046 509.54 136.569 995.692 136.569 1460.126zM2617.988 2609.215c0 58.472-152.327 163.721-456.98 314.078-288.895 143.673-456.98 215.51-506.004 215.51 42.021-93.555 183.843-208.828 423.713-347.49 231.116-135.32 406.204-208.828 523.513-223.864 10.505 1.671 15.758 15.036 15.758 41.766zm171.586-1700.697c0 128.639-50.775 193.793-154.077 193.793-36.769 0-59.53-8.353-64.783-23.389-10.505 20.048-33.267 40.095-68.284 58.472-36.769 16.706-66.534 26.73-92.797 26.73-85.793 0-129.565-45.107-129.565-133.65 0-63.484 19.26-131.98 59.53-203.816h82.291c0 11.694-3.501 30.071-14.007 53.46-8.754 23.389-12.256 41.765-12.256 55.13 0 28.401 15.758 41.766 47.274 41.766 68.284 0 103.302-58.472 103.302-178.757l77.038-50.119c-3.501 16.707-5.252 53.46-5.252 106.92 0 50.12 15.758 73.508 50.775 73.508 29.765 0 43.772-43.436 43.772-131.98l64.783-48.448c8.754 111.932 12.256 165.392 12.256 160.38zm-236.369-322.43-50.775 28.4c-7.004-61.813-29.765-138.662-71.786-228.875-42.021-90.214-84.042-157.04-127.814-200.475l71.786-183.77c119.06 35.084 178.59 197.135 178.59 486.153v98.567zm-3816.917 1035.788c0 41.765-1.75 73.507-3.502 93.554l-61.28 11.695c-1.751-76.849-17.51-158.71-45.523-243.911-35.018-96.897-78.79-167.063-129.565-208.829l22.76-223.863c68.285 38.424 122.563 125.297 162.833 260.617 36.768 113.603 54.277 217.181 54.277 310.737zm786.145-1049.153c0 13.365-12.256 46.777-36.769 101.908-35.017 76.849-96.298 131.98-183.842 163.721-82.291 25.06-164.583 50.119-248.625 76.849-1.75-10.024-3.502-15.036-3.502-15.036 0-28.4 36.769-65.154 110.306-110.26 63.031-36.755 115.558-61.814 157.579-75.18-42.021-11.693-68.284-18.376-77.039-18.376-117.309 0-182.091 5.012-196.098 15.036-1.751 1.67-8.755 10.023-21.01 21.718-12.257 13.365-21.011 20.047-26.264 20.047-3.502 0-12.256-3.341-24.512-10.023-10.506-6.683-17.51-11.695-17.51-15.036 0-15.036 8.755-41.766 28.015-81.86 38.52-93.556 138.32-142.004 295.899-142.004 115.558 0 189.095 3.341 215.358 8.353 19.26 5.012 28.014 25.06 28.014 60.143zM-587.873 29.77c0 55.13-131.315 145.344-393.947 273.982-164.583 76.849-329.166 153.698-491.998 228.876-10.505 15.035-31.515 23.389-63.031 23.389l-14.007-3.342c77.038-165.392 343.172-339.137 796.65-517.894 89.295-33.412 140.07-50.118 152.326-50.118h1.751c8.755 18.377 12.256 33.412 12.256 45.107zm971.739 738.416c0 61.813-15.758 125.297-47.274 188.78-36.769 78.52-84.042 116.944-141.821 116.944-10.506 0-26.264-5.012-50.776-11.694-29.765 40.095-75.288 58.472-138.32 58.472-85.792 0-127.814-50.119-127.814-152.027 0-133.65 35.018-200.475 103.302-200.475 8.755 0 14.007 5.012 15.758 16.706 1.751 5.012 1.751 16.706 0 31.742-1.75 16.706-3.502 25.06-3.502 25.06 0 61.813 19.26 93.554 56.029 93.554 56.028 0 84.042-61.813 84.042-183.768l43.772-48.448c14.007 1.67 24.512 28.4 31.516 80.19 7.003 51.789 22.761 78.519 49.024 78.519 35.018 0 52.527-46.778 52.527-138.662l63.031-36.754c7.004 15.036 10.506 41.766 10.506 81.86zM630.74 88.241c0 56.802-129.565 150.357-392.197 277.324C73.96 444.085-92.374 519.263-255.205 594.441c-12.257 16.706-33.267 23.389-66.534 23.389l-10.505-3.342c43.772-91.884 192.597-210.498 446.474-355.843 245.123-142.003 414.96-212.17 507.755-212.17 5.253 28.401 8.755 41.766 8.755 41.766zm884.194 2104.989c0 53.46-17.509 81.86-50.776 88.542-26.263-233.887-52.526-467.775-77.038-701.662-31.516-270.641-64.783-502.858-101.551-696.65l92.796-152.028c91.046 537.941 136.569 1024.093 136.569 1461.797zm-8586.314 579.706c0-23.389-5.252-38.424-12.256-41.765-101.55 13.365-238.12 83.53-411.456 212.17-190.846 140.332-285.394 258.946-285.394 359.184v-20.048c31.516-33.412 164.583-120.285 400.952-260.617 204.853-118.615 308.155-200.476 308.155-248.924zm1694.852-101.908c0 23.389-7.003 60.143-22.761 110.261-21.011 58.472-38.52 88.544-54.278 88.544-22.761 0-68.284-20.048-134.817-58.472-66.534-38.425-101.551-66.825-105.053-85.202h3.502c1.75-35.083 12.256-70.167 31.515-110.262 17.51-38.424 42.021-63.483 68.285-76.848 143.572 56.801 213.607 100.237 213.607 131.98z"/><path style="fill:#a4a7d3" d="M-5068.373 2609.215c0 23.389-7.004 60.142-19.26 110.261-19.26 58.472-36.768 88.543-54.277 88.543-22.762 0-68.284-20.047-136.569-58.471-66.533-38.425-101.55-66.825-106.803-86.873h3.501c0-23.389 10.506-60.143 29.765-106.92 22.762-55.13 45.523-81.86 64.783-81.86 14.007 0 54.277 20.047 120.81 58.471 66.534 40.095 98.05 65.155 98.05 76.849zm640.822 367.538c0 43.436 0 75.178-3.502 96.896l-61.28 11.694c-1.752-78.52-17.51-158.71-43.773-243.911-36.768-98.567-80.54-167.063-131.316-208.828l24.512-227.205c66.534 40.095 120.811 126.967 162.832 260.617 35.018 111.932 52.527 215.51 52.527 310.737zM-6202.943 303.752c0 13.365-12.256 46.778-35.018 101.908-35.017 76.849-96.298 131.98-183.842 163.722-84.042 25.059-166.334 50.118-250.376 76.848-1.75-10.023-1.75-13.365-1.75-13.365 0-28.4 36.768-65.154 112.056-111.932 63.031-38.424 115.558-63.483 157.579-75.178-42.021-11.694-68.285-16.706-77.039-16.706-117.309 0-182.092 3.341-196.099 13.365-1.75 1.67-8.754 10.024-22.76 23.389-12.257 13.365-21.011 18.377-24.513 18.377-7.004 0-14.007-3.342-26.263-8.354-10.506-6.682-15.758-13.365-15.758-16.706 0-15.035 8.754-41.765 26.263-81.86 40.27-93.555 138.32-142.004 297.65-142.004 122.56 0 194.347 3.342 215.358 10.024 15.757 3.341 24.512 23.389 24.512 58.472zm4692.357 2973.713c0 58.472-150.576 162.05-455.229 314.078-288.895 140.332-458.73 212.17-507.755 212.17 78.79-167.063 344.924-339.138 798.401-517.895 87.544-33.412 138.32-51.79 150.576-51.79l5.253 3.342c7.003 15.036 8.754 28.4 8.754 40.095zM-3158.164 49.817c-56.028 76.849-379.94 217.181-971.738 417.656-465.734 158.71-1013.759 330.784-1645.827 514.553-576.039 167.063-901.702 253.935-978.741 260.617l-26.263-20.047c68.284-83.531 192.596-160.38 369.435-225.534 36.769-13.365 180.34-56.802 434.218-130.31 477.99-143.673 955.98-285.676 1433.97-427.68 884.195-262.287 1344.676-392.596 1384.946-392.596v3.341zm723.114 2424.077c0 21.719-7.004 58.472-21.011 110.262-17.509 58.472-35.018 86.872-52.526 86.872-24.513 0-70.035-18.377-136.569-56.801-66.533-38.425-103.302-68.496-106.804-86.873h3.502c0-28.4 10.505-66.825 31.516-115.273 22.761-46.777 45.523-71.837 68.284-71.837 15.758 0 56.028 20.048 119.06 56.802 63.032 38.424 94.548 63.483 94.548 76.848zm-183.843-726.722c0 91.885-22.761 180.428-71.786 265.63-52.526 95.225-122.561 155.368-206.604 178.757-14.007 21.718-21.01 58.472-21.01 106.92 0 113.602-75.288 237.229-224.113 374.22s-281.891 205.487-400.951 205.487c-75.288 0-159.33-23.39-252.127-70.167-92.796-48.448-161.08-101.908-201.351-162.05l31.516-28.4c36.768 36.753 134.818 53.46 294.148 53.46 98.049 0 227.614-40.096 388.695-120.286 175.088-91.884 264.383-178.757 264.383-260.617 0-26.73-14.007-55.131-38.52-85.202-36.768-45.107-56.028-70.167-59.53-76.85 7.004-81.86 21.011-136.99 42.022-162.05 21.01-25.06 68.284-38.424 141.82-38.424 47.274 0 94.548-20.048 141.822-60.143 47.274-41.765 71.786-83.53 71.786-128.638 0-113.602-29.765-282.335-89.295-504.529-59.53-222.193-89.295-387.585-89.295-494.505 0-177.086 28.014-265.63 82.292-265.63l33.266 5.013c0 71.837 26.264 123.626 77.04 155.368 5.252 38.424 8.753 71.837 8.753 98.567 0 11.694-5.252 28.4-14.007 51.79-10.505 21.717-15.757 38.424-15.757 45.106 0 101.908 17.508 253.935 54.277 457.751 35.017 203.817 52.526 357.514 52.526 459.422zm-560.281-1040.799c0 61.813-15.758 125.297-47.274 188.78-36.768 76.85-85.793 115.274-141.821 115.274-10.506 0-28.014-3.342-50.776-10.024-29.765 38.424-75.287 58.472-136.568 58.472-87.544 0-129.565-50.119-129.565-152.027 0-133.65 33.266-200.475 103.302-200.475 7.003 0 12.256 5.012 14.007 16.706 1.75 6.683 1.75 18.377 0 33.413-1.751 16.706-1.751 25.059-1.751 25.059 0 60.142 17.508 90.214 56.028 90.214 54.277 0 82.291-60.143 82.291-183.77l45.523-45.106c12.256 1.67 24.512 28.4 31.516 80.19 8.754 50.119 24.512 75.178 50.775 75.178 33.267 0 50.776-45.107 50.776-138.662l61.28-36.753c8.755 20.047 12.257 46.777 12.257 83.53zm1159.082 1371.583c0 50.119-15.758 78.52-50.775 85.202-24.513-233.887-50.776-467.775-77.04-701.663-31.515-270.64-64.782-502.858-99.8-696.65l91.046-150.357c91.046 537.942 136.569 1025.764 136.569 1463.468zM6894.973 807.97c-31.516 0-69.162 137.503-111.184 408.144l7.721 2.947c22.761 0 44.054-16.684 63.314-50.097 19.259-33.412 36.744-48.623 52.503-48.623 182.091 312.407 270.239 530.582 270.24 654.208-.001 65.154-142.046 97.247-194.573 97.247-70.035 0-170.994-50.064-174.497-125.243l-63.313 35.363c0 96.896-43.595 249.012-171.41 249.012-19.26 0-74.121-29.853-74.122-51.57 0-80.19-6.48-135.152-16.986-163.553l-49.416 27.995c0 198.805-218.068 290.268-398.41 290.269-101.551 0-162.84-149.607-222.368-142.924-211.557 27.941-416.77 64.265-690.268 38.31v-2.948c-219.456-24.313-455.802-45.756-654.75-73.672v-5.893c-71.787-5.012-150.68-48.197-234.723-126.716-84.042-80.19-152.649-117.876-206.926-117.876-152.326 0-227 136.91-227 412.564-217.11 212.17-436.098 359.093-653.207 437.612v53.044c194.347-23.389 339.172-59.31 435.47-106.088 122.562-61.813 222.542-164.473 299.58-306.476 42.021 68.496 121.633 101.668 242.443 101.668 101.551 0 162.752-24.83 183.763-76.62 107.666 36.04 360.974 28.805 770.568 66.306v1.473c1.478-.176 3.152.176 4.633 0 2.14.197 4.027-.2 6.176 0v-1.473c253.351-30.08 534.97-59.362 748.949-89.88 3.501 0 95.598 184.18 188.395 184.18 103.302 0 274.643-40.331 328.92-135.557 70.035 55.13 178.476 37.822 262.518 29.47 75.288-90.215 144.308-210.638 203.838-360.994 40.27 120.285 115.564 181.233 222.368 181.233 161.08 0 240.9-187.954 240.899-318.263 0-324.102-194.078-699.673-381.424-963.631l-7.72-2.947zM4041.248 1902.739c38.519 0 58.68 33.172 58.68 101.668l-143.613-60.411c31.516-28.401 58.67-41.256 84.933-41.257zm117.514-2497.783c0 90.213-45.523 173.745-136.569 250.593-89.295 78.52-183.842 116.944-278.39 116.944-35.017 0-75.287-11.694-122.561-35.083-47.274-25.06-78.79-36.754-99.8-36.754-22.762 0-49.025 23.39-77.039 66.825-28.014 45.107-54.277 68.496-78.79 70.167 5.253-68.496 35.018-135.321 89.295-200.475 54.278-65.155 117.31-96.897 185.593-96.897 33.267 0 73.537 8.353 119.06 25.06 43.772-56.802 85.793-113.603 129.565-172.075 59.53-65.154 122.562-96.896 187.344-96.896 22.762 0 43.773 11.694 59.53 35.083 15.758 25.06 22.762 48.448 22.762 73.508zm-159.33 46.777c-31.516 3.341-64.783 18.377-101.551 50.119-35.018 31.742-56.028 63.484-64.783 95.226 3.502 1.67 8.755 1.67 12.256 1.67 47.274 0 80.54-6.682 98.05-21.718 36.768-33.412 56.028-75.178 56.028-125.297zM3255.308 1981.06c0 101.908-8.754 177.086-24.512 227.205-26.264 86.872-80.54 130.309-162.832 130.309-68.284 0-131.316-23.39-185.593-70.167-56.028-46.777-94.548-101.908-113.807-165.392-14.007 73.508-52.527 136.992-115.558 190.452-63.032 55.13-133.067 81.86-210.106 81.86-119.06 0-210.106-65.154-276.639-193.792-28.014 51.79-99.8 76.849-210.106 76.849-145.323 0-218.86-33.413-218.86-98.567 0-193.793 148.825-344.149 444.724-447.728l-5.253-101.908c17.509-20.047 35.018-41.766 52.527-65.154 17.508-21.718 26.263-45.107 26.263-66.825 21.01 130.309 40.27 260.617 59.53 392.597 31.516 188.78 89.295 284.006 175.088 284.006 64.782 0 113.807-31.742 148.824-93.555 29.765-50.119 43.772-106.92 43.772-173.745 0-50.119-7.003-115.273-21.01-193.793-17.509-100.237-28.014-165.392-31.516-195.463 21.01-21.718 38.52-53.46 49.025-96.896 12.256-43.436 26.263-73.508 38.519-90.214 54.277 235.558 89.295 382.573 106.804 437.704 71.786 220.523 150.575 332.454 234.617 332.454 28.015 0 42.022-48.448 42.022-145.344 0-45.107-24.513-135.32-73.537-268.97-40.27-111.933-77.039-202.146-110.306-268.971 15.758-18.377 33.267-51.79 50.776-101.909 19.26-48.448 38.52-81.86 56.028-101.908 12.256 51.79 57.779 182.099 138.32 390.927 61.28 163.721 92.796 295.7 92.796 395.938zm-1132.819-36.754c0-21.718-3.502-41.765-8.754-58.472h-17.51c-78.789 0-133.066 30.072-161.08 90.214 0 5.012-1.751 15.036-5.253 28.4 0 1.671-1.75 3.342-3.502 5.012 0 15.036 7.004 28.401 21.011 41.766 14.007 11.695 29.765 18.377 45.523 18.377 85.793 0 129.565-41.766 129.565-125.297z"/><path style="fill:#a4a7d3" d="M-1559.61 2340.244c-10.506 816.936-1013.76 1226.24-2888.952 1226.24-810.657 0-2057.283-218.853-2661.337-1149.39l38.52-23.39c919.211 684.957 1822.665 875.408 2768.14 875.408 1328.918 0 2428.47-242.24 2619.316-725.051-70.035-145.345-105.053-260.618-105.053-344.15 0-55.13 24.512-106.92 75.288-157.038h22.761c19.26 0 56.028 6.682 110.306 20.048 52.526 13.365 91.046 20.047 112.056 20.047v1.67c210.106-5.011 332.667-46.777 367.685-123.626 64.782-145.344 161.08-250.593 287.144-315.748 59.53-30.071 204.853-78.52 435.969-145.344-78.79-51.79-171.586-78.52-281.892-78.52-33.266 0-98.049 5.012-194.347 13.365-84.042 8.353-150.576 10.024-201.351 6.683 22.761-190.451 115.558-285.677 278.39-285.677 117.308 0 292.396 35.083 521.762 103.579 238.12 71.837 418.46 110.261 539.27 116.944L191.27 1581.78c-92.797 5.012-199.6 13.366-318.66 28.401-190.846 295.7-285.394 544.624-285.394 750.11 0 113.603 33.267 205.488 99.8 273.983 66.534 70.167 157.58 105.25 276.64 105.25 98.049 0 227.614-40.095 388.695-121.956 173.337-88.543 260.88-175.416 260.88-260.617 0-26.73-15.757-60.143-47.273-96.897-31.516-36.753-47.274-58.472-47.274-63.484 0-76.848 12.256-130.308 40.27-158.709 26.264-28.4 73.538-41.766 143.573-41.766 47.273 0 94.547-20.047 141.82-61.813 47.275-40.095 71.787-83.53 71.787-128.638 0-58.472-42.021-235.558-122.562-534.6-87.544-310.736-150.575-494.505-192.596-551.306-28.014 48.448-42.021 73.507-42.021 73.507 0 78.52 19.26 202.146 57.779 367.538 38.519 167.062 57.779 292.36 57.779 379.232 0 55.13-15.758 105.25-47.274 150.356l3.502-71.837c3.501-100.237-17.51-245.582-63.032-432.692-47.274-195.463-70.035-339.137-70.035-432.692 0-100.237 31.516-148.685 98.049-148.685 110.305 0 213.607 178.757 308.155 539.612 75.288 292.359 112.056 516.223 112.056 669.92 0 93.555-22.761 182.098-70.035 267.3-54.277 95.226-122.562 155.369-208.355 177.087-14.007 23.388-21.01 58.472-21.01 108.59 0 128.639-78.79 258.947-234.618 387.585-157.58 126.968-306.404 192.122-446.474 192.122-157.58 0-281.892-51.79-374.689-153.697-92.796-101.908-138.32-227.205-138.32-379.232 0-218.852 91.047-482.81 271.387-791.876-271.386 38.424-455.228 101.908-549.776 190.45 71.786 76.85 108.555 160.38 108.555 248.924 0 58.472-10.506 108.59-31.516 148.686-26.263 55.13-66.534 83.53-122.562 83.53-94.547 0-190.846-46.777-290.646-136.99-22.761 68.495-87.544 120.285-192.597 158.709-59.53 21.718-120.81 40.095-183.842 41.766-49.024 1.67-80.54-5.012-91.046-16.707zm723.113-350.831c0-41.766 1.75-98.567-59.53-98.567-26.264 0-73.537 18.377-73.537 48.448 50.775 33.413 77.038 50.119 133.067 50.119zM1683.018 108.289c0 78.52-43.772 158.71-129.565 242.24-87.544 83.532-171.586 125.297-252.127 125.297-47.273 0-98.049-11.694-148.824-35.083-50.776-23.388-85.793-35.083-103.302-35.083-24.513 0-50.776 21.718-78.79 66.825-28.014 43.437-56.028 66.825-82.291 68.496 8.754-68.496 38.52-133.65 89.295-195.463 56.028-66.825 117.309-100.238 187.344-100.238 38.52 0 78.79 8.353 119.06 25.06 42.02-56.802 85.793-115.274 129.565-173.745 61.28-63.484 124.312-95.226 187.344-95.226 22.761 0 43.772 11.694 59.53 35.083 15.758 23.389 22.761 48.448 22.761 71.837zm-159.33 45.107c-31.516 1.67-66.533 20.047-101.55 51.79-35.018 31.741-57.78 63.483-64.783 95.225 3.501 3.341 8.754 3.341 14.007 3.341 101.55 0 152.326-50.119 152.326-150.356zM-1850.257-10.325c0 76.848-43.772 158.709-129.565 242.24s-169.835 125.297-253.877 125.297c-47.274 0-96.299-11.694-147.074-35.083-52.526-23.389-87.544-35.083-106.804-35.083-24.512 0-50.775 21.718-77.038 66.825-28.015 43.436-54.278 66.825-80.541 68.495 5.253-66.825 35.018-133.65 91.046-198.804 54.277-65.154 115.558-98.567 183.842-98.567 35.018 0 73.537 8.353 119.06 26.73 43.772-56.801 87.544-115.273 131.316-173.745 61.28-63.484 122.561-95.226 185.593-95.226 24.512 0 43.772 11.695 59.53 35.084 15.758 23.388 24.512 46.777 24.512 71.837zm-161.08 48.448c-31.516 1.67-64.783 18.377-99.8 50.118-36.77 30.072-57.78 61.814-66.534 93.555 5.252 1.671 10.505 3.342 15.758 3.342 47.273 0 78.79-6.683 94.547-20.048 38.52-31.742 56.028-73.507 56.028-126.967z"/><path style="fill:#a4a7d3" d="m-3144.157 1581.78-183.842 222.194c-29.765 3.34-61.28 5.012-94.548 5.012-38.519 0-98.049-3.342-176.838-10.024-77.039-6.683-134.818-10.024-169.836-10.024-126.063 0-252.126 40.095-379.94 121.956-49.025 30.07-141.822 103.578-278.39 220.522-94.548 81.86-166.334 121.956-213.608 121.956-77.038 0-150.575-80.19-218.86-237.229-210.105 185.44-731.867 350.831-1122.313 350.831-548.026 0-761.633-96.896-878.942-150.356l-162.832 78.52c-115.558 0-194.347-33.413-239.87-101.909-122.562 227.205-295.899 364.197-516.51 412.645v-53.46c0-18.377 64.783-90.214 196.099-217.182 77.039-73.507 154.077-147.015 234.618-220.522-3.502-275.653 73.537-412.645 231.116-412.645 24.512 0 105.053 13.365 192.597 95.226 243.372 232.217 470.986 302.383 1073.289 302.383 477.99 0 735.37-101.908 1031.268-225.534 71.786 98.567 143.572 147.015 217.109 147.015 47.274 0 115.558-26.73 206.604-78.52 155.828-93.554 246.874-143.673 269.635-153.697 119.06-58.472 231.116-91.884 337.92-98.567-138.32-28.4-292.397-45.107-462.232-51.79-288.896-13.364-435.97-20.047-444.724-20.047 24.513-190.451 117.31-285.677 278.39-285.677 145.323 0 353.678 40.095 628.566 116.944 290.646 80.19 506.004 125.297 646.074 131.98zm-3930.724 390.927c0-46.778-10.505-78.52-29.765-93.555-5.253-3.341-10.505-5.012-12.256-5.012h-21.01c-26.264 0-54.278 13.365-82.292 40.095l145.323 58.472z"/></svg>