<svg xmlns="http://www.w3.org/2000/svg" viewBox="0 0 833.74 850"><g data-name="Layer 2"><path fill="#656669" d="m479.86 425.21 109.97-163.73-164.11 109.71-164.11-109.71 109.97 163.73-109.97 163.72 164.11-109.71 164.11 109.71-109.97-163.72z"/><path fill="#14294c" d="m393.3 453.59 196.53 131.38-328.22-327.45L393.3 453.59z"/><path fill="#2e4160" d="m261.61 257.52 328.22 327.45L458.14 388.9 261.61 257.52z"/><path fill="#14294c" d="M393.3 388.9 261.61 584.97l328.22-327.45L393.3 388.9z"/><path fill="#2e4160" d="M589.83 257.52 261.61 584.97l196.53-131.38 131.69-196.07z"/><path d="M475.51 421.25a49.79 49.79 0 1 1-49.79-49.67 49.72 49.72 0 0 1 49.79 49.67Z" fill="#14294c"/><path d="M427 542.51c-68.1 0-123.51-55.28-123.51-123.23S358.91 296.05 427 296.05s123.52 55.28 123.52 123.23S495.12 542.51 427 542.51Zm0-244.66c-67.11 0-121.72 54.47-121.72 121.43S359.9 540.72 427 540.72s121.72-54.48 121.72-121.44S494.13 297.85 427 297.85Z" fill="#14294c"/><path d="M427 563.48c-79.7 0-144.54-64.69-144.54-144.2s64.85-144.2 144.54-144.2 144.54 64.69 144.54 144.2-64.83 144.2-144.54 144.2Zm0-280c-75 0-136.09 60.91-136.09 135.77S352 555.05 427 555.05s136.1-60.9 136.1-135.77S502.05 283.51 427 283.51Z" fill="#14294c"/><path d="M427 757.8a334 334 0 1 1 236.74-570.18A334 334 0 0 1 427 757.8Zm0-662a328.4 328.4 0 1 0 232.5 96.05A327 327 0 0 0 427 95.78Z" fill="#14294c"/><path fill="#14294c" d="M424.45 53.19h5.13v39.6h-5.13zM424.45 754.8h5.13v39.6h-5.13zM363.248 74.53l3.94-.695 4.18 23.663-3.939.696zM482.65 750.13l3.938-.697 4.181 23.664-3.939.696zM311.66 113.43l-8.24-22.57 3.76-1.37 8.24 22.58-3.76 1.36zM546.85 758.1l-8.24-22.57 3.76-1.37 8.24 22.58-3.76 1.36zM259.39 138.13l-12.04-20.8 3.46-2 12.04 20.81-3.46 1.99zM603.22 732.26l-12.04-20.8 3.46-2 12.04 20.81-3.46 1.99zM212.22 171.51l-15.48-18.4 3.06-2.57 15.48 18.41-3.06 2.56zM654.23 697.05l-15.48-18.4 3.07-2.57 15.47 18.41-3.06 2.56zM171.57 212.56l-18.45-15.44 2.57-3.06 18.45 15.44-2.57 3.06zM698.34 653.54l-18.45-15.45 2.57-3.05 18.45 15.44-2.57 3.06zM138.68 260.02l-20.86-12.01 2-3.46 20.86 12.01-2 3.46zM734.21 603.04l-20.86-12.01 2-3.46 20.86 12.02-2 3.45zM114.56 312.46l-22.64-8.22 1.37-3.75 22.63 8.22-1.36 3.75zM760.74 547.1l-22.63-8.22 1.37-3.75 22.63 8.22-1.37 3.75zM76.214 364.12l.69-3.93 23.717 4.17-.691 3.93zM753.362 483.183l.69-3.93 23.717 4.169-.691 3.93zM55.54 421.23h39.69v5.12H55.54zM758.81 421.23h39.69v5.12h-39.69zM76.218 483.48l23.713-4.19.694 3.93-23.713 4.19zM753.42 364.328l23.714-4.19.694 3.93-23.713 4.19zM93.3 547.1l-1.37-3.75 22.63-8.22 1.36 3.75-22.62 8.22zM739.48 312.46l-1.37-3.75 22.63-8.22 1.37 3.75-22.63 8.22zM119.83 603.04l-2-3.46 20.85-12.01 2 3.46-20.85 12.01zM715.35 260.02l-2-3.46 20.86-12.01 2 3.45-20.86 12.02zM155.69 653.53l-2.57-3.05 18.45-15.45 2.57 3.06-18.45 15.44zM682.47 212.55l-2.58-3.05 18.45-15.45 2.57 3.06-18.44 15.44zM199.8 697.05l-3.06-2.57 15.48-18.4 3.06 2.56-15.48 18.41zM641.82 171.51l-3.07-2.57 15.48-18.4 3.07 2.56-15.48 18.41zM250.82 732.26l-3.47-2 12.04-20.81 3.47 2-12.04 20.81zM594.64 138.13l-3.46-2 12.04-20.8 3.46 1.99-12.04 20.81zM307.18 758.1l-3.76-1.37 8.24-22.58 3.76 1.37-8.24 22.58zM542.37 113.43l-3.75-1.37 8.23-22.57 3.76 1.36-8.24 22.58zM363.253 773.047l4.16-23.667 3.94.692-4.16 23.668zM482.65 97.458l4.16-23.667 3.94.693-4.16 23.667zM413.961 81.141l1.71-.051.356 11.87-1.71.051zM437.87 756.681l1.71-.06.416 11.863-1.71.06zM403.036 79.858l1.71-.12.831 11.87-1.71.12zM449.49 756.11l1.706-.12.83 11.841-1.706.12zM390.011 80.787l1.701-.18 1.243 11.805-1.7.18zM461.036 755.171l1.7-.179 1.243 11.805-1.7.179zM378.038 82.316l1.694-.238 1.654 11.754-1.694.238zM472.64 753.764l1.693-.238 1.657 11.764-1.693.238zM356.76 98.16l-2.47-11.62 1.67-.35 2.47 11.61-1.67.36zM495.599 749.773l1.672-.356 2.474 11.61-1.672.356zM345.41 100.8l-2.88-11.52 1.66-.41 2.88 11.52-1.66.41zM509.83 758.72l-2.88-11.52 1.67-.41 2.88 11.52-1.67.41zM334.16 103.84l-3.28-11.41 1.65-.47 3.28 11.41-1.65.47zM521.5 755.64l-3.28-11.42 1.64-.47 3.29 11.42-1.65.47zM323.02 107.27l-3.67-11.29 1.63-.53 3.67 11.29-1.63.53zM533.05 752.14l-3.68-11.29 1.63-.53 3.68 11.3-1.63.52zM301.15 115.28l-4.46-11.01 1.59-.64 4.45 11.01-1.58.64zM555.75 743.97l-4.46-11.01 1.59-.64 4.46 11.01-1.59.64zM290.43 119.85 285.59 109l1.57-.69 4.84 10.84-1.57.7zM566.87 739.29l-4.84-10.85 1.57-.69 4.84 10.84-1.57.7zM279.88 124.79l-5.21-10.67 1.53-.75 5.22 10.67-1.54.75zM577.83 734.23l-5.22-10.68 1.53-.75 5.22 10.68-1.53.75zM269.51 130.09l-5.58-10.48 1.51-.8 5.58 10.48-1.51.8zM588.59 728.78 583 718.3l1.52-.8 5.58 10.48-1.51.8zM249.36 141.77l-6.31-10.07 1.45-.91 6.31 10.07-1.45.91zM609.52 716.8l-6.3-10.07 1.45-.91 6.31 10.07-1.46.91zM239.6 148.13l-6.65-9.85 1.42-.95 6.65 9.84-1.42.96zM619.66 710.26l-6.65-9.84 1.42-.95 6.65 9.84-1.42.95zM230.07 154.82l-6.99-9.6 1.38-1.01 7 9.61-1.39 1zM629.57 703.38l-7-9.6 1.38-1.01 7 9.61-1.38 1zM220.78 161.84l-7.32-9.35 1.35-1.05 7.32 9.35-1.35 1.05zM639.22 696.16l-7.32-9.36 1.35-1.05 7.32 9.36-1.35 1.05zM202.97 176.83l-7.96-8.82 1.27-1.15 7.96 8.83-1.27 1.14zM657.75 680.73l-7.96-8.83 1.27-1.14 7.96 8.83-1.27 1.14zM194.47 184.78l-8.27-8.54 1.23-1.18 8.27 8.54-1.23 1.18zM666.6 672.54l-8.27-8.54 1.23-1.19 8.27 8.54-1.23 1.19zM186.25 193.03l-8.56-8.25 1.19-1.23 8.56 8.25-1.19 1.23zM675.15 664.05l-8.56-8.25 1.19-1.23 8.56 8.25-1.19 1.23zM178.32 201.55l-8.84-7.95 1.15-1.26 8.84 7.94-1.15 1.27zM683.4 655.26l-8.84-7.94 1.15-1.28 8.84 7.95-1.15 1.27zM163.39 219.4l-9.38-7.31 1.05-1.35 9.38 7.31-1.05 1.35zM698.97 636.85l-9.38-7.31 1.05-1.34 9.38 7.31-1.05 1.34zM156.4 228.7l-9.63-6.98 1.01-1.38 9.62 6.98-1 1.38zM706.25 627.25l-9.62-6.98 1-1.38 9.63 6.98-1.01 1.38zM149.74 238.24l-9.87-6.64.96-1.41 9.86 6.64-.95 1.41zM713.2 617.41l-9.87-6.64.96-1.42 9.87 6.64-.96 1.42zM143.41 248.01l-10.08-6.29.9-1.45 10.09 6.29-.91 1.45zM719.8 607.33l-10.09-6.3.91-1.44 10.09 6.29-.91 1.45zM131.82 268.17l-10.51-5.57.8-1.51 10.51 5.57-.8 1.51zM731.92 586.5l-10.51-5.57.81-1.51 10.5 5.57-.8 1.51zM126.55 278.55l-10.69-5.21.75-1.53 10.69 5.2-.75 1.54zM737.43 575.79l-10.7-5.21.75-1.53 10.7 5.2-.75 1.54zM121.65 289.1l-10.87-4.84.7-1.56 10.87 4.84-.7 1.56zM742.55 564.89l-10.87-4.83.7-1.56 10.87 4.83-.7 1.56zM117.13 299.81l-11.03-4.45.64-1.58 11.03 4.45-.64 1.58zM747.29 553.82l-11.03-4.45.64-1.59 11.04 4.45-.65 1.59zM109.21 321.68l-11.31-3.67.53-1.63 11.31 3.67-.53 1.63zM755.61 531.21l-11.32-3.67.53-1.62 11.32 3.66-.53 1.63zM105.83 332.8l-11.43-3.27.47-1.64 11.44 3.27-.48 1.64zM747.686 516.378l.47-1.644 11.442 3.274-.47 1.644zM91.306 341.146l.413-1.66 11.548 2.874-.413 1.659zM762.32 508.08l-11.55-2.87.41-1.66 11.55 2.87-.41 1.66zM88.62 352.916l.355-1.672 11.64 2.472-.355 1.673zM765.06 496.35l-11.64-2.47.35-1.67 11.65 2.47-.36 1.67zM84.475 376.606l.238-1.694 11.784 1.652-.237 1.694zM758.226 471.741l.24-1.693 11.78 1.666-.239 1.693zM83.045 388.586l.178-1.7 11.835 1.243-.179 1.7zM758.98 459.467l.179-1.701 11.835 1.244-.179 1.7zM83.011 400.504l.12-1.71 11.9.833-.12 1.71zM759.974 447.858l.118-1.706 11.872.826-.119 1.706zM81.415 412.624l.06-1.71 11.893.418-.06 1.709zM760.714 436.312l.06-1.709 11.892.415-.06 1.71zM79.343 435.647l11.9-.358.051 1.71-11.9.357zM760.664 411.312l11.893-.415.06 1.709-11.893.415zM82.043 447.007l11.87-.83.12 1.706-11.871.83zM760.032 399.678l11.87-.83.12 1.705-11.871.83zM83.067 459l11.834-1.246.18 1.7-11.835 1.246zM758.99 388.092l11.834-1.253.18 1.701-11.834 1.252zM84.485 470.966l11.784-1.66.238 1.693-11.783 1.66zM757.526 376.597l11.784-1.66.238 1.693-11.784 1.66zM88.97 496.35l-.35-1.67 11.64-2.47.35 1.67-11.64 2.47zM753.78 355.38l-.36-1.68 11.64-2.46.36 1.67-11.64 2.47zM91.303 506.425l11.545-2.885.414 1.66-11.545 2.884zM751.18 344.04l-.41-1.66 11.55-2.87.41 1.66-11.55 2.87zM94.87 519.7l-.47-1.64 11.44-3.27.47 1.64-11.44 3.27zM748.2 332.8l-.47-1.64 11.44-3.27.47 1.64-11.44 3.27zM98.43 531.21l-.53-1.63 11.32-3.66.52 1.62-11.31 3.67zM744.82 321.67l-.53-1.62 11.32-3.67.52 1.63-11.31 3.66zM106.74 553.81l-.64-1.58 11.03-4.45.64 1.59-11.03 4.44zM736.9 299.81l-.64-1.59 11.04-4.45.64 1.59-11.04 4.45zM111.48 564.88l-.7-1.55 10.88-4.83.69 1.55-10.87 4.83zM732.38 289.09l-.7-1.56 10.87-4.83.7 1.56-10.87 4.83zM116.61 575.78l-.75-1.53 10.69-5.2.75 1.53-10.69 5.2zM727.48 278.54l-.75-1.53 10.7-5.21.75 1.54-10.7 5.2zM122.12 586.5l-.81-1.51 10.51-5.57.8 1.51-10.5 5.57zM722.22 268.17l-.81-1.51 10.51-5.57.8 1.51-10.5 5.57zM134.23 607.32l-.9-1.45 10.09-6.29.91 1.45-10.1 6.29zM710.62 248l-.91-1.44 10.09-6.3.91 1.45-10.09 6.29zM140.83 617.4l-.95-1.41 9.86-6.64.96 1.42-9.87 6.63zM704.29 238.24l-.96-1.42 9.87-6.64.96 1.42-9.87 6.64zM147.78 627.25l-1.01-1.38 9.63-6.98 1.01 1.38-9.63 6.98zM697.63 228.7l-1-1.38 9.63-6.98 1 1.38-9.63 6.98zM155.07 636.85l-1.06-1.35 9.38-7.31 1.05 1.35-9.37 7.31zM690.64 219.39l-1.05-1.34 9.38-7.31 1.05 1.35-9.38 7.3zM170.63 655.26l-1.15-1.27 8.84-7.95 1.15 1.27-8.84 7.95zM675.71 201.54l-1.15-1.26 8.85-7.95 1.14 1.27-8.84 7.94zM178.88 664.04l-1.19-1.23 8.56-8.24 1.19 1.22-8.56 8.25zM667.78 193.02l-1.19-1.23 8.57-8.25 1.19 1.23-8.57 8.25zM187.44 672.53l-1.24-1.18 8.27-8.54 1.23 1.18-8.26 8.54zM659.56 184.78l-1.23-1.19 8.27-8.54 1.23 1.19-8.27 8.54zM196.28 680.72l-1.27-1.14 7.96-8.82 1.28 1.14-7.97 8.82zM651.06 176.83l-1.27-1.15 7.96-8.82 1.27 1.15-7.96 8.82zM214.81 696.15l-1.35-1.05 7.33-9.35 1.35 1.05-7.33 9.35zM633.25 161.83l-1.35-1.05 7.33-9.35 1.34 1.05-7.32 9.35zM224.47 703.38l-1.39-1.01 7-9.6 1.38 1-6.99 9.61zM623.95 154.82l-1.38-1.01 7-9.6 1.38 1-7 9.61zM234.37 710.26l-1.42-.96 6.65-9.84 1.42.96-6.65 9.84zM614.43 148.12l-1.42-.95 6.65-9.85 1.42.96-6.65 9.84zM244.51 716.79l-1.45-.9 6.3-10.07 1.45.91-6.3 10.06zM604.67 141.76l-1.45-.9 6.3-10.07 1.46.91-6.31 10.06zM265.44 728.78l-1.51-.8 5.58-10.49 1.52.8-5.59 10.49zM584.52 130.09l-1.51-.8 5.58-10.49 1.52.8-5.59 10.49zM276.21 734.22l-1.54-.75 5.22-10.67 1.54.75-5.22 10.67zM574.14 124.79l-1.53-.75 5.22-10.68 1.54.75-5.23 10.68zM287.16 739.28l-1.57-.69 4.85-10.85 1.56.7-4.84 10.84zM563.6 119.84l-1.56-.69 4.84-10.85 1.56.7-4.84 10.84zM298.28 743.96l-1.59-.64 4.46-11.01 1.59.64-4.46 11.01zM552.88 115.27l-1.59-.64 4.46-11 1.59.64-4.46 11zM320.98 752.14l-1.63-.53 3.68-11.29 1.63.53-3.68 11.29zM531 107.26l-1.62-.52 3.67-11.3 1.63.53-3.68 11.29zM332.53 755.63l-1.65-.47 3.29-11.41 1.64.47-3.28 11.41zM519.87 103.84l-1.65-.47 3.28-11.42 1.65.47-3.28 11.42zM344.2 758.72l-1.66-.42 2.87-11.52 1.66.42-2.87 11.52zM508.62 100.8l-1.66-.41 2.88-11.53 1.66.42-2.88 11.52zM354.307 761.078l2.466-11.611 1.673.355-2.466 11.611zM497.27 98.15l-1.68-.35 2.48-11.61 1.68.36-2.48 11.6zM378.024 765.224l1.65-11.765 1.693.237-1.65 11.765zM472.598 93.811l1.65-11.765 1.693.238-1.65 11.765zM390.022 766.777l1.237-11.805 1.7.178-1.236 11.805zM461.063 92.43l1.237-11.816 1.7.178-1.237 11.815zM402.036 767.828l.824-11.842 1.706.12-.824 11.84zM449.437 91.444l.824-11.842 1.706.119-.824 11.841zM414.08 768.499l.413-11.863 1.709.06-.412 11.862zM439.908 90.994l.474-11.87 1.71.069-.474 11.87z"/><path d="M427 796.4a372.28 372.28 0 1 1 344.14-517.64A372.87 372.87 0 0 1 427 796.4Zm0-741.21a368.29 368.29 0 1 0 340.46 512.09A368.85 368.85 0 0 0 427 55.19Z" fill="#14294c"/><path d="M427.16 651.15H427c-2.16 0-4.34 0-6.48-.09a2.73 2.73 0 1 1 .15-5.46c2.09.06 4.22.09 6.33.09h.14a2.73 2.73 0 1 1 0 5.46Zm13.09-.38a2.73 2.73 0 0 1-.16-5.46c2.14-.13 4.31-.28 6.45-.47a2.74 2.74 0 1 1 .48 5.45c-2.19.19-4.42.35-6.61.47Zm-32.71-.45h-.23c-2.2-.19-4.42-.41-6.6-.66a2.73 2.73 0 0 1 .63-5.43c2.12.25 4.29.46 6.43.65a2.73 2.73 0 0 1-.23 5.45Zm52.24-1.53a2.73 2.73 0 0 1-.39-5.44c2.12-.3 4.26-.65 6.38-1a2.73 2.73 0 1 1 1 5.38c-2.17.38-4.37.73-6.54 1Zm-71.71-1a2.56 2.56 0 0 1-.47 0c-2.17-.38-4.36-.79-6.51-1.23a2.73 2.73 0 1 1 1.09-5.35c2.1.42 4.24.83 6.36 1.2a2.73 2.73 0 0 1-.47 5.42Zm91-2.68a2.73 2.73 0 0 1-.63-5.39c2.09-.5 4.2-1 6.27-1.58a2.73 2.73 0 0 1 1.42 5.28c-2.12.56-4.28 1.11-6.43 1.61a2.72 2.72 0 0 1-.63.09Zm-110.18-1.53a2.94 2.94 0 0 1-.71-.09c-2.11-.56-4.25-1.17-6.37-1.8a2.73 2.73 0 1 1 1.56-5.23c2.07.61 4.16 1.2 6.23 1.75a2.73 2.73 0 0 1-.71 5.37ZM498 639.77a2.73 2.73 0 0 1-.86-5.32c2-.68 4.09-1.39 6.11-2.13a2.73 2.73 0 1 1 1.87 5.14c-2.06.75-4.17 1.48-6.26 2.17a2.54 2.54 0 0 1-.86.14Zm-147.8-2a2.81 2.81 0 0 1-.94-.16c-2.08-.76-4.17-1.55-6.21-2.36a2.73 2.73 0 1 1 2-5.08c2 .79 4 1.57 6.06 2.3a2.73 2.73 0 0 1-.93 5.3Zm166.13-4.92a2.73 2.73 0 0 1-1.09-5.24c2-.85 3.95-1.74 5.88-2.64a2.73 2.73 0 1 1 2.32 5c-2 .93-4 1.84-6 2.71a2.83 2.83 0 0 1-1.15.12ZM332 630.21a2.77 2.77 0 0 1-1.15-.25c-2-.93-4-1.9-6-2.89a2.73 2.73 0 1 1 2.46-4.88c1.92 1 3.88 1.91 5.83 2.82a2.72 2.72 0 0 1-1.16 5.2Zm201.95-6a2.73 2.73 0 0 1-1.3-5.13c1.88-1 3.78-2.08 5.63-3.15a2.74 2.74 0 0 1 2.75 4.73c-1.9 1.1-3.85 2.18-5.78 3.22a2.65 2.65 0 0 1-1.33.38Zm-219.39-3.11a2.71 2.71 0 0 1-1.37-.37c-1.91-1.1-3.83-2.24-5.7-3.39a2.73 2.73 0 1 1 2.88-4.65c1.82 1.12 3.7 2.24 5.56 3.31a2.73 2.73 0 0 1-1.37 5.1Zm236.22-6.93a2.73 2.73 0 0 1-1.5-5c1.78-1.17 3.58-2.39 5.34-3.62a2.73 2.73 0 1 1 3.14 4.47c-1.8 1.27-3.64 2.52-5.47 3.72a2.8 2.8 0 0 1-1.54.48ZM298 610.61a2.66 2.66 0 0 1-1.56-.5 209.8 209.8 0 0 1-5.38-3.87 2.74 2.74 0 1 1 3.27-4.39c1.72 1.28 3.49 2.56 5.25 3.79a2.73 2.73 0 0 1-1.58 5Zm268.7-7.86a2.73 2.73 0 0 1-1.7-4.88c1.69-1.33 3.37-2.7 5-4.07a2.73 2.73 0 1 1 3.52 4.18c-1.68 1.41-3.4 2.81-5.13 4.18a2.76 2.76 0 0 1-1.74.59Zm-284.28-4.08a2.73 2.73 0 0 1-1.76-.64c-1.69-1.41-3.38-2.87-5-4.32a2.74 2.74 0 0 1 3.64-4.09c1.61 1.43 3.25 2.85 4.9 4.22a2.73 2.73 0 0 1-1.76 4.83Zm299.13-8.73a2.73 2.73 0 0 1-1.88-4.72c1.56-1.47 3.12-3 4.64-4.5a2.73 2.73 0 0 1 3.87 3.86c-1.56 1.56-3.16 3.11-4.75 4.61a2.74 2.74 0 0 1-1.93.75Zm-313.61-4.51a2.72 2.72 0 0 1-1.94-.8c-1.56-1.55-3.11-3.14-4.62-4.73a2.74 2.74 0 1 1 4-3.76c1.47 1.56 3 3.11 4.51 4.63a2.72 2.72 0 0 1 0 3.86 2.68 2.68 0 0 1-2 .8Zm327.29-9.54a2.74 2.74 0 0 1-2-4.55 197.6 197.6 0 0 0 4.23-4.89 2.74 2.74 0 0 1 4.2 3.52c-1.42 1.68-2.88 3.37-4.34 5a2.72 2.72 0 0 1-2.14.92ZM254.61 571a2.72 2.72 0 0 1-2.09-1c-1.42-1.68-2.83-3.4-4.19-5.12a2.73 2.73 0 1 1 4.29-3.39c1.33 1.67 2.71 3.35 4.09 5a2.74 2.74 0 0 1-2.1 4.49Zm353-10.3a2.73 2.73 0 0 1-2.19-4.37c1.29-1.72 2.56-3.48 3.8-5.23a2.74 2.74 0 0 1 4.48 3.14c-1.26 1.79-2.57 3.6-3.89 5.36a2.74 2.74 0 0 1-2.21 1.1Zm-365-5.22a2.74 2.74 0 0 1-2.25-1.16c-1.26-1.8-2.51-3.63-3.72-5.46a2.74 2.74 0 0 1 4.57-3c1.18 1.78 2.4 3.58 3.63 5.33a2.73 2.73 0 0 1-.66 3.81 2.77 2.77 0 0 1-1.53.48Zm376-11a2.78 2.78 0 0 1-1.44-.41 2.72 2.72 0 0 1-.89-3.76c1.13-1.83 2.25-3.69 3.33-5.55a2.74 2.74 0 0 1 4.74 2.74c-1.11 1.9-2.25 3.81-3.41 5.68a2.74 2.74 0 0 1-2.28 1.31ZM232.08 539a2.73 2.73 0 0 1-2.37-1.36c-1.1-1.9-2.19-3.83-3.23-5.76a2.73 2.73 0 0 1 4.81-2.6c1 1.88 2.08 3.77 3.16 5.62a2.74 2.74 0 0 1-2.37 4.1Zm396.18-11.62a2.69 2.69 0 0 1-1.23-.3 2.72 2.72 0 0 1-1.22-3.66c1-1.91 1.92-3.87 2.83-5.82a2.74 2.74 0 0 1 5 2.31c-.93 2-1.91 4-2.9 6a2.72 2.72 0 0 1-2.48 1.46ZM223 521.66a2.72 2.72 0 0 1-2.48-1.58c-.93-2-1.85-4-2.72-6a2.74 2.74 0 0 1 5-2.17c.85 2 1.74 3.94 2.65 5.87a2.73 2.73 0 0 1-1.32 3.63 2.68 2.68 0 0 1-1.13.25Zm413.32-12.19a2.75 2.75 0 0 1-1-.2 2.72 2.72 0 0 1-1.53-3.55c.79-2 1.57-4 2.3-6a2.74 2.74 0 0 1 5.15 1.86c-.75 2.07-1.55 4.16-2.36 6.2a2.76 2.76 0 0 1-2.56 1.69Zm-420.85-5.86a2.75 2.75 0 0 1-2.57-1.8c-.75-2.06-1.49-4.16-2.18-6.24a2.74 2.74 0 0 1 5.2-1.72c.67 2 1.39 4.07 2.13 6.09a2.74 2.74 0 0 1-1.64 3.5 2.56 2.56 0 0 1-.94.17Zm427.3-12.67a3 3 0 0 1-.78-.11 2.74 2.74 0 0 1-1.84-3.4c.61-2.05 1.2-4.14 1.76-6.21a2.74 2.74 0 1 1 5.29 1.41c-.57 2.12-1.18 4.27-1.8 6.36a2.74 2.74 0 0 1-2.63 1.95Zm-433.22-6a2.73 2.73 0 0 1-2.64-2c-.57-2.12-1.12-4.28-1.63-6.41a2.74 2.74 0 0 1 5.33-1.27c.5 2.09 1 4.19 1.59 6.26a2.74 2.74 0 0 1-1.94 3.35 2.88 2.88 0 0 1-.71.06Zm438-13a3.53 3.53 0 0 1-.56-.05 2.74 2.74 0 0 1-2.13-3.23c.43-2.1.84-4.23 1.21-6.34a2.74 2.74 0 0 1 5.39.94c-.38 2.17-.79 4.35-1.24 6.5a2.72 2.72 0 0 1-2.65 2.18Zm-442.28-6.13a2.75 2.75 0 0 1-2.69-2.26c-.38-2.15-.73-4.35-1.06-6.53a2.74 2.74 0 0 1 5.42-.79c.32 2.13.66 4.27 1 6.37a2.72 2.72 0 0 1-2.22 3.16 2.61 2.61 0 0 1-.43.05Zm445.4-13.21h-.32a2.73 2.73 0 0 1-2.4-3c.24-2.12.46-4.28.65-6.42a2.74 2.74 0 0 1 5.45.47c-.19 2.19-.41 4.4-.66 6.58a2.75 2.75 0 0 1-2.72 2.37Zm-447.94-6.22a2.73 2.73 0 0 1-2.72-2.49c-.19-2.18-.36-4.4-.49-6.59a2.74 2.74 0 0 1 5.48-.3c.13 2.14.29 4.3.47 6.43a2.72 2.72 0 0 1-2.49 3Zm449.34-13.32H652a2.73 2.73 0 0 1-2.65-2.81c.06-2.14.09-4.31.09-6.45v-.55a2.74 2.74 0 0 1 5.47 0v.56c0 2.2 0 4.42-.09 6.62a2.73 2.73 0 0 1-2.75 2.63Zm-450.2-6.25a2.74 2.74 0 0 1-2.74-2.73v-.27c0-2.11 0-4.23.09-6.34a2.74 2.74 0 0 1 5.47.15c-.06 2.05-.08 4.13-.08 6.18v.28a2.74 2.74 0 0 1-2.74 2.73Zm449.89-13.9a2.73 2.73 0 0 1-2.73-2.57c-.13-2.14-.29-4.31-.48-6.43a2.74 2.74 0 0 1 5.45-.49c.2 2.18.36 4.4.49 6.6a2.74 2.74 0 0 1-2.57 2.89Zm-449.07-5.67h-.24a2.74 2.74 0 0 1-2.49-3c.18-2.18.4-4.39.65-6.57a2.74 2.74 0 0 1 5.45.62c-.25 2.13-.46 4.29-.65 6.42a2.73 2.73 0 0 1-2.72 2.53Zm447.05-13.81a2.74 2.74 0 0 1-2.71-2.34c-.31-2.11-.66-4.26-1-6.36a2.74 2.74 0 0 1 5.39-1c.39 2.16.75 4.35 1.07 6.53a2.73 2.73 0 0 1-2.31 3.1Zm-444.54-5.62a2.56 2.56 0 0 1-.47 0 2.73 2.73 0 0 1-2.23-3.16c.38-2.16.79-4.34 1.23-6.5a2.74 2.74 0 0 1 5.37 1.09c-.43 2.11-.84 4.24-1.2 6.35a2.74 2.74 0 0 1-2.7 2.22ZM646 374.19a2.73 2.73 0 0 1-2.66-2.1c-.5-2.07-1-4.17-1.59-6.25a2.73 2.73 0 1 1 5.28-1.42c.58 2.12 1.13 4.28 1.63 6.41a2.72 2.72 0 0 1-2 3.29 2.85 2.85 0 0 1-.66.07Zm-436.61-5.52a2.94 2.94 0 0 1-.71-.09 2.73 2.73 0 0 1-1.94-3.34c.56-2.12 1.17-4.26 1.8-6.37a2.74 2.74 0 0 1 5.25 1.56c-.62 2.06-1.21 4.15-1.76 6.21a2.72 2.72 0 0 1-2.62 2.03Zm431.22-13.32a2.73 2.73 0 0 1-2.6-1.86c-.68-2-1.4-4.08-2.14-6.09a2.74 2.74 0 0 1 5.15-1.88c.75 2.06 1.49 4.16 2.19 6.24a2.72 2.72 0 0 1-1.73 3.45 2.64 2.64 0 0 1-.85.14ZM215.28 350a2.76 2.76 0 0 1-.93-.16 2.73 2.73 0 0 1-1.64-3.5c.75-2.07 1.54-4.15 2.35-6.2a2.74 2.74 0 1 1 5.09 2c-.79 2-1.56 4-2.3 6.05a2.73 2.73 0 0 1-2.57 1.81Zm418.33-12.9a2.72 2.72 0 0 1-2.51-1.64c-.86-2-1.75-3.93-2.66-5.86a2.74 2.74 0 1 1 5-2.32c.93 2 1.84 4 2.72 6a2.73 2.73 0 0 1-1.42 3.6 2.83 2.83 0 0 1-1.13.2Zm-410.82-5.24a2.75 2.75 0 0 1-2.48-3.89c.94-2 1.91-4 2.89-6a2.74 2.74 0 0 1 4.9 2.45c-1 1.9-1.91 3.86-2.82 5.82a2.76 2.76 0 0 1-2.49 1.6ZM625 319.51a2.75 2.75 0 0 1-2.41-1.43c-1-1.88-2.09-3.77-3.16-5.61a2.74 2.74 0 1 1 4.73-2.75c1.1 1.89 2.19 3.83 3.24 5.75a2.73 2.73 0 0 1-2.4 4Zm-393.16-5.08a2.74 2.74 0 0 1-2.36-4.1c1.1-1.91 2.24-3.82 3.4-5.69a2.74 2.74 0 0 1 4.66 2.87c-1.13 1.82-2.24 3.69-3.32 5.55a2.74 2.74 0 0 1-2.36 1.37Zm383.06-11.69a2.74 2.74 0 0 1-2.29-1.23c-1.18-1.78-2.41-3.58-3.64-5.32a2.74 2.74 0 0 1 4.48-3.15c1.26 1.79 2.52 3.63 3.73 5.46a2.74 2.74 0 0 1-2.28 4.24Zm-372.5-4.85a2.66 2.66 0 0 1-1.56-.5 2.73 2.73 0 0 1-.68-3.8c1.26-1.79 2.57-3.6 3.88-5.37a2.74 2.74 0 0 1 4.4 3.26c-1.29 1.73-2.56 3.49-3.79 5.24a2.73 2.73 0 0 1-2.23 1.17Zm361-11a2.76 2.76 0 0 1-2.15-1c-1.33-1.67-2.7-3.35-4.09-5a2.74 2.74 0 0 1 4.19-3.52c1.42 1.68 2.83 3.4 4.19 5.11a2.74 2.74 0 0 1-2.14 4.44Zm-349-4.57a2.74 2.74 0 0 1-2.1-4.49c1.42-1.68 2.88-3.37 4.33-5a2.73 2.73 0 0 1 4.1 3.62 217.8 217.8 0 0 0-4.23 4.89 2.72 2.72 0 0 1-2.12.99Zm336.14-10.22a2.73 2.73 0 0 1-2-.86c-1.48-1.56-3-3.11-4.51-4.62a2.73 2.73 0 1 1 3.86-3.87c1.56 1.55 3.11 3.14 4.63 4.74a2.74 2.74 0 0 1-2 4.61Zm-322.88-4.24a2.74 2.74 0 0 1-1.94-4.66c1.55-1.55 3.15-3.1 4.75-4.61a2.73 2.73 0 1 1 3.76 4c-1.56 1.47-3.12 3-4.63 4.5a2.77 2.77 0 0 1-1.96.78Zm308.77-9.39a2.74 2.74 0 0 1-1.82-.69c-1.61-1.43-3.25-2.84-4.9-4.22a2.74 2.74 0 1 1 3.52-4.19c1.68 1.41 3.37 2.86 5 4.32a2.73 2.73 0 0 1-1.82 4.78Zm-294.33-3.85a2.73 2.73 0 0 1-1.77-4.82c1.68-1.41 3.4-2.82 5.13-4.19a2.74 2.74 0 0 1 3.41 4.28c-1.69 1.34-3.37 2.71-5 4.09a2.73 2.73 0 0 1-1.77.64Zm279.06-8.51a2.76 2.76 0 0 1-1.63-.53 218.16 218.16 0 0 0-5.25-3.78 2.74 2.74 0 1 1 3.14-4.48c1.8 1.26 3.62 2.56 5.38 3.87a2.73 2.73 0 0 1-1.64 4.92Zm-263.51-3.44a2.73 2.73 0 0 1-1.58-5c1.8-1.26 3.64-2.51 5.47-3.72a2.73 2.73 0 0 1 3 4.56c-1.79 1.18-3.59 2.4-5.34 3.63a2.71 2.71 0 0 1-1.55.53Zm247.24-7.55a2.68 2.68 0 0 1-1.43-.41c-1.84-1.13-3.71-2.24-5.57-3.31a2.73 2.73 0 1 1 2.74-4.73 208.3 208.3 0 0 1 5.7 3.39 2.73 2.73 0 0 1 .9 3.76 2.77 2.77 0 0 1-2.34 1.3Zm-230.72-3a2.74 2.74 0 0 1-1.38-5.1c1.9-1.1 3.84-2.18 5.77-3.23a2.74 2.74 0 1 1 2.61 4.81c-1.88 1-3.77 2.07-5.63 3.15a2.71 2.71 0 0 1-1.37.37Zm213.54-6.55a2.67 2.67 0 0 1-1.22-.29c-1.92-1-3.89-1.9-5.84-2.81a2.73 2.73 0 1 1 2.31-4.95c2 .92 4 1.89 6 2.88a2.73 2.73 0 0 1-1.23 5.17Zm-196.17-2.52a2.73 2.73 0 0 1-1.16-5.21c2-.93 4-1.84 6-2.71a2.73 2.73 0 1 1 2.18 5c-2 .85-3.94 1.74-5.88 2.65a2.83 2.83 0 0 1-1.14.27Zm178.22-5.49a2.74 2.74 0 0 1-1-.19c-2-.79-4-1.56-6.07-2.29a2.73 2.73 0 1 1 1.87-5.14c2.07.75 4.17 1.54 6.22 2.35a2.73 2.73 0 0 1-1 5.27Zm-160.14-2a2.73 2.73 0 0 1-.94-5.3c2.06-.75 4.17-1.48 6.26-2.18a2.73 2.73 0 1 1 1.73 5.18c-2 .68-4.09 1.4-6.1 2.13a2.65 2.65 0 0 1-.95.14Zm141.56-4.37a3 3 0 0 1-.78-.11c-2.06-.61-4.15-1.2-6.23-1.75a2.73 2.73 0 1 1 1.41-5.28c2.12.56 4.27 1.17 6.38 1.79a2.73 2.73 0 0 1-.78 5.35Zm-122.84-1.55a2.73 2.73 0 0 1-.71-5.37c2.13-.57 4.29-1.12 6.43-1.62a2.73 2.73 0 1 1 1.26 5.31c-2.08.5-4.19 1-6.26 1.59a3 3 0 0 1-.72.06Zm103.79-3.19a2.57 2.57 0 0 1-.55-.06c-2.1-.42-4.24-.83-6.36-1.19a2.73 2.73 0 1 1 .94-5.38c2.16.37 4.36.78 6.51 1.22a2.73 2.73 0 0 1-.54 5.41Zm-84.62-1.06a2.74 2.74 0 0 1-.48-5.43c2.16-.38 4.36-.73 6.55-1.05a2.73 2.73 0 1 1 .79 5.4c-2.13.31-4.28.66-6.38 1a2.61 2.61 0 0 1-.48.05Zm65.22-2h-.31c-2.14-.24-4.3-.46-6.44-.64a2.73 2.73 0 1 1 .47-5.44c2.18.18 4.4.4 6.59.65a2.73 2.73 0 0 1-.31 5.45Zm-45.73-.6a2.74 2.74 0 0 1-.23-5.46c2.19-.19 4.41-.35 6.61-.48a2.73 2.73 0 1 1 .32 5.45c-2.14.13-4.31.29-6.45.48Zm26.17-.8h-.07c-2-.06-4-.08-6.05-.08h-.42a2.74 2.74 0 1 1 0-5.47h.37c2 0 4.13 0 6.19.09a2.73 2.73 0 0 1-.08 5.46ZM831.08 422.08h-14.53v13.44h16.19v4h-21v-37.25h20.18v4h-15.37v11.78h14.53Z" fill="#14294c"/><path d="M833.74 440.55h-23v-39.27h22.18v6h-15.37v9.78h14.53v6h-14.53v11.45h16.19Zm-21-2h19v-2.05h-16.19v-15.42h14.53v-2h-14.53v-13.77h15.36v-2h-18.18ZM414.33 38.28V1h5.27l12 18.86A107.28 107.28 0 0 1 438.29 32h.11c-.45-5-.56-9.52-.56-15.32V1h4.55v37.28h-4.88l-11.87-18.92a119.2 119.2 0 0 1-7-12.44h-.17c.28 4.7.39 9.18.39 15.38v15.98Z" fill="#14294c"/><path d="M443.39 39.28H437l-12.2-19.39c-2.06-3.27-3.73-6.11-5.1-8.68.13 3.3.18 6.79.18 11.14v16.93h-6.55V0h6.82l12.27 19.33c1.75 2.76 3.29 5.39 4.65 8-.18-3.47-.23-6.89-.23-10.68V0h6.55Zm-5.33-2h3.33V2h-2.55v14.6c0 5.43.1 10.11.55 15.23l.06.68-1.64.81-.43-.93a105.82 105.82 0 0 0-6.65-12L419.05 2h-3.72v35.28h2.55V22.35c0-6.23-.11-10.66-.39-15.32v-.76l1.74-.59.38.81a114.49 114.49 0 0 0 6.92 12.34ZM418.24 842.59a17.18 17.18 0 0 0 8.65 2.43c4.93 0 7.82-2.6 7.82-6.36 0-3.49-2-5.48-7-7.41-6.1-2.16-9.87-5.31-9.87-10.57 0-5.81 4.82-10.12 12.08-10.12a16.94 16.94 0 0 1 8.27 1.83l-1.34 3.92a14.89 14.89 0 0 0-7.09-1.77c-5.1 0-7 3-7 5.59 0 3.48 2.27 5.2 7.43 7.19 6.32 2.43 9.53 5.47 9.53 10.95 0 5.75-4.27 10.73-13.08 10.73-3.61 0-7.54-1-9.54-2.38Z" fill="#14294c"/><path d="M426.56 850c-3.69 0-7.84-1-10.09-2.55l-.62-.41 1.81-6 1.11.68a16.19 16.19 0 0 0 8.12 2.28c4.21 0 6.82-2 6.82-5.36 0-2.55-1-4.43-6.4-6.48-7.07-2.5-10.51-6.26-10.51-11.5 0-6.55 5.38-11.12 13.08-11.12a17.76 17.76 0 0 1 8.76 2l.72.4-2 5.84-1-.57a13.81 13.81 0 0 0-6.62-1.65c-4.46 0-6 2.47-6 4.59 0 2.75 1.65 4.27 6.79 6.26 7.13 2.74 10.17 6.3 10.17 11.88-.06 5.39-3.7 11.71-14.14 11.71Zm-8.36-3.83a19.74 19.74 0 0 0 8.36 1.83c7.34 0 12.08-3.82 12.08-9.73 0-4.75-2.49-7.56-8.89-10-5.11-2-8.07-3.94-8.07-8.12 0-3.17 2.51-6.59 8-6.59a15.9 15.9 0 0 1 6.51 1.37l.69-2a16.85 16.85 0 0 0-7-1.32c-6.52 0-11.08 3.75-11.08 9.12 0 4.35 2.92 7.41 9.2 9.63 4.64 1.78 7.71 3.87 7.71 8.35s-3.46 7.36-8.82 7.36a18.11 18.11 0 0 1-8.05-2ZM6.34 412.78l3.54 13.61c.78 3 1.5 5.75 2 8.52h.17c.61-2.71 1.49-5.59 2.38-8.47l4.38-13.66h4.1l4.16 13.39c1 3.21 1.78 6 2.39 8.74h.16a84.19 84.19 0 0 1 2.05-8.69l3.83-13.44h4.82l-8.65 26.77h-4.43l-4.1-12.77a88.85 88.85 0 0 1-2.39-8.8h-.11a78 78 0 0 1-2.44 8.85l-4.32 12.72H9.44l-8.09-26.77Z" fill="#14294c"/><path d="M32.4 440.55h-5.89l-4.33-13.47c-.55-1.75-1-3.37-1.48-5-.5 1.82-1 3.51-1.55 5.09l-4.56 13.41H8.7L0 411.78h7.11l3.74 14.36c.43 1.64.84 3.21 1.2 4.75.45-1.58.94-3.17 1.43-4.74l4.6-14.37h5.57L28 425.87c.54 1.75 1 3.36 1.42 4.87.39-1.63.83-3.24 1.26-4.79l4-14.17h7Zm-4.43-2h3l8-24.78h-2.71l-3.62 12.73a78 78 0 0 0-2 8.57l-.14.84h-1.84l-.18-.78c-.59-2.63-1.34-5.38-2.36-8.67l-3.94-12.68h-2.64l-4.16 13c-.86 2.8-1.76 5.7-2.36 8.38l-.17.78H11l-.14-.83c-.49-2.71-1.21-5.46-2-8.38l-3.3-12.95H2.69l7.49 24.78h3l4.09-12.05a77.69 77.69 0 0 0 2.41-8.73l.17-.79h1.73l.17.79a88 88 0 0 0 2.36 8.7ZM720.75 113.7l14.7-14.6 2.43 2.43-1.88 12.92a58.55 58.55 0 0 1-1.68 7.84h.07a78.5 78.5 0 0 1 5.78-6.26l6.16-6.11 2.09 2.1-14.7 14.6-2.25-2.25 2-12.89a64.9 64.9 0 0 1 1.69-8.1h-.1c-1.72 2-3.44 3.77-5.88 6.2l-6.28 6.24ZM753.37 132.63l-6.7-6.71-5.3 5.27 7.46 7.47-1.59 1.58-9.68-9.7 14.7-14.6 9.3 9.32-1.56 1.58-7.08-7.09-4.64 4.61 6.69 6.71ZM113.37 138.3l-14.63-14.67 2.44-2.42 12.94 1.92a55.59 55.59 0 0 1 7.86 1.68v-.07a80.24 80.24 0 0 1-6.27-5.77l-6.12-6.14 2.1-2.09 14.64 14.67-2.26 2.24-12.92-2a62.15 62.15 0 0 1-8.12-1.69v.1c2 1.73 3.78 3.44 6.21 5.87l6.26 6.27ZM133.08 118.73l-19-10.31 2.36-2.34 9.45 5.38a140.9 140.9 0 0 1 6.35 3.79h.05a72 72 0 0 1-3.67-6.49l-5.1-9.76 2.34-2.32 9.53 5.35a70.81 70.81 0 0 1 6.22 3.83c-1.24-2-2.38-4.08-3.67-6.45l-5.1-9.66 2.28-2.27 9.79 19.52-2.34 2.32-9.8-5.47a54.66 54.66 0 0 1-5.9-3.67h-.06a57.23 57.23 0 0 1 3.45 6.12l5.15 10.08ZM148.47 729.36a12.53 12.53 0 0 0-3-4.94c-2.28-2.28-4.63-2.6-6.11-1.12s-1.24 3.06.32 6.15c2 3.66 2.45 6.64.38 8.7-2.29 2.27-6.21 1.73-9.56-1.62a12.88 12.88 0 0 1-3.09-4.53l2.16-.92a11.17 11.17 0 0 0 2.58 4c2.35 2.35 4.44 2.06 5.44 1.06 1.38-1.37 1-3.09-.58-6.25-2-3.87-2.24-6.55-.08-8.69s6.2-2.23 10.26 1.84a14.39 14.39 0 0 1 3.46 5.33ZM135.08 711.32l-10.34 19-2.35-2.32 5.4-9.44c1.32-2.33 2.69-4.61 3.8-6.33h-.05a70.39 70.39 0 0 1-6.51 3.66l-9.71 5.06-2.32-2.43 5.37-9.5a68.26 68.26 0 0 1 3.84-6.21h-.06c-2 1.24-4.09 2.38-6.46 3.66l-9.69 5.04-2.27-2.28 19.58-9.71 2.32 2.33-5.48 9.78a52.86 52.86 0 0 1-3.68 5.89l.06.05a56.44 56.44 0 0 1 6.12-3.43l10.1-5.14ZM718.06 139.49l-23.32 23.27 2.85 2.84 23.32-23.27-2.85-2.84zM169.17 687.1l-23.32 23.26 2.85 2.84 23.32-23.27-2.85-2.83zM692.52 682.04l-2.84 2.84L713 708.14l2.84-2.83-23.32-23.27zM140.79 137.28l23.32 23.26 2.84-2.84-23.32-23.26-2.84 2.84zM743.26 704.11a12.66 12.66 0 0 0-5 3c-2.28 2.26-2.6 4.61-1.12 6.09s3.07 1.24 6.17-.32c3.67-1.95 6.65-2.45 8.71-.38 2.28 2.29 1.75 6.2-1.62 9.54a12.75 12.75 0 0 1-4.54 3.08L745 723a11.2 11.2 0 0 0 4-2.56c2.32-2.37 2-4.44 1-5.44-1.36-1.37-3.09-1-6.26.59-3.88 1.95-6.56 2.23-8.71.07s-2.24-6.18 1.84-10.23a14.36 14.36 0 0 1 5.35-3.45ZM725.91 730.44l6.72-6.68-5.28-5.28-7.49 7.44-1.58-1.59 9.72-9.66 14.64 14.67-9.34 9.27-1.59-1.61 7.11-7.06-4.63-4.64-6.72 6.7Z" fill="#14294c"/><path d="M464.81 421.21a37.43 37.43 0 0 0-1-8.53l-36.68-303.86-36.69 303.86a37.43 37.43 0 0 0-1 8.53c0 .67 0 1.35.05 2s-.05 1.34-.05 2a38 38 0 0 0 1 8.53l36.7 303.86 36.69-303.85a37.58 37.58 0 0 0 1-8.54c0-.67 0-1.35-.06-2s.04-1.33.04-2Zm-37.68 19.93a17.92 17.92 0 1 1 18.17-17.91 18.15 18.15 0 0 1-18.17 17.91Z" fill="#1a1a1a"/><path d="M424.7 461.92a37.67 37.67 0 0 0 8.55-1l304.58-36.6-304.57-36.6a37.69 37.69 0 0 0-8.56-1c-.68 0-1.35 0-2 .06s-1.34-.06-2-.06a37.67 37.67 0 0 0-8.55 1l-304.62 36.61 304.57 36.6a37.67 37.67 0 0 0 8.55 1c.68 0 1.35 0 2-.06s1.35.05 2.05.05Zm-20-37.59a18 18 0 1 1 18 18.13 18.15 18.15 0 0 1-17.98-18.13Z" fill="#1a1a1a"/><path d="M426.35 442.07a18.16 18.16 0 0 1-18.18-18.14H111l304.57 36.61a37.65 37.65 0 0 0 46.23-36.61h-17.27a18.16 18.16 0 0 1-18.18 18.14Z" fill="#2e4160"/><path d="M424.1 386.34a38.24 38.24 0 0 0-8.55 1L111 423.93h297.17a18.18 18.18 0 0 1 36.36 0h17.25a37.64 37.64 0 0 0-37.68-37.59Z" fill="#14294c"/><path d="M425.65 405.79a18.16 18.16 0 0 1 18.19 18.14H741l-304.57-36.6a37.66 37.66 0 0 0-46.24 36.6h17.25a18.16 18.16 0 0 1 18.21-18.14Z" fill="#14294c"/><path d="M427.9 461.53a37.67 37.67 0 0 0 8.55-1L741 423.93H443.84a18.19 18.19 0 0 1-36.37 0h-17.25a37.64 37.64 0 0 0 37.68 37.6Z" fill="#2e4160"/><path d="M446.83 419.47a21.11 21.11 0 1 1-21.11-21.05 21.08 21.08 0 0 1 21.11 21.05Z" fill="#cfd1d2"/><path d="M445.64 419.47a19.92 19.92 0 1 1-19.92-19.87 19.89 19.89 0 0 1 19.92 19.87Z" fill="#919395"/><ellipse cx="425.72" cy="419.47" rx="11.26" ry="11.23" fill="#cfd1d2"/><ellipse cx="425.72" cy="419.47" rx="9.78" ry="9.76" fill="#a5a6a9"/><path d="M434 419.47a8.23 8.23 0 1 1-8.23-8.2 8.23 8.23 0 0 1 8.23 8.2Z" fill="#1a1a1a"/><path d="M431.5 419.47a5.78 5.78 0 1 1-5.78-5.76 5.77 5.77 0 0 1 5.78 5.76Z" fill="#14294c"/></g></svg>