<svg xmlns="http://www.w3.org/2000/svg" width="690" height="960"><path d="M24 0h640v2h6v2h4v2h4v2h2v2h2v4h2v4h2v6h2v908h-2v6h-2v4h-2v4h-2v2h-2v2h-2v2h-4v2h-6v2H22v-2h-6v-2h-4v-2h-2v-2H8v-2H6v-4H4v-4H2V20h2v-6h2v-2h2v-2h2V8h2V6h2V4h4V2h6V0Z" fill="#CD463B"/><path d="M24 0h640v2h6v2h4v2h4v2h2v2h2v4h2v4h2v6h2v908h-2v6h-2v4h-2v4h-2v2h-2v2h-2v2h-4v2h-6v2H22v-2h-6v-2h-4v-2h-2v-2H8v-2H6v-4H4v-4H2v-8c2 3 2 3 2.75 5.188C7.675 941.768 12.81 948.21 19 952c5.817 2.066 11.063 2.281 17.202 2.249l3.085.008c3.42.006 6.842-.002 10.263-.01 2.474.002 4.948.004 7.422.008 5.384.005 10.769.003 16.153-.003 8.008-.01 16.017-.008 24.025-.004 13.48.006 26.96.003 40.44-.006 13.369-.009 26.738-.013 40.107-.013h12.656c31.712 0 63.424-.01 95.136-.025a166255.936 166255.936 0 0 1 89.754-.019h18.836a253448.002 253448.002 0 0 0 83.266-.013c11.682-.003 23.363-.005 35.045-.005 15.082 0 30.165-.005 45.248-.014 7.262-.005 14.525-.008 21.788-.007 15.866.002 31.73-.031 47.597-.13 2.829-.015 5.658-.021 8.487-.024 3.956-.006 7.911-.04 11.868-.1 1.949-.025 3.898-.021 5.848-.016 8.319-.183 14.818-2.214 21.774-6.876 1.762-1.945 2.774-3.659 4-6h2c.481-1.416.96-2.833 1.438-4.25l.808-2.39c1.637-5.124 1.894-9.775 1.877-15.145l.004-2.73c.002-3.042-.002-6.083-.007-9.125 0-2.194.002-4.387.003-6.581.002-6.045-.002-12.09-.007-18.136-.004-6.512-.003-13.025-.002-19.537 0-11.29-.003-22.579-.008-33.868a87167.894 87167.894 0 0 1-.012-48.967c-.002-26.48-.01-52.96-.019-79.44-.009-25.728-.016-51.456-.02-77.183v-2.403a2570844.628 2570844.628 0 0 1-.013-72.543v-2.26c-.01-49.814-.025-99.628-.042-149.442a8920.393 8920.393 0 0 0-5.753 5.257l-1.634 1.49a292.961 292.961 0 0 0-11.863 11.503c-3.307 3.385-6.621 6.675-10.234 9.734C648.64 430.921 642.386 437.55 636 444c-15.201 15.356-15.201 15.356-21.277 20.5-3.244 2.825-6.213 5.93-9.223 9-4.428 4.476-8.866 8.835-13.68 12.898-3.022 2.66-5.794 5.57-8.62 8.434a104.198 104.198 0 0 1-5.888 5.356c-2.729 2.316-5.26 4.756-7.75 7.324l-1.868 1.919a377.34 377.34 0 0 0-3.683 3.859l-1.741 1.796-1.544 1.626c-2.33 1.739-3.809 2.23-6.726 2.288-2.368-1.703-2.368-1.703-4.8-4.25l-2.714-2.785a3013.51 3013.51 0 0 1-2.798-2.965 3165.878 3165.878 0 0 0-5.489-5.688l-2.68-2.779c-2.767-2.783-5.655-5.35-8.64-7.893-3.283-2.866-6.32-5.976-9.379-9.077l-1.914-1.928A2600.884 2600.884 0 0 1 511 477c-4.159 1.374-6.56 3.201-9.62 6.31-.884.891-1.768 1.783-2.68 2.7l-2.856 2.924a2695.188 2695.188 0 0 0-10.756 10.89 4426.528 4426.528 0 0 1-12.46 12.621 1294.811 1294.811 0 0 0-4.329 4.405l-2.68 2.71-2.343 2.384c-2.29 2.068-4.582 3.567-7.276 5.056l-1.137-1.39c-3.052-3.66-6.072-6.694-9.863-9.61a282.478 282.478 0 0 1-5-5l-1.813-1.688C437 508 437 508 437 506l-1.809-.821c-2.162-1.163-3.542-2.298-5.25-4.042l-1.67-1.69-1.709-1.76-1.697-1.724A2477.9 2477.9 0 0 1 420 491c-3.036-3.081-6.118-6.03-9.375-8.875-8.091-7.227-15.618-15.05-23.234-22.77-2.546-2.508-5.172-4.901-7.829-7.293-8.026-7.285-15.595-15.029-23.207-22.742-2.142-2.11-4.338-4.096-6.605-6.07-5.736-5.116-11.122-10.565-16.509-16.046-3.272-3.312-6.559-6.531-10.096-9.56-5.223-4.493-9.998-9.428-14.832-14.332-1.835-1.86-3.672-3.718-5.512-5.574l-2.433-2.467c-2.351-2.255-4.808-4.259-7.368-6.271a262.338 262.338 0 0 1-5-5c-3.1-3.13-6.206-6.252-9.313-9.375l-2.474-2.5c-3.608-3.622-7.212-7.186-11.1-10.508-6.043-5.19-11.531-10.98-17.122-16.647-5.163-5.227-10.336-10.352-15.927-15.128-5.062-4.517-9.738-9.469-14.5-14.299-5.136-5.202-10.295-10.305-15.853-15.06-2.346-2.034-4.533-4.208-6.711-6.42l-2.313-2.34L191 270l-1.906 1.723-2.594 2.34-2.531 2.285a254.44 254.44 0 0 1-4.694 4.118c-6.257 5.347-12 11.18-17.775 17.034-5.733 5.811-11.442 11.57-17.654 16.877-3.275 2.88-6.297 6.01-9.346 9.123-3.572 3.647-7.133 7.23-11.031 10.531-6.862 5.917-13.1 12.535-19.469 18.969-15.201 15.356-15.201 15.356-21.277 20.5-3.244 2.825-6.213 5.93-9.223 9-7.802 7.885-7.802 7.885-11.5 11a129.014 129.014 0 0 0-7.637 7.105l-2.013 2.024c-1.331 1.345-2.66 2.692-3.985 4.043C45.053 410.029 41.71 413.078 38 416a265.94 265.94 0 0 0-5 5c-.943.957-1.887 1.912-2.832 2.867l-1.468 1.484c-4.493 4.528-9.025 8.912-13.88 13.055C9.204 443.13 9.204 443.13 5 449H2V20h2v-6h2v-2h2v-2h2V8h2V6h2V4h4V2h6V0Z" fill="#F26B4F"/><path d="m296 845 33 1c-2.374 3.956-3.39 5.617-6.688 8.313A118.478 118.478 0 0 0 314 862c-3.2 3.25-6.542 6.247-10 9.219-2.708 2.412-5.232 4.985-7.75 7.593-1.889 1.837-3.813 3.54-5.813 5.25-5.415 4.704-10.405 9.834-15.437 14.938-5.621 5.702-11.238 11.34-17.33 16.547-2.847 2.476-5.406 5.22-8.006 7.95C248 925 248 925 246 925l-.66 1.684c-1.759 3.04-4.165 5.094-6.778 7.379-10.177 8.992-10.177 8.992-19.23 19.056-3.213 2.592-6.058 2.434-10.01 2.382l-2.357.017c-2.609.014-5.217-.001-7.825-.016a2542.625 2542.625 0 0 1-20.85.003c-5.318-.014-10.635-.008-15.953-.004-8.934.002-17.869-.011-26.803-.034a8338.435 8338.435 0 0 0-30.967-.017c-9.932.01-19.865.005-29.797-.01-4.225-.005-8.45-.005-12.674 0-4.98.004-9.961-.006-14.942-.028-1.825-.005-3.65-.006-5.475 0-2.498.005-4.995-.007-7.493-.024l-2.173.018c-8.167-.102-14.225-2.935-20.122-8.449C-12.743 921.458 2 878.147 2 847h294v-2Z" fill="#D05041"/><path d="m324 101-.621 1.793-.817 2.394-.808 2.356c-5.07 16.523-1.732 34.671 5.995 49.71 8.598 15.942 21.51 25.531 38.235 31.88 14.22 4.089 30.933 2.843 45.016-1.133l-2 7h-2l-.625 2c-5.995 13.08-19.034 22.959-32.184 28.098-4.206 1.343-7.758 2.035-12.191 1.902v2c-25.24.626-25.24.626-35-3l-3.098-1.102c-6.438-2.473-11.655-5.45-16.902-9.898l-1.797-1.398C295.048 205.468 287.35 193.538 284 181l-1.055-3.613c-4.144-16.837-1.025-35.616 7.716-50.387 5.28-8.384 21.762-29.859 33.339-26Z" fill="#FAD3A9"/><path d="M664 2h6v2h4v2h4v2h2v2h2v4h2v4h2v6h2v908h-2v6h-2v4h-2v4h-2v2h-2v2h-2v2h-4v2h-6v2H22v-2h-6v-2h-4v-2h-2v-2H8v-2H6v-4H4v-4H2v-8c2 3 2 3 2.75 5.188C7.675 941.768 12.81 948.21 19 952c5.817 2.066 11.063 2.281 17.202 2.249l3.085.008c3.42.006 6.842-.002 10.263-.01 2.474.002 4.948.004 7.422.008 5.384.005 10.769.003 16.153-.003 8.008-.01 16.017-.008 24.025-.004 13.48.006 26.96.003 40.44-.006 13.369-.009 26.738-.013 40.107-.013h12.656c31.712 0 63.424-.01 95.136-.025a166255.936 166255.936 0 0 1 89.754-.019h18.836a253448.002 253448.002 0 0 0 83.266-.013c11.682-.003 23.363-.005 35.045-.005 15.082 0 30.165-.005 45.248-.014 7.262-.005 14.525-.008 21.788-.007 15.866.002 31.73-.031 47.597-.13 2.829-.015 5.658-.021 8.487-.024 3.956-.006 7.911-.04 11.868-.1 1.949-.025 3.898-.021 5.848-.016 8.319-.183 14.818-2.214 21.774-6.876 1.762-1.945 2.774-3.659 4-6h2c.481-1.416.96-2.833 1.438-4.25l.808-2.39c1.393-4.36 1.88-8.025 1.883-12.637l.01-3.942-.005-4.35.007-4.626c.007-4.263.007-8.526.006-12.788 0-4.628.006-9.256.011-13.884.01-9.19.014-18.38.016-27.57.003-11.004.011-22.008.02-33.01.021-26.598.032-53.195.04-79.792l.015-37.73c.018-42.36.033-84.72.04-127.08l.002-10.13v-2.03a4768291.214 4768291.214 0 0 1 .005-24.443c.007-43.708.03-87.417.062-131.125a209235.197 209235.197 0 0 0 .06-159.586c.003-20.104.019-40.21.04-60.314.02-20.197.025-40.394.016-60.59-.006-12.008 0-24.015.022-36.021.014-8.015.013-16.03 0-24.045-.007-4.57-.008-9.14.01-13.71.015-4.158.012-8.315-.006-12.473-.003-1.495 0-2.99.011-4.484.077-11.008-1.242-19.149-8.796-27.434C673.772 7.88 670.448 5.963 667 4l-3-2Z" fill="#D08788"/><path d="M2 930c2 3 2 3 2.75 5.188C7.675 941.768 12.81 948.21 19 952c5.842 2.077 11.128 2.285 17.294 2.262l3.115.012c3.454.01 6.909.008 10.363.004 2.497.005 4.995.011 7.492.018 5.435.013 10.87.019 16.305.02 8.082.001 16.163.014 24.245.03 13.595.024 27.19.04 40.784.05a56610.465 56610.465 0 0 1 55.67.069c30.106.046 60.211.082 90.317.113a261059.384 261059.384 0 0 1 117.634.146l55.327.075 2.57.003c56.628.076 113.256.138 169.884.198v1H22v-2h-6v-2h-4v-2h-2v-2H8v-2H6v-4H4v-4H2v-8Z" fill="#C86A64"/><path d="M687 646h1v286h-2v6h-2v4h-2v4h-2v2h-2v2h-2v2h-4v2h-6v2h-36v-2l2.839.003c3.534-.01 7.067-.047 10.6-.1 1.52-.019 3.038-.026 4.557-.023 10.152.013 18.399-.785 27.004-6.88 1.748-1.947 2.777-3.666 4-6h2l.586-1.758C684 932 684 932 685.036 929.55c1.355-4.99 1.252-9.752 1.242-14.901l.018-3.48c.014-3.18.02-6.358.02-9.537.004-3.432.02-6.863.033-10.295.023-5.942.038-11.884.048-17.826.014-8.592.04-17.183.068-25.774.045-13.94.082-27.88.113-41.819.03-13.54.065-27.079.105-40.619l.007-2.53.037-12.563c.104-34.735.193-69.47.273-104.206Z" fill="#CC909B"/><path d="m240 931 2 1-21 21 409 1v1H217c1.799-3.597 2.414-4.598 5.313-6.938 6.274-5.288 11.93-11.225 17.687-17.062Z" fill="#C32E2C"/><path d="M2 930c2 3 2 3 2.75 5.188C7.675 941.768 12.81 948.21 19 952c5.083 1.725 9.73 2.293 15.055 2.278 1.173.01 1.173.01 2.37.018 2.603.017 5.207.02 7.811.023l5.619.03c5.074.028 10.147.043 15.221.056 5.307.015 10.613.042 15.92.068 10.043.047 20.087.083 30.13.116 11.437.039 22.874.088 34.31.138 23.521.104 47.043.193 70.564.273v1H22v-2h-6v-2h-4v-2h-2v-2H8v-2H6v-4H4v-4H2v-8Z" fill="#CC736E"/><path d="M664 2h6v2h4v2h4v2h2v2h2v4h2v4h2v6h2v196h-1l-.007-2.918c-.06-23.463-.135-46.925-.229-70.388-.045-11.346-.084-22.693-.11-34.04-.023-9.892-.057-19.785-.103-29.678-.024-5.235-.042-10.47-.049-15.705-.006-4.935-.026-9.87-.056-14.804a928.24 928.24 0 0 1-.011-5.413c.155-19.6.155-19.6-9.435-36.054-3.964-3.482-7.908-6.409-13-8V2Z" fill="#CE939D"/><path d="M685 928h1v10h-2v4h-2v4h-2v2h-2v2h-2v2h-4v2h-6v2h-36v-2l2.839.003c3.534-.01 7.067-.047 10.6-.1 1.52-.019 3.038-.026 4.557-.023 10.152.013 18.399-.785 27.004-6.88 1.748-1.947 2.777-3.666 4-6h2c.481-1.416.96-2.833 1.438-4.25l.808-2.39A84.887 84.887 0 0 0 685 928Z" fill="#CF8A90"/><path d="M2 930c2 3 2 3 2.75 5.188 3.26 7.335 9.182 14.667 16.695 17.847A94.537 94.537 0 0 0 28 955v1h-6v-2h-6v-2h-4v-2h-2v-2H8v-2H6v-4H4v-4H2v-8Z" fill="#EAB8BC"/><path d="M664 2h6v2h4v2h4v2h2v2h2v4h2v4h2v6h2v7h-2l-.445-2.344c-2.22-10.308-6.043-16.387-14.653-22.468C668.69 4.806 666.492 3.777 664 3V2Z" fill="#EAB9BF"/><path d="m492 490 2 1a6802.47 6802.47 0 0 1-13.824 13.934 2882.54 2882.54 0 0 0-4.7 4.74c-2.251 2.277-4.51 4.546-6.769 6.814l-2.11 2.14c-3.322 3.324-6.363 6.21-10.597 8.372 1.617-4.385 5.055-7.029 8.438-10.063 9.493-8.671 18.52-17.8 27.562-26.937Z" fill="#E37D5A"/><path d="M666 953v3h-36v-2a56320.493 56320.493 0 0 1 25.488-.781l2.14-.067c2.793-.084 5.579-.152 8.372-.152Z" fill="#D37C76"/><path d="M2 510c3 4 3 4 2.7 6.445L4 519a103.2 103.2 0 0 0-.205 4.882l-.06 2.85-.051 3.038-.063 3.14c-.066 3.3-.125 6.601-.183 9.903l-.131 6.724C3.2 555.025 3.097 560.512 3 566H2v-56Z" fill="#D56353"/><path d="M18 2h6a696.778 696.778 0 0 1-5.875 3.875c-5.454 3.709-8.82 6.812-12.11 12.516L5 20H4v-6h2v-2h2v-2h2V8h2V6h2V4h4V2Z" fill="#F6CACD"/><path d="M685 928h1v10h-2l-1 3h-2l.621-1.828.817-2.422.808-2.39A84.887 84.887 0 0 0 685 928Z" fill="#D08384"/><path d="M436 505c4.206 1.502 5.739 4.286 8 8-3.794-1.49-5.648-3.724-8-7v-1Z" fill="#EB8954"/><path d="m7 0 3 1-1 3-3-1 1-3Z" fill="#F8D1D4"/><path d="m0 8 2 1-1 3-1-4Z" fill="#F7D1D4"/></svg>