<?xml version="1.0" encoding="UTF-8"?>
<svg version="1.1" xmlns="http://www.w3.org/2000/svg" width="690" height="960">
<path d="M0 0 C211.2 0 422.4 0 640 0 C640 0.66 640 1.32 640 2 C641.98 2 643.96 2 646 2 C646 2.66 646 3.32 646 4 C647.32 4 648.64 4 650 4 C650 4.66 650 5.32 650 6 C651.32 6 652.64 6 654 6 C654 6.66 654 7.32 654 8 C654.66 8 655.32 8 656 8 C656 8.66 656 9.32 656 10 C656.66 10 657.32 10 658 10 C658 11.32 658 12.64 658 14 C658.66 14 659.32 14 660 14 C660 15.32 660 16.64 660 18 C660.66 18 661.32 18 662 18 C662 19.98 662 21.96 662 24 C662.66 24 663.32 24 664 24 C664 323.64 664 623.28 664 932 C663.34 932 662.68 932 662 932 C662 933.98 662 935.96 662 938 C661.34 938 660.68 938 660 938 C660 939.32 660 940.64 660 942 C659.34 942 658.68 942 658 942 C658 943.32 658 944.64 658 946 C657.34 946 656.68 946 656 946 C656 946.66 656 947.32 656 948 C655.34 948 654.68 948 654 948 C654 948.66 654 949.32 654 950 C653.34 950 652.68 950 652 950 C652 950.66 652 951.32 652 952 C650.68 952 649.36 952 648 952 C648 952.66 648 953.32 648 954 C646.02 954 644.04 954 642 954 C642 954.66 642 955.32 642 956 C429.48 956 216.96 956 -2 956 C-2 955.34 -2 954.68 -2 954 C-3.98 954 -5.96 954 -8 954 C-8 953.34 -8 952.68 -8 952 C-9.32 952 -10.64 952 -12 952 C-12 951.34 -12 950.68 -12 950 C-12.66 950 -13.32 950 -14 950 C-14 949.34 -14 948.68 -14 948 C-14.66 948 -15.32 948 -16 948 C-16 947.34 -16 946.68 -16 946 C-16.66 946 -17.32 946 -18 946 C-18 944.68 -18 943.36 -18 942 C-18.66 942 -19.32 942 -20 942 C-20 940.68 -20 939.36 -20 938 C-20.66 938 -21.32 938 -22 938 C-22 635.06 -22 332.12 -22 20 C-21.34 20 -20.68 20 -20 20 C-20 18.02 -20 16.04 -20 14 C-19.34 14 -18.68 14 -18 14 C-18 13.34 -18 12.68 -18 12 C-17.34 12 -16.68 12 -16 12 C-16 11.34 -16 10.68 -16 10 C-15.34 10 -14.68 10 -14 10 C-14 9.34 -14 8.68 -14 8 C-13.34 8 -12.68 8 -12 8 C-12 7.34 -12 6.68 -12 6 C-11.34 6 -10.68 6 -10 6 C-10 5.34 -10 4.68 -10 4 C-8.68 4 -7.36 4 -6 4 C-6 3.34 -6 2.68 -6 2 C-4.02 2 -2.04 2 0 2 C0 1.34 0 0.68 0 0 Z " fill="#CD463B" transform="translate(24,0)"/>
<path d="M0 0 C211.2 0 422.4 0 640 0 C640 0.66 640 1.32 640 2 C641.98 2 643.96 2 646 2 C646 2.66 646 3.32 646 4 C647.32 4 648.64 4 650 4 C650 4.66 650 5.32 650 6 C651.32 6 652.64 6 654 6 C654 6.66 654 7.32 654 8 C654.66 8 655.32 8 656 8 C656 8.66 656 9.32 656 10 C656.66 10 657.32 10 658 10 C658 11.32 658 12.64 658 14 C658.66 14 659.32 14 660 14 C660 15.32 660 16.64 660 18 C660.66 18 661.32 18 662 18 C662 19.98 662 21.96 662 24 C662.66 24 663.32 24 664 24 C664 323.64 664 623.28 664 932 C663.34 932 662.68 932 662 932 C662 933.98 662 935.96 662 938 C661.34 938 660.68 938 660 938 C660 939.32 660 940.64 660 942 C659.34 942 658.68 942 658 942 C658 943.32 658 944.64 658 946 C657.34 946 656.68 946 656 946 C656 946.66 656 947.32 656 948 C655.34 948 654.68 948 654 948 C654 948.66 654 949.32 654 950 C653.34 950 652.68 950 652 950 C652 950.66 652 951.32 652 952 C650.68 952 649.36 952 648 952 C648 952.66 648 953.32 648 954 C646.02 954 644.04 954 642 954 C642 954.66 642 955.32 642 956 C429.48 956 216.96 956 -2 956 C-2 955.34 -2 954.68 -2 954 C-3.98 954 -5.96 954 -8 954 C-8 953.34 -8 952.68 -8 952 C-9.32 952 -10.64 952 -12 952 C-12 951.34 -12 950.68 -12 950 C-12.66 950 -13.32 950 -14 950 C-14 949.34 -14 948.68 -14 948 C-14.66 948 -15.32 948 -16 948 C-16 947.34 -16 946.68 -16 946 C-16.66 946 -17.32 946 -18 946 C-18 944.68 -18 943.36 -18 942 C-18.66 942 -19.32 942 -20 942 C-20 940.68 -20 939.36 -20 938 C-20.66 938 -21.32 938 -22 938 C-22 935.36 -22 932.72 -22 930 C-20 933 -20 933 -19.25 935.1875 C-16.32505865 941.76861804 -11.18973855 948.21134912 -5 952 C0.81722182 954.06608896 6.06284759 954.28129501 12.20204735 954.24888897 C13.72899925 954.2527999 13.72899925 954.2527999 15.28679866 954.25678983 C18.70789392 954.2631007 22.12880637 954.2551196 25.54989624 954.24723816 C28.02379888 954.24882608 30.49770109 954.25128951 32.97160208 954.25455457 C38.35610972 954.25963621 43.74056275 954.25848957 49.12506485 954.2518692 C57.13336711 954.24205017 65.1416385 954.24368458 73.14994434 954.2476195 C86.62990077 954.25389785 100.10983971 954.25071832 113.58979416 954.24202538 C126.95889829 954.23340624 140.32799456 954.22850531 153.69710159 954.22869301 C154.52918475 954.22870065 155.36126792 954.2287083 156.21856572 954.22871618 C159.59663181 954.22875709 162.9746979 954.2288227 166.352764 954.22892199 C198.06481844 954.22982863 229.77686095 954.21987859 261.48891124 954.20449232 C289.60540221 954.19090056 317.72188468 954.18462967 345.83837891 954.18530273 C347.64004351 954.18534315 349.44170812 954.18538351 351.24337272 954.18542381 C352.13411331 954.18544416 353.0248539 954.18546452 353.94258662 954.18548548 C358.42735335 954.18558629 362.91212009 954.18567687 367.39688683 954.18575573 C368.28183347 954.18577244 369.16678011 954.18578916 370.07854332 954.18580638 C393.61365189 954.18617276 417.14875941 954.18161918 440.6838671 954.17542917 C441.5228214 954.17520889 442.3617757 954.17498862 443.22615286 954.17476168 C446.59924296 954.17387352 449.97233305 954.17298507 453.34542314 954.17207072 C465.02685044 954.168925 476.7082769 954.16740329 488.38970459 954.16695923 C503.47233998 954.16635851 518.5549684 954.16229485 533.63760082 954.15252777 C540.90029538 954.14790427 548.16298213 954.14476765 555.42567825 954.14612198 C571.29172249 954.14827936 587.15694828 954.11459011 603.02270788 954.01548216 C605.85169901 954.00077118 608.68055812 953.99465417 611.509583 953.99175477 C615.4662341 953.98609703 619.42145326 953.9526697 623.37763055 953.89157126 C625.32678783 953.86735884 627.27623075 953.87064869 629.22553194 953.87567443 C637.54484609 953.69275966 644.04406971 951.66187974 651 947 C652.76205411 945.05496372 653.77372927 943.3410623 655 941 C655.66 941 656.32 941 657 941 C657.48108275 939.58398286 657.95978141 938.16715563 658.4375 936.75 C658.70433594 935.96109375 658.97117187 935.1721875 659.24609375 934.359375 C660.88331955 929.23562171 661.13981432 924.58508124 661.12304783 919.21498489 C661.1247786 917.86327219 661.1247786 917.86327219 661.12654433 916.48425215 C661.12920637 913.44287264 661.12469217 910.40154531 661.12025452 907.36016846 C661.1206903 905.16644712 661.12156534 902.97272582 661.12284368 900.77900481 C661.12508719 894.73379991 661.12106929 888.68861262 661.11606562 882.64340997 C661.11175927 876.13080866 661.11320768 869.61820841 661.1139679 863.10560608 C661.11466603 851.81641666 661.11138229 840.52723265 661.10573006 829.23804474 C661.09981619 817.39597801 661.09596475 805.55391359 661.09487724 793.7118454 C661.0948085 792.97597022 661.09473976 792.24009503 661.09466894 791.48192061 C661.09433062 787.74489259 661.09402923 784.00786458 661.09374207 780.27083656 C661.09164078 753.79074494 661.084901 727.31065633 661.07543945 700.83056641 C661.0662574 675.10302751 661.05917262 649.37548943 661.05493164 623.64794922 C661.05480011 622.85513163 661.05466859 622.06231405 661.05453308 621.24547169 C661.05321457 613.28378482 661.05193876 605.32209793 661.05069422 597.36041105 C661.0481579 581.14105117 661.04533665 564.92169134 661.04234314 548.70233154 C661.0421372 547.58368336 661.0421372 547.58368336 661.04192711 546.44243621 C661.03272402 496.62828953 661.01685777 446.81414461 661 397 C659.08151749 398.75136714 657.16402148 400.503794 655.24707031 402.25683594 C654.70784943 402.74888519 654.16862854 403.24093445 653.61306763 403.74789429 C649.54285359 407.47230102 645.60429349 411.3021557 641.75 415.25 C638.44286819 418.6351302 635.1287078 421.92475257 631.515625 424.984375 C624.64148698 430.92128056 618.38576614 437.5493567 612 444 C596.79892099 459.35551668 596.79892099 459.35551668 590.72265625 464.5 C587.47875035 467.32462555 584.5097757 470.43048469 581.5 473.5 C577.07198239 477.97599416 572.63445004 482.33455516 567.8203125 486.3984375 C564.79755973 489.05794101 562.02568952 491.96717039 559.19921875 494.83203125 C557.29375607 496.71041808 555.35327679 498.46001943 553.3125 500.1875 C550.58349402 502.50385386 548.05180697 504.94361066 545.5625 507.51171875 C544.94592529 508.14505127 544.32935059 508.77838379 543.6940918 509.4309082 C542.45745785 510.70861887 541.22943397 511.9947299 540.01098633 513.28979492 C539.43630615 513.88252197 538.86162598 514.47524902 538.26953125 515.0859375 C537.76010986 515.6226709 537.25068848 516.1594043 536.72583008 516.71240234 C534.39546998 518.45102438 532.91718853 518.94128308 530 519 C527.6315918 517.296875 527.6315918 517.296875 525.19921875 514.75 C524.30396484 513.83089844 523.40871094 512.91179688 522.48632812 511.96484375 C521.55271507 510.97719574 520.61977593 509.98891027 519.6875 509 C517.86042092 507.10190371 516.0310308 505.20602901 514.19921875 503.3125 C513.31476074 502.3954126 512.43030273 501.4783252 511.51904297 500.53344727 C508.75161534 497.75019504 505.86443229 495.1831017 502.87817383 492.64013672 C499.59569129 489.7736714 496.55867324 486.66383714 493.5 483.5625 C492.86835937 482.92634766 492.23671875 482.29019531 491.5859375 481.63476562 C490.05494226 480.09217194 488.52712333 478.54642686 487 477 C482.84127264 478.37402722 480.439557 480.20139036 477.38085938 483.31030273 C476.49644165 484.20140244 475.61202393 485.09250214 474.70080566 486.01060486 C473.74844719 486.98492805 472.79609547 487.95925785 471.84375 488.93359375 C470.85477087 489.93325918 469.86497067 490.93211292 468.87438965 491.93019104 C466.27250493 494.55481756 463.67889347 497.1874487 461.08782959 499.82275391 C456.94262266 504.03822939 452.78994755 508.2462227 448.62788391 512.44505501 C447.18044273 513.90912311 445.73963346 515.3794955 444.29919434 516.85044861 C443.41477661 517.74470047 442.53035889 518.63895233 441.61914062 519.56030273 C440.84590454 520.34702866 440.07266846 521.13375458 439.27600098 521.94432068 C436.98646901 524.01222116 434.69409529 525.51056983 432 527 C431.62488281 526.54109375 431.24976563 526.0821875 430.86328125 525.609375 C427.81132331 521.95010049 424.79077273 518.91597902 421 516 C419.31337542 514.35353315 417.64488294 512.68816933 416 511 C415.401875 510.443125 414.80375 509.88625 414.1875 509.3125 C413 508 413 508 413 506 C412.10462524 505.59358276 412.10462524 505.59358276 411.19116211 505.17895508 C409.02905086 504.01563082 407.64906014 502.88073546 405.94140625 501.13671875 C405.39033203 500.57919922 404.83925781 500.02167969 404.27148438 499.44726562 C403.70751953 498.86654297 403.14355469 498.28582031 402.5625 497.6875 C402.00240234 497.11837891 401.44230469 496.54925781 400.86523438 495.96289062 C399.24044093 494.31155446 397.6201544 492.65588559 396 491 C392.96355628 487.91857193 389.8821753 484.97074263 386.625 482.125 C378.53390365 474.89776507 371.00746686 467.07493274 363.390625 459.35546875 C360.84478173 456.84706435 358.21877366 454.45351471 355.5625 452.0625 C347.53567823 444.77694816 339.96744517 437.0334821 332.35546875 429.3203125 C330.21324299 427.21006026 328.01732823 425.22371738 325.75 423.25 C320.01373087 418.13386807 314.62801514 412.68458932 309.24121094 407.20410156 C305.96913935 403.89233149 302.68198083 400.67298238 299.14453125 397.64453125 C293.9220671 393.15054442 289.14717222 388.21550681 284.3125 383.3125 C282.47766292 381.45205459 280.64050281 379.59389673 278.80078125 377.73828125 C277.59675659 376.51685425 277.59675659 376.51685425 276.3684082 375.27075195 C274.01686509 373.0161697 271.55953051 371.01220448 269 369 C267.30834128 367.3587059 265.64680663 365.68629282 264 364 C260.90059768 360.87026216 257.79363417 357.74805474 254.6875 354.625 C253.87087891 353.8 253.05425781 352.975 252.21289062 352.125 C248.60529027 348.50302673 245.00081869 344.93910171 241.11328125 341.6171875 C235.07029607 336.42669892 229.58155246 330.63701192 223.99072266 324.97021484 C218.82751231 319.74324044 213.6545954 314.61778509 208.06445312 309.84179688 C203.00160275 305.32498713 198.32592155 300.37340242 193.56347656 295.54296875 C188.42826637 290.34115856 183.2689898 285.23800646 177.7109375 280.48388672 C175.36452743 278.44885813 173.17844128 276.27497943 171 274.0625 C170.236875 273.29035156 169.47375 272.51820313 168.6875 271.72265625 C168.130625 271.15417969 167.57375 270.58570313 167 270 C166.05640625 270.85271484 166.05640625 270.85271484 165.09375 271.72265625 C164.2378125 272.49480469 163.381875 273.26695312 162.5 274.0625 C161.6646875 274.81660156 160.829375 275.57070313 159.96875 276.34765625 C158.41657264 277.73440418 156.86113188 279.11806936 155.27539062 280.46630859 C149.01751711 285.81251348 143.27522259 291.64630464 137.5 297.5 C131.76663514 303.31126888 126.05781501 309.06957959 119.84570312 314.37695312 C116.57137202 317.25628555 113.54946487 320.38633587 110.5 323.5 C106.92790244 327.14729962 103.36694077 330.73083795 99.46875 334.03125 C92.60702323 339.94790868 86.36976901 346.56551635 80 353 C64.79892099 368.35551668 64.79892099 368.35551668 58.72265625 373.5 C55.47874811 376.3246275 52.50980032 379.43050635 49.5 382.5 C41.69847328 390.38549618 41.69847328 390.38549618 38 393.5 C35.34893872 395.77729497 32.82244487 398.12257376 30.36328125 400.60546875 C29.69876953 401.27320313 29.03425781 401.9409375 28.34960938 402.62890625 C27.01871963 403.97383222 25.69047339 405.32138067 24.36523438 406.671875 C21.05297348 410.02894276 17.70942478 413.07798214 14 416 C12.31058799 417.64360658 10.64511488 419.3120567 9 421 C8.05693184 421.95665895 7.11288726 422.91235614 6.16796875 423.8671875 C5.68352295 424.35678955 5.19907715 424.8463916 4.69995117 425.35083008 C0.20691457 429.87867955 -4.32502202 434.2625188 -9.1796875 438.40625 C-14.79585553 443.12861952 -14.79585553 443.12861952 -19 449 C-19.99 449 -20.98 449 -22 449 C-22 307.43 -22 165.86 -22 20 C-21.34 20 -20.68 20 -20 20 C-20 18.02 -20 16.04 -20 14 C-19.34 14 -18.68 14 -18 14 C-18 13.34 -18 12.68 -18 12 C-17.34 12 -16.68 12 -16 12 C-16 11.34 -16 10.68 -16 10 C-15.34 10 -14.68 10 -14 10 C-14 9.34 -14 8.68 -14 8 C-13.34 8 -12.68 8 -12 8 C-12 7.34 -12 6.68 -12 6 C-11.34 6 -10.68 6 -10 6 C-10 5.34 -10 4.68 -10 4 C-8.68 4 -7.36 4 -6 4 C-6 3.34 -6 2.68 -6 2 C-4.02 2 -2.04 2 0 2 C0 1.34 0 0.68 0 0 Z " fill="#F26B4F" transform="translate(24,0)"/>
<path d="M0 0 C16.335 0.495 16.335 0.495 33 1 C30.62643385 4.95594358 29.60969894 6.61722378 26.3125 9.3125 C23.40304158 11.76452985 20.66431121 14.28313827 18 17 C14.79970478 20.25029983 11.45775424 23.24724245 8 26.21875 C5.29153337 28.63097809 2.76847355 31.20408097 0.25 33.8125 C-1.63874149 35.64877645 -3.56251779 37.35172092 -5.5625 39.0625 C-10.97813123 43.76607601 -15.96750354 48.89565961 -21 54 C-26.62144614 59.70169792 -32.23829328 65.34020362 -38.32910156 70.54736328 C-41.17710255 73.0233431 -43.73569171 75.76635365 -46.3359375 78.49609375 C-48 80 -48 80 -50 80 C-50.21785156 80.55558594 -50.43570313 81.11117187 -50.66015625 81.68359375 C-52.41866584 84.72381587 -54.8249295 86.77814394 -57.4375 89.0625 C-67.6152454 98.05525899 -67.6152454 98.05525899 -76.66854477 108.11930943 C-79.88109725 110.71074549 -82.72620984 110.553487 -86.67828369 110.50120544 C-87.8448812 110.50950704 -87.8448812 110.50950704 -89.03504634 110.51797634 C-91.64380549 110.53160061 -94.25161082 110.51660426 -96.86035156 110.50170898 C-98.72971504 110.50549165 -100.59907571 110.51099125 -102.46842957 110.51808167 C-107.5492651 110.53206427 -112.62976302 110.52084506 -117.71057987 110.50437045 C-123.02798294 110.49053085 -128.34536619 110.4969791 -133.66278076 110.50050354 C-142.59734541 110.50320746 -151.53177588 110.4897176 -160.46630859 110.46655273 C-170.78867292 110.43997442 -181.11081238 110.43818491 -191.43319917 110.4499411 C-201.36548625 110.46073241 -211.29769218 110.45451906 -221.22997284 110.44038582 C-225.4546679 110.43463449 -229.67930341 110.43470209 -233.90399933 110.43945122 C-238.88464224 110.44423429 -243.86504004 110.43406413 -248.84563637 110.41249657 C-250.67091101 110.40694545 -252.49620929 110.40644797 -254.32148552 110.41144943 C-256.81918697 110.41743348 -259.31614691 110.4048377 -261.81378174 110.38768005 C-262.88949161 110.39669512 -262.88949161 110.39669512 -263.98693299 110.40589231 C-272.15361879 110.30434938 -278.21195154 107.47135436 -284.109375 101.95703125 C-308.74285811 76.4583225 -294 33.14792826 -294 2 C-196.98 2 -99.96 2 0 2 C0 1.34 0 0.68 0 0 Z " fill="#D05041" transform="translate(296,845)"/>
<path d="M0 0 C-0.20496094 0.59167969 -0.40992188 1.18335937 -0.62109375 1.79296875 C-0.89050781 2.58316406 -1.15992188 3.37335938 -1.4375 4.1875 C-1.70433594 4.96480469 -1.97117187 5.74210937 -2.24609375 6.54296875 C-7.31582897 23.06557732 -3.97780544 41.21423291 3.74853516 56.25268555 C12.34653872 72.19522077 25.25845436 81.78396828 41.984375 88.1328125 C56.20414539 92.22191746 72.91706618 90.97635779 87 87 C86.34 89.31 85.68 91.62 85 94 C84.34 94 83.68 94 83 94 C82.79375 94.66 82.5875 95.32 82.375 96 C76.37975074 109.08054384 63.34104651 118.95850616 50.19140625 124.09765625 C45.9852188 125.44138627 42.43347349 126.13292601 38 126 C38 126.66 38 127.32 38 128 C12.75997302 128.62554719 12.75997302 128.62554719 3 125 C1.97777344 124.63648438 0.95554687 124.27296875 -0.09765625 123.8984375 C-6.5357382 121.42532052 -11.7533257 118.44826734 -17 114 C-17.59296875 113.53851563 -18.1859375 113.07703125 -18.796875 112.6015625 C-28.95230617 104.46823046 -36.65106837 92.5380733 -40 80 C-40.34804688 78.80761719 -40.69609375 77.61523438 -41.0546875 76.38671875 C-45.19940402 59.5497854 -42.08038496 40.77088384 -33.33911133 25.99951172 C-28.05845447 17.61603519 -11.57654433 -3.85884811 0 0 Z " fill="#FAD3A9" transform="translate(324,101)"/>
<path d="M0 0 C1.98 0 3.96 0 6 0 C6 0.66 6 1.32 6 2 C7.32 2 8.64 2 10 2 C10 2.66 10 3.32 10 4 C11.32 4 12.64 4 14 4 C14 4.66 14 5.32 14 6 C14.66 6 15.32 6 16 6 C16 6.66 16 7.32 16 8 C16.66 8 17.32 8 18 8 C18 9.32 18 10.64 18 12 C18.66 12 19.32 12 20 12 C20 13.32 20 14.64 20 16 C20.66 16 21.32 16 22 16 C22 17.98 22 19.96 22 22 C22.66 22 23.32 22 24 22 C24 321.64 24 621.28 24 930 C23.34 930 22.68 930 22 930 C22 931.98 22 933.96 22 936 C21.34 936 20.68 936 20 936 C20 937.32 20 938.64 20 940 C19.34 940 18.68 940 18 940 C18 941.32 18 942.64 18 944 C17.34 944 16.68 944 16 944 C16 944.66 16 945.32 16 946 C15.34 946 14.68 946 14 946 C14 946.66 14 947.32 14 948 C13.34 948 12.68 948 12 948 C12 948.66 12 949.32 12 950 C10.68 950 9.36 950 8 950 C8 950.66 8 951.32 8 952 C6.02 952 4.04 952 2 952 C2 952.66 2 953.32 2 954 C-210.52 954 -423.04 954 -642 954 C-642 953.34 -642 952.68 -642 952 C-643.98 952 -645.96 952 -648 952 C-648 951.34 -648 950.68 -648 950 C-649.32 950 -650.64 950 -652 950 C-652 949.34 -652 948.68 -652 948 C-652.66 948 -653.32 948 -654 948 C-654 947.34 -654 946.68 -654 946 C-654.66 946 -655.32 946 -656 946 C-656 945.34 -656 944.68 -656 944 C-656.66 944 -657.32 944 -658 944 C-658 942.68 -658 941.36 -658 940 C-658.66 940 -659.32 940 -660 940 C-660 938.68 -660 937.36 -660 936 C-660.66 936 -661.32 936 -662 936 C-662 933.36 -662 930.72 -662 928 C-660 931 -660 931 -659.25 933.1875 C-656.32505865 939.76861804 -651.18973855 946.21134912 -645 950 C-639.18277818 952.06608896 -633.93715241 952.28129501 -627.79795265 952.24888897 C-626.27100075 952.2527999 -626.27100075 952.2527999 -624.71320134 952.25678983 C-621.29210608 952.2631007 -617.87119363 952.2551196 -614.45010376 952.24723816 C-611.97620112 952.24882608 -609.50229891 952.25128951 -607.02839792 952.25455457 C-601.64389028 952.25963621 -596.25943725 952.25848957 -590.87493515 952.2518692 C-582.86663289 952.24205017 -574.8583615 952.24368458 -566.85005566 952.2476195 C-553.37009923 952.25389785 -539.89016029 952.25071832 -526.41020584 952.24202538 C-513.04110171 952.23340624 -499.67200544 952.22850531 -486.30289841 952.22869301 C-485.47081525 952.22870065 -484.63873208 952.2287083 -483.78143428 952.22871618 C-480.40336819 952.22875709 -477.0253021 952.2288227 -473.647236 952.22892199 C-441.93518156 952.22982863 -410.22313905 952.21987859 -378.51108876 952.20449232 C-350.39459779 952.19090056 -322.27811532 952.18462967 -294.16162109 952.18530273 C-292.35995649 952.18534315 -290.55829188 952.18538351 -288.75662728 952.18542381 C-287.86588669 952.18544416 -286.9751461 952.18546452 -286.05741338 952.18548548 C-281.57264665 952.18558629 -277.08787991 952.18567687 -272.60311317 952.18575573 C-271.71816653 952.18577244 -270.83321989 952.18578916 -269.92145668 952.18580638 C-246.38634811 952.18617276 -222.85124059 952.18161918 -199.3161329 952.17542917 C-198.4771786 952.17520889 -197.6382243 952.17498862 -196.77384714 952.17476168 C-193.40075704 952.17387352 -190.02766695 952.17298507 -186.65457686 952.17207072 C-174.97314956 952.168925 -163.2917231 952.16740329 -151.61029541 952.16695923 C-136.52766002 952.16635851 -121.4450316 952.16229485 -106.36239918 952.15252777 C-99.09970462 952.14790427 -91.83701787 952.14476765 -84.57432175 952.14612198 C-68.70827751 952.14827936 -52.84305172 952.11459011 -36.97729212 952.01548216 C-34.14830099 952.00077118 -31.31944188 951.99465417 -28.490417 951.99175477 C-24.5337659 951.98609703 -20.57854674 951.9526697 -16.62236945 951.89157126 C-14.67321217 951.86735884 -12.72376925 951.87064869 -10.77446806 951.87567443 C-2.45515391 951.69275966 4.04406971 949.66187974 11 945 C12.76205411 943.05496372 13.77372927 941.3410623 15 939 C15.66 939 16.32 939 17 939 C17.48108275 937.58398286 17.95978141 936.16715563 18.4375 934.75 C18.70433594 933.96109375 18.97117187 933.1721875 19.24609375 932.359375 C20.63915317 927.99974862 21.12577002 924.33461109 21.12880117 919.7234996 C21.13370946 917.77191128 21.13370946 917.77191128 21.13871691 915.78089693 C21.13730677 914.33075214 21.13580475 912.88060745 21.13422108 911.43046284 C21.13617358 909.8885224 21.13856226 908.34658246 21.14134905 906.8046433 C21.14776487 902.54197171 21.14790941 898.27931893 21.14707164 894.01664344 C21.14724083 889.38875018 21.15314344 884.76086373 21.1583125 880.13297385 C21.16765126 870.94268769 21.17156269 861.75240635 21.17383147 852.56211603 C21.17679019 841.55878557 21.18548559 830.55546153 21.19424575 819.55213443 C21.21510376 792.95514549 21.22556171 766.35815543 21.23437535 739.76116021 C21.23857956 727.18429835 21.24380182 714.60743698 21.24905988 702.03057552 C21.26666999 659.67095787 21.28172379 617.31133979 21.28903012 574.95171904 C21.28961409 571.57478866 21.29021136 568.19785828 21.29080774 564.8209279 C21.29098492 563.81610909 21.29098492 563.81610909 21.29116567 562.79099091 C21.29236307 556.00411432 21.29357183 549.21723773 21.29479821 542.43036115 C21.29504344 541.06956712 21.2952873 539.70877308 21.29552978 538.34797904 C21.30332035 494.63952092 21.32570569 450.93108965 21.3582062 407.22264326 C21.39304378 360.35538667 21.41368057 313.48814523 21.41702431 266.62087363 C21.41744187 261.5534135 21.41792144 256.48595339 21.41844749 251.41849327 C21.41857069 250.1707012 21.41869388 248.92290912 21.4188208 247.63730516 C21.42115556 227.53257661 21.4368308 207.42787947 21.45728934 187.32316213 C21.47751623 167.12614426 21.48303951 146.92916425 21.47351871 126.73213813 C21.46829166 114.72521439 21.47423795 102.71841643 21.49605338 90.71151072 C21.50951822 82.69669029 21.50852281 74.68195685 21.49565142 66.66713564 C21.48872601 62.09681646 21.48818303 57.52673848 21.50521151 52.95644043 C21.52057638 48.79886806 21.51753598 44.64173152 21.49980123 40.4841723 C21.49665074 38.98929837 21.50020783 37.49439142 21.51129298 35.99955526 C21.58760633 24.99182121 20.26906569 16.85106186 12.71484375 8.56640625 C9.77249399 5.87874736 6.44789357 3.96287331 3 2 C2.01 1.34 1.02 0.68 0 0 Z " fill="#D08788" transform="translate(664,2)"/>
<path d="M0 0 C2 3 2 3 2.75 5.1875 C5.67494135 11.76861804 10.81026145 18.21134912 17 22 C22.84186099 24.07727851 28.12835537 24.28538505 34.29422665 24.26171303 C35.32208126 24.26570909 36.34993588 24.26970515 37.4089376 24.27382231 C40.86332608 24.28481696 44.31755492 24.28159236 47.7719574 24.2784729 C50.26938005 24.28347459 52.76680108 24.28935001 55.26421982 24.29602563 C60.69922006 24.30854715 66.13417354 24.31488318 71.56918716 24.31578636 C79.65083038 24.31716281 87.73242742 24.32994885 95.81405517 24.3450741 C109.40884786 24.37019434 123.00363665 24.38605947 136.5984478 24.39665604 C150.05966468 24.4071787 163.52086675 24.42181114 176.98207283 24.44193649 C177.81894511 24.44318536 178.65581739 24.44443423 179.51804943 24.44572094 C183.76807394 24.45208466 188.01809833 24.45852185 192.26812268 24.46498732 C222.37364633 24.51065405 252.47917479 24.54709997 282.5847168 24.578125 C311.83244531 24.60828711 341.08016406 24.64262479 370.32788086 24.68261719 C371.22936995 24.68384819 372.13085903 24.68507919 373.05966597 24.6863475 C382.1127623 24.69871432 391.1658585 24.71116605 400.21895462 24.72367998 C418.66127365 24.74917054 437.10359343 24.77409438 455.5459137 24.79867554 C456.81784512 24.8003719 456.81784512 24.8003719 458.11547212 24.80210253 C514.74363674 24.87756204 571.37181739 24.93976908 628 25 C628 25.33 628 25.66 628 26 C427.36 26 226.72 26 20 26 C20 25.34 20 24.68 20 24 C18.02 24 16.04 24 14 24 C14 23.34 14 22.68 14 22 C12.68 22 11.36 22 10 22 C10 21.34 10 20.68 10 20 C9.34 20 8.68 20 8 20 C8 19.34 8 18.68 8 18 C7.34 18 6.68 18 6 18 C6 17.34 6 16.68 6 16 C5.34 16 4.68 16 4 16 C4 14.68 4 13.36 4 12 C3.34 12 2.68 12 2 12 C2 10.68 2 9.36 2 8 C1.34 8 0.68 8 0 8 C0 5.36 0 2.72 0 0 Z " fill="#C86A64" transform="translate(2,930)"/>
<path d="M0 0 C0.33 0 0.66 0 1 0 C1 94.38 1 188.76 1 286 C0.34 286 -0.32 286 -1 286 C-1 287.98 -1 289.96 -1 292 C-1.66 292 -2.32 292 -3 292 C-3 293.32 -3 294.64 -3 296 C-3.66 296 -4.32 296 -5 296 C-5 297.32 -5 298.64 -5 300 C-5.66 300 -6.32 300 -7 300 C-7 300.66 -7 301.32 -7 302 C-7.66 302 -8.32 302 -9 302 C-9 302.66 -9 303.32 -9 304 C-9.66 304 -10.32 304 -11 304 C-11 304.66 -11 305.32 -11 306 C-12.32 306 -13.64 306 -15 306 C-15 306.66 -15 307.32 -15 308 C-16.98 308 -18.96 308 -21 308 C-21 308.66 -21 309.32 -21 310 C-32.88 310 -44.76 310 -57 310 C-57 309.34 -57 308.68 -57 308 C-56.06317383 308.00112793 -55.12634766 308.00225586 -54.16113281 308.00341797 C-50.62651891 307.99338884 -47.09417105 307.95647183 -43.56005859 307.90234375 C-42.04159182 307.88436993 -40.52296409 307.87658086 -39.00439453 307.87988281 C-28.85167963 307.89328574 -20.60526662 307.09516631 -12 301 C-10.25203779 299.0525391 -9.22268729 297.33422119 -8 295 C-7.34 295 -6.68 295 -6 295 C-5.80664062 294.41992188 -5.61328125 293.83984375 -5.4140625 293.2421875 C-3 286 -3 286 -1.9641819 283.54979515 C-0.60882525 278.55982544 -0.71223405 273.79763609 -0.7215271 268.64859009 C-0.7157347 267.50006888 -0.7099423 266.35154767 -0.70397437 265.16822278 C-0.68992948 261.98930406 -0.68474547 258.81051402 -0.68332577 255.63156915 C-0.67962609 252.20012421 -0.66446778 248.76872748 -0.65071106 245.33731079 C-0.62845224 239.39513277 -0.61343068 233.45297193 -0.60334396 227.51076126 C-0.58874984 218.91936041 -0.56321096 210.32801943 -0.53501268 201.73665373 C-0.48955802 187.79727069 -0.45293773 173.85787903 -0.421875 159.91845703 C-0.39168403 146.37872808 -0.35733124 132.83902023 -0.31738281 119.29931641 C-0.31492126 118.46453399 -0.31245972 117.62975156 -0.30992357 116.76967271 C-0.29754887 112.58175636 -0.28509235 108.39384026 -0.27259517 104.20592427 C-0.16904722 69.47064514 -0.07983741 34.73534142 0 0 Z " fill="#CC909B" transform="translate(687,646)"/>
<path d="M0 0 C0.66 0.33 1.32 0.66 2 1 C-4.93 7.93 -11.86 14.86 -19 22 C183.455 22.495 183.455 22.495 390 23 C390 23.33 390 23.66 390 24 C253.71 24 117.42 24 -23 24 C-21.20141643 20.40283286 -20.58593386 19.40234918 -17.6875 17.0625 C-11.41333702 11.77411124 -5.75755838 5.83654927 0 0 Z " fill="#C32E2C" transform="translate(240,931)"/>
<path d="M0 0 C2 3 2 3 2.75 5.1875 C5.67494135 11.76861804 10.81026145 18.21134912 17 22 C22.08252043 23.72453961 26.72913977 24.29280605 32.05491638 24.2784729 C33.22770027 24.2871615 33.22770027 24.2871615 34.42417675 24.29602563 C37.02818837 24.31294893 39.63202194 24.31589548 42.23608398 24.31884766 C44.10901826 24.32815113 45.9819484 24.33832043 47.85487366 24.34928894 C52.92866874 24.37655568 58.0024361 24.39172852 63.07628512 24.40471697 C68.38276261 24.42036203 73.68918362 24.44714789 78.99562073 24.4727478 C89.03933467 24.51951119 99.08305926 24.55626714 109.12682635 24.58942068 C120.56332356 24.62765927 131.99976402 24.6770649 143.43621337 24.72740483 C166.9574335 24.83068842 190.4786901 24.91996047 214 25 C214 25.33 214 25.66 214 26 C149.98 26 85.96 26 20 26 C20 25.34 20 24.68 20 24 C18.02 24 16.04 24 14 24 C14 23.34 14 22.68 14 22 C12.68 22 11.36 22 10 22 C10 21.34 10 20.68 10 20 C9.34 20 8.68 20 8 20 C8 19.34 8 18.68 8 18 C7.34 18 6.68 18 6 18 C6 17.34 6 16.68 6 16 C5.34 16 4.68 16 4 16 C4 14.68 4 13.36 4 12 C3.34 12 2.68 12 2 12 C2 10.68 2 9.36 2 8 C1.34 8 0.68 8 0 8 C0 5.36 0 2.72 0 0 Z " fill="#CC736E" transform="translate(2,930)"/>
<path d="M0 0 C1.98 0 3.96 0 6 0 C6 0.66 6 1.32 6 2 C7.32 2 8.64 2 10 2 C10 2.66 10 3.32 10 4 C11.32 4 12.64 4 14 4 C14 4.66 14 5.32 14 6 C14.66 6 15.32 6 16 6 C16 6.66 16 7.32 16 8 C16.66 8 17.32 8 18 8 C18 9.32 18 10.64 18 12 C18.66 12 19.32 12 20 12 C20 13.32 20 14.64 20 16 C20.66 16 21.32 16 22 16 C22 17.98 22 19.96 22 22 C22.66 22 23.32 22 24 22 C24 86.68 24 151.36 24 218 C23.67 218 23.34 218 23 218 C22.99761165 217.03700611 22.99522329 216.07401222 22.99276257 215.0818367 C22.93389347 191.61919499 22.8579649 168.15665536 22.76428509 144.69412613 C22.71937413 133.3476886 22.67994861 122.00128214 22.65356445 110.65478516 C22.63054633 100.76189459 22.59710569 90.86910271 22.55129844 80.97629046 C22.5274177 75.74110893 22.5086552 70.50602481 22.50238609 65.2707901 C22.49631193 60.33613455 22.4762282 55.4017281 22.44572449 50.46716499 C22.43698151 48.66293382 22.43321386 46.85867004 22.43499184 45.05441856 C22.5895183 25.45345408 22.5895183 25.45345408 13 9 C9.03595682 5.51786011 5.09161226 2.59112883 0 1 C0 0.67 0 0.34 0 0 Z " fill="#CE939D" transform="translate(664,2)"/>
<path d="M0 0 C0.33 0 0.66 0 1 0 C1 3.3 1 6.6 1 10 C0.34 10 -0.32 10 -1 10 C-1 11.32 -1 12.64 -1 14 C-1.66 14 -2.32 14 -3 14 C-3 15.32 -3 16.64 -3 18 C-3.66 18 -4.32 18 -5 18 C-5 18.66 -5 19.32 -5 20 C-5.66 20 -6.32 20 -7 20 C-7 20.66 -7 21.32 -7 22 C-7.66 22 -8.32 22 -9 22 C-9 22.66 -9 23.32 -9 24 C-10.32 24 -11.64 24 -13 24 C-13 24.66 -13 25.32 -13 26 C-14.98 26 -16.96 26 -19 26 C-19 26.66 -19 27.32 -19 28 C-30.88 28 -42.76 28 -55 28 C-55 27.34 -55 26.68 -55 26 C-54.06317383 26.00112793 -53.12634766 26.00225586 -52.16113281 26.00341797 C-48.62651891 25.99338884 -45.09417105 25.95647183 -41.56005859 25.90234375 C-40.04159182 25.88436993 -38.52296409 25.87658086 -37.00439453 25.87988281 C-26.85167963 25.89328574 -18.60526662 25.09516631 -10 19 C-8.25203779 17.0525391 -7.22268729 15.33422119 -6 13 C-5.34 13 -4.68 13 -4 13 C-3.51891725 11.58398286 -3.04021859 10.16715563 -2.5625 8.75 C-2.29566406 7.96109375 -2.02882813 7.1721875 -1.75390625 6.359375 C-1.08045292 4.25178012 -0.50849405 2.15246027 0 0 Z " fill="#CF8A90" transform="translate(685,928)"/>
<path d="M0 0 C2 3 2 3 2.75 5.1875 C6.01035677 12.52330272 11.932139 19.85465948 19.4453125 23.03515625 C21.61756862 23.76718613 23.78118022 24.42642754 26 25 C26 25.33 26 25.66 26 26 C24.02 26 22.04 26 20 26 C20 25.34 20 24.68 20 24 C18.02 24 16.04 24 14 24 C14 23.34 14 22.68 14 22 C12.68 22 11.36 22 10 22 C10 21.34 10 20.68 10 20 C9.34 20 8.68 20 8 20 C8 19.34 8 18.68 8 18 C7.34 18 6.68 18 6 18 C6 17.34 6 16.68 6 16 C5.34 16 4.68 16 4 16 C4 14.68 4 13.36 4 12 C3.34 12 2.68 12 2 12 C2 10.68 2 9.36 2 8 C1.34 8 0.68 8 0 8 C0 5.36 0 2.72 0 0 Z " fill="#EAB8BC" transform="translate(2,930)"/>
<path d="M0 0 C1.98 0 3.96 0 6 0 C6 0.66 6 1.32 6 2 C7.32 2 8.64 2 10 2 C10 2.66 10 3.32 10 4 C11.32 4 12.64 4 14 4 C14 4.66 14 5.32 14 6 C14.66 6 15.32 6 16 6 C16 6.66 16 7.32 16 8 C16.66 8 17.32 8 18 8 C18 9.32 18 10.64 18 12 C18.66 12 19.32 12 20 12 C20 13.32 20 14.64 20 16 C20.66 16 21.32 16 22 16 C22 17.98 22 19.96 22 22 C22.66 22 23.32 22 24 22 C24 24.31 24 26.62 24 29 C23.34 29 22.68 29 22 29 C21.77957031 27.83984375 21.77957031 27.83984375 21.5546875 26.65625 C19.33473459 16.34750316 15.51218722 10.26892494 6.90234375 4.1875 C4.6893182 2.80606311 2.49115045 1.77848452 0 1 C0 0.67 0 0.34 0 0 Z " fill="#EAB9BF" transform="translate(664,2)"/>
<path d="M0 0 C0.66 0.33 1.32 0.66 2 1 C-2.60105751 5.65184829 -7.21000179 10.2957737 -11.82446289 14.93432617 C-13.39268918 16.51259792 -14.95911417 18.09266167 -16.52368164 19.67456055 C-18.77537214 21.95056272 -21.03350298 24.22000089 -23.29296875 26.48828125 C-23.98899704 27.19463211 -24.68502533 27.90098297 -25.40214539 28.6287384 C-28.72495406 31.95230726 -31.76647376 34.83842818 -36 37 C-34.38344102 32.61521583 -30.94490087 29.97096113 -27.5625 26.9375 C-18.06878219 18.26597956 -9.04226262 9.13753691 0 0 Z " fill="#E37D5A" transform="translate(492,490)"/>
<path d="M0 0 C0 0.99 0 1.98 0 3 C-11.88 3 -23.76 3 -36 3 C-36 2.34 -36 1.68 -36 1 C-31.35524228 0.85700246 -26.7104668 0.71460174 -22.06567383 0.57275391 C-20.48559067 0.52441546 -18.9055125 0.47591398 -17.32543945 0.42724609 C-15.05421213 0.35731827 -12.78296754 0.28797691 -10.51171875 0.21875 C-9.80536789 0.19687622 -9.09901703 0.17500244 -8.3712616 0.15246582 C-5.57927832 0.06783124 -2.79348204 0 0 0 Z " fill="#D37C76" transform="translate(666,953)"/>
<path d="M0 0 C3 4 3 4 2.70033264 6.44487 C2.46922287 7.2880629 2.2381131 8.1312558 2 9 C1.89221005 10.62522802 1.82540431 12.25357135 1.79467773 13.88208008 C1.7647599 15.29297661 1.7647599 15.29297661 1.73423767 16.7323761 C1.71752518 17.7346373 1.70081268 18.7368985 1.68359375 19.76953125 C1.66281265 20.80567062 1.64203156 21.84181 1.62062073 22.90934753 C1.5553787 26.21033265 1.49635821 29.51139549 1.4375 32.8125 C1.39429068 35.05404441 1.35067562 37.29558103 1.30664062 39.53710938 C1.19972333 45.02465807 1.09791038 50.51228361 1 56 C0.67 56 0.34 56 0 56 C0 37.52 0 19.04 0 0 Z " fill="#D56353" transform="translate(2,510)"/>
<path d="M0 0 C1.98 0 3.96 0 6 0 C4.04805324 1.30129784 2.08999094 2.59348417 0.125 3.875 C-5.32897711 7.58370443 -8.69524064 10.68668313 -11.984375 16.390625 C-12.31953125 16.92171875 -12.6546875 17.4528125 -13 18 C-13.33 18 -13.66 18 -14 18 C-14 16.02 -14 14.04 -14 12 C-13.34 12 -12.68 12 -12 12 C-12 11.34 -12 10.68 -12 10 C-11.34 10 -10.68 10 -10 10 C-10 9.34 -10 8.68 -10 8 C-9.34 8 -8.68 8 -8 8 C-8 7.34 -8 6.68 -8 6 C-7.34 6 -6.68 6 -6 6 C-6 5.34 -6 4.68 -6 4 C-5.34 4 -4.68 4 -4 4 C-4 3.34 -4 2.68 -4 2 C-2.68 2 -1.36 2 0 2 C0 1.34 0 0.68 0 0 Z " fill="#F6CACD" transform="translate(18,2)"/>
<path d="M0 0 C0.33 0 0.66 0 1 0 C1 3.3 1 6.6 1 10 C0.34 10 -0.32 10 -1 10 C-1.33 10.99 -1.66 11.98 -2 13 C-2.66 13 -3.32 13 -4 13 C-3.79503906 12.39671875 -3.59007812 11.7934375 -3.37890625 11.171875 C-2.97478516 9.97304688 -2.97478516 9.97304688 -2.5625 8.75 C-2.29566406 7.96109375 -2.02882813 7.1721875 -1.75390625 6.359375 C-1.08045292 4.25178012 -0.50849405 2.15246027 0 0 Z " fill="#D08384" transform="translate(685,928)"/>
<path d="M0 0 C4.20626034 1.50223584 5.73900021 4.28550034 8 8 C4.20645982 6.50968064 2.3521464 4.27620391 0 1 C0 0.67 0 0.34 0 0 Z " fill="#EB8954" transform="translate(436,505)"/>
<path d="M0 0 C0.99 0.33 1.98 0.66 3 1 C2.67 1.99 2.34 2.98 2 4 C1.01 3.67 0.02 3.34 -1 3 C-0.67 2.01 -0.34 1.02 0 0 Z " fill="#F8D1D4" transform="translate(7,0)"/>
<path d="M0 0 C0.99 0.495 0.99 0.495 2 1 C1.67 1.99 1.34 2.98 1 4 C0.67 2.68 0.34 1.36 0 0 Z " fill="#F7D1D4" transform="translate(0,8)"/>
</svg>
