<svg xmlns="http://www.w3.org/2000/svg" width="694" height="967"><path d="M26 1h642v2h6v2h6v2h2v2h2v2h2v2h2v2h2v6h2v4h2v918h-2v6h-2v4h-2v2h-2v2h-2v2h-2v2h-2v2h-4v2h-6v2H26v-2h-6v-2h-6v-2h-2v-2h-2v-2H8v-2H6v-4H4v-4H2V21h2v-4h2v-4h2v-2h2V9h2V7h4V5h4V3h6V1Z" fill="#212A5D"/><path d="M26 1h642v2h6v2h6v2h2v2h2v2h2v2h2v2h2v6h2v4h2v918h-2v6h-2v4h-2v2h-2v2h-2v2h-2v2h-2v2h-4v2h-6v2H26v-2l1.671-.002c60.046-.06 120.091-.123 180.137-.2l2.717-.003a1269354.936 1269354.936 0 0 0 87.136-.112l2.882-.004c30.833-.04 61.666-.074 92.499-.104a204873.359 204873.359 0 0 0 108.464-.133l2.668-.004c14.18-.02 28.36-.033 42.54-.043 14.252-.011 28.503-.029 42.755-.054 8.47-.015 16.94-.024 25.409-.026 5.657-.001 11.314-.01 16.972-.024 3.223-.008 6.447-.012 9.67-.01 3.475.003 6.95-.007 10.424-.02l3.026.012c10.222-.065 18.887-1.748 27.03-8.273 5.903-6.914 8.304-13.352 8.262-22.408l.012-2.57c.01-2.856.008-5.712.004-8.567a6705.938 6705.938 0 0 0 .038-23.222c.004-6.12.02-12.239.033-18.358.023-10.606.038-21.21.048-31.816.01-11.124.025-22.248.045-33.372l.004-2.095.019-10.535c.046-24.877.082-49.753.113-74.63.03-24.169.065-48.337.105-72.506l.003-2.257a1140308.653 1140308.653 0 0 1 .113-68.156l.003-2.124c.076-46.794.138-93.59.198-140.384h-5v-2l-2.309-.113c-5.81-.37-10.92-.985-16.351-3.106-2.391-.876-2.391-.876-5.211-1.187-7.312-1.118-10.606-3.476-14.879-9.281A173.747 173.747 0 0 1 643 421c-3.267 1.359-4.555 2.552-6.25 5.625-1.27 1.879-1.27 1.879-2.75 3.375-4.38.626-6.721.46-10.848-1.023-3.378-1.047-6.129-1.144-9.652-1.164-5.883-.368-5.883-.368-8.5-2.254-1.48-1.784-2.734-3.62-4-5.559l-2.813-2.813C596 415 596 415 595 413h-3a182.951 182.951 0 0 0-3.492 5.434c-2.89 3.63-4.997 5.8-9.583 6.535-4.119.339-8.227.295-12.355.173-2.74-.08-5.473-.097-8.214-.094-3.702.002-7.403-.016-11.106-.046-7.332-.033-14.623.328-21.938.81l-3.79.249c-9.37.694-18.475 2.118-27.674 3.994-5.81 1.18-11.643 1.841-17.536 2.453-3.307.491-6.165 1.386-9.312 2.492-1.618.365-3.243.7-4.875 1-3.185.603-6.307 1.285-9.438 2.125-5.784 1.373-5.784 1.373-8.687.875-1.813-2-1.813-2-3-4-3.123 1.34-4.634 2.607-6.563 5.375-3.864 4.718-8.74 5.971-14.437 7.625l-2.16.719c-3.204 1.034-4.562 1.374-7.84.281-1.188-2.063-1.188-2.063-2-4h7v-2h-2c-1.29-1.46-1.29-1.46-2.625-3.375l-1.352-1.898C408 436 408 436 408 434h7l-1.531-1.898-1.969-2.477-1.969-2.46C408 425 408 425 408 423l6-1a3176.513 3176.513 0 0 0-5.188-6.188l-1.462-1.751A135.75 135.75 0 0 0 398 404l-.688 1.563c-1.794 3.332-3.812 6.584-6.312 9.437h-2l-.875 2.375C387 420 387 420 385 422l6 1c-.593 3.392-1.767 5.21-4.063 7.75l-1.66 1.86L384 434h7c-1.78 4.044-4.395 7.46-7 11h7a393.378 393.378 0 0 1-1.813 3.813l-1.019 2.144c-1.174 2.054-2.424 3.46-4.168 5.043h7c-1.125 1.938-1.125 1.938-3 4-3.188.75-3.188.75-6 1v2c-6.271 3.182-12.536 6.23-19 9a884.72 884.72 0 0 0-9.426 4.793C351 478 351 478 349 478v2c-1.871 1.332-1.871 1.332-4.438 2.813l-2.777 1.617a460.168 460.168 0 0 1-7.285 4.007c-5.106 2.81-9.77 6.17-14.5 9.563-1.645 1.148-3.29 2.293-4.938 3.438-4.569 3.194-9.072 6.475-13.57 9.769a142.328 142.328 0 0 1-6.117 4.168c-2.468 1.406-2.468 1.406-3.375 3.625l-4-2-3-1.375c-3-1.625-3-1.625-4.871-3.531-2.252-2.215-4.46-3.646-7.192-5.219-7.803-4.53-7.803-4.53-8.812-7.125-1.046-2.556-1.973-3.896-3.75-5.938C258 491 258 491 258 489l6-1c-.786-1.15-1.58-2.294-2.375-3.438l-1.336-1.933c-1.21-1.766-1.21-1.766-3.289-2.629l-1-3a181.008 181.008 0 0 0-4-4l-1-2c-3.43 1.144-3.912 2.217-5.75 5.168-2.416 3.541-5.38 6.656-8.25 9.832-4.176-.684-7.88-2.014-11.813-3.563l-3.519-1.378c-.88-.35-1.76-.7-2.668-1.059v-2l4-1v-2h-2c-1.86-2.592-3.572-5.144-5-8l7-1c-4.463-5.86-9.083-11.515-14-17-2.648 2.578-4.944 4.916-7 8h-2l-.75 1.688c-1.466 2.712-3.28 4.948-5.25 7.312l6 1v3c-6.816 3.408-19.059-1.281-26-3l-2.785-1c-4.409-1.371-8.835-1.945-13.403-2.563l-2.673-.38a250.763 250.763 0 0 0-30.276-2.373l-3.047-.063c-3.167-.065-6.335-.124-9.504-.183l-6.498-.131c-5.271-.107-10.542-.209-15.814-.307l-1-3 6-1-6-9 7-1-2.5-2.875C91 440.25 91 440.25 91 438h-2v-2l6-1-1.531-1.898-1.969-2.477-1.969-2.46C88 426 88 426 88 424h-2a125.024 125.024 0 0 1-4-6c-3.681 1.227-4.534 2.64-6.875 5.688l-2.117 2.722L71 429a547.14 547.14 0 0 1-5 6l7 1c-2.06 3.605-4.351 6.803-7 10l7 1-1.277 1.68-1.66 2.195-1.653 2.18c-1.45 1.889-1.45 1.889-2.41 3.945h7c-1.875 3.875-1.875 3.875-3 5-1.345.25-2.7.444-4.059.613l-2.58.338-2.798.361c-17.809 2.44-36.584 5.8-52.766 13.989C6 478 6 478 2 478V21h2v-4h2v-4h2v-2h2V9h2V7h4V5h4V3h6V1Z" fill="#72387C"/><path d="M398 404c3.237 1.389 5.04 2.922 7.234 5.66l1.739 2.154 1.777 2.248 1.824 2.26C415 421.847 415 421.847 415 423h-7l1.277 1.645 1.66 2.168 1.653 2.144C414 431 414 431 415 434h-7l1.094 1.46 1.406 1.915 1.406 1.898C413 441 413 441 413 443h2v2l-6 1 2 3c5.629-.494 9.846-1.518 15-4l3.313-1.5c2.927-1.366 2.927-1.366 4.687-4.5h2l2-4h4l2 3c1.376-.116 2.75-.243 4.125-.375.766-.07 1.531-.14 2.32-.21 2.646-.358 2.646-.358 5.434-1.388 3.322-1.093 6.472-1.619 9.933-2.09 3.915-.225 3.915-.225 7.188-1.937a87.374 87.374 0 0 1 4.602-.648l2.93-.36c2.007-.238 4.015-.475 6.023-.71 5.686-.7 11.245-1.624 16.851-2.813 7.162-1.47 14.178-2.184 21.469-2.594l3.907-.26c8.02-.503 15.994-.638 24.03-.572 2.776.003 5.55.002 8.326.001 1.81.012 3.62.045 5.43.098 10.545.72 10.545.72 19.62-3.662 2.247-2.73 4.117-5.382 5.812-8.48 3.781.758 3.781.758 5.75 2.938C599 417 599 417 599 419l3 1 2.11 2.98c2.213 2.777 3.773 3.515 7.28 4.008 1.618.136 3.239.243 4.86.325 8.692.63 8.692.63 9.75 1.687 1.347.23 2.704.412 4.063.563L634 430l.688-1.625c1.746-3.16 3.952-5.643 6.312-8.375 3.59 1.466 5.364 3.368 7.688 6.438l1.824 2.37C652 431 652 431 653 434l2.309.332c5.682.873 10.914 1.98 16.312 3.938 4.677 1.436 9.545 2.035 14.379 2.73v2h5c.034 47.545.066 95.09.085 142.635v2.13a775564.886 775564.886 0 0 1 .025 68.32v2.26c.01 24.189.024 48.377.043 72.566a125273.447 125273.447 0 0 1 .037 85.06v2.092c.003 11.127.012 22.255.024 33.383.011 11.175.016 22.35.013 33.526-.001 6.06 0 12.12.011 18.18.01 5.538.01 11.077.004 16.616-.001 2.013.002 4.025.008 6.037.008 2.719.004 5.437-.004 8.156l.016 2.41c-.034 5.4-.034 5.4-2.262 7.629V667l-5-1v-2l-3.375.563C677 665 677 665 675 664a157.646 157.646 0 0 0-5.813-.5c-2.999-.209-5.876-.437-8.824-1.031-2.615-.599-2.615-.599-6.363-.469l-1 2a790.547 790.547 0 0 1-3.5-4.375l-1.969-2.46C646 655 646 655 646 653h11c-4.945-8.62-4.945-8.62-12-15v-2h12l-2.625-3.5L645 620h13v-2l-1.734-.691c-2.874-1.66-4.459-3.652-6.516-6.246l-2.14-2.653C646 606 646 606 646 603h11a644.244 644.244 0 0 0-15.142-18.444C634 575.334 634 575.334 634 573c-4.2 2.928-6.984 6.385-10.031 10.422-2.887 3.78-5.926 7.43-8.953 11.098a89.208 89.208 0 0 0-3.657 4.804L610 601h-2v2h12c-1.861 4.654-3.232 6.654-6.563 10.188-3.079 3.154-3.079 3.154-5.437 6.812h12c-2 4-2 4-4 7h-2l-.813 1.688c-1.283 2.498-2.742 4.903-4.187 7.312h12c0 2 0 2-2.063 4.125l-1.363 1.309c-5.42 5.31-5.42 5.31-9.574 11.566h11c-1.778 4.446-2.644 5.98-6 9v-2c-6.427-.128-12.71.19-19.11.781-3.295.25-6.541.236-9.843.188-3.079.047-6.014.515-9.047 1.031l2-3-1.969-2.117-2.531-2.758-2.531-2.742C568 649 568 649 568 647h9c-2.6-4.091-2.6-4.091-5.75-7.75L570 638v-2h-2v-2l9-1-1.906-2.273A944.842 944.842 0 0 1 559 611c-3.504 1.168-4.147 2.16-6.313 5.063l-1.843 2.437a670.31 670.31 0 0 0-3.563 4.875l-1.593 2.188-1.426 2.003L543 629h-2l-2 4 8 1c-1.06 3.275-2.393 5.614-4.625 8.188-2.59 2.453-2.59 2.453-2.375 4.812l6 1c-.612 3.44-1.92 5.516-4.063 8.25l-1.66 2.14L539 660h8c-.472 4.248-2.967 6.2-6 9v-2c-3.057-.18-5.083.03-8 1.063-3.21 1.002-4.822.872-8-.063v2l-3.313.313c-4.493.551-8.732 1.712-13.074 2.968-2.613.719-2.613.719-5.328 1.25-2.289.357-2.289.357-4.16 1.469-2.952 1.39-5.907 1.583-9.125 2l-2 1-2-1-1 2c-2.327.69-4.66 1.355-7 2l-3 2c-1.991.381-3.993.713-6 1l-2.25.563C465 686 465 686 463 686l-1 4h-2c-1.29-1.46-1.29-1.46-2.625-3.375l-1.352-1.898C455 683 455 683 455 681c-3.326 3.118-6.176 6.416-9 10-2.824 3.584-5.674 6.882-9 10l-2-2-2.625 1.563c-22.552 12.86-22.552 12.86-28.387 12.214-2.491-.974-3.49-2.146-5.175-4.215l-1.868-2.222L395 704c-5.82-6.781-12.024-13.156-18.313-19.5l-2.391-2.431-2.284-2.288-2.048-2.06c-1.923-1.685-3.674-2.628-5.964-3.721a280.711 280.711 0 0 1-5-5 208.488 208.488 0 0 0-9.688-8.125c-2.262-1.834-4.292-3.78-6.312-5.875l2-1c-1.735-4.053-4.463-7.33-7.188-10.75l-1.488-1.882c-3.215-4.043-6.513-7.99-9.984-11.817C325 628 325 628 323 625l-3-1-.688 1.625c-1.746 3.16-3.952 5.643-6.312 8.375a469.756 469.756 0 0 1-14.953-8.523c-8.556-5.079-17.19-9.939-26.047-14.477l-2.69-1.382c-7.06-3.581-14.203-6.857-21.498-9.93l-3.363-1.418a562.545 562.545 0 0 0-23.949-9.332l-3.052-1.12c-5.388-1.921-10.624-3.402-16.274-4.324-5.127-1.166-7.398-3.668-10.612-7.744-.78-.984-1.562-1.967-2.367-2.98L186 570a516.422 516.422 0 0 0-3.063-3.563C181 564 181 564 181 562c-6.243 5.927-6.243 5.927-11 13h-3v-2l-1.818-.153a173.498 173.498 0 0 1-15.871-2.205c-13.033-2.396-26.066-3.655-39.262-4.69l-2.177-.174c-1.968-.156-3.936-.304-5.905-.453C99 565 99 565 97 564c-.945-1.68-1.889-3.36-2.818-5.048-1.953-3.225-4.434-5.955-6.932-8.764C82 544.263 82 544.263 82 542c-1.95.195-1.95.195-4 1-.26.54-.52 1.08-.79 1.637-1.741 3.4-4.211 6.056-6.71 8.926-3.949 4.561-3.949 4.561-7.5 9.437h8l-1 3-1-2c-26.36 1.77-26.36 1.77-52.625 4.563l-2.735.346C9.27 569.514 6.22 570.312 2 572v-94c21.157-7.934 42.284-14.49 64.875-16.313 3.22-.4 3.22-.4 5.063-2.75L73 457h-7c1.527-3.436 3.6-6.12 6-9l-7-1c2.06-3.605 4.351-6.803 7-10l-7-1c4.768-6.526 9.85-12.774 15-19 3.412 1.137 4.119 2.043 6 5v2h2a98.796 98.796 0 0 1 4.125 5.438l2.195 3.058C96 435 96 435 96 436h-7v2h2a124.837 124.837 0 0 1 4 6l2 3-7 1 6 9h-7l1 2 3.778.044c64.474.812 64.474.812 85.222 7.956 7.065 1.91 13.665 3.431 21 3v-3h-7l1.277-1.68 1.66-2.195 1.653-2.18c1.45-1.889 1.45-1.889 2.41-3.945h2l.688-1.688c1.668-2.94 3.9-4.962 6.312-7.312a930.55 930.55 0 0 1 5.25 5.563l1.488 1.556c3.445 3.697 5.896 7.414 8.262 11.881l-7 1 2 2.375c2 2.625 2 2.625 2 4.625h2l1 3h-5v2l1.758.332c3.854.782 7.023 1.556 10.554 3.356 2.478 1.483 2.478 1.483 4.602 1.195 2.96-1.253 4.216-3.152 6.149-5.695l2.035-2.645c.627-.84 1.255-1.678 1.902-2.543l1.746-2.324L249 470l3 1 2 5 3 1v3l1.75.563c3.354 2.143 4.43 4.925 6.25 8.437h-7l1.531 1.828 1.969 2.422 1.969 2.39C265 498 265 498 265 502l1.578.75c3.138 1.62 6.155 3.42 9.172 5.25l1.824 1.078c1.51.918 2.973 1.914 4.426 2.922v2l1.625.25c3.21 1.014 5.638 2.822 8.375 4.75l1-3c1.941-1.656 1.941-1.656 4.563-3.5l3.003-2.125c4.49-3.116 8.995-6.212 13.51-9.291A354.542 354.542 0 0 0 326 492.562c3.57-2.625 7.06-4.772 11.082-6.62 2.903-1.426 5.56-3.207 8.254-4.989C347 480 347 480 349 480v-2c8.082-4.089 16.18-8.14 24.375-12l1.926-.916C379.762 463 379.762 463 382 463v-2l3.438-1.438c3.32-1.198 3.32-1.198 4.562-2.562l-6-1 1-3h2l.375-1.813C388 449 388 449 390 446l-6-1c1.78-4.044 4.395-7.46 7-11h-7c1.453-3.39 3.413-5.413 6-8l1-3h-7c.783-1.339 1.577-2.67 2.375-4l1.336-2.25L389 415h2l.688-1.563c1.81-3.361 4.052-6.366 6.312-9.437Zm142 261 2 2v-2h-2Zm-103 32 1 2Z" fill="#252E65"/><path d="M291 730c4.035 1.555 6.075 4.178 8.75 7.5l2.422 2.969C304 743 304 743 304 745h2a111.717 111.717 0 0 1 4.438 5.688 269.193 269.193 0 0 0 11.375 14.187C332 776.78 332 776.78 332 780l-20 1a650273763695575 650273763695575 0 0 0 11 13l1.388 1.647c1.251 1.488 2.494 2.983 3.737 4.478l2.195 2.633C332 805 332 805 333 808h-21c3.444 4.51 6.947 8.954 10.582 13.313l1.918 2.302c1.287 1.544 2.58 3.083 3.875 4.62l1.809 2.167 1.642 1.953C333 834 333 834 333 836l-20 1 5 6.375 1.636 2.088a696.599 696.599 0 0 0 11 13.646C332 861 332 861 332 863h-21v2l3 1c1.945 2.117 1.945 2.117 4.125 4.875l2.379 2.992 1.235 1.562c1.26 1.569 2.548 3.108 3.85 4.641l2.474 2.93 2.285 2.688C332 888 332 888 332 891h-81c1.505-3.01 2.49-4.769 4.61-7.172l1.53-1.753 1.61-1.825c7.364-8.106 7.364-8.106 13.25-17.25h-20c2.248-5.62 2.248-5.62 4.863-8.523l1.69-1.907 1.76-1.945c1.144-1.276 2.286-2.555 3.425-3.836l1.533-1.697c2.402-2.906 4.537-6.024 6.729-9.092h-21c1.827-4.566 2.999-6.39 6.25-9.813 3.364-3.628 6.467-7.29 9.363-11.3 1.726-2.349 3.566-4.611 5.387-6.887h-21c1.412-2.824 2.714-5.201 4.5-7.75l1.281-1.86L258 797h2l.68-1.61c1.768-3.202 4.08-5.871 6.445-8.64L272 781l-20-1c1.162-4.65 3.398-7.094 6.5-10.563 1.101-1.256 2.201-2.514 3.3-3.773.546-.62 1.09-1.242 1.652-1.882 3.623-4.17 7.068-8.492 10.548-12.782 1.52-1.855 3.041-3.709 4.563-5.563A1465.034 1465.034 0 0 0 291 730ZM542 816c4.242 1.538 6.343 4.698 8.938 8.188A279.695 279.695 0 0 0 563.5 839.5a332.886 332.886 0 0 1 13.986 17.021c1.689 2.192 3.338 4.307 5.319 6.245C584 864 584 864 584 866l-21 1 3.438 3.813c6.613 7.446 12.771 15.08 18.562 23.187l-22 1c3.286 3.535 3.286 3.535 6.582 7.06C573 905.778 573 905.778 573 908h2c1.621 1.793 1.621 1.793 3.438 4.188l1.808 2.355c1.713 2.4 3.237 4.93 4.754 7.457h-21c5 7.054 10.174 13.62 16 20 2.563 2.875 2.563 2.875 4 5l-1 3h-19l1 4 3 1c1.57 1.777 1.57 1.777 3.125 3.938l1.57 2.152C574 963 574 963 575 965h-63c2.743-5.485 6.357-10.065 10-15h-20c2.248-5.621 2.248-5.621 4.574-8.234l1.515-1.728 1.599-1.788c1.083-1.236 2.165-2.473 3.246-3.71l1.589-1.82c2.973-3.462 5.72-7.086 8.477-10.72h-21c4.859-9.718 13.296-19.296 21-27l-21-1c1.537-3.075 2.98-5.523 5-8.25l1.563-2.14L510 882h2c.235-.541.47-1.083.71-1.64 2.69-4.923 6.717-9.072 10.29-13.36l-21-1c2.898-4.347 5.795-8.268 9.188-12.188l2.94-3.44 1.47-1.72c2.786-3.283 5.497-6.626 8.215-9.965 2.261-2.778 4.537-5.545 6.812-8.312A587.633 587.633 0 0 0 542 816Z" fill="#0F1A3F"/><path d="M202 121c13.327 4.977 25.484 15.26 32 28 1.865 4.607 3.47 9.272 5 14l1.11 2.852c4.286 15.153.161 32.045-6.938 45.652C224.075 225.98 211.358 236.097 195 241l-2.094.684c-15.389 4.29-33.298 1.425-47.156-6.184-11.824-7.004-20.566-17.314-26.75-29.5v-2c7.625 1.875 7.625 1.875 11 3 1.918.15 3.84.248 5.762.316l3.388.127 3.537.12 3.573.13c2.913.107 5.826.209 8.74.307v-2l2.64-.629c17.257-4.463 29.695-13.304 39.25-28.348 8.913-15.39 10.552-33.48 6.61-50.71-.478-1.777-.969-3.551-1.5-5.313Z" fill="#FBCFA9"/><path d="M364 860c4.154 1.559 6.47 4.597 9.188 7.938l1.44 1.741c.98 1.186 1.957 2.374 2.93 3.565a497.268 497.268 0 0 0 4.16 4.99l2.47 2.953 2.23 2.668C388 886 388 886 388 888l3 1c1.29 1.46 1.29 1.46 2.625 3.375 3.319 4.626 6.946 8.955 10.617 13.305C406 908 406 908 406 910h-21l3.938 4.813 2.476 3.03c1.675 2.049 3.358 4.089 5.047 6.126 3.759 4.546 7.422 9.017 10.539 14.031-2.297 1.148-3.583 1.116-6.133 1.098l-2.441-.01-2.551-.025-2.574-.014c-2.1-.012-4.2-.03-6.301-.049 2.152 3.79 4.59 7.087 7.375 10.438l2.395 2.898a466.06 466.06 0 0 0 3.93 4.64c3.3 3.84 3.3 3.84 3.3 6.024h2v2h-81c1.673-3.346 3.163-5.598 5.5-8.438 4.957-6.096 9.722-12.324 14.5-18.562l-21 1c1.791-7.166 6.881-11.881 12-17a195.044 195.044 0 0 0 4.473-6.035C342 914 342 914 346 910h-21c2.247-5.619 2.247-5.619 4.652-8.277l1.588-1.785 1.697-1.875c4.465-5.037 8.803-10.128 12.938-15.438l1.36-1.744a686.06 686.06 0 0 0 5.933-7.756l1.894-2.5 1.598-2.148L358 867h2l.875-1.813C362 863 362 863 364 860Z" fill="#0F1A3F"/><path d="M26 1h642v2h6v2h6v2h2v2h2v2h2v2h2v2h2v6h2v4h2v918h-2v6h-2v4h-2v2h-2v2h-2v2h-2v2h-2v2h-4v2h-6v2H26v-2l1.671-.002c60.046-.06 120.091-.123 180.137-.2l2.717-.003a1269354.936 1269354.936 0 0 0 87.136-.112l2.882-.004c30.833-.04 61.666-.074 92.499-.104a204873.359 204873.359 0 0 0 108.464-.133l2.668-.004c14.18-.02 28.36-.033 42.54-.043 14.252-.011 28.503-.029 42.755-.054 8.47-.015 16.94-.024 25.409-.026 5.657-.001 11.314-.01 16.972-.024 3.223-.008 6.447-.012 9.67-.01 3.475.003 6.95-.007 10.424-.02l3.026.012c10.222-.065 18.887-1.748 27.03-8.273 5.903-6.914 8.304-13.352 8.262-22.408l.012-2.57c.01-2.856.008-5.712.004-8.567a6705.938 6705.938 0 0 0 .038-23.222c.004-6.12.02-12.239.033-18.358.023-10.606.038-21.21.048-31.816.01-11.124.025-22.248.045-33.372l.004-2.095.019-10.535c.046-24.877.082-49.753.113-74.63.03-24.169.065-48.337.105-72.506l.003-2.257a1140308.653 1140308.653 0 0 1 .113-68.156l.003-2.124c.076-46.794.138-93.59.198-140.384h-5v-2l-3.938-.375c-2.214-.21-2.214-.21-4.062-.625l-1-2 13 2a135321.722 135321.722 0 0 0 .275-176.33l.004-3.744c.021-20.008.06-40.015.107-60.022.047-20.528.074-41.056.084-61.583.007-12.668.029-25.336.07-38.003.026-8.686.034-17.372.028-26.057-.004-5.012.001-10.024.028-15.036.024-4.59.026-9.18.008-13.772-.002-1.658.005-3.317.02-4.975.101-11.266-1.136-19.686-8.937-28.353C678.182 8.885 674.427 6.745 670 5l-2.462-1.036c-4.795-1.306-9.292-1.236-14.24-1.21l-3.285-.007c-3.652-.005-7.304.004-10.955.012-2.637 0-5.274-.002-7.91-.005-5.744-.004-11.486 0-17.229.008-8.539.012-17.078.012-25.617.01-14.364-.002-28.728.005-43.091.017-14.224.011-28.448.02-42.672.021h-2.68l-13.468.003c-31.81.004-63.618.017-95.427.036-30.903.018-61.807.033-92.71.041h-2.887a1855066.268 1855066.268 0 0 1-87.146.025l-2.715.001C145.671 2.935 85.836 2.966 26 3V1Z" fill="#BF8799"/><path d="M632 573h2c1.629 1.8 1.629 1.8 3.563 4.313l2.152 2.757L642 583c1.536 1.9 3.077 3.797 4.625 5.688l2.254 2.757c1.86 2.24 3.758 4.434 5.683 6.617C657 601 657 601 657 603h-11c4.752 8.697 4.752 8.697 12 15v2l-12 1 2 4 3 1c2.37 3.233 4.204 6.409 6 10h-12v2l3 1a97.37 97.37 0 0 1 4.688 5.938c.415.55.83 1.102 1.26 1.67C657 650.732 657 650.732 657 653h-11l2.152 2.992 2.785 3.883c.47.651.938 1.302 1.42 1.973 3.53 4.925 3.53 4.925 4.643 7.152h-48c1.672-3.345 3.401-6.102 5.563-9.125 2.404-3.326 2.404-3.326 4.437-6.875h-11c1.877-3.755 3.861-6.512 6.5-9.75l2.406-2.984L619 638h2v-2h-12c1.035-4.14 2.166-5.908 5-9h2l.875-1.813C618 623 618 623 620 620h-12c1.888-3.775 3.865-6.412 6.563-9.625 3.024-3.486 3.024-3.486 5.437-7.375h-12c0-2 0-2 2.234-4.305L613 596a236.12 236.12 0 0 0 4.25-5.125l2.328-2.875 2.422-3c1.664-2.044 3.332-4.085 5-6.125l2.25-2.758c.883-1.068 1.77-2.137 2.75-3.117ZM92 672h2c1.417 1.549 2.758 3.168 4.063 4.813l2.425 3.03 1.257 1.583c1.978 2.481 3.993 4.933 6.005 7.386l2.23 2.735a350.325 350.325 0 0 0 5.082 6.015C117 700 117 700 117 702h-12l1.863 2.23 2.45 2.957 2.425 2.918C114 713 114 713 117 718h-12l2.371 2.957 3.067 3.856 1.564 1.947 1.494 1.885c.456.57.911 1.141 1.38 1.73C116 732 116 732 117 735l-11 1 1.934 2.3 2.504 3.013 2.496 2.988C115 747 115 747 116 750h2v2l-12 1 2.406 2.773 3.094 3.602 1.59 1.828c3.91 4.57 3.91 4.57 3.91 6.797H69c1.9-3.801 3.92-6.503 6.625-9.75l2.477-2.984L80 753l-11-1c1.41-2.82 2.508-4.831 4.383-7.234l1.347-1.739 1.395-1.777 1.418-1.824c1.15-1.478 2.303-2.952 3.457-4.426H69c1.9-3.801 3.92-6.503 6.625-9.75l2.477-2.984L80 720l-11-1c1.769-3.538 3.516-6.035 6-9.063 2.13-2.604 4.132-5.135 6-7.937H69c2.047-4.093 4.563-7.115 7.563-10.5 4.89-5.585 9.387-11.324 13.695-17.367L92 672ZM320 624c2.773.355 3.858.852 5.824 2.898l1.863 2.477 2.094 2.727L332 635a929.057 929.057 0 0 0 4.688 5.75l2.257 2.762a381.058 381.058 0 0 0 5.118 6.05C346 652 346 652 346 654h-12l2.152 2.738 2.786 3.574c.702.893.702.893 1.42 1.803 2.028 2.612 3.588 4.724 4.642 7.885h-12l1.828 2.195c7.938 9.603 7.938 9.603 11.172 14.805h-12l3.25 4.188 1.926 2.484a241.886 241.886 0 0 0 4.262 5.265C345 701 345 701 345 703h-12v2h2c1.84 2.012 1.84 2.012 3.938 4.688l2.09 2.636C343 715 343 715 346 720h-49a1085.057 1085.057 0 0 1 13-17h-12c1.9-3.801 3.92-6.503 6.625-9.75l2.477-2.984L309 688l-12-1a945.845 945.845 0 0 1 13-17h-12c2.115-3.525 4.094-6.515 6.625-9.688 2.422-3.007 2.422-3.007 4.375-6.312h-12c4.135-5.55 8.333-11.048 12.572-16.518 1.894-2.452 3.709-4.903 5.428-7.482h2l.938-1.875L320 624ZM179 562h2c1.41 1.582 1.41 1.582 3.063 3.813 2.74 3.628 5.543 7.18 8.437 10.687C204 590.505 204 590.505 204 592h-12a1951.97 1951.97 0 0 0 3.813 5.313l2.144 2.988c1.889 2.632 1.889 2.632 3.805 4.43C203 606 203 606 203 608h-12l1.828 2.195c7.938 9.603 7.938 9.603 11.172 14.805h-12c1.245 1.753 2.497 3.502 3.75 5.25.696.975 1.392 1.95 2.11 2.953 2.044 2.806 2.044 2.806 4.406 5.031C204 640 204 640 204 642h-12l2.371 2.992 3.066 3.883 1.565 1.973 1.494 1.894 1.38 1.746C203 656 203 656 204 658h-48c2.263-3.771 4.44-6.934 7.188-10.313l2.167-2.675L167 643l-11-1c1.41-2.82 2.508-4.831 4.383-7.234l1.347-1.739 1.395-1.777 1.418-1.824c1.15-1.478 2.303-2.952 3.457-4.426h-12c2.115-3.525 4.094-6.515 6.625-9.688 2.422-3.007 2.422-3.007 4.375-6.312h-11c1.41-2.82 2.508-4.831 4.383-7.234l1.347-1.739 1.395-1.777 1.418-1.824c1.15-1.478 2.303-2.952 3.457-4.426h-12c1.852-3.087 3.436-5.7 5.629-8.445l1.447-1.825 1.487-1.855c.981-1.231 1.961-2.463 2.94-3.695l1.308-1.634c1.128-1.467 2.162-3.006 3.189-4.546h2l.813-1.75c1.216-2.306 2.49-4.27 4.187-6.25ZM619 715c3.083 1.343 4.87 2.716 6.953 5.344l1.617 2.015 1.68 2.141 1.733 2.174c1.145 1.437 2.287 2.877 3.427 4.319a529.2 529.2 0 0 0 4.219 5.253C644 742.866 644 742.866 644 744h-12c4.857 6.31 4.857 6.31 9.938 12.438C644 759 644 759 644 761l-11 1 1.898 2.266 2.477 2.984 2.46 2.953C642 773 642 773 644 777h-12l2.371 2.957 3.067 3.856 1.564 1.947 1.494 1.885c.456.57.911 1.141 1.38 1.73C643 791 643 791 644 794h-12l1.863 2.23 2.45 2.957 2.425 2.918C641 805 641 805 644 810h-48c3.762-5.643 7.736-10.74 12-16h-12c1.888-3.775 3.865-6.412 6.563-9.625 3.024-3.486 3.024-3.486 5.437-7.375h-12c3.366-5.251 7.14-10.1 11-15l-11-1c1.41-2.82 2.508-4.831 4.383-7.234l1.347-1.739 1.395-1.777 1.418-1.824c1.15-1.478 2.303-2.952 3.457-4.426h-12a423.677 423.677 0 0 1 12.625-16.188l3.352-4.105 1.57-1.923A796.493 796.493 0 0 0 619 715ZM453 681h2c1.453 1.809 1.453 1.809 3.25 4.438 4.396 6.224 9.201 12.054 14.089 17.898l1.782 2.137 1.607 1.914C477 709 477 709 478 711h-12c2.392 3.987 4.725 7.22 7.688 10.75C478 726.895 478 726.895 478 728h-12c1.245 1.753 2.497 3.502 3.75 5.25.696.975 1.392 1.95 2.11 2.953 2.044 2.806 2.044 2.806 4.406 5.031C478 743 478 743 478 745h-12l1.863 2.23 2.45 2.957 2.425 2.918C475 756 475 756 478 761h-12l3.25 4.188 1.926 2.484a241.886 241.886 0 0 0 4.262 5.265C477 775 477 775 477 777h-47c3.762-5.643 7.736-10.74 12-16h-12c1.41-2.82 2.508-4.831 4.383-7.234l1.347-1.739 1.395-1.777 1.418-1.824c1.15-1.478 2.303-2.952 3.457-4.426h-12l12-16h-12c1.41-2.82 2.508-4.831 4.383-7.234l1.347-1.739 1.395-1.777 1.418-1.824c1.15-1.478 2.303-2.952 3.457-4.426h-12c3.583-5.673 7.778-10.794 12-16 1.439-1.79 2.877-3.582 4.313-5.375l1.925-2.398a97.61 97.61 0 0 0 3.367-4.516c.46-.565.92-1.13 1.395-1.711ZM557 610c3.714 1.238 4.774 2.852 7 6v2l3 1c1.43 1.602 1.43 1.602 2.875 3.625l1.563 2.164L573 627l1.5 2.086A907.229 907.229 0 0 1 578 634h-10v2h2c1.727 1.898 1.727 1.898 3.625 4.375l1.914 2.46C577 645 577 645 577 647h-9l1.496 1.574 1.942 2.114 1.933 2.074c1.791 2.46 2.257 4.246 2.629 7.238h-8l1.207 1.574c2.815 3.705 5.507 7.362 7.793 11.426h-9l1.715 2.336 2.222 3.039 2.215 3.023C576 684 576 684 577 686h-38l6-8c1.03-1.648 2.047-3.306 3-5h-9l1.75-2.563c2.262-3.385 4.26-6.885 6.25-10.437h-8c1.12-2.519 2.32-4.397 4.063-6.563 2.1-2.357 2.1-2.357 2.937-5.437h-6c0-4.355.349-4.921 2.938-8.125 2.25-2.797 2.25-2.797 4.062-5.875h-9c1.375-2.5 1.375-2.5 3-5h2l.723-2.184c1.47-3.241 3.28-5.291 5.715-7.879 2.697-2.883 5.257-5.728 7.562-8.937ZM82 542c1.7 1.871 1.7 1.871 3.688 4.438l2.136 2.746L90 552l2.082 2.598L94 557l1.75 2.188C97 561 97 561 97 563h-7c2.768 4.201 2.768 4.201 5.75 8.25C97 573 97 573 97 575l-7 1 1.75 2.152 2.25 2.785 2.25 2.778C98 586 98 586 98 587h-8l1.531 2.152 1.969 2.785 1.969 2.778C97 597 97 597 97 598h-8l1.75 2.117 2.25 2.758 2.25 2.742C97 608 97 608 97 610H64c1.569-3.138 3.023-5.508 5.125-8.25l1.633-2.14L72 598h-9l1.242-1.645 1.633-2.168 1.617-2.144A128.529 128.529 0 0 0 71 587h-8c2.499-3.837 5.084-7.46 8-11l-8-1 1.242-1.61 1.633-2.14 1.617-2.11c1.4-1.987 2.487-3.938 3.508-6.14h-8c1.293-2.789 2.705-5.026 4.715-7.348l1.58-1.834 1.642-1.88 1.631-1.893C79.531 542 79.531 542 82 542Z" fill="#0F1A3F"/><path d="M455 542h2a78.644 78.644 0 0 1 3.688 4.5 215.69 215.69 0 0 0 10.062 12.004C472 560 472 560 472 561h-8l1.531 1.898 1.969 2.477 1.969 2.46C471 570 471 570 471 572h-7a728.877 728.877 0 0 0 2.875 3.938l1.617 2.214c1.388 1.959 1.388 1.959 3.508 2.848v2l-7 1 1.531 1.68 1.969 2.195 1.969 2.18C472 592 472 592 472 594h-7l1.531 1.898 1.969 2.477 1.969 2.46C472 603 472 603 472 605h-32c1.447-2.894 2.75-5.185 4.625-7.75l1.352-1.86L447 594h-7c1.668-3.941 4.227-6.79 7-10l-7-1a56.54 56.54 0 0 1 4-7h2v-2h2v-2h-7c1.486-4.593 3.85-7.436 7-11h-8c2.754-4.407 5.856-8.229 9.324-12.098 1.393-1.58 2.702-3.234 3.988-4.902l1.688-2ZM385 516c1.832 1.941 1.832 1.941 3.813 4.563 2.481 3.234 4.976 6.392 7.687 9.437 2.5 3 2.5 3 2.5 5h-7l1.531 1.898 1.969 2.477 1.969 2.46C399 544 399 544 399 546h-7l1.531 1.898 1.969 2.477 1.969 2.46C399 555 399 555 399 557l-6 1 1.313 1.46c.556.633 1.113 1.264 1.687 1.915l1.688 1.898C399 565 399 565 399 567l-7 1 1.75 1.934 2.25 2.504 2.25 2.496C400 577 400 577 400 578h-33l6-8 2-3h-8c.978-1.313 1.958-2.626 2.938-3.938l1.652-2.214C373 559 373 559 374 558l-7-1c0-2 0-2 2.375-4.438L372 550l2-3-6-1c1.78-4.044 4.395-7.46 7-11h-7c2.067-4.408 4.921-7.956 7.938-11.75l1.63-2.113 1.584-1.996 1.438-1.828C382 516 382 516 385 516Z" fill="#0F1A40"/><path d="M592 412c2.798.386 3.82.801 5.75 2.938C599 417 599 417 599 419l3 1c1.824 1.996 1.824 1.996 3.688 4.438l1.886 2.433C609 429 609 429 609 431h-7l1.531 1.934 1.969 2.503 1.969 2.497C609 440 609 440 609 441h-8v2h2c4 4.47 4 4.47 4 7h2v2h-7l1.277 1.645 1.66 2.168 1.653 2.144C608 460 608 460 609 463h-7l1.531 1.898 1.969 2.477 1.969 2.46C609 472 609 472 609 474h-31c1.447-2.894 2.75-5.185 4.625-7.75l1.352-1.86L585 463h-7c1.78-4.044 4.395-7.46 7-11h-7c1.528-3.438 3.502-6.19 6-9h2v-2h-8c2.246-3.407 4.511-6.765 7-10h-7c1.523-3.399 3.524-6.058 5.875-8.938l2.055-2.527L588 417c1.335-1.665 2.669-3.332 4-5Z" fill="#101A40"/><path d="M644 496h2a160.54 160.54 0 0 1 5.438 6.813c.976 1.278 1.953 2.556 2.933 3.832l1.31 1.73c1.308 1.682 1.308 1.682 2.983 3.21C660 513 660 513 660 515h-7l1.531 1.898 1.969 2.477 1.969 2.46C660 524 660 524 660 526h-7a728.877 728.877 0 0 0 2.875 3.938l1.617 2.214c1.388 1.959 1.388 1.959 3.508 2.848v2l-7 1 1.313 1.46c.556.633 1.113 1.264 1.687 1.915l1.688 1.898C660 545 660 545 660 547h-7l1.496 1.898c.64.818 1.281 1.635 1.942 2.477l1.933 2.46C660 556 660 556 661 558h-32c2.019-4.037 4.081-6.62 7-10l-7-1 1.277-1.68 1.66-2.195 1.653-2.18c1.45-1.889 1.45-1.889 2.41-3.945h-7c1.78-4.044 4.395-7.46 7-11h-7c1.53-3.442 3.627-6.092 6-9l1-2h-6c1.542-5.04 4.6-8.42 8-12.313l1.656-1.955c1.4-1.62 2.867-3.182 4.344-4.732ZM439 434c2.984 1.311 4.763 2.585 6.762 5.152l1.45 1.854 1.476 1.932 1.51 1.92c2.138 2.76 3.685 4.791 4.802 8.142l-6 1 1.313 1.715 1.687 2.223 1.688 2.214C455 462 455 462 455 463h-7l1.496 1.898c.64.818 1.281 1.635 1.942 2.477l1.933 2.46C455 472 455 472 456 474h-8l1.75 2.152 2.25 2.786 2.25 2.777C456 484 456 484 456 485l-7 1c.786 1.15 1.58 2.294 2.375 3.438l1.336 1.933c1.21 1.766 1.21 1.766 3.289 2.629v2h-32c2.019-4.037 4.081-6.62 7-10l-7-1v-2h2l.813-1.75c1.204-2.283 2.595-4.224 4.187-6.25l-7-1 1.242-1.645 1.633-2.168 1.617-2.144A128.529 128.529 0 0 0 432 463h-7c1.78-4.044 4.395-7.46 7-11h-7c1.83-3.252 3.872-6.297 6.063-9.313l1.535-2.113L434 439h2l.938-1.938C438 435 438 435 439 434Z" fill="#0F1A40"/><path d="M208 448c6.604 4.953 12.57 11.42 16 19l-7 1 2 2.375c2 2.625 2 2.625 2 4.625h2l1 3h-7l1.277 1.645 1.66 2.168 1.653 2.144C223 486 223 486 224 489h-7l1.531 1.898 1.969 2.477 1.969 2.46C224 498 224 498 224 500l-6 1 6 9h-31l6-9-6-1c1.78-4.044 4.395-7.46 7-11h-7c1.78-4.044 4.395-7.46 7-11h-7c1.804-3.265 2.834-4.89 6-7 .724-2.06.724-2.06 1-4h-7l1.277-1.68 1.66-2.195 1.653-2.18c1.45-1.889 1.45-1.889 2.41-3.945h2l.75-1.688c1.466-2.712 3.28-4.948 5.25-7.312Z" fill="#101A40"/><path d="M398 404c3.237 1.389 5.04 2.922 7.234 5.66l1.739 2.154 1.777 2.248 1.824 2.26C415 421.847 415 421.847 415 423h-7l1.277 1.645 1.66 2.168 1.653 2.144C414 431 414 431 415 434h-7l1.094 1.46 1.406 1.915 1.406 1.898C413 441 413 441 413 443h2v2l-6 1 1.094 1.46 1.406 1.915 1.406 1.898C414 453 414 453 414 455h-7l1.75 2.152 2.25 2.786 2.25 2.777C415 465 415 465 415 466h-31l1-3 2-1a113.158 113.158 0 0 0 3-5l-6-1 1-3h2l.375-1.813C388 449 388 449 390 446l-6-1c1.78-4.044 4.395-7.46 7-11h-7c1.453-3.39 3.413-5.413 6-8l1-3h-7c.783-1.339 1.577-2.67 2.375-4 .44-.743.882-1.485 1.336-2.25L389 415h2l.688-1.563c1.81-3.361 4.052-6.366 6.312-9.437Z" fill="#121A40"/><path d="M80 417c3.412 1.137 4.119 2.043 6 5v2h2a98.796 98.796 0 0 1 4.125 5.438l2.195 3.058C96 435 96 435 96 436h-7v2h2a124.837 124.837 0 0 1 4 6l2 3-7 1 6 9h-7l1.531 2.152 1.969 2.786 1.969 2.777C96 467 96 467 96 468h-7l1.531 1.898 1.969 2.477 1.969 2.46C96 477 96 477 96 479H65l6-9h2v-2h-8l1.242-1.645 1.633-2.168 1.617-2.144A128.529 128.529 0 0 0 73 457h-7c1.527-3.436 3.6-6.12 6-9l-7-1c2.06-3.605 4.351-6.803 7-10l-7-1c4.768-6.526 9.85-12.774 15-19Z" fill="#111A40"/><path d="m249 470 3 1 2 5 3 1v3l1.75.563c3.354 2.143 4.43 4.925 6.25 8.437h-7l1.531 1.898 1.969 2.477 1.969 2.46C265 498 265 498 265 500h-7l1.75 2.152 2.25 2.786 2.25 2.777C266 510 266 510 266 511l-7 1 1.531 1.934 1.969 2.504 1.969 2.496C266 521 266 521 266 522h-7l1.313 1.68 1.687 2.195 1.688 2.18C265 530 265 530 265 532h-30c1.744-3.488 3.528-6.034 6-9l-7-1c2.06-3.605 4.351-6.803 7-10l-7-1 1.242-1.645 1.633-2.168 1.617-2.144A128.529 128.529 0 0 0 242 500h-7c1.78-4.044 4.395-7.46 7-11h-7v-2h2l.563-2c1.723-3.596 4.003-6.112 6.683-9.035 1.709-1.914 3.244-3.892 4.754-5.965Z" fill="#101A3F"/><path d="M28 2c60.606-.017 121.212-.033 181.818-.042h2.716a2520388.579 2520388.579 0 0 1 87.085-.013h2.88c30.833-.005 61.666-.012 92.5-.021a407128.935 407128.935 0 0 1 108.423-.019h2.666c14.185-.001 28.37-.006 42.555-.012 14.245-.006 28.49-.008 42.734-.007 8.473.001 16.947 0 25.42-.007 6.312-.004 12.623-.003 18.934 0 2.565 0 5.13 0 7.696-.004 3.465-.004 6.93-.002 10.394.002l3.076-.008 2.777.007h2.404C664 2 664 2 666 3v2H25l3-1V2Z" fill="#69507C"/><path d="m674 963-4 1v3H26v-2l1.671-.002c60.046-.06 120.091-.123 180.137-.2l2.717-.003a1269354.936 1269354.936 0 0 0 87.136-.112l2.882-.004c30.833-.04 61.666-.074 92.499-.104a204873.359 204873.359 0 0 0 108.464-.133l2.668-.004c14.18-.02 28.36-.033 42.54-.043 14.252-.011 28.503-.029 42.755-.054 8.47-.015 16.94-.024 25.409-.026 5.657-.001 11.314-.01 16.972-.024 3.223-.008 6.447-.012 9.67-.01 3.475.003 6.95-.007 10.424-.02l3.026.012c5.331-.034 10.103-.533 15.255-1.942C672 962 672 962 674 963Z" fill="#AE7E8F"/><path d="M549 532c3.346 3.259 6.406 6.594 9.313 10.25l2.113 2.64C562 547 562 547 562 548h-6v2h2l4 7h-6l1.313 1.46c.556.633 1.113 1.264 1.687 1.915l1.688 1.898C562 564 562 564 562 566l-5 1 2.5 2.875c2.5 2.875 2.5 2.875 2.5 5.125l-5 1 2.5 2.875c2.5 2.875 2.5 2.875 2.5 5.125h-25c1.526-3.814 2.527-5.966 5-9h-6l6-9h-6l6-8-5-1c1.527-3.436 3.6-6.12 6-9h-5c.495-4.34 3.311-7.086 6.063-10.25l1.431-1.68A724.14 724.14 0 0 1 549 532ZM345 496c4.035 1.555 6.075 4.178 8.75 7.5l2.422 2.969C358 509 358 509 358 511h-5l1.094 1.46 1.406 1.915 1.406 1.898C358 518 358 518 358 520h-5l2 2.375c2 2.625 2 2.625 2 4.625h2v2l-5 1 2.5 2.875c2.5 2.875 2.5 2.875 2.5 5.125l-5 1 2.5 2.875c2.5 2.875 2.5 2.875 2.5 5.125h-26v-2h2l.875-1.813C337 541 337 541 339 538h-5c1.25-3.46 2.675-6.147 5-9h-5c1.498-3.112 3.2-6.053 5-9h-5c1.527-3.436 3.6-6.12 6-9h-6c3.363-5.246 7.136-10.115 11-15Z" fill="#0F1A40"/><path d="M26 1h642v2h6v2h6v2h2v2h2v2h2v2h2v2h2v6h2v4h2v9c-3.03-3.03-3.467-3.89-4.438-7.813-2.567-9.037-7.985-14.554-15.724-19.595-11.053-5.577-23.447-4.267-35.502-4.193-2.642-.002-5.284-.007-7.926-.013-5.735-.01-11.47-.002-17.206.018-8.528.03-17.056.032-25.584.027-14.348-.006-28.696.01-43.044.04-14.202.03-28.404.05-42.607.055h-2.677l-13.464.005c-31.772.01-63.544.044-95.316.092-30.863.046-61.726.081-92.588.102l-2.884.002-28.67.02a496872.082 496872.082 0 0 0-61.116.043C145.503 2.836 85.751 2.916 26 3V1Z" fill="#FBD6D5"/><path d="M117 473c3.746 1.249 4.722 2.847 7.125 5.938l2.133 2.714C128 484 128 484 129 486h-5l2 2.375c2 2.625 2 2.625 2 4.625l-4 1 5 7h-5l2 2.375c2 2.625 2 2.625 2 4.625h-4l4 7h-21l5-7h-4c1.875-4.875 1.875-4.875 3-6l-4-1c1.372-2.954 2.989-5.44 5-8h-5l4-6-4-2 10-12Z" fill="#0F1A40"/><path d="M641 420c3.615 1.472 5.406 3.415 7.75 6.5l1.86 2.406C652 431 652 431 652 433h-4l4 7h-4l5 8h-5l5 7-5 1 2 1.875c2 2.125 2 2.125 2 4.125h-20c2-4 2-4 4-7h-4l3-6-4-2 5-7h-5l5-7h-4c1.52-5.405 5.274-8.985 9-13Z" fill="#101A40"/><path d="M525 453c3.92 3.804 7.491 7.816 11 12l-4 1 2 5h2v2l-4 1 2 1.875c2 2.125 2 2.125 2 4.125h-4l2 2.375c2 2.625 2 2.625 2 4.625h-4l4 7h-21l4-6-3-1 3-6-3-1 3-6-4-2 4-5-4-2 1.426-1.61 1.886-2.14 1.864-2.11A105.191 105.191 0 0 0 525 453Z" fill="#101B41"/><path d="M665 1h3v2h6v2h6v2h2v2h2v2h2v2h2v2h2v6h2v4h2v9c-3.03-3.03-3.467-3.89-4.438-7.813C687.283 18.162 682.832 12.709 676 8c-3.918-1.911-7.902-3.518-12-5l1-2Z" fill="#E4B8C0"/><path d="m526.813 422.938 2.394.027L531 423v1h-7v2l-25 2 1-2c2.767-.454 5.464-.798 8.25-1.063 1.526-.155 3.052-.313 4.578-.472l2.2-.227c2.111-.228 2.111-.228 4.718-.793 2.412-.476 4.611-.544 7.067-.507Z" fill="#B05797"/><path d="M153 460c7.67.43 14.659 1.742 22 4v1c-6.201.276-11.932-.771-18-2v-2l-4-1Z" fill="#C15F9D"/><path d="m64 456 1 2h7l-2 4H60v-2l4-1v-3Z" fill="#C05F9A"/><path d="m6 951 1.938 2.125c3.062 3.098 6.603 5.32 10.269 7.64L20 962v1h-6v-2h-2v-2h-2v-2H8v-2H6v-4Z" fill="#DBB2BB"/><path d="m651 429 2.813 1.25c4.978 2.14 10.084 3.932 15.187 5.75-3.668 1.294-6.382.749-10.125-.125l-3.195-.695C653 434 653 434 651.633 431.383L651 429Z" fill="#AC5695"/><path d="m383 454 1 2h7c-1.125 1.938-1.125 1.938-3 4-3.188.75-3.188.75-6 1v2l-6 2c3.49-4.004 5.65-5.627 11-6v-2l-5-1 1-2Z" fill="#C5609C"/><path d="m408 445 3.875-.188 2.18-.105L416 445l2 3-7 2-3-5Z" fill="#D165A2"/><path d="M172 411h3l1 6-6-1c.875-3.875.875-3.875 2-5Z" fill="#D68BA2"/><path d="M299 411h3v2h2l-2 4-5-1 2-5Z" fill="#D68DA3"/><path d="m39 392 5 1v4c-1.938.563-1.938.563-4 1-1-1-1-1-1.063-3.563L39 392Z" fill="#CF88A0"/><path d="m413 419 3 1c.688 2.063.688 2.063 1 4l-2.938.375L411 425l-1 2-2-4 6-1-1-3Z" fill="#AB548F"/><path d="m294 463 4 2-2 5-3-1c-.813-1.938-.813-1.938-1-4l2-2Z" fill="#EB99A9"/><path d="m216 367 3 2c.188 2.625.188 2.625 0 5h-4c-.625-2.375-.625-2.375-1-5l2-2Z" fill="#CA8B9F"/><path d="m105 346 5 1-1 5-4-1v-5Z" fill="#C3869C"/><path d="m687 948 3 1v4h-2v2h-5l4-7Z" fill="#BD8998"/><path d="m65 444 1 2c2.322.407 4.657.744 7 1l-6 8c0-3.106.54-4.353 2-7h-5l1-4Z" fill="#BB5C95"/><path d="M329 403h3l2 4-2 2c-2.125-.375-2.125-.375-4-1l1-5Z" fill="#D690A2"/><path d="M664 394h4l2 4-5 2c-1-1-1-1-1.063-3.563L664 394Z" fill="#D28DA1"/><path d="M602 355h5v5l-3 1-2-1v-5Z" fill="#C7899E"/><path d="m191 466 1 2h7l-1 3h-6v-2l-3-1h2v-2Z" fill="#CB639F"/><path d="m64 434 1 2h8c-1.911 3.536-3.626 5.79-7 8l3-6-5-1v-3Z" fill="#AB558E"/><path d="M549 403h2l2 5-5 1c-.625-1.875-.625-1.875-1-4l2-2Z" fill="#D894A3"/><path d="m413 430 3 1 1 3c-2.565 2.565-4.477 2.54-8 3l-1-3h7l-2-4Z" fill="#B05791"/><path d="M682 14c3.774 1.707 5.224 3.182 7 7 .188 2.813.188 2.813 0 5-3.04-3.649-4.965-7.744-7-12Z" fill="#4C396C"/><path d="m539 645 10 1-2 4-1-2h-6l-1-3Z" fill="#18224B"/><path d="M29 469c-2.9 1.934-3.897 2.301-7.188 2.625L18 472v-2c7.429-2.429 7.429-2.429 11-1Z" fill="#BD5E9B"/><path d="m383 432 1 2h7l-2 4h-3l1-2-5-1 1-3Z" fill="#AA548E"/><path d="M632 347h5v4h-5v-4Z" fill="#CB949E"/><path d="M203 120c4.615 1.319 8.099 3.214 12 6l-3 1c-2.262-1.18-2.262-1.18-4.688-2.875l-2.449-1.68L203 121v-1Z" fill="#5D4072"/><path d="m225 477 1 3 5 1v2l-9-2v-2h3v-2Z" fill="#CE65A0"/><path d="M387 355h5l-1 5-3-1c-.688-2.063-.688-2.063-1-4ZM476 355h4c-.375 2.438-.375 2.438-1 5l-2 1-1-6Z" fill="#D59EA1"/><path d="M150 303h3v5h-4l1-5Z" fill="#CA989C"/><path d="m385 453 7 1v2h-8l1-3Z" fill="#412C56"/><path d="M429 442v3l-9 2c1.305-2.61 2.358-2.68 5.063-3.625.733-.26 1.466-.52 2.222-.79.566-.192 1.132-.386 1.715-.585Z" fill="#AA5795"/><path d="m1 9 3 1-1 3-3-1 1-3Z" fill="#F7D0D4"/><path d="m9 1 3 1-1 3-3-1 1-3Z" fill="#F6D0D4"/></svg>