<svg width="195" height="288" fill="none" xmlns="http://www.w3.org/2000/svg">
    <g clip-path="url(#prefix__clip0_425_1231)">
        <rect width="195" height="288" rx="16" fill="url(#prefix__paint0_linear_425_1231)" />
        <path fill="url(#prefix__paint1_linear_425_1231)" d="M-7 148h220v141H-7z" />
        <path d="M253 210.5A106.503 106.503 0 00146.5 104 106.498 106.498 0 0040 210.5h213z"
            fill="url(#prefix__paint2_linear_425_1231)" />
        <path d="M80 165.5a51.5 51.5 0 10-103 0H80z" fill="url(#prefix__paint3_linear_425_1231)" />
        <path
            d="M181 304.5c0-42.567-16.91-83.391-47.009-113.491a160.504 160.504 0 00-226.982 0A160.503 160.503 0 00-140 304.5h321z"
            fill="url(#prefix__paint4_linear_425_1231)" />
        <path d="M289 288a102 102 0 10-204 0h204z" fill="url(#prefix__paint5_linear_425_1231)" />
        <path fill-rule="evenodd" clip-rule="evenodd"
            d="M54.028 24.697a17.571 17.571 0 014.395 12.148c-.272 9.735-8.384 17.407-18.12 17.134a17.571 17.571 0 01-11.884-5.066c2.093 8.703 9.807 15.28 19.184 15.542 11.214.314 20.558-8.523 20.872-19.736.262-9.377-5.873-17.447-14.447-20.023z"
            fill="#FFD9B2" />
        <path
            d="M181.5 107.5l2.5-3.5 3 3.5h-1.5l1.5 2h-1.5l2 2h-2l1.5 2h-1.5l1.5 1.5h-6l2-2h-1.5l1.5-2h-2l2-2h-2l2-1.5h-1.5zM100.5 111.5l2.5-3.5 3 3.5h-1.5l1.5 2h-1.5l2 2h-2l1.5 2h-1.5l1.5 1.5h-6l2-2h-1.5l1.5-2h-2l2-2h-2l2-1.5h-1.5zM51.5 120.5L54 117l3 3.5h-1.5l1.5 2h-1.5l2 2h-2l1.5 2h-1.5L57 128h-6l2-2h-1.5l1.5-2h-2l2-2h-2l2-1.5h-1.5zM.5 117.5L3 114l3 3.5H4.5l1.5 2H4.5l2 2h-2l1.5 2H4.5L6 125H0l2-2H.5l1.5-2H0l2-2H0l2-1.5H.5zM28.5 141.5L31 138l3 3.5h-1.5l1.5 2h-1.5l2 2h-2l1.5 2h-1.5L34 149h-6l2-2h-1.5l1.5-2h-2l2-2h-2l2-1.5h-1.5zM56.5 165.5L59 162l3 3.5h-1.5l1.5 2h-1.5l2 2h-2l1.5 2h-1.5L62 173h-6l2-2h-1.5l1.5-2h-2l2-2h-2l2-1.5h-1.5zM109.5 169.5l2.5-3.5 3 3.5h-1.5l1.5 2h-1.5l2 2h-2l1.5 2h-1.5l1.5 1.5h-6l2-2h-1.5l1.5-2h-2l2-2h-2l2-1.5h-1.5zM181.5 183.5l2.5-3.5 3 3.5h-1.5l1.5 2h-1.5l2 2h-2l1.5 2h-1.5l1.5 1.5h-6l2-2h-1.5l1.5-2h-2l2-2h-2l2-1.5h-1.5zM10.461 252.182L22.77 235l14.77 17.182h-7.385L37.538 262h-7.384L40 271.818h-9.846l7.384 9.818h-7.384L37.538 289H8l9.846-9.818h-7.385l7.385-9.818H8l9.846-9.819H8l9.846-7.363h-7.385zM87.462 278.182L99.769 261l14.769 17.182h-7.384l7.384 9.818h-7.384l9.846 9.818h-9.846l7.384 9.818h-7.384l7.384 7.364H85l9.846-9.818h-7.385l7.385-9.818H85l9.846-9.819H85l9.846-7.363h-7.385zM147.615 263.455L155.692 252l9.693 11.455h-4.847l4.847 6.545h-4.847l6.462 6.545h-6.462l4.847 6.546h-4.847l4.847 4.909H146l6.462-6.545h-4.847l4.847-6.546H146l6.462-6.545H146l6.462-4.909h-4.847zM165.077 224.636l5.385-7.636 6.461 7.636h-3.231l3.231 4.364h-3.231l4.308 4.364h-4.308l3.231 4.363h-3.231l3.231 3.273H164l4.308-4.364h-3.231l3.231-4.363H164l4.308-4.364H164l4.308-3.273h-3.231zM147.077 181.636l5.385-7.636 6.461 7.636h-3.231l3.231 4.364h-3.231l4.308 4.364h-4.308l3.231 4.363h-3.231l3.231 3.273H146l4.308-4.364h-3.231l3.231-4.363H146l4.308-4.364H146l4.308-3.273h-3.231zM9.077 169.636L14.46 162l6.462 7.636h-3.23l3.23 4.364h-3.23L22 178.364h-4.308l3.231 4.363h-3.23l3.23 3.273H8l4.308-4.364H9.077l3.23-4.363H8l4.308-4.364H8l4.308-3.273H9.077zM113.077 214.636l5.385-7.636 6.461 7.636h-3.231l3.231 4.364h-3.231l4.308 4.364h-4.308l3.231 4.363h-3.231l3.231 3.273H112l4.308-4.364h-3.231l3.231-4.363H112l4.308-4.364H112l4.308-3.273h-3.231zM55.077 202.636L60.462 195l6.461 7.636h-3.23l3.23 4.364h-3.23L68 211.364h-4.308l3.231 4.363h-3.23l3.23 3.273H54l4.308-4.364h-3.231l3.23-4.363H54l4.308-4.364H54l4.308-3.273h-3.231zM146.769 144.409l3.846-5.409 4.616 5.409h-2.308l2.308 3.091h-2.308l3.077 3.091h-3.077l2.308 3.091h-2.308l2.308 2.318H146l3.077-3.091h-2.308l2.308-3.091H146l3.077-3.091H146l3.077-2.318h-2.308zM80.77 152.409L84.614 147l4.616 5.409h-2.308l2.308 3.091h-2.308L90 158.591h-3.077l2.308 3.091h-2.308L89.231 164H80l3.077-3.091h-2.308l2.308-3.091H80l3.077-3.091H80l3.077-2.318h-2.308zM115.615 138.455l3.077-4.455 3.693 4.455h-1.847l1.847 2.545h-1.847l2.462 2.545h-2.462l1.847 2.546h-1.847l1.847 1.909H115l2.462-2.545h-1.847l1.847-2.546H115l2.462-2.545H115l2.462-1.909h-1.847zM164.615 113.455l3.077-4.455 3.693 4.455h-1.847l1.847 2.545h-1.847l2.462 2.545h-2.462l1.847 2.546h-1.847l1.847 1.909H164l2.462-2.545h-1.847l1.847-2.546H164l2.462-2.545H164l2.462-1.909h-1.847zM139.385 119.864l1.923-2.864 2.307 2.864h-1.153l1.153 1.636h-1.153l1.538 1.636h-1.538l1.153 1.637h-1.153l1.153 1.227H139l1.538-1.636h-1.153l1.153-1.637H139l1.538-1.636H139l1.538-1.227h-1.153z"
            fill="#001346" />
        <path
            d="M188.461 48.547h-.019M151.019 48H151M139.019 74H139M117.019 30H117M100.019 57H100M112.019 77H112M73.02 97H73M92.02 88H92M117.019 19H117M76.02 11H76M109.019 11H109M95.02 19H95M26.02 37H26M26.02 37H26M46.02 37H46M20.02 11H20M46.02 94H46M41.02 105H41M14.02 102H14M144.019 14H144M168.019 23H168M104.019 31H104M63.02 23H63M135.019 92H135M158.019 88H158M158.019 88H158M133.019 37H133M129.019 98H129M95.02 80H95M95.02 69H95M87.02 61H87M122.019 64H122M82.02 81H82M111.019 87H111M186.438 70.696v.048M42.574 15.769h.332M4.75 60.398c.057.128.276.133.4.133M7.483 56.398c.135.014.274.086.4.133M17 82c.136.037.237.17.333.267M73 122c.136.037.237.17.333.267"
            stroke="#FFCCFB" stroke-linecap="round" />
    </g>
    <defs>
        <linearGradient id="prefix__paint0_linear_425_1231" x1="97.5" y1="0" x2="97.5" y2="288"
            gradientUnits="userSpaceOnUse">
            <stop stop-color="#360959" />
            <stop offset=".502" stop-color="#FD77A5" />
        </linearGradient>
        <linearGradient id="prefix__paint1_linear_425_1231" x1="103" y1="148" x2="103" y2="293.5"
            gradientUnits="userSpaceOnUse">
            <stop stop-color="#6B437A" />
            <stop offset="1" stop-color="#2C1254" />
        </linearGradient>
        <linearGradient id="prefix__paint2_linear_425_1231" x1="146.5" y1="104" x2="145.117" y2="242.312"
            gradientUnits="userSpaceOnUse">
            <stop stop-color="#342B69" />
            <stop offset="1" stop-color="#001044" />
        </linearGradient>
        <linearGradient id="prefix__paint3_linear_425_1231" x1="28.5" y1="114" x2="27.831" y2="180.883"
            gradientUnits="userSpaceOnUse">
            <stop stop-color="#342B69" />
            <stop offset="1" stop-color="#001044" />
        </linearGradient>
        <linearGradient id="prefix__paint4_linear_425_1231" x1="20.5" y1="144" x2="18.416" y2="352.442"
            gradientUnits="userSpaceOnUse">
            <stop stop-color="#342B69" />
            <stop offset="1" stop-color="#001044" />
        </linearGradient>
        <linearGradient id="prefix__paint5_linear_425_1231" x1="187" y1="186" x2="185.675" y2="318.468"
            gradientUnits="userSpaceOnUse">
            <stop stop-color="#342B69" />
            <stop offset="1" stop-color="#001044" />
        </linearGradient>
        <clipPath id="prefix__clip0_425_1231">
            <rect width="195" height="288" rx="16" fill="#fff" />
        </clipPath>
    </defs>
</svg>