<svg viewBox="0 0 512 512" xmlns="http://www.w3.org/2000/svg"><path d="M256 186.572 60.719 63.023l16.337-24.521a10.242 10.242 0 0 1 13.923-3.024l17.958 11.143c34.703 21.533 65.924 9.651 94.3 27.399C248.407 102.272 256 137.872 256 137.872s7.593-35.6 52.762-63.851c28.376-17.748 59.597-5.866 94.3-27.399l17.958-11.143a10.242 10.242 0 0 1 13.923 3.024l16.337 24.521z" fill="#f4f8f8"/><path d="M260.279 183.865 451.281 63.023l-16.337-24.521a10.242 10.242 0 0 0-13.923-3.024l-17.958 11.143a90.369 90.369 0 0 1-14.031 7.099c-3.335 16.007-11.864 31.565-30.611 40.396-41.539 19.57-84.67 24.988-98.142 89.749z" fill="#d6e4ea"/><path d="M507.2 77.438c8.698 13.68 5.272 31.763-7.827 41.313L104.655 406.518c-4.061 2.961-9.765.06-9.765-4.965v-37.43a68.533 68.533 0 0 1 32.681-58.407L501.575 76.139a4.116 4.116 0 0 1 5.625 1.299z" fill="#a95e2c"/><path d="M4.8 77.438c-8.698 13.68-5.272 31.763 7.827 41.313l394.718 287.767c4.061 2.961 9.765.06 9.765-4.965v-37.43a68.533 68.533 0 0 0-32.681-58.407L10.425 76.139A4.116 4.116 0 0 0 4.8 77.438z" fill="#d57e4b"/><circle cx="256" cy="260.369" fill="#fcee56" r="10.346"/><path d="M489.81 442.887H22.19v-25.175c0-5.523 4.477-10 10-10h447.62c5.523 0 10 4.477 10 10z" fill="#bebebe"/><path d="M22.19 426.334h467.62v16.553H22.19z" fill="#9b9b9b"/><path d="M500.501 478.062H11.499c-5.523 0-10-4.477-10-10v-15.175c0-5.523 4.477-10 10-10h489.002c5.523 0 10 4.477 10 10v15.175c0 5.522-4.477 10-10 10z" fill="#bebebe"/><path d="M348.061 102.544a7.68 7.68 0 0 0-10.034-4.162c-48.474 20.054-71.717 47.439-82.027 64.074-10.31-16.634-33.553-44.02-82.027-64.074a7.682 7.682 0 0 0-5.873 14.196c65.589 27.134 80.401 68.703 80.608 69.305 1.02 3.077 4.049 5.265 7.29 5.269 3.286.004 6.243-2.164 7.292-5.265.141-.418 14.871-42.114 80.609-69.309a7.681 7.681 0 0 0 4.162-10.034z" fill="#a8d0d5"/><path d="m256 226.876 228.714-140.39-17.084-22.675a10.241 10.241 0 0 0-13.655-2.492L256 186.572 58.025 61.319a10.241 10.241 0 0 0-13.655 2.492L27.286 86.486z" fill="#b9ea6a"/><path d="M250.569 204.397C218.502 184.548 54.727 83.178 37.668 72.707L27.286 86.486 256 226.876l228.714-140.39-10.382-13.779c-17.059 10.471-180.835 111.842-212.902 131.69a10.304 10.304 0 0 1-10.861 0z" fill="#a1e42c"/></svg>