<!-- icon666.com - MILLIONS vector ICONS FREE --><svg viewBox="0 -83 511.99914 511" xmlns="http://www.w3.org/2000/svg">
  <path
    d="m508.160156 41.214844c-2.492187-4.3125-6.867187-6.867188-11.503906-7.183594-.148438-.308594-1.78125-3.449219-6.332031-12.234375-3.378907-6.515625-11.425781-9.066406-17.945313-5.691406l-6.425781 3.332031-6.601563-11.433594c-3.335937-5.773437-10.179687-8.679687-16.65625-7.058594l-96.558593 24.191407c-26.839844 6.726562-50.730469 20.722656-69.59375 40.683593-3.476563-.84375-7.089844.320313-9.441407 3.117188-4.1875 4.988281-8.089843 10.292969-11.59375 15.773438-.851562 1.328124-1.625 2.699218-2.324218 4.105468-20.105469-32.265625-51.566406-54.71875-87.324219-63.679687l-96.5625-24.191407c-6.472656-1.621093-13.320313 1.285157-16.652344 7.058594l-6.601562 11.433594-6.429688-3.332031c-6.511719-3.375-14.5625-.824219-17.941406 5.691406 0 .097656-5.75 11.023437-6.332031 12.234375-4.632813.316406-9.011719 2.867188-11.5 7.183594-7.820313 13.507812-3.117188 29.21875 8.878906 36.703125l69.429688 43.328125c3.511718 2.191406 8.140624 1.125 10.332031-2.390625 2.191406-3.511719 1.121093-8.140625-2.390625-10.332031l-69.429688-43.328126c-5.457031-3.40625-7.242187-10.402343-4.113281-15.996093l231.953125 120.238281v37.949219c-.296875-.183594-116.496094-72.703125-128.722656-80.335938-3.511719-2.191406-8.140625-1.121093-10.332032 2.390625-2.191406 3.515625-1.121093 8.140625 2.390626 10.332032l79.992187 49.921874-76.441406 39.625c-10.21875 5.296876-17.417969 15.238282-19.261719 26.597657-1.371094 8.464843-5.617188 16.273437-11.964844 22.03125l-11.457031 8.460937c-16.871094 12.457032-22.703125 35.308594-13.871094 54.328125 2.316407 4.984375 8.464844 6.773438 13.085938 3.890625l176.582031-110.203125v7.449219c0 4.144531 3.359375 7.5 7.5 7.5 4.144531 0 7.5-3.355469 7.5-7.5 0-50.683594 0-79.867188 0-132.855469 0-5.863281 1.605469-11.476562 4.648438-16.230469.222656-.355468.453124-.707031.679687-1.058593v187.089843c-1.714844-.652343-3.613281-.652343-5.328125 0v-1.949218c0-4.140625-3.355469-7.5-7.5-7.5-4.140625 0-7.5 3.359375-7.5 7.5v14.632812c0 7.050782 8.074219 11.03125 13.664062 6.78125l4-3.039062 4 3.039062c5.601563 4.257813 13.664063.257813 13.664063-6.78125v-44.394531l156.253906 97.519531c4.644531 2.898438 10.78125 1.070313 13.085938-3.890625 8.832031-19.023437 3-41.871093-13.871094-54.328125l-11.457031-8.460937c-6.347656-5.757813-10.59375-13.570313-11.964844-22.03125-1.84375-11.359375-9.042969-21.300781-19.257812-26.597657l-76.445313-39.625 179.105469-111.777343c11.957031-7.460938 16.722656-23.15625 8.882812-36.703125zm-442.507812-25.71875 96.558594 24.191406c38.015624 9.523438 70.164062 36.421875 86.285156 72.101562v2.113282c-28.800782-34.976563-68-59.867188-112.4375-71-4.019532-1.007813-8.09375 1.433594-9.097656 5.449218-1.007813 4.019532 1.433593 8.089844 5.449218 9.097657 37.265625 9.335937 70.566406 29.078125 96.378906 56.722656l-169.414062-87.820313zm-31.441406 14.703125c19.734374 10.230469 190.457031 98.730469 214.289062 111.082031v11.261719l-218.890625-113.464844zm36.097656 297.753906c-2.230469-10.96875 2.003906-22.609375 11.300781-29.476563 12.421875-9.171874 11.90625-8.769531 12.28125-9.105468 9.046875-8.0625 15.097656-19.089844 17.039063-31.050782 1.085937-6.695312 5.332031-12.558593 11.351562-15.679687l84.328125-43.714844 35.222656 21.980469zm279.476562-288.265625 96.578125-24.183594 6.261719 10.84375-57.851562 29.988282c-3.675782 1.90625-5.113282 6.433593-3.207032 10.109374 1.90625 3.675782 6.433594 5.113282 10.109375 3.207032l76.109375-39.453125 4.601563 8.875-198.5625 102.929687v-11.261718l86.78125-44.984376c3.679687-1.90625 5.113281-6.433593 3.207031-10.109374-1.90625-3.679688-6.433594-5.113282-10.109375-3.207032l-79.878906 41.40625v-.308594c25.964843-27.515624 59.011719-46.882812 95.757812-56.089843 4.019531-1.007813 6.460938-5.078125 5.453125-9.097657-1.007812-4.019531-5.078125-6.457031-9.097656-5.449218-34.554688 8.65625-66.070312 25.667968-92.113281 49.582031v-12.375c17.417969-20.003906 40.167969-33.960937 65.960937-40.421875zm51.28125 218.632812c1.9375 11.960938 7.992188 22.988282 17.039063 31.050782.375.335937-.519531-.34375 12.277343 9.105468 9.300782 6.867188 13.53125 18.507813 11.304688 29.476563l-157.863281-98.519531v-41.683594c161.960937 83.953125 79.414062 41.167969 105.886719 54.886719 6.023437 3.125 10.269531 8.988281 11.355468 15.683593zm90.269532-193.125-186.640626 116.480469c-7.929687-4.109375-13.183593-6.832031-20.871093-10.820312v-11.953125c15.898437-8.242188 202-104.710938 211.625-109.703125 3.128906 5.59375 1.34375 12.589843-4.113281 15.996093zm0 0">
  </path>
</svg>