<?xml version="1.0" encoding="UTF-8"?>
<svg version="1.1" xmlns="http://www.w3.org/2000/svg" width="690" height="962">
<path d="M0 0 C227.7 0 455.4 0 690 0 C690 317.46 690 634.92 690 962 C462.3 962 234.6 962 0 962 C0 644.54 0 327.08 0 0 Z " fill="#18427F" transform="translate(0,0)"/>
<path d="M0 0 C0.66 0 1.32 0 2 0 C1.96390625 1.12535156 1.9278125 2.25070312 1.890625 3.41015625 C2.14955898 8.8199211 2.91883885 13.4478916 6 18 C13.24642113 23.90240098 22.14012456 27.60890351 30.60595703 31.43896484 C34.92587624 33.4258418 39.08785417 35.64343713 43.25 37.9375 C45.16651021 38.95862704 47.08309815 39.97960837 49 41 C49.33 40.01 49.66 39.02 50 38 C50.24250488 38.6086792 50.48500977 39.2173584 50.73486328 39.84448242 C52.27634819 42.47083716 53.53412847 43.1381936 56.2421875 44.48828125 C57.130271 44.94009766 58.01835449 45.39191406 58.93334961 45.85742188 C59.90409424 46.33759766 60.87483887 46.81777344 61.875 47.3125 C63.95796195 48.36926126 66.03994863 49.42794646 68.12109375 50.48828125 C69.23081543 51.05111816 70.34053711 51.61395508 71.48388672 52.19384766 C77.68070355 55.37702019 83.80611376 58.69304197 89.9375 62 C93.32271264 63.82520022 96.70933911 65.64736237 100.10498047 67.453125 C101.88451904 68.40397307 103.6563959 69.36954625 105.41455078 70.359375 C108.1557331 71.85584658 110.31184835 73.00325624 113.4765625 72.98828125 C117.1863932 71.53535994 120.7858933 69.9161694 124.375 68.1875 C125.10460937 67.84396484 125.83421875 67.50042969 126.5859375 67.14648438 C128.03767188 66.45561435 129.48200761 65.74896563 130.91821289 65.02636719 C133 64 133 64 135.01733398 63.18457031 C137.77901635 61.94183121 139.67138684 60.7644418 140.88671875 57.93725586 C141.51382841 55.42092743 141.94659657 52.94207116 142.3125 50.375 C142.59404321 48.65261803 142.88152694 46.93119348 143.17578125 45.2109375 C143.34460815 44.07084229 143.34460815 44.07084229 143.5168457 42.90771484 C144 41 144 41 146 39 C147.91921163 43.98995025 148.52837173 48.72707445 149 54 C156.08516813 51.33011634 162.76363654 48.19275385 169.4375 44.625 C170.36054932 44.13676758 171.28359863 43.64853516 172.23461914 43.14550781 C177.65811618 40.270724 183.0496593 37.34125916 188.42578125 34.37890625 C192.62017457 32.13213714 196.89353285 30.0467747 201.1640625 27.94921875 C203.97454792 26.54692668 206.721677 25.05617524 209.4609375 23.51953125 C210.59281494 22.89268433 210.59281494 22.89268433 211.74755859 22.25317383 C213.21903077 21.43450195 214.68334762 20.60279737 216.13916016 19.7565918 C219.31292242 18.00326783 221.34512452 16.99915281 225.01953125 17.00390625 C228.8261473 18.27610427 232.18656637 19.98993354 235.6875 21.9375 C237.18723552 22.75178939 238.68724654 23.56557152 240.1875 24.37890625 C240.96867187 24.80574707 241.74984375 25.23258789 242.5546875 25.67236328 C246.74427381 27.94702086 250.96686224 30.15866081 255.1875 32.375 C255.97664795 32.79128662 256.7657959 33.20757324 257.57885742 33.63647461 C261.69633786 35.80582382 265.82770886 37.93714473 270 40 C270.14099121 39.35973877 270.28198242 38.71947754 270.42724609 38.05981445 C271.07212807 35.14305711 271.72349863 32.22778562 272.375 29.3125 C272.59671875 28.30509766 272.8184375 27.29769531 273.046875 26.25976562 C273.26601563 25.28330078 273.48515625 24.30683594 273.7109375 23.30078125 C273.90993652 22.40528564 274.10893555 21.50979004 274.31396484 20.5871582 C275.01320154 17.95021468 275.93605034 15.50957644 277 13 C280.9409215 20.33826762 282.26383981 28.71115528 283.375 36.8828125 C283.58125 37.91148437 283.7875 38.94015625 284 40 C284.0829834 40.69512695 284.1659668 41.39025391 284.25146484 42.10644531 C285.09253587 46.3019686 286.19294794 48.40533778 289.68847656 50.98095703 C293.27607069 52.97551716 296.90879991 54.76253116 300.625 56.5 C301.94733934 57.14423438 303.26822153 57.79146807 304.58764648 58.44165039 C307.19099523 59.72197695 309.80025326 60.98878025 312.41455078 62.24658203 C317.72978462 64.84592899 322.91121377 67.67565494 328.07470703 70.5625 C331.42672332 72.38163094 333.0733716 73 337 73 C339.64957208 72.09267841 340.7110547 71.55780946 342.01171875 69.046875 C342.23472656 68.28890625 342.45773437 67.5309375 342.6875 66.75 C343.04328125 65.55310547 343.04328125 65.55310547 343.40625 64.33203125 C344.10904094 61.57172737 344.63778349 58.82528879 345 56 C347.56616632 59.84924948 347.55097676 62.4349304 348 67 C349.43666016 66.29037109 349.43666016 66.29037109 350.90234375 65.56640625 C351.5372876 65.25380859 352.17223145 64.94121094 352.82641602 64.61914062 C354.2578474 63.90268 355.68141107 63.17032172 357.09741211 62.42382812 C360.88646029 60.44355559 364.48994254 58.78226618 368.6015625 57.58984375 C373.61587234 55.92492982 377.70218623 54.28280283 381 50 C384.70634806 40.81587805 386.12909778 30.89550877 387.51367188 21.13525391 C388 18 388 18 389 15 C389.66 15 390.32 15 391 15 C391.84228458 18.56044445 392.67223903 22.12365344 393.5 25.6875 C393.85771484 27.19860352 393.85771484 27.19860352 394.22265625 28.74023438 C394.44824219 29.71669922 394.67382812 30.69316406 394.90625 31.69921875 C395.11572266 32.59471436 395.32519531 33.49020996 395.54101562 34.4128418 C395.99994512 36.99969065 396.08261971 39.37888974 396 42 C405.32647177 37.39767721 414.59067262 32.68377637 423.8125 27.875 C424.75359619 27.38483398 425.69469238 26.89466797 426.66430664 26.38964844 C427.58590576 25.90786133 428.50750488 25.42607422 429.45703125 24.9296875 C430.36791504 24.45756836 431.27879883 23.98544922 432.21728516 23.49902344 C434.15047637 22.45763074 436.05537458 21.36266682 437.93505859 20.22753906 C445.17014925 15.9209666 445.17014925 15.9209666 449.03515625 16.2890625 C450.01355469 16.85367187 450.99195313 17.41828125 452 18 C453.60173445 18.80174096 455.20474673 19.60093104 456.80859375 20.3984375 C458.68719505 21.38626476 460.56336947 22.37871676 462.4375 23.375 C464.48304639 24.4518733 466.52862016 25.52869461 468.57421875 26.60546875 C470.15275635 27.43957275 470.15275635 27.43957275 471.76318359 28.29052734 C477.08581341 31.10158889 482.41709513 33.89599458 487.75 36.6875 C488.73154053 37.20425293 489.71308105 37.72100586 490.72436523 38.25341797 C491.63516846 38.73053223 492.54597168 39.20764648 493.484375 39.69921875 C494.28584961 40.12033936 495.08732422 40.54145996 495.91308594 40.9753418 C498.10549874 42.10975409 498.10549874 42.10975409 501 43 C501.0825 41.72125 501.165 40.4425 501.25 39.125 C501.77903594 33.811639 502.81033696 28.64985632 503.9375 23.4375 C504.10733398 22.62748535 504.27716797 21.8174707 504.45214844 20.98291016 C504.90046388 18.97232213 505.44270023 16.98314596 506 15 C506.66 14.67 507.32 14.34 508 14 C508.24907104 15.08716309 508.24907104 15.08716309 508.50317383 16.19628906 C509.27174041 19.54780453 510.04211189 22.89890278 510.8125 26.25 C511.07353516 27.38953125 511.33457031 28.5290625 511.60351562 29.703125 C512.13299331 32.00406507 512.67584249 34.30196708 513.23168945 36.59667969 C514 40 514 40 514.49291992 43.31738281 C515.50853212 49.32539237 515.50853212 49.32539237 519.20385742 53.96777344 C521.96892975 55.62747105 524.73027509 56.96560793 527.6875 58.25 C529.16959961 58.95576172 529.16959961 58.95576172 530.68164062 59.67578125 C533.10591295 60.82350438 535.5413113 61.92853405 538 63 C538.21462891 61.1746875 538.21462891 61.1746875 538.43359375 59.3125 C538.8273784 56.16222282 539.33742182 53.09366689 540.0625 50 C540.23910156 49.236875 540.41570313 48.47375 540.59765625 47.6875 C540.73042969 47.130625 540.86320313 46.57375 541 46 C541.66 46 542.32 46 543 46 C543.07009277 46.9132605 543.07009277 46.9132605 543.14160156 47.8449707 C544.14441841 59.95625078 544.14441841 59.95625078 550.10302734 70.07324219 C554.95403273 73.47210903 560.23333137 75.87497398 565.71435547 78.07958984 C573.02253219 81.02253219 573.02253219 81.02253219 575 83 C575.10152499 85.05994809 575.1310921 87.12344321 575.13422108 89.18588924 C575.13657331 89.84251286 575.13892554 90.49913648 575.14134905 91.17565778 C575.14807203 93.40341186 575.14757984 95.63110805 575.14717102 97.85887146 C575.15046763 99.46128064 575.15419277 101.06368899 575.1583125 102.66609627 C575.16836432 107.09114581 575.17205441 111.5161818 575.17470181 115.94124115 C575.17859565 120.70560975 575.18817483 125.46996751 575.19691467 130.23432922 C575.21670869 141.75352716 575.22675055 153.27272602 575.23564246 164.79193673 C575.24002193 170.21344997 575.24538975 175.63496222 575.25063133 181.05647469 C575.26764912 199.07533662 575.28214268 217.09419793 575.28938007 235.11306667 C575.29129006 239.79274433 575.29321037 244.47242197 575.29516602 249.15209961 C575.29564976 250.31525076 575.2961335 251.47840192 575.2966319 252.67680008 C575.30492975 271.51346938 575.33026008 290.35007512 575.36274669 309.18671667 C575.3958129 328.51679002 575.41382858 347.84683108 575.41702431 367.17693287 C575.41919018 378.03361355 575.42794973 388.89020164 575.45348549 399.74685478 C575.47518675 408.99484001 575.48324584 418.24271019 575.47351871 427.490718 C575.4689719 432.20889958 575.47088225 436.92684376 575.49028015 441.64499283 C575.50789803 445.96758284 575.50692528 450.28976202 575.49138286 454.61235631 C575.48900465 456.17306428 575.49334143 457.73380059 575.50521151 459.29446524 C575.58416274 470.36392201 574.60605517 480.04095329 566.76953125 488.47265625 C563.52239229 491.27537442 559.83703548 493.13264273 556 495 C555.1816094 495.51079658 554.36321879 496.02159316 553.52002847 496.54786843 C548.71129881 498.53163311 544.48828051 498.41224439 539.33579445 498.37473011 C538.25577412 498.37879084 537.17575379 498.38285156 536.06300557 498.38703534 C532.42498109 498.3970226 528.78733865 498.38552977 525.14932251 498.3742218 C522.52234625 498.37696095 519.89537108 498.38101179 517.26839864 498.38626546 C511.5470014 498.39556748 505.82569196 498.39369678 500.10429573 498.38453293 C491.59636827 498.37094333 483.08850836 498.37449516 474.58057602 498.38149153 C459.38596709 498.39342685 444.19139961 498.38832641 428.99679296 498.37621326 C415.69862743 498.36568395 402.40047603 498.36113688 389.10230637 498.36250877 C387.78001217 498.36263482 387.78001217 498.36263482 386.43100496 498.36276341 C382.85271733 498.36311565 379.2744297 498.36349966 375.69614208 498.36392899 C342.11537354 498.36789578 308.53463 498.35516833 274.95386861 498.33440243 C245.1124686 498.31603562 215.27109255 498.31021921 185.4296875 498.31567383 C183.51391314 498.31602026 181.59813878 498.31636636 179.68236442 498.31671212 C178.26168894 498.31696861 178.26168894 498.31696861 176.81231295 498.31723029 C172.04475458 498.31808382 167.27719621 498.3189076 162.50963783 498.31969929 C161.56909397 498.31985637 160.62855011 498.32001345 159.65950492 498.32017529 C134.73389484 498.3241647 109.80828707 498.31869054 84.88267839 498.310188 C82.20081543 498.30928095 79.51895247 498.3083753 76.83708951 498.30747276 C75.05796758 498.30687165 73.27884566 498.30626303 71.49972374 498.30564686 C59.09141224 498.30142382 46.68310527 498.30084793 34.27479328 498.30275235 C18.28344348 498.30519443 2.29211798 498.30113095 -13.69922517 498.28554235 C-22.15814357 498.27748674 -30.61702152 498.27489451 -39.07594235 498.2801847 C-44.72442438 498.28315887 -50.37287062 498.2788689 -56.0213441 498.26863613 C-59.2408559 498.2630032 -62.46026872 498.26160792 -65.67978375 498.26680271 C-69.14797677 498.271892 -72.61593558 498.26474464 -76.08411217 498.25447559 C-77.08334902 498.25887208 -78.08258587 498.26326856 -79.11210263 498.26779827 C-89.55420975 498.20867196 -96.96911209 495.9046866 -105 489 C-109.88483908 483.52305921 -112.11956596 479.85029926 -112.15656757 472.4640398 C-112.16369108 471.44056958 -112.16369108 471.44056958 -112.17095849 470.39642319 C-112.1857516 468.08734716 -112.19336573 465.77830253 -112.20100403 463.4691925 C-112.21002492 461.80603371 -112.21945117 460.14287707 -112.22925013 458.47972268 C-112.2548848 453.89153436 -112.2740264 449.30333825 -112.29197419 444.71511424 C-112.3081197 440.78412516 -112.32792065 436.8531577 -112.34765974 432.92218528 C-112.53378732 395.67283526 -112.62787565 358.42296296 -112.70387745 321.17324543 C-112.71394625 316.3242368 -112.72419716 311.47522859 -112.73461914 306.6262207 C-112.73720136 305.42097951 -112.73978359 304.21573832 -112.74244406 302.97397467 C-112.7855846 283.44321622 -112.87401869 263.91292141 -112.97996906 244.38241372 C-113.08777681 224.34382068 -113.15028563 204.3054688 -113.16973227 184.26659268 C-113.1818993 173.01005735 -113.21476479 161.7543778 -113.29932594 150.49813271 C-113.37131729 140.91281981 -113.40303901 131.32846636 -113.38152973 121.74288759 C-113.37184033 116.85018062 -113.38177101 111.95955485 -113.44392395 107.06718826 C-113.50038515 102.58835991 -113.50155085 98.1130555 -113.45857402 93.63410892 C-113.45280265 92.01353595 -113.46738478 90.39273726 -113.50427697 88.77257399 C-113.60686173 83.98344557 -113.54407406 79.5932999 -112 75 C-108.38100577 71.59686437 -104.58876948 69.80149007 -100 68 C-98.72836647 67.35536878 -97.46249108 66.69902752 -96.20703125 66.0234375 C-95.08683594 65.47945312 -93.96664062 64.93546875 -92.8125 64.375 C-85.42491995 60.73175855 -78.07742392 57.0127454 -70.75 53.25 C-69.65405518 52.69489746 -68.55811035 52.13979492 -67.42895508 51.56787109 C-65.87857544 50.76857178 -65.87857544 50.76857178 -64.296875 49.953125 C-63.37229492 49.48036133 -62.44771484 49.00759766 -61.49511719 48.52050781 C-58.0902366 46.44559624 -55.59915416 44.54765999 -54.13452148 40.7644043 C-53.96509033 39.95914307 -53.79565918 39.15388184 -53.62109375 38.32421875 C-53.42362549 37.4204248 -53.22615723 36.51663086 -53.02270508 35.58544922 C-52.8295874 34.62912598 -52.63646973 33.67280273 -52.4375 32.6875 C-52.22697998 31.70797363 -52.01645996 30.72844727 -51.79956055 29.71923828 C-50.85171613 25.27314519 -49.95833697 20.81691572 -49.0859375 16.35546875 C-48.9526001 15.67460205 -48.8192627 14.99373535 -48.68188477 14.29223633 C-48.33587437 12.49632117 -48.00526479 10.69745808 -47.67578125 8.8984375 C-47.06959495 6.29849393 -46.32041422 4.30370141 -45 2 C-42.98918373 7.56263192 -41.68821304 13.2432405 -40.375 19 C-40.14554687 19.97195313 -39.91609375 20.94390625 -39.6796875 21.9453125 C-39.463125 22.89148438 -39.2465625 23.83765625 -39.0234375 24.8125 C-38.72832275 26.09060547 -38.72832275 26.09060547 -38.42724609 27.39453125 C-37.95076802 30.30023069 -37.92973233 33.06055846 -38 36 C-34.39490274 34.12678547 -30.79110142 32.25109034 -27.1875 30.375 C-26.18267578 29.85292969 -25.17785156 29.33085937 -24.14257812 28.79296875 C-22.11009749 27.73424893 -20.08113091 26.66875676 -18.05566406 25.59667969 C-16.00545093 24.52537944 -13.93905636 23.48453376 -11.85839844 22.47363281 C-6.15608325 19.76307305 -6.15608325 19.76307305 -2.3046875 15 C-2.16289063 14.01 -2.02109375 13.02 -1.875 12 C-1.70742187 11.01 -1.53984375 10.02 -1.3671875 9 C-1.18542969 7.515 -1.18542969 7.515 -1 6 C-0.6711737 3.99925405 -0.33912062 1.99902684 0 0 Z " fill="#222B5D" transform="translate(112,463)"/>
<path d="M0 0 C0.66 0 1.32 0 2 0 C1.96390625 1.12535156 1.9278125 2.25070312 1.890625 3.41015625 C2.14955898 8.8199211 2.91883885 13.4478916 6 18 C13.24642113 23.90240098 22.14012456 27.60890351 30.60595703 31.43896484 C34.92587624 33.4258418 39.08785417 35.64343713 43.25 37.9375 C45.16651021 38.95862704 47.08309815 39.97960837 49 41 C49.33 40.01 49.66 39.02 50 38 C50.24250488 38.6086792 50.48500977 39.2173584 50.73486328 39.84448242 C52.27634819 42.47083716 53.53412847 43.1381936 56.2421875 44.48828125 C57.130271 44.94009766 58.01835449 45.39191406 58.93334961 45.85742188 C59.90409424 46.33759766 60.87483887 46.81777344 61.875 47.3125 C63.95796195 48.36926126 66.03994863 49.42794646 68.12109375 50.48828125 C69.23081543 51.05111816 70.34053711 51.61395508 71.48388672 52.19384766 C77.68070355 55.37702019 83.80611376 58.69304197 89.9375 62 C93.32271264 63.82520022 96.70933911 65.64736237 100.10498047 67.453125 C101.88451904 68.40397307 103.6563959 69.36954625 105.41455078 70.359375 C108.1557331 71.85584658 110.31184835 73.00325624 113.4765625 72.98828125 C117.1863932 71.53535994 120.7858933 69.9161694 124.375 68.1875 C125.10460937 67.84396484 125.83421875 67.50042969 126.5859375 67.14648438 C128.03767188 66.45561435 129.48200761 65.74896563 130.91821289 65.02636719 C133 64 133 64 135.01733398 63.18457031 C137.77901635 61.94183121 139.67138684 60.7644418 140.88671875 57.93725586 C141.51382841 55.42092743 141.94659657 52.94207116 142.3125 50.375 C142.59404321 48.65261803 142.88152694 46.93119348 143.17578125 45.2109375 C143.34460815 44.07084229 143.34460815 44.07084229 143.5168457 42.90771484 C144 41 144 41 146 39 C147.91921163 43.98995025 148.52837173 48.72707445 149 54 C156.08516813 51.33011634 162.76363654 48.19275385 169.4375 44.625 C170.36054932 44.13676758 171.28359863 43.64853516 172.23461914 43.14550781 C177.65811618 40.270724 183.0496593 37.34125916 188.42578125 34.37890625 C192.62017457 32.13213714 196.89353285 30.0467747 201.1640625 27.94921875 C203.97454792 26.54692668 206.721677 25.05617524 209.4609375 23.51953125 C210.59281494 22.89268433 210.59281494 22.89268433 211.74755859 22.25317383 C213.21903077 21.43450195 214.68334762 20.60279737 216.13916016 19.7565918 C219.31292242 18.00326783 221.34512452 16.99915281 225.01953125 17.00390625 C228.8261473 18.27610427 232.18656637 19.98993354 235.6875 21.9375 C237.18723552 22.75178939 238.68724654 23.56557152 240.1875 24.37890625 C240.96867187 24.80574707 241.74984375 25.23258789 242.5546875 25.67236328 C246.74427381 27.94702086 250.96686224 30.15866081 255.1875 32.375 C255.97664795 32.79128662 256.7657959 33.20757324 257.57885742 33.63647461 C261.69633786 35.80582382 265.82770886 37.93714473 270 40 C270.14099121 39.35973877 270.28198242 38.71947754 270.42724609 38.05981445 C271.07212807 35.14305711 271.72349863 32.22778562 272.375 29.3125 C272.59671875 28.30509766 272.8184375 27.29769531 273.046875 26.25976562 C273.26601563 25.28330078 273.48515625 24.30683594 273.7109375 23.30078125 C273.90993652 22.40528564 274.10893555 21.50979004 274.31396484 20.5871582 C275.01320154 17.95021468 275.93605034 15.50957644 277 13 C280.9409215 20.33826762 282.26383981 28.71115528 283.375 36.8828125 C283.58125 37.91148437 283.7875 38.94015625 284 40 C284.0829834 40.69512695 284.1659668 41.39025391 284.25146484 42.10644531 C285.09253587 46.3019686 286.19294794 48.40533778 289.68847656 50.98095703 C293.27607069 52.97551716 296.90879991 54.76253116 300.625 56.5 C301.94733934 57.14423438 303.26822153 57.79146807 304.58764648 58.44165039 C307.19099523 59.72197695 309.80025326 60.98878025 312.41455078 62.24658203 C317.72978462 64.84592899 322.91121377 67.67565494 328.07470703 70.5625 C331.42672332 72.38163094 333.0733716 73 337 73 C339.64957208 72.09267841 340.7110547 71.55780946 342.01171875 69.046875 C342.23472656 68.28890625 342.45773437 67.5309375 342.6875 66.75 C343.04328125 65.55310547 343.04328125 65.55310547 343.40625 64.33203125 C344.10904094 61.57172737 344.63778349 58.82528879 345 56 C347.56616632 59.84924948 347.55097676 62.4349304 348 67 C349.43666016 66.29037109 349.43666016 66.29037109 350.90234375 65.56640625 C351.5372876 65.25380859 352.17223145 64.94121094 352.82641602 64.61914062 C354.2578474 63.90268 355.68141107 63.17032172 357.09741211 62.42382812 C360.88646029 60.44355559 364.48994254 58.78226618 368.6015625 57.58984375 C373.61587234 55.92492982 377.70218623 54.28280283 381 50 C384.70634806 40.81587805 386.12909778 30.89550877 387.51367188 21.13525391 C388 18 388 18 389 15 C389.66 15 390.32 15 391 15 C391.84228458 18.56044445 392.67223903 22.12365344 393.5 25.6875 C393.85771484 27.19860352 393.85771484 27.19860352 394.22265625 28.74023438 C394.44824219 29.71669922 394.67382812 30.69316406 394.90625 31.69921875 C395.11572266 32.59471436 395.32519531 33.49020996 395.54101562 34.4128418 C395.99994512 36.99969065 396.08261971 39.37888974 396 42 C405.32647177 37.39767721 414.59067262 32.68377637 423.8125 27.875 C424.75359619 27.38483398 425.69469238 26.89466797 426.66430664 26.38964844 C427.58590576 25.90786133 428.50750488 25.42607422 429.45703125 24.9296875 C430.36791504 24.45756836 431.27879883 23.98544922 432.21728516 23.49902344 C434.15047637 22.45763074 436.05537458 21.36266682 437.93505859 20.22753906 C445.17014925 15.9209666 445.17014925 15.9209666 449.03515625 16.2890625 C450.01355469 16.85367187 450.99195313 17.41828125 452 18 C453.60173445 18.80174096 455.20474673 19.60093104 456.80859375 20.3984375 C458.68719505 21.38626476 460.56336947 22.37871676 462.4375 23.375 C464.48304639 24.4518733 466.52862016 25.52869461 468.57421875 26.60546875 C470.15275635 27.43957275 470.15275635 27.43957275 471.76318359 28.29052734 C477.08581341 31.10158889 482.41709513 33.89599458 487.75 36.6875 C488.73154053 37.20425293 489.71308105 37.72100586 490.72436523 38.25341797 C491.63516846 38.73053223 492.54597168 39.20764648 493.484375 39.69921875 C494.28584961 40.12033936 495.08732422 40.54145996 495.91308594 40.9753418 C498.10549874 42.10975409 498.10549874 42.10975409 501 43 C501.0825 41.72125 501.165 40.4425 501.25 39.125 C501.77903594 33.811639 502.81033696 28.64985632 503.9375 23.4375 C504.10733398 22.62748535 504.27716797 21.8174707 504.45214844 20.98291016 C504.90046388 18.97232213 505.44270023 16.98314596 506 15 C506.66 14.67 507.32 14.34 508 14 C508.24907104 15.08716309 508.24907104 15.08716309 508.50317383 16.19628906 C509.27174041 19.54780453 510.04211189 22.89890278 510.8125 26.25 C511.07353516 27.38953125 511.33457031 28.5290625 511.60351562 29.703125 C512.13299331 32.00406507 512.67584249 34.30196708 513.23168945 36.59667969 C514 40 514 40 514.49291992 43.31738281 C515.50853212 49.32539237 515.50853212 49.32539237 519.20385742 53.96777344 C521.96892975 55.62747105 524.73027509 56.96560793 527.6875 58.25 C529.16959961 58.95576172 529.16959961 58.95576172 530.68164062 59.67578125 C533.10591295 60.82350438 535.5413113 61.92853405 538 63 C538.21462891 61.1746875 538.21462891 61.1746875 538.43359375 59.3125 C538.8273784 56.16222282 539.33742182 53.09366689 540.0625 50 C540.23910156 49.236875 540.41570313 48.47375 540.59765625 47.6875 C540.73042969 47.130625 540.86320313 46.57375 541 46 C541.66 46 542.32 46 543 46 C543.07009277 46.9132605 543.07009277 46.9132605 543.14160156 47.8449707 C544.14441841 59.95625078 544.14441841 59.95625078 550.10302734 70.07324219 C554.95403273 73.47210903 560.23333137 75.87497398 565.71435547 78.07958984 C573.02253219 81.02253219 573.02253219 81.02253219 575 83 C575.09692063 85.13893267 575.12186803 87.28112967 575.12025452 89.42225647 C575.12110894 90.10098059 575.12196337 90.7797047 575.12284368 91.47899622 C575.12450041 93.76995926 575.118974 96.06085026 575.11352539 98.35180664 C575.11324353 99.98740131 575.11340122 101.6229961 575.1139679 103.2585907 C575.11425593 107.71294586 575.10835824 112.16727434 575.10139394 116.62162328 C575.09516139 121.27146474 575.09455668 125.92130674 575.09336853 130.57115173 C575.09025492 139.38261702 575.08204113 148.19406997 575.07201904 157.00552982 C575.05877385 168.90799223 575.05335824 180.81045799 575.04751682 192.71292591 C575.03810126 211.47529319 575.01818254 230.23763443 575 249 C545.3 249 515.6 249 485 249 C490.25990227 272.80046163 490.25990227 272.80046163 495.53125 296.59838867 C496.546875 301.20959473 496.546875 301.20959473 497.02148438 303.37080383 C497.35288924 304.8751769 497.68636211 306.37909533 498.02148438 307.88264465 C498.52964362 310.16444672 499.03115558 312.44761997 499.53125 314.73120117 C499.81548828 316.01693527 500.09972656 317.30266937 500.39257812 318.62736511 C501 322 501 322 501 327 C486.15 327 471.3 327 456 327 C459.16987431 310.93081962 462.48341918 294.90827403 466.02197266 278.91650391 C466.76648085 275.55048798 467.50650246 272.18350563 468.24609375 268.81640625 C468.72109748 266.66140174 469.19634789 264.50645158 469.671875 262.3515625 C469.89164001 261.35178375 470.11140503 260.352005 470.33782959 259.32192993 C470.54184387 258.40181122 470.74585815 257.4816925 470.95605469 256.53369141 C471.13416687 255.72751373 471.31227905 254.92133606 471.49578857 254.09072876 C472 252 472 252 473 249 C435.71 249 398.42 249 360 249 C361.65 256.59 363.3 264.18 365 272 C365 272.99 365 273.98 365 275 C350.15 275 335.3 275 320 275 C321.09466461 266.24268316 323.08548714 257.61530785 325 249 C301.9 249 278.8 249 255 249 C256.65 255.93 258.3 262.86 260 270 C260 271.65 260 273.3 260 275 C250.43 275 240.86 275 231 275 C232 265 232 265 236 249 C200.03 249 164.06 249 127 249 C128.65 257.58 130.3 266.16 132 275 C117.15 275 102.3 275 87 275 C89 262 89 262 92 249 C46.79 249 1.58 249 -45 249 C-41.12479687 267.73014844 -37.17901544 286.41796315 -32.94287109 305.06518555 C-32.28379314 307.97103426 -31.62986668 310.87800493 -30.9765625 313.78515625 C-30.77664703 314.6578566 -30.57673157 315.53055695 -30.37075806 316.42970276 C-30.18991669 317.23673141 -30.00907532 318.04376007 -29.82275391 318.87524414 C-29.58342636 319.92984581 -29.58342636 319.92984581 -29.33926392 321.00575256 C-29 323 -29 323 -29 327 C-43.85 327 -58.7 327 -74 327 C-73.38850108 321.49650972 -72.81290853 316.59973267 -71.6171875 311.2902832 C-71.3402002 310.04902176 -71.06321289 308.80776031 -70.77783203 307.52888489 C-70.47694138 306.20283823 -70.17599606 304.87680398 -69.875 303.55078125 C-69.56447417 302.16564727 -69.25442409 300.78040655 -68.94482422 299.39506531 C-68.1339315 295.77155392 -67.31758974 292.14929401 -66.49975586 288.52734375 C-65.18974696 282.72157886 -63.88793466 276.91397197 -62.58648682 271.10628319 C-62.13347849 269.08854519 -61.67801797 267.07137316 -61.22216797 265.05427551 C-60.94518066 263.82247055 -60.66819336 262.59066559 -60.3828125 261.3215332 C-60.13934082 260.24281448 -59.89586914 259.16409576 -59.64501953 258.0526886 C-59.0109795 255.05196277 -58.5042083 252.02524978 -58 249 C-75.82 249 -93.64 249 -112 249 C-112.27092028 226.43407764 -112.49195083 203.86947243 -112.62174606 181.30233669 C-112.6836151 170.82393094 -112.76795433 160.34660749 -112.90527344 149.86889648 C-113.02491 140.73604157 -113.10230439 131.60397039 -113.12906194 122.47035366 C-113.14470365 117.63398244 -113.18143113 112.79985315 -113.26876068 107.96420097 C-113.35033063 103.41050262 -113.37532116 98.85996447 -113.35729218 94.30560493 C-113.36058898 92.63614836 -113.38440563 90.96658433 -113.4304657 89.29776001 C-113.56204855 84.28362246 -113.53560842 79.8058581 -112 75 C-108.39185013 71.54693562 -104.62244601 69.77964856 -100 68 C-98.72774127 67.35660357 -97.4617208 66.70045699 -96.20703125 66.0234375 C-95.08683594 65.47945312 -93.96664062 64.93546875 -92.8125 64.375 C-85.42491995 60.73175855 -78.07742392 57.0127454 -70.75 53.25 C-69.65405518 52.69489746 -68.55811035 52.13979492 -67.42895508 51.56787109 C-65.87857544 50.76857178 -65.87857544 50.76857178 -64.296875 49.953125 C-63.37229492 49.48036133 -62.44771484 49.00759766 -61.49511719 48.52050781 C-58.0902366 46.44559624 -55.59915416 44.54765999 -54.13452148 40.7644043 C-53.96509033 39.95914307 -53.79565918 39.15388184 -53.62109375 38.32421875 C-53.42362549 37.4204248 -53.22615723 36.51663086 -53.02270508 35.58544922 C-52.8295874 34.62912598 -52.63646973 33.67280273 -52.4375 32.6875 C-52.22697998 31.70797363 -52.01645996 30.72844727 -51.79956055 29.71923828 C-50.85171613 25.27314519 -49.95833697 20.81691572 -49.0859375 16.35546875 C-48.9526001 15.67460205 -48.8192627 14.99373535 -48.68188477 14.29223633 C-48.33587437 12.49632117 -48.00526479 10.69745808 -47.67578125 8.8984375 C-47.06959495 6.29849393 -46.32041422 4.30370141 -45 2 C-42.98918373 7.56263192 -41.68821304 13.2432405 -40.375 19 C-40.14554687 19.97195313 -39.91609375 20.94390625 -39.6796875 21.9453125 C-39.463125 22.89148438 -39.2465625 23.83765625 -39.0234375 24.8125 C-38.72832275 26.09060547 -38.72832275 26.09060547 -38.42724609 27.39453125 C-37.95076802 30.30023069 -37.92973233 33.06055846 -38 36 C-34.39490274 34.12678547 -30.79110142 32.25109034 -27.1875 30.375 C-26.18267578 29.85292969 -25.17785156 29.33085937 -24.14257812 28.79296875 C-22.11009749 27.73424893 -20.08113091 26.66875676 -18.05566406 25.59667969 C-16.00545093 24.52537944 -13.93905636 23.48453376 -11.85839844 22.47363281 C-6.15608325 19.76307305 -6.15608325 19.76307305 -2.3046875 15 C-2.16289063 14.01 -2.02109375 13.02 -1.875 12 C-1.70742187 11.01 -1.53984375 10.02 -1.3671875 9 C-1.18542969 7.515 -1.18542969 7.515 -1 6 C-0.6711737 3.99925405 -0.33912062 1.99902684 0 0 Z " fill="#19234F" transform="translate(112,463)"/>
<path d="M0 0 C11.24437377 0 18.85680406 0.12842537 29.0625 3.3125 C30.12404297 3.62123047 31.18558594 3.92996094 32.27929688 4.24804688 C50.83847136 9.74749034 67.72399488 19.84758378 81 34 C81.79921875 34.77988281 82.5984375 35.55976563 83.421875 36.36328125 C94.68667861 47.88410312 102.44879888 61.80569936 107.08984375 77.11328125 C107.71416341 79.86808173 107.71416341 79.86808173 109 81 C109.57730874 83.62942301 110.00566666 86.27579947 110.45703125 88.9296875 C110.78725802 90.79701295 111.15097248 92.65934918 111.57421875 94.5078125 C115.09520955 110.43967157 113.6860582 128.4848157 109 144 C108.34 144 107.68 144 107 144 C106.9278125 144.94488281 106.855625 145.88976562 106.78125 146.86328125 C106.03134322 152.04623074 103.76464276 156.51144377 101.5 161.1875 C101.05003662 162.12005615 100.60007324 163.0526123 100.13647461 164.01342773 C96.47432574 171.40653142 92.42678018 177.75015816 87 184 C86.57074219 184.50321777 86.14148438 185.00643555 85.69921875 185.52490234 C73.34626632 199.92926366 58.51681358 210.84847357 40.51171875 217.02734375 C37.87783418 217.85280307 37.87783418 217.85280307 36 220 C23.73133997 223.36502618 12.79669977 224 0 224 C0 150.08 0 76.16 0 0 Z " fill="#FAD3A9" transform="translate(336,126)"/>
<path d="M0 0 C2.20061122 3.70723884 2.87057645 7.65713485 3.65625 11.8359375 C3.80404907 12.59290924 3.95184814 13.34988098 4.10412598 14.12979126 C4.57495403 16.54382628 5.03813433 18.95923548 5.5 21.375 C5.96250255 23.78348563 6.42677572 26.19157529 6.89587402 28.5987854 C7.18706419 30.09392268 7.47446552 31.58980458 7.75744629 33.08651733 C8.55528175 37.19320388 9.66170589 41.04283118 11 45 C11.53695491 47.31652394 12.0373759 49.6417137 12.5078125 51.97265625 C12.70333206 52.94095619 12.70333206 52.94095619 12.90280151 53.92881775 C13.17523918 55.28394775 13.44573097 56.6394703 13.71435547 57.99536133 C14.12478182 60.06140171 14.54443423 62.12542391 14.96484375 64.18945312 C15.22972515 65.51290918 15.49406656 66.83647345 15.7578125 68.16015625 C15.9964502 69.35261963 16.23508789 70.54508301 16.48095703 71.77368164 C16.93486473 74.59512576 17.1066812 77.15214881 17 80 C17.66 80 18.32 80 19 80 C19.18175781 81.11117187 19.36351562 82.22234375 19.55078125 83.3671875 C20.7754695 90.67257623 22.06049049 97.74162132 24.37890625 104.79296875 C25.24051824 107.85467173 25.48367132 110.89068701 25.75390625 114.05078125 C25.93459992 116.14120085 25.93459992 116.14120085 27 118.5 C28 121 28 121 29 130 C10.19 130 -8.62 130 -28 130 C-26.88548387 118.85483871 -26.88548387 118.85483871 -25.5625 114.125 C-24.16887501 108.88361039 -23.22265505 103.66374598 -22.4296875 98.30078125 C-22 96 -22 96 -21 95 C-20.65366176 93.57458415 -20.35843956 92.13666712 -20.0859375 90.6953125 C-19.9115918 89.78813477 -19.73724609 88.88095703 -19.55761719 87.94628906 C-19.28159668 86.48787598 -19.28159668 86.48787598 -19 85 C-18.21372527 80.95727137 -17.41916325 76.91618516 -16.625 72.875 C-16.4290625 71.86179687 -16.233125 70.84859375 -16.03125 69.8046875 C-14.87794424 63.96516464 -13.57073973 58.18757226 -12.09375 52.421875 C-9.50383759 42.29021384 -7.44824814 32.05134072 -5.34912109 21.80908203 C-4.8372649 19.3174137 -4.32111142 16.82666244 -3.8046875 14.3359375 C-3.57650833 13.21087296 -3.57650833 13.21087296 -3.34371948 12.06307983 C-2.48544109 7.92821923 -1.426527 3.98595354 0 0 Z " fill="#0F1A3F" transform="translate(204,766)"/>
<path d="M0 0 C1.59937944 2.94618045 2.5473311 5.72524829 3.33203125 8.98046875 C3.57058838 9.96684326 3.80914551 10.95321777 4.05493164 11.96948242 C4.3049292 13.03142822 4.55492676 14.09337402 4.8125 15.1875 C5.20779907 16.84906128 5.20779907 16.84906128 5.61108398 18.54418945 C7.65830029 27.26997894 9.45970571 36.03243771 11.17504883 44.82861328 C12.67647414 52.49855946 14.35132819 60.11468912 16.11865234 67.72729492 C17.98532802 75.80960342 19.67014756 83.92579273 21.30078125 92.05883789 C22.27532944 96.84671193 23.4466521 101.36451516 25 106 C25.7877154 109.38047611 26.45903747 112.781225 27.125 116.1875 C27.30675781 117.08919922 27.48851562 117.99089844 27.67578125 118.91992188 C29 125.60573308 29 125.60573308 29 129 C10.19 129 -8.62 129 -28 129 C-25.75293891 114.39410291 -25.75293891 114.39410291 -24.37890625 108.73046875 C-24.08459717 107.4993335 -23.79028809 106.26819824 -23.48706055 104.99975586 C-23.18195557 103.74171143 -22.87685059 102.48366699 -22.5625 101.1875 C-20.31630398 91.80930291 -18.18619745 82.44979273 -16.60546875 72.93359375 C-16 70 -16 70 -15.02172852 67.62890625 C-14.01882542 65.04843779 -13.49084284 62.73035749 -13.046875 60.00390625 C-11.94829187 53.61010969 -10.61629247 47.27888891 -9.25 40.9375 C-8.9926709 39.73899414 -8.7353418 38.54048828 -8.47021484 37.30566406 C-5.77718026 24.84038829 -2.91198207 12.41571777 0 0 Z " fill="#0F1A3F" transform="translate(487,780)"/>
<path d="M0 0 C7.26 0 14.52 0 22 0 C22 317.46 22 634.92 22 962 C-205.7 962 -433.4 962 -668 962 C-668 955.4 -668 948.8 -668 942 C-665.91228104 944.6096487 -663.83380117 947.22974544 -661.875 949.9375 C-657.03797836 955.71796549 -650.37872506 959.08639097 -643 960 C-639.44877393 960.14461781 -635.90077294 960.14303955 -632.3469677 960.1398077 C-631.26814575 960.14275912 -630.18932381 960.14571055 -629.07781029 960.14875141 C-625.44394578 960.1574494 -621.81011308 960.15902369 -618.17623901 960.16062927 C-615.55211439 960.16535975 -612.9279905 960.17051059 -610.30386746 960.17604691 C-603.83612792 960.18885375 -597.36839238 960.19624227 -590.90064312 960.20194569 C-583.15411367 960.20900848 -575.40759613 960.22176632 -567.6610743 960.23449489 C-548.04904804 960.26633523 -528.43701388 960.28617866 -508.82497042 960.30378041 C-503.51311695 960.30854923 -498.20126373 960.31355772 -492.8894105 960.31858563 C-459.91477717 960.34962979 -426.94014182 960.37624582 -393.96549797 960.39300442 C-386.32725903 960.39694161 -378.68902012 960.40095347 -371.05078125 960.4050293 C-369.6273587 960.4057818 -369.6273587 960.4057818 -368.17518013 960.4065495 C-337.40346364 960.42297002 -306.63182664 960.46143164 -275.86014926 960.5123164 C-244.22327734 960.56453651 -212.58644776 960.59731859 -180.94953188 960.60458195 C-176.48129924 960.60561054 -172.01306668 960.60684686 -167.54483414 960.60820198 C-166.22576597 960.60858904 -166.22576597 960.60858904 -164.88004996 960.60898391 C-150.72878171 960.61367866 -136.57761826 960.63861226 -122.42638924 960.67095341 C-108.20249086 960.70298672 -93.9787105 960.71296105 -79.75478034 960.70052146 C-71.30544658 960.69378473 -62.85651822 960.70371903 -54.40724783 960.73764846 C-48.76007089 960.75866959 -43.11316816 960.7578023 -37.46598315 960.73931505 C-34.25024905 960.72940583 -31.03543968 960.73216042 -27.81974898 960.75497787 C-7.91338346 961.01231983 -7.91338346 961.01231983 9 951.4375 C9.66 950.633125 10.32 949.82875 11 949 C12.0209375 947.9171875 12.0209375 947.9171875 13.0625 946.8125 C19.18774329 937.9210178 19.57567268 929.03823677 19.50895119 918.57561684 C19.51373611 917.01394234 19.52026986 915.4522724 19.52838439 913.89061165 C19.54560087 909.60100487 19.53798164 905.31174876 19.52627294 901.0221367 C19.51792641 896.35466717 19.53273956 891.68726127 19.54457796 887.01980722 C19.56210572 878.83999079 19.56472488 870.6602745 19.55757141 862.48044395 C19.54696197 850.31672342 19.5591433 838.15309992 19.57573728 825.98938994 C19.60623433 803.00213765 19.6096257 780.01492938 19.60469122 757.0276611 C19.60102741 739.27866251 19.6045408 721.52967838 19.61314011 703.78068161 C19.6143449 701.23165685 19.6155473 698.68263208 19.61674731 696.13360732 C19.6185618 692.29258543 19.62037913 688.45156354 19.62221201 684.61054166 C19.63907362 648.8941873 19.64777807 613.17783829 19.63939857 577.46148109 C19.63924246 576.78832793 19.63908635 576.11517476 19.6389255 575.42162302 C19.63717992 567.91535693 19.6353214 560.40909088 19.63342424 552.90282483 C19.63325322 552.22512754 19.6330822 551.54743025 19.632906 550.84919668 C19.63186842 546.73820751 19.63186842 546.73820751 19.63082154 542.62721834 C19.6197494 499.27716152 19.63483646 455.92718987 19.67236328 412.57714844 C19.68180779 401.65356781 19.69116884 390.72998713 19.700037 379.80640602 C19.70058365 379.13378872 19.70113029 378.46117143 19.7016935 377.76817179 C19.73102576 341.44924517 19.73330622 305.13031796 19.72721231 268.81138074 C19.7264216 263.70323714 19.72569851 258.59509354 19.72501755 253.48694992 C19.72474535 251.60028591 19.72474535 251.60028591 19.72446766 249.67550747 C19.72213426 230.67584806 19.73544323 211.67624029 19.75664139 192.67659378 C19.78071995 171.07309336 19.78389266 149.46970683 19.75906105 127.86620475 C19.74578367 115.77318146 19.74911221 103.68043037 19.77623808 91.58742874 C19.79269435 83.51158867 19.78737488 75.43595304 19.76428755 67.36012967 C19.75174183 62.75745096 19.74865622 58.15530439 19.77201422 53.55265589 C19.79308495 49.36217849 19.78635218 45.17268421 19.75780516 40.98225947 C19.75236536 39.47892618 19.7568857 37.97551376 19.77281945 36.47225508 C19.88237307 25.37572745 17.72325898 16.84192558 10.625 8.0625 C7.73400405 5.79100318 4.7467267 3.86869804 1.57421875 2.015625 C1.05472656 1.68046875 0.53523437 1.3453125 0 1 C0 0.67 0 0.34 0 0 Z " fill="#CC929E" transform="translate(668,0)"/>
<path d="M0 0 C0.66 0.33 1.32 0.66 2 1 C2.67016602 3.30078125 2.67016602 3.30078125 3.25390625 6.3125 C3.46853516 7.38757813 3.68316406 8.46265625 3.90429688 9.5703125 C4.12150391 10.70210937 4.33871094 11.83390625 4.5625 13 C4.99804841 15.22980467 5.43668186 17.45900973 5.87890625 19.6875 C6.0704126 20.68136719 6.26191895 21.67523437 6.45922852 22.69921875 C6.7753909 24.95091116 6.7753909 24.95091116 8 26 C8.31923492 28.0572917 8.51161352 30.11613521 8.71875 32.1875 C8.81998043 34.0167533 8.81998043 34.0167533 10 35 C10.47928943 37.28959918 10.909124 39.57174757 11.3125 41.875 C12.48562306 48.32902954 13.73151758 54.76409023 15.0625 61.1875 C15.22468018 61.98849121 15.38686035 62.78948242 15.55395508 63.61474609 C16.19263618 66.67173113 16.80941132 69.53328285 17.9921875 72.4296875 C19.57629977 76.46978779 20.24795593 80.68514635 21.0625 84.9375 C21.23587891 85.81857422 21.40925781 86.69964844 21.58789062 87.60742188 C22.45938773 92.06507949 23.25297002 96.51782009 24 101 C8.82 101 -6.36 101 -22 101 C-21.35681942 95.21137474 -20.80375748 90.73010628 -19.3125 85.3125 C-16.76936472 75.74368127 -14.96513887 66.01585243 -13.10668945 56.29614258 C-12.86265381 55.03954834 -12.61861816 53.7829541 -12.3671875 52.48828125 C-12.15175293 51.35946533 -11.93631836 50.23064941 -11.71435547 49.06762695 C-11.04778771 46.20521279 -10.0952316 43.71774672 -9 41 C-8.57077292 39.12722334 -8.19074301 37.24272217 -7.8515625 35.3515625 C-7.65264404 34.26987793 -7.45372559 33.18819336 -7.2487793 32.07373047 C-6.94000854 30.36660889 -6.94000854 30.36660889 -6.625 28.625 C-4.82560234 18.93986822 -2.79105587 9.44904947 0 0 Z " fill="#0F1A3F" transform="translate(400,795)"/>
<path d="M0 0 C0.33 0 0.66 0 1 0 C1.11593506 0.60062256 1.23187012 1.20124512 1.35131836 1.82006836 C1.87606471 4.52666859 2.40670147 7.23208048 2.9375 9.9375 C3.11990234 10.88302734 3.30230469 11.82855469 3.49023438 12.80273438 C3.66748047 13.70185547 3.84472656 14.60097656 4.02734375 15.52734375 C4.27085571 16.77632446 4.27085571 16.77632446 4.51928711 18.05053711 C4.81980263 19.99221912 4.81980263 19.99221912 6 21 C6.60122077 23.80878013 7.15580425 26.61533973 7.6875 29.4375 C9.30095434 37.77380812 11.12580185 46.04557932 13.0625 54.3125 C15.21360547 63.51593019 17.22795462 72.7153311 19 82 C19.53622398 84.79275017 20.07924862 87.58409818 20.625 90.375 C20.86476563 91.62023437 21.10453125 92.86546875 21.3515625 94.1484375 C21.70762471 96.88519573 21.70762471 96.88519573 23 98 C23 99.65 23 101.3 23 103 C8.15 103 -6.7 103 -22 103 C-20.87425889 91.74258893 -20.87425889 91.74258893 -19.94921875 87.5546875 C-19.7473999 86.63155762 -19.54558105 85.70842773 -19.33764648 84.75732422 C-19.12309814 83.80615723 -18.9085498 82.85499023 -18.6875 81.875 C-18.46457275 80.8658252 -18.24164551 79.85665039 -18.01196289 78.81689453 C-16.74682032 73.14294917 -15.39073718 67.50341066 -13.9375 61.875 C-11.90522856 53.95160973 -10.4051291 45.95336759 -8.9296875 37.91015625 C-6.75697006 26.24500625 -6.75697006 26.24500625 -4.97265625 20.953125 C-3.75746728 17.2636356 -3.0988724 13.57126274 -2.4375 9.75 C-1.12809917 2.25619835 -1.12809917 2.25619835 0 0 Z " fill="#0F1A3F" transform="translate(348,766)"/>
<path d="M0 0 C0.66 0 1.32 0 2 0 C2.14099121 0.76143311 2.28198242 1.52286621 2.42724609 2.30737305 C3.0711996 5.76842537 3.7230153 9.22795198 4.375 12.6875 C4.59671875 13.88568359 4.8184375 15.08386719 5.046875 16.31835938 C5.26601562 17.47529297 5.48515625 18.63222656 5.7109375 19.82421875 C5.90993652 20.88729248 6.10893555 21.95036621 6.31396484 23.0456543 C6.90103475 25.94119855 6.90103475 25.94119855 7.96337891 28.32177734 C9.4377921 32.13108321 10.11117039 36.02323608 10.875 40.02734375 C11.04499512 40.89388077 11.21499023 41.76041779 11.39013672 42.6532135 C11.93138974 45.41376232 12.46633134 48.17547569 13 50.9375 C13.53398987 53.69588539 14.06947923 56.45393456 14.60986328 59.21107483 C14.94538374 60.92325284 15.27727529 62.63614726 15.60498047 64.34983826 C16.45753135 68.70386953 17.53086842 72.80334445 19 77 C19.80237091 80.16761795 20.45710943 83.36404625 21.125 86.5625 C21.30675781 87.39974609 21.48851562 88.23699219 21.67578125 89.09960938 C21.84722656 89.91365234 22.01867187 90.72769531 22.1953125 91.56640625 C22.35016113 92.29802979 22.50500977 93.02965332 22.66455078 93.78344727 C23 96 23 96 23 101 C8.48 101 -6.04 101 -21 101 C-20.38553783 94.2409161 -19.87250984 88.61377049 -18.375 82.1875 C-18.12266602 81.0890979 -18.12266602 81.0890979 -17.86523438 79.96850586 C-17.25190729 77.31030994 -16.62635803 74.65515562 -16 72 C-14.98608755 67.67830547 -13.97345627 63.35631144 -12.96166992 59.03411865 C-12.65315273 57.71655771 -12.34439506 56.39905305 -12.03540039 55.081604 C-9.90104246 45.97682911 -7.86238085 36.86222975 -5.9765625 27.703125 C-4.78015934 21.89637847 -3.51300857 16.10505616 -2.25 10.3125 C-2.02683105 9.28842041 -1.80366211 8.26434082 -1.57373047 7.20922852 C-1.04967536 4.80603797 -0.52512997 2.40295586 0 0 Z " fill="#0F1A3F" transform="translate(112,716)"/>
<path d="M0 0 C7.26 0 14.52 0 22 0 C21.67 308.22 21.34 616.44 21 934 C20.67 934 20.34 934 20 934 C20.00006776 933.2110102 20.00013552 932.4220204 20.00020533 931.60912181 C20.00736888 845.72352228 20.00712044 759.83792395 19.9680481 673.95233154 C19.9674667 672.66971733 19.96688531 671.38710311 19.96628629 670.0656218 C19.95391572 642.87081309 19.94034547 615.6760051 19.92533366 588.48119773 C19.91779396 574.82019065 19.91049125 561.15918346 19.90341264 547.49817614 C19.90234348 545.43747454 19.90126756 543.37677295 19.90019136 541.31607136 C19.8836805 509.58703551 19.87224995 477.85800783 19.87554932 446.12896729 C19.87562015 445.44684989 19.87569098 444.7647325 19.87576396 444.06194488 C19.87693687 433.06430803 19.87853645 422.06667124 19.88019265 411.06903444 C19.88711059 365.0694654 19.87490975 319.06995128 19.83675384 273.07039243 C19.83145594 266.67237348 19.8263824 260.27435438 19.82144547 253.87633514 C19.82046685 252.61709413 19.81948824 251.35785312 19.81847997 250.06045329 C19.80329453 229.77756478 19.80880883 209.49473199 19.82203486 189.2118443 C19.83488583 168.82830155 19.82599868 148.44486055 19.79483847 128.06133673 C19.77698095 115.94615371 19.77587451 103.83123706 19.79862334 91.7160608 C19.81217434 83.625084 19.80401896 75.53431773 19.77817133 67.44337134 C19.76406196 62.83187992 19.75943084 58.220917 19.78125392 53.60944369 C19.80093719 49.41083453 19.79285139 45.21321341 19.76297925 41.01467273 C19.75706345 39.50837833 19.76110334 38.00200186 19.77654973 36.49577504 C19.88240101 25.39055869 17.72931557 16.84941662 10.625 8.0625 C7.73400405 5.79100318 4.7467267 3.86869804 1.57421875 2.015625 C1.05472656 1.68046875 0.53523437 1.3453125 0 1 C0 0.67 0 0.34 0 0 Z " fill="#E09EA3" transform="translate(668,0)"/>
<path d="M0 0 C1.60172031 2.9172096 2.45018519 5.54418 3.0703125 8.80859375 C3.24433594 9.72060547 3.41835938 10.63261719 3.59765625 11.57226562 C3.77167969 12.51779297 3.94570313 13.46332031 4.125 14.4375 C4.30675781 15.37916016 4.48851562 16.32082031 4.67578125 17.29101562 C5.48551145 21.60450319 6.10104727 25.59757654 6 30 C6.66 30 7.32 30 8 30 C8.25692627 31.24704712 8.25692627 31.24704712 8.51904297 32.51928711 C9.16334902 35.64488928 9.80827916 38.77036189 10.45361328 41.89575195 C10.7312018 43.24075354 11.00855151 44.58580445 11.28564453 45.9309082 C11.68717523 47.87985414 12.08967622 49.82860009 12.4921875 51.77734375 C12.74838867 53.01983887 13.00458984 54.26233398 13.26855469 55.54248047 C13.89393819 58.49864908 14.56444209 61.43819997 15.2578125 64.37890625 C15.62519531 66.17134766 15.62519531 66.17134766 16 68 C15 69 15 69 12.13256836 69.11352539 C10.88096924 69.10828857 9.62937012 69.10305176 8.33984375 69.09765625 C7.34314415 69.09553383 7.34314415 69.09553383 6.3263092 69.09336853 C4.19666101 69.08775518 2.06711661 69.07520054 -0.0625 69.0625 C-1.50325369 69.05748671 -2.94400903 69.05292351 -4.38476562 69.04882812 C-7.92321102 69.03778145 -11.46159539 69.02050792 -15 69 C-14.54194296 64.18646362 -14.06453168 59.57341117 -12.625 54.9375 C-11.37233069 50.58612241 -10.46782942 46.27284452 -9.6875 41.8125 C-8.06607023 32.61494244 -5.71829202 23.609169 -3.40234375 14.56640625 C-2.16722111 9.73016304 -1.05444163 4.87868449 0 0 Z " fill="#0F1A40" transform="translate(616,834)"/>
<path d="M0 0 C0.66 0 1.32 0 2 0 C2.2475 1.155 2.495 2.31 2.75 3.5 C3.57710053 7.27848084 4.5305756 11.01140644 5.52148438 14.75 C7.46815107 22.17122753 8.70829003 29.29885675 9 37 C9.66 37 10.32 37 11 37 C11.14622803 37.76143311 11.29245605 38.52286621 11.44311523 39.30737305 C12.10771422 42.76745303 12.77260411 46.22747706 13.4375 49.6875 C13.66759766 50.88568359 13.89769531 52.08386719 14.13476562 53.31835938 C14.35712891 54.47529297 14.57949219 55.63222656 14.80859375 56.82421875 C15.01282959 57.88729248 15.21706543 58.95036621 15.42749023 60.0456543 C15.94168139 62.69905609 16.46994436 65.34972178 17 68 C7.1 68 -2.8 68 -13 68 C-12.35579025 60.91369276 -11.64285839 54.37091621 -10.125 47.5 C-9.96386719 46.73558594 -9.80273438 45.97117187 -9.63671875 45.18359375 C-8.73745703 41.00795212 -7.70396997 36.90133202 -6.53515625 32.79296875 C-4.70939378 26.20891382 -3.51189898 19.53420726 -2.3125 12.8125 C-2.08755859 11.57435547 -1.86261719 10.33621094 -1.63085938 9.06054688 C-1.08293162 6.04111523 -0.53940077 3.02096445 0 0 Z " fill="#0F1A40" transform="translate(43,840)"/>
<path d="M0 0 C2.08771896 2.6096487 4.16619883 5.22974544 6.125 7.9375 C10.96074775 13.71644313 17.62195692 17.08998613 25 18 C28.57817243 18.140265 32.15286542 18.13235144 35.73340416 18.12304783 C36.82088638 18.12420167 37.90836861 18.12535552 39.02880484 18.12654433 C42.69201916 18.12920229 46.35519 18.12469551 50.0184021 18.12025452 C52.6634538 18.12069039 55.30850266 18.12152333 57.9535538 18.12284368 C63.71420521 18.12491734 69.4748463 18.12327378 75.23549652 18.11920547 C83.8013853 18.11317284 92.36726756 18.11286945 100.93315808 18.11374746 C115.34203101 18.11506174 129.75089936 18.11171851 144.15977097 18.10573006 C158.42843015 18.09981507 172.69708743 18.09596452 186.96574783 18.09487724 C187.85259733 18.0948085 188.73944684 18.09473976 189.65317056 18.09466894 C194.15694556 18.09433061 198.66072055 18.09402923 203.16449554 18.09374207 C235.0730439 18.09164109 266.98158977 18.08490217 298.89013672 18.07543945 C329.89078763 18.06625658 360.89143785 18.0591722 391.89208984 18.05493164 C392.84749647 18.05480011 393.8029031 18.05466859 394.78726144 18.05453308 C404.38175967 18.05321457 413.9762579 18.05193875 423.57075614 18.05069422 C443.11623207 18.04815794 462.66170797 18.04533668 482.20718384 18.04234314 C483.10587301 18.04220585 484.00456218 18.04206856 484.93048436 18.04192711 C544.95365728 18.03272489 604.97682881 18.0168795 665 18 C664.67 18.66 664.34 19.32 664 20 C444.88 20 225.76 20 0 20 C0 13.4 0 6.8 0 0 Z " fill="#E0A0A7" transform="translate(0,942)"/>
<path d="M0 0 C4.42284346 8.23563955 5.64997289 17.86135496 7 27 C7.1134375 27.763125 7.226875 28.52625 7.34375 29.3125 C7.57040099 30.87387348 7.78682674 32.4367294 8 34 C3.02790438 32.23570801 -1.43438061 29.6060834 -6 27 C-4.74755442 17.73190274 -2.95904068 8.87712205 0 0 Z " fill="#0F1B41" transform="translate(389,476)"/>
<path d="M0 0 C7.26 0 14.52 0 22 0 C22.02707879 3.85421425 22.04687762 7.70823638 22.0625 11.5625 C22.07087891 12.64853516 22.07925781 13.73457031 22.08789062 14.85351562 C22.10459218 20.34832611 21.98582259 25.58961935 21 31 C20.67 31 20.34 31 20 31 C19.91363281 30.39414062 19.82726562 29.78828125 19.73828125 29.1640625 C18.23580855 20.20436294 15.22967167 11.88461648 8 6 C5.88633099 4.61586227 3.75587769 3.28993965 1.57421875 2.015625 C1.05472656 1.68046875 0.53523437 1.3453125 0 1 C0 0.67 0 0.34 0 0 Z " fill="#E9BDC3" transform="translate(668,0)"/>
<path d="M0 0 C2.08771896 2.6096487 4.16619883 5.22974544 6.125 7.9375 C10.92282582 13.67112467 17.64396737 17.18169578 25 18 C28.2896972 18.24166444 31.58003283 18.41114985 34.875 18.5625 C36.19371094 18.62727539 36.19371094 18.62727539 37.5390625 18.69335938 C39.69255797 18.79869339 41.84626064 18.89977649 44 19 C44 19.33 44 19.66 44 20 C29.48 20 14.96 20 0 20 C0 13.4 0 6.8 0 0 Z " fill="#EABDC4" transform="translate(0,942)"/>
<path d="M0 0 C5.28 0 10.56 0 16 0 C11 4 11 4 8.5 5.75 C5.61756787 8.34418891 3.93993317 11.05353361 2.015625 14.390625 C1.68046875 14.92171875 1.3453125 15.4528125 1 16 C0.67 16 0.34 16 0 16 C0 10.72 0 5.44 0 0 Z " fill="#F1CBD0" transform="translate(0,0)"/>
<path d="M0 0 C0.66 0.33 1.32 0.66 2 1 C2.6328125 3.109375 2.6328125 3.109375 3.125 5.75 C3.29257812 6.61109375 3.46015625 7.4721875 3.6328125 8.359375 C3.9923991 10.94533821 4.06564041 13.39313809 4 16 C0.04 17.98 0.04 17.98 -4 20 C-3.52476432 17.04098541 -3.04499898 14.08283097 -2.5625 11.125 C-2.42779297 10.28324219 -2.29308594 9.44148438 -2.15429688 8.57421875 C-2.02216797 7.76855469 -1.89003906 6.96289062 -1.75390625 6.1328125 C-1.63345947 5.38918457 -1.5130127 4.64555664 -1.38891602 3.87939453 C-1 2 -1 2 0 0 Z " fill="#0F1E45" transform="translate(257,502)"/>
<path d="M0 0 C0.66 0.33 1.32 0.66 2 1 C-0.97 3.97 -3.94 6.94 -7 10 C-7.66 9.67 -8.32 9.34 -9 9 C-6.21000549 5.51250686 -3.74764169 2.49842779 0 0 Z " fill="#423B67" transform="translate(11,3)"/>
<path d="M0 0 C1.98 0.495 1.98 0.495 4 1 C4 1.99 4 2.98 4 4 C2.35 4 0.7 4 -1 4 C-0.67 2.68 -0.34 1.36 0 0 Z " fill="#A49EA8" transform="translate(38,482)"/>
<path d="M0 0 C1.98 0.495 1.98 0.495 4 1 C4 1.99 4 2.98 4 4 C2.35 4 0.7 4 -1 4 C-0.67 2.68 -0.34 1.36 0 0 Z " fill="#A99EA8" transform="translate(191,477)"/>
</svg>
