<!-- icon666.com - MILLIONS vector ICONS FREE --><svg id="Capa_1" enable-background="new 0 0 512 512" viewBox="0 0 512 512" xmlns="http://www.w3.org/2000/svg"><g><g><path d="m256 186.572-195.281-123.549 16.337-24.521c3.065-4.6 9.226-5.938 13.923-3.024l17.958 11.143c34.703 21.533 65.924 9.651 94.3 27.399 45.17 28.252 52.763 63.852 52.763 63.852s7.593-35.6 52.762-63.851c28.376-17.748 59.597-5.866 94.3-27.399l17.958-11.143c4.697-2.914 10.858-1.576 13.923 3.024l16.337 24.521z" fill="#f4f8f8"></path><path d="m260.279 183.865c8.187-5.18 191.002-120.842 191.002-120.842l-16.337-24.521c-3.065-4.6-9.226-5.938-13.923-3.024l-17.958 11.143c-4.742 2.943-9.417 5.244-14.031 7.099-3.335 16.007-11.864 31.565-30.611 40.396-41.539 19.57-84.67 24.988-98.142 89.749z" fill="#d6e4ea"></path><path d="m507.2 77.438c8.698 13.68 5.272 31.763-7.827 41.313l-394.718 287.767c-4.061 2.961-9.765.06-9.765-4.965v-37.43c0-23.826 12.375-45.943 32.681-58.407l374.004-229.577c1.915-1.175 4.419-.597 5.625 1.299z" fill="#a95e2c"></path><path d="m4.8 77.438c-8.698 13.68-5.272 31.763 7.827 41.313l394.718 287.767c4.061 2.961 9.765.06 9.765-4.965v-37.43c0-23.826-12.375-45.943-32.681-58.407l-374.004-229.577c-1.915-1.175-4.419-.597-5.625 1.299z" fill="#d57e4b"></path><circle cx="256" cy="260.369" fill="#fcee56" r="10.346"></circle></g><path d="m489.81 442.887h-467.62v-25.175c0-5.523 4.477-10 10-10h447.62c5.523 0 10 4.477 10 10z" fill="#bebebe"></path><path d="m22.19 426.334h467.62v16.553h-467.62z" fill="#9b9b9b"></path><path d="m500.501 478.062h-489.002c-5.523 0-10-4.477-10-10v-15.175c0-5.523 4.477-10 10-10h489.002c5.523 0 10 4.477 10 10v15.175c0 5.522-4.477 10-10 10z" fill="#bebebe"></path><path d="m348.061 102.544c-1.621-3.92-6.115-5.785-10.034-4.162-48.474 20.054-71.717 47.439-82.027 64.074-10.31-16.634-33.553-44.02-82.027-64.074-3.921-1.62-8.413.242-10.034 4.162-1.622 3.92.241 8.412 4.161 10.034 65.589 27.134 80.401 68.703 80.608 69.305 1.02 3.077 4.049 5.265 7.29 5.269 3.286.004 6.243-2.164 7.292-5.265.141-.418 14.871-42.114 80.609-69.309 3.921-1.622 5.783-6.114 4.162-10.034z" fill="#a8d0d5"></path><path d="m256 226.876 228.714-140.39-17.084-22.675c-3.209-4.259-9.149-5.343-13.655-2.492l-197.975 125.253-197.975-125.253c-4.506-2.851-10.447-1.767-13.655 2.492l-17.084 22.675z" fill="#b9ea6a"></path><path d="m250.569 204.397c-32.067-19.849-195.842-121.219-212.901-131.69l-10.382 13.779 228.714 140.39 228.714-140.39-10.382-13.779c-17.059 10.471-180.835 111.842-212.902 131.69-3.331 2.063-7.529 2.063-10.861 0z" fill="#a1e42c"></path></g></svg>