<svg width="195" height="288" fill="none" xmlns="http://www.w3.org/2000/svg">
    <g clip-path="url(#prefix__clip0_426_1430)">
        <rect width="195" height="288" rx="16" fill="url(#prefix__paint0_linear_426_1430)" />
        <circle cx="97.5" cy="75.5" r="55.5" fill="#FFDBB1" />
        <path
            d="M104.131 137.166c-32.76 30.525-83.293 32.565-104.464 29.77v3.354c-10.307 19.288-31.423 58.534-33.429 61.218-2.507 3.354 15.461 67.925 21.311 71.28 5.85 3.354 116.582 2.515 161.71 0 45.128-2.516 58.5-31.867 65.603-40.672 5.683-7.044 2.368-76.172 0-109.855-11.143-2.236-36.862-.261-41.785-15.095C164 114.5 144.686 112.867 137.5 113.5c-24.223 2.135-23.341 12.765-33.369 23.666z"
            fill="#D9D9D9" />
        <path
            d="M104.131 137.166c-32.76 30.525-83.293 32.565-104.464 29.77v3.354c-10.307 19.288-31.423 58.534-33.429 61.218-2.507 3.354 15.461 67.925 21.311 71.28 5.85 3.354 116.582 2.515 161.71 0 45.128-2.516 58.5-31.867 65.603-40.672 5.683-7.044 2.368-76.172 0-109.855-11.143-2.236-36.862-.261-41.785-15.095C164 114.5 144.686 112.867 137.5 113.5c-24.223 2.135-23.341 12.765-33.369 23.666z"
            fill="url(#prefix__paint1_linear_426_1430)" />
        <path
            d="M14.5 109.369c-31.291 8.992-44.5 31.333-53 32l-24.5 157c40.333 3.166 121.7 9.5 124.5 9.5 2.8 0 91.5-6.334 135.5-9.5l56.5-112c-11-25.667-40.9-65-72.5-17s-92.993-13.869-97-20.5C70 125.702 64.5 95 14.5 109.369z"
            fill="url(#prefix__paint2_linear_426_1430)" />
        <path
            d="M139.019 80H139M100.019 57H100M112.019 77H112M73.02 97H73M92.02 88H92M46.02 94H46M135.019 92H135M129.019 98H129M95.02 80H95M95.02 69H95M87.02 61H87M122.019 64H122M82.02 81H82M111.019 87H111M73 122c.136.037.237.17.333.267"
            stroke="#FFCCFB" stroke-linecap="round" />
        <path
            d="M145.898 162.726c26.085 14.372 58.937 18.273 72.102 18.426l-39.955 126.223c-59.396 6.45-181.035 18.98-192.424 17.506-11.39-1.475-45.16-44.839-60.621-66.337 8.726-25.797 29.943-74.72 45.006-64.032 18.83 13.359 61.54 15.662 97.36-13.36 35.822-29.022 45.926-36.392 78.532-18.426z"
            fill="url(#prefix__paint3_linear_426_1430)" />
        <path
            d="M9.189 196.83C-1.447 218.86-28.035 222.888-40 222.147v7.551c7.681 23.245 25.88 70.978 37.224 75.953 14.18 6.218 75.777-1.333 112.115-6.218 36.337-4.886 67.357-7.107 81.981-11.993 14.624-4.886 23.93-51.968-14.624-82.171-38.553-30.203-50.518-8.439-67.357 6.218-16.84 14.658-31.463 10.66-50.518-14.657-19.055-25.318-36.338-27.539-49.632 0z"
            fill="#D9D9D9" />
        <path
            d="M9.189 196.83C-1.447 218.86-28.035 222.888-40 222.147v7.551c7.681 23.245 25.88 70.978 37.224 75.953 14.18 6.218 75.777-1.333 112.115-6.218 36.337-4.886 67.357-7.107 81.981-11.993 14.624-4.886 23.93-51.968-14.624-82.171-38.553-30.203-50.518-8.439-67.357 6.218-16.84 14.658-31.463 10.66-50.518-14.657-19.055-25.318-36.338-27.539-49.632 0z"
            fill="url(#prefix__paint4_linear_426_1430)" />
        <path
            d="M50.075 213.83C37.085 235.86 4.613 239.888-10 239.147v7.551c9.381 23.245 31.607 70.978 45.462 75.953 17.319 6.218 92.548-1.333 136.927-6.218 44.38-4.886 82.265-7.107 100.125-11.993s29.225-51.968-17.86-82.171c-47.086-30.203-61.699-8.439-82.265 6.218-20.566 14.658-38.426 10.66-61.698-14.657-23.273-25.318-44.38-27.539-60.616 0z"
            fill="#D9D9D9" />
        <path
            d="M50.075 213.83C37.085 235.86 4.613 239.888-10 239.147v7.551c9.381 23.245 31.607 70.978 45.462 75.953 17.319 6.218 92.548-1.333 136.927-6.218 44.38-4.886 82.265-7.107 100.125-11.993s29.225-51.968-17.86-82.171c-47.086-30.203-61.699-8.439-82.265 6.218-20.566 14.658-38.426 10.66-61.698-14.657-23.273-25.318-44.38-27.539-60.616 0z"
            fill="url(#prefix__paint5_linear_426_1430)" />
        <path
            d="M64.075 261.83C51.085 283.86 18.613 287.888 4 287.147v7.551c9.381 23.245 31.607 70.978 45.462 75.953 17.319 6.218 92.548-1.333 136.927-6.218 44.38-4.886 82.265-7.107 100.125-11.993s29.225-51.968-17.86-82.171c-47.086-30.203-61.699-8.439-82.265 6.218-20.566 14.658-38.426 10.66-61.698-14.657-23.272-25.318-44.38-27.539-60.616 0z"
            fill="#D9D9D9" />
        <path
            d="M64.075 261.83C51.085 283.86 18.613 287.888 4 287.147v7.551c9.381 23.245 31.607 70.978 45.462 75.953 17.319 6.218 92.548-1.333 136.927-6.218 44.38-4.886 82.265-7.107 100.125-11.993s29.225-51.968-17.86-82.171c-47.086-30.203-61.699-8.439-82.265 6.218-20.566 14.658-38.426 10.66-61.698-14.657-23.272-25.318-44.38-27.539-60.616 0z"
            fill="url(#prefix__paint6_linear_426_1430)" />
        <path
            d="M9.5 101l4.763 18H4.737L9.5 101zM129.5 141l4.763 18h-9.526l4.763-18zM82.5 158l4.763 18h-9.526l4.763-18zM151.5 117l3.031 12h-6.062l3.031-12zM185.5 154l3.031 12h-6.062l3.031-12zM103.5 129l3.031 12h-6.062l3.031-12zM99.5 249l3.031 12h-6.062l3.031-12zM56.5 119l3.031 12H53.47l3.031-12zM8.5 131l3.031 12H5.47L8.5 131zM10.5 158l4.763 18H5.737l4.763-18zM130.5 198l4.763 18h-9.526l4.763-18zM83.5 215l4.763 18h-9.526l4.763-18zM152.5 174l3.031 12h-6.062l3.031-12zM186.5 211l3.031 12h-6.062l3.031-12zM104.5 186l3.031 12h-6.062l3.031-12zM46.5 144l4.763 18h-9.526l4.763-18zM69.5 177l3.031 12H66.47l3.031-12zM21.5 189l3.031 12H18.47l3.031-12zM32.5 212l8.227 31.5H24.273L32.5 212zM153.5 215l8.227 31.5h-16.454L153.5 215zM59.5 250l8.227 31.5H51.273L59.5 250zM122.5 260l10.825 41.25h-21.65L122.5 260z"
            fill="#1C0361" />
    </g>
    <defs>
        <linearGradient id="prefix__paint0_linear_426_1430" x1="97.5" y1="0" x2="97.5" y2="288"
            gradientUnits="userSpaceOnUse">
            <stop stop-color="#FF7875" />
            <stop offset=".502" stop-color="#FCB6C6" />
        </linearGradient>
        <linearGradient id="prefix__paint1_linear_426_1430" x1="92" y1="102" x2="91.695" y2="305.129"
            gradientUnits="userSpaceOnUse">
            <stop stop-color="#5D2F87" />
            <stop offset="1" stop-color="#1C0361" />
        </linearGradient>
        <linearGradient id="prefix__paint2_linear_426_1430" x1="95.25" y1="102" x2="95" y2="308"
            gradientUnits="userSpaceOnUse">
            <stop offset=".205" stop-color="#5D2F87" />
            <stop offset="1" stop-color="#1C0361" />
        </linearGradient>
        <linearGradient id="prefix__paint3_linear_426_1430" x1="71.5" y1="153" x2="71.311" y2="325.11"
            gradientUnits="userSpaceOnUse">
            <stop offset=".165" stop-color="#5D2F87" />
            <stop offset="1" stop-color="#1C0361" />
        </linearGradient>
        <linearGradient id="prefix__paint4_linear_426_1430" x1="82" y1="177" x2="81.869" y2="308.084"
            gradientUnits="userSpaceOnUse">
            <stop offset=".165" stop-color="#5D2F87" />
            <stop offset="1" stop-color="#1C0361" />
        </linearGradient>
        <linearGradient id="prefix__paint5_linear_426_1430" x1="139" y1="194" x2="138.892" y2="325.084"
            gradientUnits="userSpaceOnUse">
            <stop offset=".165" stop-color="#5D2F87" />
            <stop offset="1" stop-color="#1C0361" />
        </linearGradient>
        <linearGradient id="prefix__paint6_linear_426_1430" x1="153" y1="242" x2="152.892" y2="373.084"
            gradientUnits="userSpaceOnUse">
            <stop offset=".165" stop-color="#5D2F87" />
            <stop offset="1" stop-color="#1C0361" />
        </linearGradient>
        <clipPath id="prefix__clip0_426_1430">
            <rect width="195" height="288" rx="16" fill="#fff" />
        </clipPath>
    </defs>
</svg>