<svg xmlns="http://www.w3.org/2000/svg" width="694" height="966"><path d="M0 0h694v966H0V0Z" fill="#4B2F87"/><path d="M0 0h694v966H0V0Zm416 356c-1.906 3.938-2.323 7.503-2.715 11.79-.372 2.882-1.33 5.473-2.285 8.21v4l-2.535.672c-4.212 1.614-7.343 3.85-10.902 6.578l-2.103 1.602c-17.913 13.89-30.444 29.85-42.71 48.773-2.248 3.46-4.499 6.918-6.75 10.375l-1.27 1.954c-4.3 6.595-8.744 12.953-13.73 19.046l-1.265 1.586c-7.702 9.63-15.796 17.88-26.614 24.059L301 496v2h-3l-.148-2.152-.227-2.786c-.07-.916-.14-1.833-.21-2.777-.138-.754-.274-1.508-.415-2.285l-2-1-.594 3.105c-.3 1.362-.602 2.722-.906 4.082l-.375 2.042c-.918 3.922-2.056 6.165-5.426 8.459-5.802 3.16-12.12 5.099-18.387 7.125l-3.666 1.232C255.05 516.53 255.05 516.53 251 516a55.383 55.383 0 0 1-4.875-6.938c-.88-1.39-1.76-2.777-2.645-4.164l-1.287-2.044c-4.327-6.726-9.684-12.622-15.068-18.506a169.194 169.194 0 0 1-5.188-6.036C206.988 460.822 184.197 448.745 162 444l-3.105-.684C130.259 438.158 99.599 442.328 74 456l-2.402 1.25C60.738 463.052 51.858 470.57 43 479l-1.93 1.734c-10.309 9.57-17.702 22.562-25.035 34.413-3.232 5.186-6.632 10.093-10.448 14.867L4 532l-1.576 1.702c-1.939 3.128-1.8 5.376-1.802 9.046l-.013 2.063c-.01 2.293 0 4.585.01 6.878a2855.527 2855.527 0 0 0-.011 18.645c.007 4.913-.004 9.826-.012 14.74-.013 9.63-.01 19.26-.002 28.89.007 7.827.008 15.654.005 23.481l-.002 3.372c0 2.261-.002 4.522-.003 6.782-.008 21.216.002 42.43.018 63.646.013 18.206.01 36.412-.003 54.618a53021.84 53021.84 0 0 0-.01 70.157l.001 3.36c.003 7.816-.002 15.632-.009 23.448-.008 9.527-.006 19.055.01 28.582.008 4.862.01 9.724.001 14.585-.009 4.452-.004 8.902.012 13.354.003 1.61.002 3.22-.006 4.829C.558 936.348 2.03 945.38 10 955c5.642 5.473 5.642 5.473 13 7v2h646v-2l2-.188c6.874-1.861 11.483-5.822 15.676-11.457 3.347-5.953 4.771-11.349 4.73-18.142l.022-2.256c.02-2.486.02-4.97.02-7.455.01-1.804.023-3.608.036-5.412.032-4.949.045-9.897.055-14.847.014-5.34.044-10.68.072-16.02.064-12.888.1-25.776.13-38.665.012-4.853.026-9.706.04-14.56a41025.17 41025.17 0 0 0 .16-79.869l.005-3.94c.029-21.085.113-42.17.22-63.254.108-21.647.168-43.293.18-64.94.007-12.155.036-24.309.12-36.463.071-10.346.099-20.69.068-31.036-.014-5.28-.007-10.558.056-15.837.058-4.833.055-9.663.005-14.496-.008-1.749.007-3.497.046-5.245.108-5.255.03-9.902-1.641-14.918-3.955-3.833-7.98-5.729-13-8-8.426-5.493-15.75-12.075-23-19l-1.746-1.574c-4.69-5.333-5.185-14.698-6.254-21.426h-2l-2 9c-5.847-5.315-9.938-11.851-14.25-18.422-9.139-13.908-18.74-27.149-30.34-39.121a449 449 0 0 1-4-4.203c-5.664-5.88-11.703-10.624-18.41-15.254l-2.355-1.77c-9.817-7.284-21.337-12.646-32.645-17.23l-3.691-1.504c-4.35-1.618-8.67-2.43-13.246-3.121l-2.264-.367c-2.264-.36-4.53-.689-6.799-1.008l-3.938-.563C479.2 356.092 450.377 360.322 421 373l-.398-2.042-.532-2.7-.523-2.668c-.688-3.257-1.578-6.406-2.547-9.59h-1Z" fill="#F48A89"/><path d="M390 106c1.292.379 2.586.75 3.883 1.113C436.403 119.084 470.115 146.511 493 184l1.146 1.83c2.076 3.424 2.854 5.064 2.854 9.17h2c3.643 8.466 6.387 17.176 9 26l1.137 3.8c8.563 30.147 7.707 66.612-3.137 96.2a192.155 192.155 0 0 1-3 5c-.88 2.316-1.71 4.652-2.5 7-1.452 4.319-2.843 8.268-5.5 12h-2l-.516 1.828-.734 2.422-.703 2.39c-1.362 3.07-2.266 4.4-5.047 6.36-3.485.847-6.997 1.16-10.563 1.5-2.091.24-4.182.487-6.273.738l-3.16.378c-14.28 1.826-26.977 5.905-40.129 11.713C424 373 424 373 421 373l-.586-1.977-.789-2.648-.773-2.602A337.003 337.003 0 0 0 416 357l-.367 2.633-.508 3.492-.492 3.445c-.609 3.299-1.522 6.271-2.633 9.43-.095.718-.19 1.436-.29 2.176-1.139 2.924-3.362 3.594-6.085 5.012-6.533 3.64-12.016 7.888-17.625 12.812l-1.567 1.348c-9.596 8.283-17.595 17.365-24.617 27.941C360 428 360 428 358 430c-2.436.259-2.436.259-5.504.266l-3.408.013-3.65-.029-3.723-.023c-20.47-.24-39.003-3.714-57.715-12.227l-2.414-1.027c-7.976-3.413-15.294-7.643-22.445-12.543a75.649 75.649 0 0 0-4.508-2.782c-3.245-2.031-6.115-4.405-9.008-6.898l-1.818-1.563c-4.795-4.183-9.368-8.566-13.87-13.062l-1.874-1.872c-5.393-5.46-10.104-11.1-14.375-17.503l-2.114-3.14C210 355 210 355 210 353h-2a1292.93 1292.93 0 0 1-3.5-6.813l-1.012-1.947c-1.49-2.935-2.488-4.901-2.488-8.24h-2c-10.308-28.999-10.308-28.999-12-38l-.512-2.676c-1.61-9.296-1.841-18.36-1.8-27.762l.001-2.38c.027-14.208.743-28.362 4.311-42.182h2l.316-3.445c.6-4.73 1.96-8.976 3.621-13.43l.927-2.485c7.112-18.365 18.07-34.698 31.593-48.921a113.532 113.532 0 0 0 5.05-5.793c3.958-4.646 8.701-8.178 13.493-11.926l2.855-2.262C286.703 105.471 343.457 89.84 390 106Z" fill="#FEE9A2"/><path d="M384 854c17.29.62 32.106 2.993 48 10l3.625 1.52a88.212 88.212 0 0 1 8.313 4.168l2.34 1.324L448 872v2l2.188.75c3.088 1.373 5.322 2.974 7.812 5.25v2l1.688.688c3.63 2.06 6.538 4.718 8.375 8.5.784 1.966.784 1.966 2.761 2.671 4.224 2.215 6.838 6.071 9.176 10.141 1.676 6.67-1.005 13.648-3 20l3.508-.316c1.539-.085 3.078-.167 4.617-.246l2.305-.229c2.457-.095 4.239-.013 6.57.791 1.877 2.017 3.133 4.1 4.503 6.49 2.46 4.124 5.76 7.423 9.06 10.885l1.958 2.113c3.268 3.464 6.22 6.274 10.479 8.512 1.019.981 2.024 1.977 3 3l2 1v2l2.25.875A81.918 81.918 0 0 1 534 962v2H236c3.563-2.85 7.13-5.567 10.813-8.25 15.068-11.293 24.86-26.618 34.44-42.613 5.595-9.302 12.372-17.192 19.747-25.137l1.672-1.871C314.346 873.617 331.696 864.615 348 860c.196 4.892-.351 8.42-2 13l-2 9h45c-1.638-6.972-1.638-6.972-3.291-13.94-1.1-4.761-2.045-9.135-1.709-14.06Z" fill="#54328F"/><path d="M222 779c2.396 3.594 2.797 6.89 3.438 11.063.93 5.684 2.08 11.065 3.878 16.546.801 2.8 1.246 5.575 1.684 8.453.685 4.504 1.794 8.509 3.344 12.778.906 2.984 1.158 5.916 1.347 9.02.23 2.215.23 2.215 1.254 4.428 1.073 2.758 1.686 5.343 2.239 8.247.205 1.058.41 2.116.623 3.205l.63 3.322c1.408 7.365 2.956 14.641 4.816 21.905 1.308 5.31 2.369 10.67 3.435 16.033l.681 3.348.643 3.215.577 2.878C251 906 251 906 251 910h-57c.599-5.986 1.13-11.272 2.383-17.035l.839-3.906c.3-1.374.602-2.748.903-4.121l.932-4.312c.484-2.24.968-4.479 1.454-6.718 1.174-5.417 2.314-10.84 3.438-16.267l1.41-6.767c.3-1.45.6-2.901.898-4.352.416-2.025.838-4.05 1.263-6.073l.721-3.49C209 834 209 834 210.02 831.983c1.318-2.662 1.68-5.218 2.165-8.146.205-1.205.41-2.41.623-3.652l1.25-7.547c1.075-6.304 2.308-12.373 4.258-18.466.966-3.06 1.673-6.165 2.373-9.296.25-1.116.502-2.233.761-3.383L222 779Z" fill="#25245D"/><path d="M505 794c5.755 10.724 7.173 23.666 9.25 35.492.991 5.615 2.08 11.048 3.75 16.508a543.939 543.939 0 0 1 1.938 7.938l.525 2.22c1.46 6.287 2.642 12.602 3.728 18.963.626 3 1.361 5.778 2.27 8.692 1.603 5.192 2.647 10.405 3.601 15.75.323 1.772.648 3.544.973 5.316l.473 2.586c.621 3.202 1.355 6.373 2.123 9.543C534 919 534 919 534 923h-57l2-10c.375-1.951.747-3.903 1.113-5.855 2.075-10.97 4.21-21.921 6.575-32.832l.612-2.84c.823-3.748 1.69-7.439 2.75-11.13 1.047-3.685 1.778-7.388 2.45-11.155l.781-4.243c.42-2.296.836-4.593 1.25-6.89.715-3.801 1.54-7.4 2.867-11.035 1.985-5.848 3.08-11.837 4.227-17.895.428-2.227.858-4.453 1.29-6.68l.56-2.952C504 797 504 797 505 794Z" fill="#25245C"/><path d="M0 0h694v966h-1l-1-939-2-1a915.064 915.064 0 0 1-2.07-5.863c-1.415-3.253-3.596-5.487-5.93-8.137v-2a204.774 204.774 0 0 0-8.5-4.063l-2.281-1.035C669.155 4.063 667.172 3.48 665 3V1c-60.588.027-121.177.059-181.765.117l-2.717.002a632408.028 632408.028 0 0 0-87.124.089l-2.882.002c-30.826.032-61.651.05-92.477.062a102057.832 102057.832 0 0 0-111.114.1c-14.176.017-28.352.021-42.529.02-14.249-.001-28.498.012-42.747.04-8.468.016-16.935.022-25.402.011-5.657-.006-11.314.002-16.97.022-3.224.012-6.446.014-9.669.004-3.475-.011-6.95.003-10.425.023l-3.018-.027C26.175 1.576 17.226 4.976 10 12c-5.388 6.669-8.25 12.898-8.252 21.577l-.016 3.992.014 4.374a3827.267 3827.267 0 0 0-.009 17.57c.004 4.67-.003 9.341-.01 14.011-.008 8.191-.01 16.382-.006 24.573.006 12.18 0 24.36-.009 36.54-.015 23.016-.017 46.032-.014 69.048a154471.567 154471.567 0 0 1-.01 72.493c-.008 35.747-.012 71.493-.008 107.24v2.041a2236769.743 2236769.743 0 0 0 .004 24.602v8.232c.006 43.404-.001 86.808-.02 130.212l-.014 32.81v2.04a223826.395 223826.395 0 0 0-.013 124.382v3.814c.002 19.024-.005 38.049-.015 57.073a57383.24 57383.24 0 0 0-.002 64.886c.007 12.111.005 24.223-.008 36.334-.008 8.084-.006 16.167.006 24.25.006 4.61.008 9.22-.004 13.83-.01 4.193-.007 8.385.007 12.577.003 1.509 0 3.018-.007 4.526C1.556 936.865 3.282 945.641 11 955c3.673 3.383 7.035 6.03 12 7v2l35 1v1H0V0Z" fill="#F7E0E2"/><path d="m691 26 2 1v939c-156.203.03-156.203.03-315.563.063l-99.603.027c-40.168.005-40.168.005-58.978.005-13.987.001-27.974.006-41.96.012-14.292.006-28.583.008-42.874.006-7.744 0-15.487 0-23.231.006-59.741.042-59.741.042-83.791-1.119v-1h642v-2l2.414-1.031c8.718-3.988 13.038-7.64 17.138-16.215 2.274-6.193 1.848-12.634 1.802-19.141a2275.026 2275.026 0 0 0-.02-16.59c-.016-4.416-.013-8.83-.013-13.246-.002-7.749-.014-15.498-.034-23.247-.03-11.556-.041-23.11-.048-34.666-.013-19.51-.038-39.019-.07-58.528a91490.383 91490.383 0 0 1-.095-91.33c-.01-15.182-.02-30.364-.028-45.546-.005-9.083-.011-18.167-.018-27.25-.05-73.627-.012-147.252.183-248.25l.004-2.09c.079-38.747.166-77.495.257-116.242l.092-40.158c.138-60.823.283-121.647.436-182.47Z" fill="#BC8499"/><path d="M505 575c2.615 2.615 2.762 4.596 3.55 8.203.285 1.28.568 2.56.86 3.877.302 1.39.602 2.78.902 4.17l.94 4.261c.472 2.143.944 4.285 1.413 6.428a889.01 889.01 0 0 0 2.765 12.237c2.38 10.184 4.495 20.367 6.227 30.684.74 4.31 1.6 8.106 3.343 12.14.255 2.006.508 4.012.715 6.023.253 2.197.253 2.197 1.347 5.04C528 671 528 671 528 678h-45c3.669-25.682 3.669-25.682 6.5-33.375 2.253-6.243 3.027-12.894 4.12-19.417.598-3.476 1.26-6.936 1.942-10.395l.692-3.543C497 608 497 608 497.952 605.2c1.052-3.213 1.832-6.391 2.556-9.693l.8-3.633.817-3.75.84-3.82c.681-3.101 1.36-6.203 2.035-9.305Z" fill="#26245D"/><path d="M608 700h2l.816 3.695c.846 3.811 1.713 7.617 2.586 11.422 2.537 11.13 5.06 22.209 6.572 33.53.55 3.955 1.358 7.705 2.448 11.548 2.106 7.454 3.391 15.046 4.771 22.66l.623 3.356.546 3.01c.55 2.783.55 2.783 1.712 5.266C631 797 631 797 631 803h-45c6.874-32.483 6.874-32.483 9.625-45 1.948-8.872 3.734-17.77 5.49-26.681 2.084-10.488 4.45-20.908 6.885-31.319ZM365 782h2c3.249 7.522 4.552 15.359 6 23.375 1.425 7.846 2.86 15.579 5.29 23.188 1.402 4.812 2.193 9.76 3.085 14.687 1.806 9.72 3.818 19.364 6.101 28.983l.606 2.576.538 2.243C389 879 389 879 389 882h-45c1.115-10.035 1.115-10.035 2.375-14.188 3.087-10.803 5.017-21.835 6.941-32.89 2.238-12.84 2.238-12.84 4.082-17.906 1.97-5.81 3.08-11.75 4.227-17.766l.656-3.363c.4-2.055.8-4.111 1.194-6.167A993.27 993.27 0 0 1 365 782ZM239 649c2.36 3.54 2.95 6.842 3.75 10.938.35 1.729.702 3.458 1.055 5.187l.577 2.855c1.125 5.495 2.313 10.975 3.493 16.457l1.55 7.235c1.036 4.824 2.075 9.646 3.118 14.469 3.294 15.26 6.43 30.543 9.457 45.859h-45c0-5.333.128-6.57 2-11 .578-2.54 1.105-5.06 1.586-7.617l.433-2.225c.607-3.114 1.203-6.23 1.798-9.347 1.77-9.217 3.769-18.25 6.264-27.3 1.422-5.433 2.425-10.924 3.419-16.448 1.819-9.798 3.899-19.443 6.5-29.063ZM130 728c2 1 2 1 2.607 2.768l.506 2.334.586 2.64.613 2.883.655 2.975c.686 3.132 1.36 6.266 2.033 9.4.643 2.969 1.287 5.937 1.932 8.906.423 1.95.845 3.903 1.265 5.854a572.583 572.583 0 0 0 3.74 16.178c2.068 8.497 3.643 17.094 5.25 25.687l.402 2.144c1.259 6.732 2.442 13.448 3.411 20.231h-44c1.127-9.016 1.127-9.016 1.902-12.91l.51-2.56.525-2.592.514-2.604.514-2.557.457-2.273c.456-1.977.993-3.936 1.557-5.885.966-3.424 1.715-6.81 2.388-10.303l.739-3.785.38-1.965c1.933-9.963 3.987-19.846 6.569-29.664 2.07-8.199 3.436-16.585 4.945-24.902Z" fill="#25245C"/><path d="M179 516h2c2.106 7.564 3.595 15.146 4.938 22.875 1.06 6.066 2.177 11.982 4 17.875 2.444 7.922 3.832 16.042 5.312 24.19l.602 3.279.525 2.935c.577 2.914.577 2.914 1.695 5.895C199 596 199 596 199 601h-38c1.125-7.878 1.125-7.878 1.769-10.95l.436-2.1.467-2.208.493-2.355a4373.54 4373.54 0 0 1 1.585-7.512l.545-2.586c2.233-10.588 4.539-21.148 7.113-31.658 1.515-6.202 2.812-12.428 4.014-18.697.46-2.337.97-4.632 1.578-6.934Z" fill="#26245D"/><path d="M367 524h2c.21 1.05.422 2.101.64 3.183 5.292 26.343 5.292 26.343 11.338 52.52a594.839 594.839 0 0 1 4.397 19.172l.509 2.382c.618 2.971 1.116 5.7 1.116 8.743h-38c3.483-18.575 3.483-18.575 5.5-27.75l.605-2.8a380.868 380.868 0 0 1 3.32-14.013c2.065-8.164 3.637-16.427 5.262-24.687l.971-4.895c.784-3.95 1.564-7.903 2.342-11.855ZM638 583h2c.96 4.458 1.917 8.917 2.875 13.375l.816 3.793c1.173 5.464 2.339 10.927 3.418 16.41.653 3.3 1.395 6.548 2.266 9.797 1.375 5.43 2.565 10.887 3.688 16.375l.491 2.341c1.601 7.966 2.428 15.768 3.446 23.909h-37c3.88-19.507 7.893-38.972 12.134-58.403 2.002-9.19 3.943-18.39 5.866-27.597ZM65 584h2c2.453 10.556 4.873 21.11 6.938 31.75 1.974 10.14 4.323 20.186 6.667 30.246C85 664.856 85 664.856 85 669H47c2.213-13.276 2.213-13.276 3.875-19.438 1.932-7.368 3.381-14.797 4.73-22.292l.465-2.555.4-2.246c.42-1.96.94-3.898 1.494-5.824 1.007-3.543 1.806-7.065 2.544-10.672l.8-3.897.817-4.014.84-4.095c.68-3.322 1.359-6.644 2.035-9.967Z" fill="#25245C"/><path d="M62 853c2.371 2.371 2.568 3.661 3.297 6.898l.708 3.101.745 3.376.784 3.483c.832 3.712 1.65 7.427 2.466 11.142l.832 3.761a3495.9 3495.9 0 0 1 2.418 11.052l.745 3.405.708 3.302.614 2.846C76.354 910.886 77.146 916.45 78 922H47a5195.163 5195.163 0 0 1 8.52-41.962c.452-2.184.903-4.368 1.352-6.553.657-3.198 1.32-6.394 1.983-9.59l.61-2.976.567-2.717.495-2.394C61 854 61 854 62 853Z" fill="#26245D"/><path d="M416 356c2.466 2.466 2.536 3.847 3.148 7.25l.602 3.256.625 3.494c.442 2.386.886 4.771 1.332 7.156l.663 3.551c.82 4.283 1.73 8.54 2.692 12.793l.48 2.124c.666 2.935 1.34 5.868 2.018 8.8.568 2.462 1.129 4.925 1.69 7.389l.531 2.265c.868 3.816 1.219 6.96 1.219 10.922h-29c1.12-12.314 1.12-12.314 2.875-18.813.361-1.377.72-2.754 1.078-4.132l.537-2.056c2.234-8.762 3.85-17.597 5.08-26.55C412 371 412 371 413 370c.372-2.16.698-4.329 1-6.5.889-6.389.889-6.389 2-7.5Z" fill="#27255D"/><path d="M645 453h2l.367 2.055c.875 4.86 1.763 9.72 2.696 14.57l.472 2.477c.29 1.897.29 1.897 1.465 2.898.342 1.411.634 2.835.902 4.262l.51 2.642 1.04 5.508c.902 4.68 1.996 9.075 3.548 13.588.58 2.512 1.12 5.034 1.625 7.563.26 1.28.52 2.56.79 3.878C661 516 661 516 661 521h-30c2.567-13.664 5.204-27.295 8.188-40.875l.756-3.49.724-3.252.634-2.863c.661-2.387 1.573-4.326 2.698-6.52.453-2.815.453-2.815.625-5.75l.227-2.984L645 453Z" fill="#26245D"/><path d="m295 487 2 1c.563 2.054.563 2.054 1 4.734l.5 2.93.5 3.086c.328 1.996.662 3.99 1 5.984l.438 2.695c.484 2.573.484 2.573 1.517 4.886 1.382 3.55 2.06 7.18 2.772 10.908l.462 2.37c.32 1.649.637 3.297.953 4.945.482 2.52.974 5.04 1.467 7.558l.93 4.814.445 2.276c.638 3.36 1.016 6.377 1.016 9.814h-29c0-5.567.139-8.197 1.742-13.16 2.793-9.294 4.55-18.756 6.383-28.278.52-2.687 1.043-5.374 1.57-8.06.323-1.656.644-3.313.961-4.97A137.7 137.7 0 0 1 295 487Z" fill="#27245D"/><path d="M634 848c2.109 3.626 2.896 7.442 3.75 11.5l.5 2.31c.374 1.735.745 3.47 1.114 5.206.714 3.35 1.436 6.698 2.16 10.047 4.546 21.1 4.546 21.1 6.042 29.126.27 1.82.27 1.82 1.434 2.811v7h-29c1.348-8.765 2.764-17.43 4.438-26.125l.619-3.3a214.959 214.959 0 0 1 4.263-18.039c.983-3.665 1.664-7.36 2.305-11.098 1.25-7.188 1.25-7.188 2.375-9.438ZM84 464c5.767 8.65 6.633 21.994 8.493 32.122a293.658 293.658 0 0 0 4.2 19.11C97.94 520.24 98.416 524.742 99 530H70c.659-5.27 1.382-10.242 2.453-15.41l.426-2.067c.454-2.196.912-4.39 1.371-6.586l.946-4.552c.928-4.463 1.865-8.924 2.804-13.385l.802-3.816c.685-3.25 1.377-6.499 2.073-9.747l.614-2.896.566-2.607.484-2.249C83 465 83 465 84 464ZM555 420l2 1c.623 2.155.623 2.155 1.148 5.004l.602 3.16.625 3.399c1.395 7.302 2.815 14.554 4.688 21.75 1.584 6.112 2.938 12.247 4.187 18.437l.531 2.603.485 2.444.43 2.167C570 482 570 482 570 486h-29c1.124-11.238 1.124-11.238 2.523-16.977l.902-3.758.47-1.928c2.155-8.821 4.296-17.638 5.855-26.587 1.009-5.74 2.379-11.23 4.25-16.75ZM455 398h1l.664 3.207a2259.569 2259.569 0 0 0 6.399 29.668l.742 3.343.73 3.274.723 3.245a556.213 556.213 0 0 0 1.558 6.659l.805 3.362.728 2.98c.807 4.045 1.196 8.163 1.651 12.262h-29c.97-7.753 2.32-15.338 3.813-23l.406-2.099c1.732-8.92 3.584-17.777 5.902-26.565 1.426-5.414 2.645-10.876 3.879-16.336Z" fill="#25245C"/><path d="M1 212h1v319l3 1-4 4V212Z" fill="#F2A4A4"/><path d="M0 935c2 3 2 3 3.25 6.625 3.067 8.3 7.977 14.97 15.75 19.375 2.147.665 2.147.665 4 1v2l35 1v1H0v-31Z" fill="#EBBFC5"/><path d="M691 934h2v32h-28v-2h4v-2l2.414-1.031c8.844-4.046 13.74-8.052 17.399-17.094 1.09-3.247 1.762-6.471 2.187-9.875Z" fill="#CC94A1"/><path d="M668 0h25v27l-3-1c-.726-1.946-1.445-3.895-2.105-5.863-1.371-3.275-3.56-5.486-5.895-8.137v-2a162.257 162.257 0 0 0-8.5-4 162.257 162.257 0 0 1-8.5-4h3V0Z" fill="#EDC1C7"/><path d="M1 388h1v143l3 1-4 4V388Z" fill="#F3ADAF"/><path d="M331 430h27l-3 4v-2l-3.727.035c-1.632.01-3.265.019-4.898.027l-2.45.026c-4.428.018-8.564-.192-12.925-1.088v-1Z" fill="#F6A9A1"/><path d="M416 356c2.398 2.398 2.343 3.333 2.625 6.625l.227 2.477L419 367l-3-3-2 1c.875-7.875.875-7.875 2-9Z" fill="#6A5D73"/></svg>