<?xml version="1.0" encoding="UTF-8"?>
<svg version="1.1" xmlns="http://www.w3.org/2000/svg" width="694" height="966">
<path d="M0 0 C229.02 0 458.04 0 694 0 C694 318.78 694 637.56 694 966 C464.98 966 235.96 966 0 966 C0 647.22 0 328.44 0 0 Z " fill="#4B2F87" transform="translate(0,0)"/>
<path d="M0 0 C229.02 0 458.04 0 694 0 C694 318.78 694 637.56 694 966 C464.98 966 235.96 966 0 966 C0 647.22 0 328.44 0 0 Z M416 356 C414.09447317 359.93808877 413.6767117 363.50331013 413.28515625 367.7890625 C412.91330032 370.67221943 411.95485954 373.26273598 411 376 C411 377.32 411 378.64 411 380 C410.16339844 380.22171875 409.32679688 380.4434375 408.46484375 380.671875 C404.25261498 382.28648355 401.12213744 384.52166038 397.5625 387.25 C396.86874268 387.77867676 396.17498535 388.30735352 395.46020508 388.85205078 C377.54714985 402.74182041 365.0160483 418.70252869 352.75 437.625 C350.50182726 441.08452413 348.25138526 444.54256584 346 448 C345.58073242 448.64469238 345.16146484 449.28938477 344.72949219 449.95361328 C340.4309159 456.54866339 335.98611299 462.90693142 331 469 C330.58266602 469.52352051 330.16533203 470.04704102 329.73535156 470.58642578 C322.03286388 480.21589433 313.93882359 488.46506821 303.12109375 494.64453125 C302.42113281 495.09183594 301.72117187 495.53914062 301 496 C301 496.66 301 497.32 301 498 C300.01 498 299.02 498 298 498 C297.95101563 497.28972656 297.90203125 496.57945312 297.8515625 495.84765625 C297.73941406 494.46900391 297.73941406 494.46900391 297.625 493.0625 C297.55539062 492.14597656 297.48578125 491.22945312 297.4140625 490.28515625 C297.27742188 489.53105469 297.14078125 488.77695312 297 488 C296.34 487.67 295.68 487.34 295 487 C294.70609375 488.53720703 294.70609375 488.53720703 294.40625 490.10546875 C294.105879 491.46652486 293.80369878 492.82718257 293.5 494.1875 C293.37625 494.86103516 293.2525 495.53457031 293.125 496.22851562 C292.20650222 500.15126655 291.06929187 502.39384764 287.69921875 504.6875 C281.89651734 507.84859444 275.57805871 509.78689441 269.3125 511.8125 C268.10271484 512.21919922 266.89292969 512.62589844 265.64648438 513.04492188 C255.04919908 516.53048558 255.04919908 516.53048558 251 516 C249.11245993 513.69671557 247.64184292 511.59196964 246.125 509.0625 C245.24593157 507.67293131 244.36442384 506.28490273 243.48046875 504.8984375 C243.05556152 504.22393555 242.6306543 503.54943359 242.19287109 502.85449219 C237.86611474 496.12791805 232.50931603 490.23220434 227.125 484.34765625 C225.33854024 482.37401229 223.62883648 480.3669223 221.9375 478.3125 C206.98798625 460.82118545 184.19659033 448.74449138 162 444 C160.46279297 443.66162109 160.46279297 443.66162109 158.89453125 443.31640625 C130.25894272 438.1584431 99.59882793 442.3283033 74 456 C73.20722656 456.4125 72.41445312 456.825 71.59765625 457.25 C60.7383422 463.05181278 51.85892969 470.57013528 43 479 C42.36320312 479.57234375 41.72640625 480.1446875 41.0703125 480.734375 C30.76137416 490.30343738 23.36817663 503.29554672 16.03491211 515.14672852 C12.80343204 520.33319987 9.40343151 525.239628 5.58691406 530.01416016 C4.8013916 530.99715088 4.8013916 530.99715088 4 532 C3.48005632 532.56177987 2.96011264 533.12355975 2.42441308 533.70236325 C0.48523525 536.83033666 0.62394736 539.07806829 0.62247658 542.7480278 C0.61811626 543.42897263 0.61375593 544.10991745 0.60926348 544.81149697 C0.59827382 547.10408492 0.60874614 549.39607563 0.61904907 551.68865967 C0.61559394 553.34458324 0.61083035 555.00050451 0.60486734 556.65642095 C0.59230725 561.21543357 0.59855047 565.77425855 0.60782599 570.33327198 C0.61459591 575.24684249 0.60414535 580.16038006 0.59588623 585.07394409 C0.58252348 594.7041637 0.58543828 604.33431329 0.59412415 613.96453568 C0.60089188 621.79141883 0.60182136 629.61828231 0.5985527 637.44516754 C0.598093 638.55801102 0.59763331 639.67085449 0.59715968 640.8174205 C0.59620052 643.07800252 0.59522788 645.33858453 0.5942419 647.59916654 C0.58568016 668.81450387 0.59553361 690.02980235 0.611643 711.24513331 C0.62503951 729.4512021 0.6227251 747.6572135 0.60888672 765.86328125 C0.59283204 786.99510559 0.58651198 808.12689582 0.59572351 829.2587254 C0.59667917 831.51234006 0.59762228 833.76595473 0.5985527 836.0195694 C0.59901553 837.12843608 0.59947836 838.23730276 0.59995521 839.37977146 C0.60254598 847.19574249 0.59817206 855.01169192 0.59111404 862.82765961 C0.58269978 872.35523323 0.58497737 881.88273271 0.60095628 891.41029784 C0.60884108 896.27199794 0.61192708 901.13357441 0.60200882 905.99527359 C0.59306537 910.44650308 0.59798911 914.89749443 0.61394148 919.34870234 C0.61729084 920.95840252 0.6155917 922.56812283 0.60831411 924.17781004 C0.55751612 936.34781114 2.02977685 945.38076516 10 955 C15.64157754 960.47301896 15.64157754 960.47301896 23 962 C23 962.66 23 963.32 23 964 C236.18 964 449.36 964 669 964 C669 963.34 669 962.68 669 962 C669.99 961.9071875 669.99 961.9071875 671 961.8125 C677.87449332 959.95065806 682.48322388 955.98959313 686.67578125 950.35546875 C690.0225303 944.40240185 691.44719891 939.00612622 691.40545654 932.21317291 C691.41281283 931.46851963 691.42016912 930.72386635 691.42774832 929.95664781 C691.44865454 927.47149881 691.44846514 924.98681708 691.44824219 922.50158691 C691.4588646 920.69783858 691.470756 918.89409735 691.4838047 917.09036493 C691.51571081 912.14139177 691.52887313 907.19252055 691.53876448 902.24346089 C691.55255845 896.903198 691.58331885 891.5630269 691.61148071 886.2228241 C691.67543165 873.33469314 691.71026997 860.4465464 691.74099636 847.55829978 C691.75296125 842.70511061 691.76670329 837.85192719 691.78049099 832.99874291 C691.84110281 811.60727716 691.89280274 790.21580851 691.91995239 768.82427216 C691.92670173 763.59264618 691.93350411 758.36102028 691.94042969 753.12939453 C691.94214322 751.82911837 691.94385675 750.52884221 691.94562221 749.18916374 C691.97490518 728.10421766 692.05885555 707.01985788 692.16539288 685.935175 C692.273878 664.28835665 692.33353645 642.64183758 692.34516144 620.99474669 C692.35291125 608.84009488 692.38223672 596.68632262 692.46618652 584.53193665 C692.53749891 574.18624038 692.56475102 563.84162444 692.5340575 553.49570668 C692.51975307 548.21596337 692.52661498 542.93846318 692.59004593 537.65903282 C692.64762486 532.82558585 692.64523143 527.99601669 692.59504747 523.16252154 C692.58746715 521.41426299 692.60189559 519.66574202 692.64051771 517.91789371 C692.74947454 512.66330851 692.67158381 508.01640257 691 503 C687.04457893 499.16664115 683.02037481 497.27130628 678 495 C669.57376127 489.50675865 662.24925787 482.9248312 655 476 C654.42378906 475.48050781 653.84757813 474.96101563 653.25390625 474.42578125 C648.56389788 469.09290569 648.06896958 459.72822032 647 453 C646.34 453 645.68 453 645 453 C644.34 455.97 643.68 458.94 643 462 C637.15314928 456.68468117 633.06235022 450.14897728 628.75 443.578125 C619.61120772 429.66972868 610.01005135 416.4290068 598.40966797 404.45654297 C597.06476759 403.06692127 595.7369891 401.66078935 594.41015625 400.25390625 C588.74568994 394.37467344 582.70718441 389.62999561 576 385 C575.22269531 384.41605469 574.44539062 383.83210938 573.64453125 383.23046875 C563.82826584 375.9463723 552.30816999 370.58384748 541 366 C539.17275391 365.25556641 539.17275391 365.25556641 537.30859375 364.49609375 C532.95921987 362.87803809 528.63899843 362.06638517 524.0625 361.375 C523.31548828 361.25382812 522.56847656 361.13265625 521.79882812 361.0078125 C519.53536337 360.64847038 517.26941715 360.31941233 515 360 C513.700625 359.814375 512.40125 359.62875 511.0625 359.4375 C479.19863893 356.09212223 450.37635213 360.32191575 421 373 C420.86867676 372.32598145 420.73735352 371.65196289 420.60205078 370.95751953 C420.33884033 369.62116455 420.33884033 369.62116455 420.0703125 368.2578125 C419.89773926 367.37754395 419.72516602 366.49727539 419.54736328 365.59033203 C418.85897467 362.33261431 417.96915559 359.18436837 417 356 C416.67 356 416.34 356 416 356 Z " fill="#F48A89" transform="translate(0,0)"/>
<path d="M0 0 C1.29196485 0.37904404 2.5864489 0.74956574 3.8828125 1.11328125 C46.40354755 13.08441138 80.1148257 40.51105689 103 78 C103.37801758 78.60360352 103.75603516 79.20720703 104.14550781 79.82910156 C106.22158193 83.2539859 107 84.89377002 107 89 C107.66 89 108.32 89 109 89 C112.64285136 97.46606796 115.38660306 106.17584315 118 115 C118.56267578 116.88138672 118.56267578 116.88138672 119.13671875 118.80078125 C127.69983986 148.94678752 126.84398878 185.4123214 116 215 C115.0247593 216.68127433 114.02580701 218.34909184 113 220 C112.12063444 222.31637758 111.28958171 224.65150056 110.5 227 C109.04807385 231.31854957 107.65747053 235.26823287 105 239 C104.34 239 103.68 239 103 239 C102.82984375 239.60328125 102.6596875 240.2065625 102.484375 240.828125 C102.24203125 241.62734375 101.9996875 242.4265625 101.75 243.25 C101.51796875 244.03890625 101.2859375 244.8278125 101.046875 245.640625 C99.68466845 248.7106726 98.7813527 250.040701 96 252 C92.51488585 252.84720142 89.00295063 253.15956259 85.4375 253.5 C83.3457461 253.74087062 81.25459641 253.98704234 79.1640625 254.23828125 C78.1215332 254.36283691 77.07900391 254.48739258 76.00488281 254.61572266 C61.72412853 256.44200696 49.02683957 260.52077535 35.875 266.32910156 C34 267 34 267 31 267 C30.80664062 266.34773438 30.61328125 265.69546875 30.4140625 265.0234375 C30.15367187 264.14945312 29.89328125 263.27546875 29.625 262.375 C29.36976563 261.51648438 29.11453125 260.65796875 28.8515625 259.7734375 C27.94843312 256.83205281 26.98322773 253.91548396 26 251 C25.87882813 251.86882812 25.75765625 252.73765625 25.6328125 253.6328125 C25.38144531 255.36144531 25.38144531 255.36144531 25.125 257.125 C24.88136719 258.83042969 24.88136719 258.83042969 24.6328125 260.5703125 C24.02417935 263.86895391 23.11129033 266.84113535 22 270 C21.90460938 270.71800781 21.80921875 271.43601562 21.7109375 272.17578125 C20.57127862 275.1000708 18.34777107 275.77011917 15.625 277.1875 C9.09218145 280.82798448 3.60922631 285.07557636 -2 290 C-2.5170752 290.44472656 -3.03415039 290.88945312 -3.56689453 291.34765625 C-13.16306473 299.63145571 -21.16197794 308.71267518 -28.18359375 319.2890625 C-30 322 -30 322 -32 324 C-34.43579102 324.25878906 -34.43579102 324.25878906 -37.50390625 324.265625 C-38.62869385 324.26989502 -39.75348145 324.27416504 -40.91235352 324.27856445 C-42.11690186 324.26913818 -43.3214502 324.25971191 -44.5625 324.25 C-45.790896 324.24250732 -47.01929199 324.23501465 -48.28491211 324.22729492 C-68.75492245 323.98650292 -87.28751124 320.51333948 -106 312 C-106.79664063 311.66097656 -107.59328125 311.32195312 -108.4140625 310.97265625 C-116.38999818 307.5602714 -123.70788984 303.32977918 -130.859375 298.4296875 C-132.32760853 297.44907897 -133.83391608 296.5238697 -135.3671875 295.6484375 C-138.61198467 293.61682859 -141.48229858 291.2428437 -144.375 288.75 C-144.97497803 288.23421387 -145.57495605 287.71842773 -146.19311523 287.18701172 C-150.98809353 283.00372317 -155.56085611 278.62106011 -160.0625 274.125 C-160.9903833 273.1983252 -160.9903833 273.1983252 -161.93701172 272.25292969 C-167.33042459 266.79314996 -172.04149542 261.15248522 -176.3125 254.75 C-177.00988281 253.71359375 -177.70726562 252.6771875 -178.42578125 251.609375 C-180 249 -180 249 -180 247 C-180.66 247 -181.32 247 -182 247 C-183.17407021 244.73272667 -184.33939739 242.46165376 -185.5 240.1875 C-185.83386719 239.54490234 -186.16773438 238.90230469 -186.51171875 238.24023438 C-188.00239084 235.30452301 -189 233.33873483 -189 230 C-189.66 230 -190.32 230 -191 230 C-201.30758566 201.00132568 -201.30758566 201.00132568 -203 192 C-203.16894775 191.11683105 -203.33789551 190.23366211 -203.51196289 189.32373047 C-205.12280647 180.02849402 -205.35311554 170.96357688 -205.3125 161.5625 C-205.31200653 160.77673584 -205.31151306 159.99097168 -205.31100464 159.18139648 C-205.28374877 144.97368637 -204.56847562 130.81990774 -201 117 C-200.34 117 -199.68 117 -199 117 C-198.89558594 115.86304688 -198.79117188 114.72609375 -198.68359375 113.5546875 C-198.08440567 108.82556705 -196.72471714 104.57888354 -195.0625 100.125 C-194.75675049 99.30491455 -194.45100098 98.4848291 -194.13598633 97.63989258 C-187.02386412 79.27496887 -176.06663184 62.94156849 -162.54296875 48.71875 C-160.79294363 46.8477554 -159.11157794 44.91092187 -157.4921875 42.92578125 C-153.53528363 38.28045053 -148.79196228 34.74779929 -144 31 C-143.05769531 30.25363281 -142.11539063 29.50726563 -141.14453125 28.73828125 C-103.2968137 -0.52857726 -46.54260344 -16.15978559 0 0 Z " fill="#FEE9A2" transform="translate(390,106)"/>
<path d="M0 0 C17.28990458 0.62055351 32.10612112 2.99282493 48 10 C49.19625 10.50144531 50.3925 11.00289062 51.625 11.51953125 C54.50430905 12.78256149 57.20833703 14.13397646 59.9375 15.6875 C61.09572266 16.34298828 61.09572266 16.34298828 62.27734375 17.01171875 C63.13005859 17.50091797 63.13005859 17.50091797 64 18 C64 18.66 64 19.32 64 20 C64.721875 20.2475 65.44375 20.495 66.1875 20.75 C69.27606582 22.12269592 71.51011418 23.72353296 74 26 C74 26.66 74 27.32 74 28 C74.556875 28.226875 75.11375 28.45375 75.6875 28.6875 C79.31799803 30.74805294 82.22600435 33.40647953 84.0625 37.1875 C84.84673529 39.15357543 84.84673529 39.15357543 86.82421875 39.859375 C91.04844702 42.07387169 93.66150059 45.92998873 96 50 C97.67626225 56.66963502 94.9945247 63.64838861 93 70 C94.15757812 69.89558594 95.31515625 69.79117188 96.5078125 69.68359375 C98.04674398 69.59914019 99.58581729 69.51724384 101.125 69.4375 C101.88554687 69.36208984 102.64609375 69.28667969 103.4296875 69.20898438 C105.8870718 69.11365481 107.66888075 69.19633731 110 70 C111.87702255 72.01694759 113.13314202 74.10084645 114.50292969 76.48950195 C116.96238168 80.61385695 120.26300787 83.91334627 123.5625 87.375 C124.20896484 88.07238281 124.85542969 88.76976562 125.52148438 89.48828125 C128.78883509 92.95173948 131.74136031 95.76188279 136 98 C137.01868662 98.98095748 138.02351983 99.97702078 139 101 C139.66 101.33 140.32 101.66 141 102 C141 102.66 141 103.32 141 104 C141.7425 104.28875 142.485 104.5775 143.25 104.875 C145.56739797 105.82302644 147.77917115 106.84845911 150 108 C150 108.66 150 109.32 150 110 C51.66 110 -46.68 110 -148 110 C-144.43705964 107.14964771 -140.86963133 104.43317827 -137.1875 101.75 C-122.11866796 90.45696775 -112.32679344 75.13186431 -102.74731445 59.13720703 C-97.15221209 49.83505305 -90.37508908 41.94546467 -83 34 C-82.44828125 33.38253906 -81.8965625 32.76507812 -81.328125 32.12890625 C-69.65429012 19.61709807 -52.30445337 10.61504081 -36 6 C-35.80430141 10.8924647 -36.35107068 14.41964077 -38 19 C-38.99 23.455 -38.99 23.455 -40 28 C-25.15 28 -10.3 28 5 28 C3.36180991 21.02829531 3.36180991 21.02829531 1.70898438 14.06005859 C0.60838767 9.2986676 -0.33618234 4.92507134 0 0 Z " fill="#54328F" transform="translate(384,854)"/>
<path d="M0 0 C2.39627914 3.59441871 2.79693204 6.89093056 3.4375 11.0625 C4.36730493 16.74689434 5.51728474 22.12811361 7.31640625 27.609375 C8.11714229 30.40966333 8.5623902 33.18367853 9 36.0625 C9.68527456 40.56573285 10.79412797 44.57063505 12.34375 48.83984375 C13.25030276 51.82391324 13.50174432 54.75581621 13.69140625 57.859375 C13.92121792 60.07521181 13.92121792 60.07521181 14.9453125 62.2878418 C16.0180013 65.04629084 16.63050767 67.63052549 17.18359375 70.53515625 C17.38919922 71.59283203 17.59480469 72.65050781 17.80664062 73.74023438 C18.11891602 75.38475586 18.11891602 75.38475586 18.4375 77.0625 C19.84464264 84.42669445 21.39309455 91.70310373 23.25268555 98.96655273 C24.5610445 104.27735312 25.62181634 109.63616621 26.6875 115 C26.91244141 116.10472656 27.13738281 117.20945312 27.36914062 118.34765625 C27.6872168 119.93900391 27.6872168 119.93900391 28.01171875 121.5625 C28.20209717 122.51253906 28.39247559 123.46257812 28.58862305 124.44140625 C29 127 29 127 29 131 C10.19 131 -8.62 131 -28 131 C-27.40137837 125.01378368 -26.86993314 119.72821989 -25.6171875 113.96484375 C-25.34028076 112.67602295 -25.06337402 111.38720215 -24.77807617 110.05932617 C-24.47722633 108.68534566 -24.17619666 107.31140452 -23.875 105.9375 C-23.56369338 104.5005185 -23.2529121 103.06342311 -22.94262695 101.6262207 C-22.45905803 99.3866038 -21.9750869 97.14708294 -21.48902893 94.90800476 C-20.31468561 89.49126705 -19.17519273 84.06792741 -18.05078125 78.640625 C-17.58126934 76.38496243 -17.1113766 74.12937946 -16.64141846 71.87380981 C-16.34031727 70.42354827 -16.04094214 68.97292722 -15.74334717 67.52194214 C-15.32745989 65.49660801 -14.90470727 63.47281749 -14.48046875 61.44921875 C-14.24223389 60.29768311 -14.00399902 59.14614746 -13.75854492 57.9597168 C-13 55 -13 55 -11.98144531 52.98217773 C-10.66312585 50.31963153 -10.30040766 47.7642219 -9.81640625 44.8359375 C-9.61080078 43.63066406 -9.40519531 42.42539062 -9.19335938 41.18359375 C-8.77666931 38.66797263 -8.3600022 36.1523477 -7.94335938 33.63671875 C-6.86819886 27.33312967 -5.63517787 21.26353312 -3.68481445 15.17138672 C-2.71943259 12.11038624 -2.01198004 9.00600588 -1.3125 5.875 C-1.06113281 4.75867188 -0.80976563 3.64234375 -0.55078125 2.4921875 C-0.36902344 1.66976562 -0.18726563 0.84734375 0 0 Z " fill="#25245D" transform="translate(222,779)"/>
<path d="M0 0 C5.75508266 10.72422891 7.17254341 23.66639309 9.24926758 35.49243164 C10.24101611 41.10724791 11.32973705 46.53978297 13 52 C13.6641487 54.64315049 14.3132061 57.28510293 14.9375 59.9375 C15.11079834 60.6704126 15.28409668 61.4033252 15.46264648 62.15844727 C16.92329725 68.44483497 18.10540834 74.76024886 19.19140625 81.12109375 C19.81659412 84.12018337 20.55214034 86.89914617 21.4609375 89.8125 C23.0639193 95.00477789 24.10825958 100.21796824 25.0625 105.5625 C25.38534149 107.33488684 25.70954864 109.10702549 26.03515625 110.87890625 C26.19129395 111.73242676 26.34743164 112.58594727 26.50830078 113.46533203 C27.12947779 116.66744707 27.8633879 119.83756295 28.63061523 123.00756836 C29 125 29 125 29 129 C10.19 129 -8.62 129 -28 129 C-27.34 125.7 -26.68 122.4 -26 119 C-25.62505226 117.04891377 -25.25329817 115.09720706 -24.88671875 113.14453125 C-22.81222871 102.17468319 -20.67787182 91.22378863 -18.3125 80.3125 C-18.11035889 79.37575439 -17.90821777 78.43900879 -17.69995117 77.47387695 C-16.87714755 73.72486451 -16.00982977 70.03420321 -14.94921875 66.34375 C-13.90279644 62.65758747 -13.1716381 58.95496995 -12.5 55.1875 C-12.239844 53.77338952 -11.97942784 52.35932688 -11.71875 50.9453125 C-11.29943368 48.64890044 -10.8831194 46.35200023 -10.46875 44.0546875 C-9.75380168 40.2535456 -8.92866874 36.65566162 -7.6015625 33.01953125 C-5.61712052 27.17169662 -4.52144677 21.18276812 -3.375 15.125 C-2.94695024 12.89812207 -2.51733643 10.67154404 -2.0859375 8.4453125 C-1.9007959 7.47094238 -1.7156543 6.49657227 -1.52490234 5.49267578 C-1 3 -1 3 0 0 Z " fill="#25245C" transform="translate(505,794)"/>
<path d="M0 0 C229.02 0 458.04 0 694 0 C694 318.78 694 637.56 694 966 C693.67 966 693.34 966 693 966 C692.67 656.13 692.34 346.26 692 27 C691.34 26.67 690.68 26.34 690 26 C689.30497712 24.04731667 688.61142546 22.09407981 687.9296875 20.13671875 C686.51454676 16.88427344 684.33447906 14.6499492 682 12 C682 11.34 682 10.68 682 10 C679.19475155 8.57824908 676.36759801 7.22890116 673.5 5.9375 C672.7471875 5.59589844 671.994375 5.25429687 671.21875 4.90234375 C669.15504062 4.06305349 667.17217303 3.47886542 665 3 C665 2.34 665 1.68 665 1 C604.41152143 1.02683149 543.82304625 1.05859781 483.23458862 1.11663818 C481.88965526 1.11792445 481.88965526 1.11792445 480.51755152 1.1192367 C461.03188246 1.137902 441.54621438 1.15745448 422.06054712 1.17792095 C412.50488315 1.1879522 402.94921897 1.19778738 393.39355469 1.20751953 C391.96719388 1.20897724 391.96719388 1.20897724 390.5120177 1.2104644 C359.68626439 1.24187574 328.86051983 1.26033881 298.03475327 1.27209247 C266.35923317 1.28423848 234.68374967 1.30943692 203.00825395 1.35107614 C198.53507306 1.35695029 194.06189199 1.36267512 189.58871078 1.36830902 C188.70831816 1.36942248 187.82792553 1.37053594 186.92085434 1.37168314 C172.74472745 1.38922798 158.56862869 1.39299937 144.3924924 1.39162921 C130.14324737 1.39054559 115.89407444 1.40395073 101.64485677 1.43216428 C93.17746409 1.44848895 84.71023452 1.45368558 76.24283198 1.44297175 C70.58591818 1.4369088 64.92914532 1.44533079 59.27226452 1.4654923 C56.04939962 1.47656527 52.8269315 1.47917074 49.6040553 1.46851245 C46.12862251 1.45800225 42.6541142 1.47203748 39.17874336 1.49219131 C38.18304545 1.48328761 37.18734754 1.4743839 36.16147697 1.46521038 C26.17496411 1.57646499 17.22557741 4.97599449 10 12 C4.61243325 18.6686104 1.75090057 24.89785338 1.748151 33.5773443 C1.74288774 34.89462133 1.73762448 36.21189836 1.73220173 37.56909287 C1.73646614 39.02718414 1.74091379 40.48527488 1.74552441 41.9433651 C1.74313456 43.50158352 1.73986938 45.0598008 1.73580781 46.61801577 C1.72716361 50.91657369 1.73102426 55.21504464 1.73686353 59.51360397 C1.74102378 64.18383829 1.7336376 68.85405643 1.72771102 73.52428687 C1.71893312 81.71505412 1.71764255 89.90579637 1.72121429 98.09656715 C1.72651161 110.27642657 1.72043581 122.45626171 1.71213136 134.63611848 C1.69687048 157.65250292 1.69518843 180.66887638 1.69765439 203.68526481 C1.69948526 221.45536573 1.69773179 239.22546304 1.69342995 256.99556351 C1.69282755 259.54630226 1.69222635 262.09704102 1.69162634 264.64777977 C1.69071912 268.49124199 1.68981045 272.3347042 1.68889399 276.17816641 C1.68046128 311.92452524 1.67611229 347.67088254 1.68030071 383.41724205 C1.68037877 384.09117574 1.68045683 384.76510943 1.68053725 385.45946536 C1.68141006 392.97467891 1.68233932 400.48989247 1.68328788 408.00510602 C1.68341615 409.0228913 1.68341615 409.0228913 1.683547 410.06123791 C1.68406579 414.17724779 1.68406579 414.17724779 1.68458923 418.29325767 C1.69012543 461.69714109 1.68258219 505.10100324 1.66381836 548.50488281 C1.65909622 559.44154544 1.65441575 570.37820808 1.6499815 581.31487083 C1.64970818 581.98826575 1.64943485 582.66166066 1.64915325 583.35546148 C1.63449186 619.70440408 1.63334626 656.0533466 1.63639385 692.40229189 C1.63678921 697.51379625 1.63715075 702.6253006 1.63749123 707.73680496 C1.63758196 708.99543666 1.63767269 710.25406837 1.63776617 711.55084042 C1.63893356 730.57525412 1.63227309 749.59965493 1.62167931 768.6240654 C1.60964786 790.2526356 1.60804458 811.88117736 1.62046947 833.50974797 C1.62711522 845.62129262 1.62542762 857.73276934 1.61188096 869.8443086 C1.60366668 877.92752449 1.60629448 886.01068923 1.61785623 894.09390091 C1.62414275 898.70403467 1.62563635 903.3140354 1.61399289 907.92416172 C1.60350133 912.11663948 1.60677029 916.30887078 1.62109742 920.50133513 C1.62382998 922.00998233 1.621519 923.51864908 1.61359027 925.02727792 C1.55561142 936.86545767 3.28169615 945.64134075 11 955 C14.67302237 958.38286068 18.03509649 961.02908554 23 962 C23 962.66 23 963.32 23 964 C34.55 964.33 46.1 964.66 58 965 C58 965.33 58 965.66 58 966 C38.86 966 19.72 966 0 966 C0 647.22 0 328.44 0 0 Z " fill="#F7E0E2" transform="translate(0,0)"/>
<path d="M0 0 C0.66 0.33 1.32 0.66 2 1 C2 310.87 2 620.74 2 940 C-154.2034375 940.0309375 -154.2034375 940.0309375 -313.5625 940.0625 C-346.43174072 940.071604 -379.30098145 940.08070801 -413.16625977 940.09008789 C-453.3338623 940.09460449 -453.3338623 940.09460449 -472.14390564 940.09544373 C-486.13072745 940.09643573 -500.1175444 940.10073783 -514.10436485 940.10667343 C-528.39560209 940.11265563 -542.68683628 940.11482995 -556.97807473 940.11344495 C-564.72175188 940.11279403 -572.46542066 940.11365121 -580.20909607 940.11921513 C-639.95034915 940.1606205 -639.95034915 940.1606205 -664 939 C-664 938.67 -664 938.34 -664 938 C-452.14 938 -240.28 938 -22 938 C-22 937.34 -22 936.68 -22 936 C-20.80503906 935.48953125 -20.80503906 935.48953125 -19.5859375 934.96875 C-10.86815411 930.98105346 -6.54795535 927.32926855 -2.44815254 918.75417709 C-0.17441726 912.56112212 -0.59956236 906.12041907 -0.64596558 899.612854 C-0.64537382 898.13913027 -0.64345718 896.66540659 -0.64034045 895.19168603 C-0.63557452 891.13503289 -0.64953481 887.07862609 -0.6664685 883.02201346 C-0.68154825 878.60712068 -0.67907966 874.19223262 -0.67876434 869.77731895 C-0.68057005 862.02803103 -0.69338137 854.27882186 -0.71323776 846.52956009 C-0.74268288 834.97448615 -0.75400462 823.41944351 -0.76123782 811.8643368 C-0.77377302 792.35478954 -0.79892673 772.84527875 -0.83081055 753.33575439 C-0.87818993 724.1357925 -0.90440705 694.93583253 -0.92382812 665.73583984 C-0.9246477 664.50483102 -0.92546727 663.27382219 -0.92631167 662.00551006 C-0.9363382 646.8238325 -0.94541199 631.64215448 -0.95405753 616.46047608 C-0.95929572 607.37672514 -0.9653304 598.29297494 -0.9716568 589.2092247 C-1.02232694 515.58328964 -0.98443577 441.9578934 -0.7890625 340.9609375 C-0.78696585 339.92619146 -0.78696585 339.92619146 -0.78482684 338.87054145 C-0.706249 300.12287242 -0.61868632 261.37522522 -0.52797353 222.62758294 C-0.49667708 209.24185891 -0.46619567 195.85613307 -0.43577875 182.47040702 C-0.29751305 121.64692056 -0.15305389 60.82345107 0 0 Z " fill="#BC8499" transform="translate(691,26)"/>
<path d="M0 0 C2.61542084 2.61542084 2.76228913 4.59555205 3.55078125 8.203125 C3.8346167 9.4826001 4.11845215 10.7620752 4.41088867 12.08032227 C4.71160615 13.47017583 5.01213916 14.86006932 5.3125 16.25 C5.62469514 17.67064814 5.93760693 19.09113897 6.2512207 20.51147461 C6.72395633 22.653691 7.19598524 24.79604249 7.6650238 26.93907166 C8.55951632 31.02458901 9.47761784 35.10319057 10.4296875 39.17578125 C12.81036613 49.35999594 14.92532773 59.54263118 16.65698242 69.85961914 C17.39671042 74.1695314 18.25730056 77.9658362 20 82 C20.25470416 84.0057953 20.50769125 86.012175 20.71484375 88.0234375 C20.96804923 90.22027589 20.96804923 90.22027589 22.0625 93.0625 C23 96 23 96 23 103 C8.15 103 -6.7 103 -22 103 C-18.33114303 77.31800122 -18.33114303 77.31800122 -15.5 69.625 C-13.2467766 63.38169351 -12.47303253 56.73084921 -11.37939453 50.20751953 C-10.78215829 46.73248086 -10.12010251 43.27165787 -9.4375 39.8125 C-9.20933594 38.64332031 -8.98117187 37.47414063 -8.74609375 36.26953125 C-8 33 -8 33 -7.04760742 30.20141602 C-5.99599611 26.98776439 -5.21550935 23.809934 -4.4921875 20.5078125 C-4.22792969 19.30898438 -3.96367187 18.11015625 -3.69140625 16.875 C-3.28728516 15.01875 -3.28728516 15.01875 -2.875 13.125 C-2.59785156 11.86429688 -2.32070313 10.60359375 -2.03515625 9.3046875 C-1.35388853 6.20374478 -0.67560302 3.10218092 0 0 Z " fill="#26245D" transform="translate(505,575)"/>
<path d="M0 0 C0.66 0 1.32 0 2 0 C2.26941406 1.21945312 2.53882813 2.43890625 2.81640625 3.6953125 C3.66239861 7.50637041 4.52871182 11.31237591 5.40234375 15.1171875 C7.93919147 26.24616033 10.46224435 37.32570279 11.97436523 48.64794922 C12.52311626 52.60249994 13.33217548 56.35156907 14.421875 60.1953125 C16.52826418 67.64878904 17.81318827 75.24102632 19.19335938 82.85546875 C19.50176758 84.51642578 19.50176758 84.51642578 19.81640625 86.2109375 C19.99631104 87.20399902 20.17621582 88.19706055 20.36157227 89.22021484 C20.91258938 92.00361171 20.91258938 92.00361171 22.07397461 94.48681641 C23 97 23 97 23 103 C8.15 103 -6.7 103 -22 103 C-15.12607685 70.51734354 -15.12607685 70.51734354 -12.375 58 C-10.42722057 49.12845481 -8.64125173 40.22990799 -6.88549805 31.31860352 C-4.80146063 20.83068313 -2.43559557 10.4111921 0 0 Z " fill="#25245C" transform="translate(608,700)"/>
<path d="M0 0 C0.66 0 1.32 0 2 0 C5.24865243 7.52217736 6.55210659 15.35879848 8 23.375 C9.42455112 31.22116048 10.86048658 38.95365518 13.29003906 46.56298828 C14.69191745 51.37507564 15.48299345 56.32299087 16.375 61.25 C18.18136315 70.97028661 20.19297982 80.61382629 22.47607422 90.23339844 C22.67604004 91.08321289 22.87600586 91.93302734 23.08203125 92.80859375 C23.25968018 93.54907959 23.4373291 94.28956543 23.62036133 95.05249023 C24 97 24 97 24 100 C9.15 100 -5.7 100 -21 100 C-19.88501414 89.96512724 -19.88501414 89.96512724 -18.625 85.8125 C-15.53841004 75.00943512 -13.60762007 63.97743152 -11.68359375 52.921875 C-9.44558675 40.08210912 -9.44558675 40.08210912 -7.6015625 35.015625 C-5.63263798 29.2069388 -4.52279054 23.26527264 -3.375 17.25 C-3.1584375 16.14011719 -2.941875 15.03023437 -2.71875 13.88671875 C-2.31810878 11.83157765 -1.91985744 9.77596799 -1.52490234 7.71972656 C-1.02781781 5.14413506 -0.51747035 2.5715645 0 0 Z " fill="#25245C" transform="translate(365,782)"/>
<path d="M0 0 C2.35968825 3.53953237 2.9506771 6.84235638 3.75 10.9375 C4.10075185 12.66683128 4.45236755 14.3959875 4.8046875 16.125 C4.99514648 17.06730469 5.18560547 18.00960937 5.38183594 18.98046875 C6.50659873 24.47457072 7.69481156 29.95508867 8.875 35.4375 C9.39199543 37.84894368 9.9089216 40.26040221 10.42578125 42.671875 C11.46100132 47.49562827 12.50045998 52.31844205 13.54296875 57.140625 C16.83662085 72.40114286 19.97247054 87.68426272 23 103 C8.15 103 -6.7 103 -22 103 C-22 97.66683377 -21.87206705 96.43025375 -20 92 C-19.42212443 89.46063763 -18.89485956 86.93996285 -18.4140625 84.3828125 C-18.19947891 83.2814949 -18.19947891 83.2814949 -17.9805603 82.15792847 C-17.37383775 79.04354572 -16.77830442 75.92705626 -16.18261719 72.81054688 C-14.41390063 63.5943963 -12.41406402 54.56086108 -9.91943359 45.51074219 C-8.49666685 40.07808533 -7.49443366 34.58675485 -6.5 29.0625 C-4.68120211 19.26526096 -2.60117752 9.6199973 0 0 Z " fill="#25245C" transform="translate(239,649)"/>
<path d="M0 0 C2 1 2 1 2.60668945 2.76806641 C2.77386475 3.53812012 2.94104004 4.30817383 3.11328125 5.1015625 C3.30672119 5.97272705 3.50016113 6.8438916 3.69946289 7.74145508 C3.90176514 8.6930249 4.10406738 9.64459473 4.3125 10.625 C4.5283374 11.60686279 4.7441748 12.58872559 4.96655273 13.6003418 C5.65289735 16.73177357 6.3272733 19.86561703 7 23 C7.64297862 25.96873783 8.28746609 28.93714508 8.93212891 31.90551758 C9.35526648 33.85683404 9.77679468 35.80850012 10.19677734 37.76049805 C11.36588006 43.17526549 12.6120629 48.55907342 13.9375 53.9375 C16.00469175 62.43463216 17.57987383 71.03189397 19.1875 79.625 C19.32010223 80.33244354 19.45270447 81.03988708 19.58932495 81.76876831 C20.84750956 88.50107731 22.03100218 95.21701528 23 102 C8.48 102 -6.04 102 -21 102 C-19.8730331 92.98426479 -19.8730331 92.98426479 -19.09765625 89.08984375 C-18.92943359 88.24486328 -18.76121094 87.39988281 -18.58789062 86.52929688 C-18.41451172 85.67400391 -18.24113281 84.81871094 -18.0625 83.9375 C-17.89298828 83.07833984 -17.72347656 82.21917969 -17.54882812 81.33398438 C-17.37931641 80.49029297 -17.20980469 79.64660156 -17.03515625 78.77734375 C-16.8844165 78.02702881 -16.73367676 77.27671387 -16.57836914 76.50366211 C-16.12166515 74.52666783 -15.58525606 72.5680942 -15.02075195 70.61914062 C-14.05493746 67.19478423 -13.30557756 63.80879658 -12.6328125 60.31640625 C-12.38901855 59.06722412 -12.14522461 57.81804199 -11.89404297 56.53100586 C-11.76850037 55.88259735 -11.64295776 55.23418884 -11.51361084 54.56613159 C-9.5812814 44.60326922 -7.5272792 34.72032636 -4.9453125 24.90234375 C-2.87407029 16.70312696 -1.50913303 8.31721549 0 0 Z " fill="#25245C" transform="translate(130,728)"/>
<path d="M0 0 C0.66 0 1.32 0 2 0 C4.10637137 7.5637881 5.59500887 15.14566479 6.9375 22.875 C7.99832925 28.94106503 9.11523931 34.85704405 10.9375 40.75 C13.38165353 48.67176244 14.77001567 56.79173928 16.24975586 64.94042969 C16.44835205 66.02227539 16.64694824 67.10412109 16.8515625 68.21875 C17.02510254 69.18748047 17.19864258 70.15621094 17.37744141 71.15429688 C17.95409976 74.06815246 17.95409976 74.06815246 19.07177734 77.04882812 C20 80 20 80 20 85 C7.46 85 -5.08 85 -18 85 C-16.87463261 77.12242824 -16.87463261 77.12242824 -16.23144531 74.05029297 C-16.08731705 73.3570845 -15.94318878 72.66387604 -15.79469299 71.94966125 C-15.64072556 71.22119492 -15.48675812 70.49272858 -15.328125 69.7421875 C-15.16541611 68.96501877 -15.00270721 68.18785004 -14.83506775 67.38713074 C-14.30945182 64.88250149 -13.7800118 62.37870243 -13.25 59.875 C-13.07014557 59.02163055 -12.89029114 58.16826111 -12.70498657 57.28903198 C-10.47189913 46.70137706 -8.16645882 36.14135606 -5.59179688 25.63061523 C-4.0765761 19.42882707 -2.78031679 13.20316371 -1.578125 6.93359375 C-1.11764107 4.59694892 -0.60776798 2.30163983 0 0 Z " fill="#26245D" transform="translate(179,516)"/>
<path d="M0 0 C0.66 0 1.32 0 2 0 C2.21092285 1.05050537 2.4218457 2.10101074 2.63916016 3.18334961 C7.93192236 29.526089 7.93192236 29.526089 13.97753906 55.70336914 C15.54632387 62.0739664 17.01753523 68.45588538 18.375 74.875 C18.54290039 75.66100586 18.71080078 76.44701172 18.88378906 77.25683594 C19.50205663 80.22799215 20 82.95624864 20 86 C7.46 86 -5.08 86 -18 86 C-14.51712329 67.42465753 -14.51712329 67.42465753 -12.5 58.25 C-12.30019531 57.32574219 -12.10039062 56.40148437 -11.89453125 55.44921875 C-10.86940538 50.75453402 -9.77590457 46.09017069 -8.57421875 41.4375 C-6.51005339 33.27340201 -4.93769108 25.01005262 -3.3125 16.75 C-2.98920434 15.11843565 -2.66563846 13.48692483 -2.34179688 11.85546875 C-1.55808733 7.90425473 -0.77801691 3.95233869 0 0 Z " fill="#25245C" transform="translate(367,524)"/>
<path d="M0 0 C0.66 0 1.32 0 2 0 C2.95949454 4.45808423 3.91738274 8.91651218 4.875 13.375 C5.14441406 14.62667969 5.41382813 15.87835937 5.69140625 17.16796875 C6.86428091 22.63184826 8.02989611 28.09494416 9.109375 33.578125 C9.76161651 36.87726145 10.50369455 40.12554319 11.375 43.375 C12.75017962 48.80591242 13.93982771 54.26242817 15.0625 59.75 C15.22476074 60.52263184 15.38702148 61.29526367 15.55419922 62.09130859 C17.15523805 70.05749267 17.98237543 77.85900341 19 86 C6.79 86 -5.42 86 -18 86 C-14.12015709 66.49301202 -10.10700637 47.02829005 -5.86645508 27.59692383 C-3.86361283 18.40782444 -1.92286607 9.20612413 0 0 Z " fill="#25245C" transform="translate(638,583)"/>
<path d="M0 0 C0.66 0 1.32 0 2 0 C4.45280912 10.55616369 6.87250194 21.11027023 8.9375 31.75 C10.91155242 41.89024429 13.26066318 51.93626733 15.60546875 61.99609375 C20 80.85632545 20 80.85632545 20 85 C7.46 85 -5.08 85 -18 85 C-15.78738739 71.72432432 -15.78738739 71.72432432 -14.125 65.5625 C-12.19293425 58.19409571 -10.74359694 50.76514942 -9.39501953 43.26977539 C-9.16468018 42.00508423 -9.16468018 42.00508423 -8.9296875 40.71484375 C-8.79804199 39.97355225 -8.66639648 39.23226074 -8.53076172 38.46850586 C-8.10945326 36.50905332 -7.58947746 34.5708658 -7.03613281 32.64453125 C-6.02910797 29.10238542 -5.22963165 25.57972005 -4.4921875 21.97265625 C-4.22792969 20.68681641 -3.96367188 19.40097656 -3.69140625 18.07617188 C-3.41921206 16.73829321 -3.14707737 15.40040243 -2.875 14.0625 C-2.59529889 12.69721504 -2.31535313 11.33198017 -2.03515625 9.96679688 C-1.35436707 6.64501519 -0.67606081 3.32274667 0 0 Z " fill="#25245C" transform="translate(65,584)"/>
<path d="M0 0 C2.37145235 2.37145235 2.56818065 3.66101882 3.296875 6.8984375 C3.53051758 7.92171143 3.76416016 8.94498535 4.00488281 9.99926758 C4.25077148 11.11325928 4.49666016 12.22725098 4.75 13.375 C5.0087793 14.52444092 5.26755859 15.67388184 5.53417969 16.8581543 C6.36556919 20.57007273 7.18405188 24.28465878 8 28 C8.27457031 29.24120605 8.54914063 30.48241211 8.83203125 31.76123047 C9.64465948 35.44357251 10.44929216 39.1275488 11.25 42.8125 C11.49588867 43.93640137 11.74177734 45.06030273 11.99511719 46.21826172 C12.22875977 47.30768066 12.46240234 48.39709961 12.703125 49.51953125 C13.00718262 50.92875854 13.00718262 50.92875854 13.31738281 52.36645508 C14.3543247 57.88605667 15.14602256 63.44914667 16 69 C5.77 69 -4.46 69 -15 69 C-12.21578614 55.00105059 -9.38020608 41.01386585 -6.48071289 27.03833008 C-6.02826002 24.85409193 -5.57746223 22.6695104 -5.12817383 20.48461914 C-4.47057449 17.28716322 -3.8081303 14.09074664 -3.14453125 10.89453125 C-2.94350296 9.91249222 -2.74247467 8.93045319 -2.53535461 7.9186554 C-2.34813339 7.02228867 -2.16091217 6.12592194 -1.96801758 5.20239258 C-1.80465408 4.41222244 -1.64129059 3.62205231 -1.47297668 2.80793762 C-1 1 -1 1 0 0 Z " fill="#26245D" transform="translate(62,853)"/>
<path d="M0 0 C2.46641268 2.46641268 2.5359864 3.8471148 3.1484375 7.25 C3.44633179 8.86165039 3.44633179 8.86165039 3.75024414 10.50585938 C3.95641357 11.65892578 4.16258301 12.81199219 4.375 14 C4.8170352 16.38578348 5.26105298 18.77120046 5.70703125 21.15625 C5.92568848 22.32800781 6.1443457 23.49976563 6.36962891 24.70703125 C7.18951176 28.98998242 8.09920333 33.24729158 9.0625 37.5 C9.22057129 38.20084717 9.37864258 38.90169434 9.54150391 39.6237793 C10.20750607 42.55888282 10.88260551 45.49183639 11.56005859 48.42431641 C12.12757161 50.88610232 12.68883457 53.34926073 13.25 55.8125 C13.42539307 56.56015625 13.60078613 57.3078125 13.78149414 58.078125 C14.64928046 61.89410923 15 65.03782164 15 69 C5.43 69 -4.14 69 -14 69 C-12.88050982 56.68560807 -12.88050982 56.68560807 -11.125 50.1875 C-10.76383266 48.81036465 -10.40449069 47.43274942 -10.046875 46.0546875 C-9.86962891 45.37631836 -9.69238281 44.69794922 -9.50976562 43.99902344 C-7.27550225 35.23745805 -5.66088634 26.40241035 -4.4296875 17.44921875 C-4 15 -4 15 -3 14 C-2.62831518 11.839582 -2.30208609 9.67124378 -2 7.5 C-1.11111111 1.11111111 -1.11111111 1.11111111 0 0 Z " fill="#27255D" transform="translate(416,356)"/>
<path d="M0 0 C0.66 0 1.32 0 2 0 C2.12117187 0.67804688 2.24234375 1.35609375 2.3671875 2.0546875 C3.2424505 6.91576353 4.1302517 11.77450507 5.0625 16.625 C5.21847656 17.44226563 5.37445312 18.25953125 5.53515625 19.1015625 C5.82571485 20.99859692 5.82571485 20.99859692 7 22 C7.34171863 23.41128493 7.63361755 24.83473487 7.90234375 26.26171875 C8.07056641 27.13376953 8.23878906 28.00582031 8.41210938 28.90429688 C8.7586753 30.74019441 9.10503403 32.57613108 9.45117188 34.41210938 C10.35409183 39.09150064 11.44770965 43.4865132 13 48 C13.57957734 50.51238802 14.11983026 53.03409991 14.625 55.5625 C14.88539063 56.84253906 15.14578125 58.12257813 15.4140625 59.44140625 C16 63 16 63 16 68 C6.1 68 -3.8 68 -14 68 C-11.43324239 54.33579036 -8.79568323 40.70467939 -5.8125 27.125 C-5.56290527 25.97346436 -5.31331055 24.82192871 -5.05615234 23.63549805 C-4.81719238 22.56211182 -4.57823242 21.48872559 -4.33203125 20.3828125 C-4.12296143 19.43809082 -3.9138916 18.49336914 -3.69848633 17.52001953 C-3.03679923 15.13276534 -2.12505151 13.19415641 -1 11 C-0.54724722 8.18503259 -0.54724722 8.18503259 -0.375 5.25 C-0.30023437 4.26515625 -0.22546875 3.2803125 -0.1484375 2.265625 C-0.09945312 1.51796875 -0.05046875 0.7703125 0 0 Z " fill="#26245D" transform="translate(645,453)"/>
<path d="M0 0 C0.66 0.33 1.32 0.66 2 1 C2.5625 3.05371094 2.5625 3.05371094 3 5.734375 C3.2475 7.18457031 3.2475 7.18457031 3.5 8.6640625 C3.7475 10.19160156 3.7475 10.19160156 4 11.75 C4.32832848 13.74562154 4.6615091 15.74045203 5 17.734375 C5.144375 18.62350586 5.28875 19.51263672 5.4375 20.42871094 C5.92197695 23.00217301 5.92197695 23.00217301 6.95458984 25.31518555 C8.33682974 28.86504359 9.01593349 32.49467312 9.7265625 36.22265625 C9.87910492 37.00515244 10.03164734 37.78764862 10.18881226 38.59385681 C10.50880264 40.24155146 10.82635294 41.88972164 11.14160156 43.53833008 C11.62428671 46.05877541 12.11625067 48.5772818 12.609375 51.09570312 C12.91982467 52.70041379 13.22973882 54.30522816 13.5390625 55.91015625 C13.75932602 57.03684471 13.75932602 57.03684471 13.98403931 58.18629456 C14.62193156 61.54684547 15 64.56340977 15 68 C5.43 68 -4.14 68 -14 68 C-14 62.43292921 -13.8614136 59.80265265 -12.2578125 54.83984375 C-9.46470882 45.5463142 -7.70783954 36.08371054 -5.875 26.5625 C-5.35417063 23.8749334 -4.83153426 21.1877486 -4.30545044 18.50120544 C-3.9815804 16.84564711 -3.66079281 15.1894815 -3.34371948 13.53260803 C-2.44850197 8.93728682 -1.35225902 4.48284658 0 0 Z " fill="#27245D" transform="translate(295,487)"/>
<path d="M0 0 C2.10873296 3.62554088 2.89618014 7.44184441 3.75 11.5 C3.91483887 12.26248047 4.07967773 13.02496094 4.24951172 13.81054688 C4.62355901 15.54504311 4.99495958 17.28011142 5.36425781 19.015625 C6.07794553 22.36590097 6.80043235 25.71422273 7.5234375 29.0625 C12.07047577 50.16385909 12.07047577 50.16385909 13.56591797 58.18945312 C13.83553094 60.00978497 13.83553094 60.00978497 15 61 C15 63.31 15 65.62 15 68 C5.43 68 -4.14 68 -14 68 C-12.65152812 59.2349328 -11.23637937 50.57088108 -9.5625 41.875 C-9.25602539 40.24111328 -9.25602539 40.24111328 -8.94335938 38.57421875 C-7.77322037 32.47199849 -6.36896702 26.51457547 -4.68041992 20.53613281 C-3.69705404 16.87082791 -3.01558806 13.17547694 -2.375 9.4375 C-1.125 2.25 -1.125 2.25 0 0 Z " fill="#25245C" transform="translate(634,848)"/>
<path d="M0 0 C5.76677709 8.65016564 6.63298626 21.99374118 8.49291992 32.12158203 C9.68459632 38.54805966 11.07710428 44.89898513 12.69335938 51.23217773 C13.93877772 56.24011764 14.41576441 60.74187966 15 66 C5.43 66 -4.14 66 -14 66 C-13.34116329 60.72930635 -12.6181283 55.75847251 -11.546875 50.58984375 C-11.40631683 49.9078894 -11.26575867 49.22593506 -11.12094116 48.52331543 C-10.66728101 46.32734 -10.20891976 44.13238179 -9.75 41.9375 C-9.43463107 40.42002445 -9.11936492 38.90252754 -8.80419922 37.38500977 C-7.87552309 32.92206121 -6.938834 28.46082119 -6 24 C-5.60312988 22.11087891 -5.60312988 22.11087891 -5.19824219 20.18359375 C-4.51284869 16.93364841 -3.82102605 13.6851828 -3.125 10.4375 C-2.82094238 9.00361938 -2.82094238 9.00361938 -2.51074219 7.54077148 C-2.32415039 6.68040283 -2.13755859 5.82003418 -1.9453125 4.93359375 C-1.78562988 4.19165771 -1.62594727 3.44972168 -1.46142578 2.68530273 C-1 1 -1 1 0 0 Z " fill="#25245C" transform="translate(84,464)"/>
<path d="M0 0 C0.66 0.33 1.32 0.66 2 1 C2.62255859 3.15454102 2.62255859 3.15454102 3.1484375 6.00390625 C3.44633179 7.56782104 3.44633179 7.56782104 3.75024414 9.16333008 C3.95641357 10.28505615 4.16258301 11.40678223 4.375 12.5625 C5.77040624 19.86483432 7.18952415 27.11671926 9.0625 34.3125 C10.64733175 40.42542247 12.00125503 46.55957864 13.25 52.75 C13.42539307 53.60891846 13.60078613 54.46783691 13.78149414 55.3527832 C14.02113892 56.56260864 14.02113892 56.56260864 14.265625 57.796875 C14.40774414 58.51198242 14.54986328 59.22708984 14.69628906 59.96386719 C15 62 15 62 15 66 C5.43 66 -4.14 66 -14 66 C-12.87620595 54.76205951 -12.87620595 54.76205951 -11.4765625 49.0234375 C-11.17911133 47.78303711 -10.88166016 46.54263672 -10.57519531 45.26464844 C-10.34201599 44.3103595 -10.34201599 44.3103595 -10.10412598 43.33679199 C-7.94981785 34.51592936 -5.80889932 25.69877895 -4.25 16.75 C-3.24099119 11.00930393 -1.87098506 5.5200694 0 0 Z " fill="#25245C" transform="translate(555,420)"/>
<path d="M0 0 C0.33 0 0.66 0 1 0 C1.32871094 1.58748047 1.32871094 1.58748047 1.6640625 3.20703125 C3.72661154 13.11215369 5.86710321 22.99845697 8.0625 32.875 C8.30758301 33.9781958 8.55266602 35.0813916 8.80517578 36.21801758 C9.16651611 37.83873169 9.16651611 37.83873169 9.53515625 39.4921875 C9.77379395 40.56307617 10.01243164 41.63396484 10.25830078 42.73730469 C10.76356198 44.95992177 11.2833708 47.17927022 11.81591797 49.39550781 C12.08162598 50.50506836 12.34733398 51.61462891 12.62109375 52.7578125 C12.86142334 53.74152832 13.10175293 54.72524414 13.34936523 55.73876953 C14.15621612 59.783015 14.54458636 63.90127725 15 68 C5.43 68 -4.14 68 -14 68 C-13.03086901 60.24695207 -11.6792968 52.66195187 -10.1875 45 C-10.05338715 44.30747131 -9.91927429 43.61494263 -9.78109741 42.90142822 C-8.04928084 33.98162373 -6.19720751 25.12414229 -3.87890625 16.3359375 C-2.45253927 10.92208237 -1.23418182 5.46031957 0 0 Z " fill="#25245C" transform="translate(455,398)"/>
<path d="M0 0 C0.33 0 0.66 0 1 0 C1 105.27 1 210.54 1 319 C1.99 319.33 2.98 319.66 4 320 C2.02 321.98 2.02 321.98 0 324 C0 217.08 0 110.16 0 0 Z " fill="#F2A4A4" transform="translate(1,212)"/>
<path d="M0 0 C2 3 2 3 3.25 6.625 C6.31655099 14.9245211 11.22667221 21.59406522 19 26 C21.14654955 26.66537436 21.14654955 26.66537436 23 27 C23 27.66 23 28.32 23 29 C34.55 29.33 46.1 29.66 58 30 C58 30.33 58 30.66 58 31 C38.86 31 19.72 31 0 31 C0 20.77 0 10.54 0 0 Z " fill="#EBBFC5" transform="translate(0,935)"/>
<path d="M0 0 C0.66 0 1.32 0 2 0 C2 10.56 2 21.12 2 32 C-7.24 32 -16.48 32 -26 32 C-26 31.34 -26 30.68 -26 30 C-24.68 30 -23.36 30 -22 30 C-22 29.34 -22 28.68 -22 28 C-20.80503906 27.48953125 -20.80503906 27.48953125 -19.5859375 26.96875 C-10.74187898 22.92329257 -5.84588796 18.91743061 -2.1875 9.875 C-1.09665153 6.62812161 -0.42549081 3.40392646 0 0 Z " fill="#CC94A1" transform="translate(691,934)"/>
<path d="M0 0 C8.25 0 16.5 0 25 0 C25 8.91 25 17.82 25 27 C24.01 26.67 23.02 26.34 22 26 C21.27446626 24.05425042 20.55545509 22.10535287 19.89453125 20.13671875 C18.52351634 16.86184907 16.33531672 14.65090007 14 12 C14 11.34 14 10.68 14 10 C11.20199132 8.57555922 8.37537997 7.26044053 5.5 6 C2.62462003 4.73955947 -0.20199132 3.42444078 -3 2 C-2.01 2 -1.02 2 0 2 C0 1.34 0 0.68 0 0 Z " fill="#EDC1C7" transform="translate(668,0)"/>
<path d="M0 0 C0.33 0 0.66 0 1 0 C1 47.19 1 94.38 1 143 C1.99 143.33 2.98 143.66 4 144 C2.02 145.98 2.02 145.98 0 148 C0 99.16 0 50.32 0 0 Z " fill="#F3ADAF" transform="translate(1,388)"/>
<path d="M0 0 C8.91 0 17.82 0 27 0 C26.01 1.32 25.02 2.64 24 4 C24 3.34 24 2.68 24 2 C22.77023437 2.01160156 21.54046875 2.02320313 20.2734375 2.03515625 C18.64062653 2.04454022 17.0078139 2.05363977 15.375 2.0625 C14.16263672 2.07506836 14.16263672 2.07506836 12.92578125 2.08789062 C8.49658082 2.1058955 4.36116576 1.89622662 0 1 C0 0.67 0 0.34 0 0 Z " fill="#F6A9A1" transform="translate(331,430)"/>
<path d="M0 0 C2.39763185 2.39763185 2.34280586 3.33273498 2.625 6.625 C2.69976562 7.44226563 2.77453125 8.25953125 2.8515625 9.1015625 C2.92503906 10.04128906 2.92503906 10.04128906 3 11 C2.01 10.01 1.02 9.02 0 8 C-0.99 8.495 -0.99 8.495 -2 9 C-1.125 1.125 -1.125 1.125 0 0 Z " fill="#6A5D73" transform="translate(416,356)"/>
</svg>
