<svg id="Layer_1" enable-background="new 0 0 48 48" viewBox="0 0 48 48" xmlns="http://www.w3.org/2000/svg">
  <path
    d="m46 42h-1v-4h-3c-.6 0-1-.4-1-1s.4-1 1-1h3v-.7c-1.4-1.3-3.1-2.1-5-2.3-.9 0-1.8.3-2.5.8-1 .8-2.3 1.2-3.5 1.2-1.6-.1-3.2-.7-4.5-1.6-1.4-.8-2.9-1.2-4.5-1.4v4h4c.6 0 1 .4 1 1s-.4 1-1 1h-4v4h-2v-4h-4c-.6 0-1-.4-1-1s.4-1 1-1h4v-4c-1.6.1-3.1.6-4.5 1.4-1.3 1-2.9 1.5-4.5 1.6-1.3 0-2.5-.4-3.6-1.2-.6-.5-1.5-.8-2.4-.8-1.9.2-3.6 1-5 2.3v.7h3c.6 0 1 .4 1 1s-.4 1-1 1h-3v4h-1c-.6 0-1 .4-1 1s.4 1 1 1h44c.6 0 1-.4 1-1s-.4-1-1-1zm-36-1h-3c-.6 0-1-.4-1-1s.4-1 1-1h3c.6 0 1 .4 1 1s-.4 1-1 1zm0-4c0-.6.4-1 1-1h3c.6 0 1 .4 1 1s-.4 1-1 1h-3c-.6 0-1-.4-1-1zm8 4h-3c-.6 0-1-.4-1-1s.4-1 1-1h3c.6 0 1 .4 1 1s-.4 1-1 1zm15 0h-3c-.6 0-1-.4-1-1s.4-1 1-1h3c.6 0 1 .4 1 1s-.4 1-1 1zm0-4c0-.6.4-1 1-1h3c.6 0 1 .4 1 1s-.4 1-1 1h-3c-.6 0-1-.4-1-1zm8 4h-3c-.6 0-1-.4-1-1s.4-1 1-1h3c.6 0 1 .4 1 1s-.4 1-1 1z">
  </path>
  <path
    d="m34 33c.9 0 1.8-.3 2.5-.8 1-.8 2.3-1.2 3.5-1.2 1.8.2 3.5.9 5 2v-10l-20-5v12c1.9.1 3.8.7 5.5 1.6 1 .8 2.2 1.3 3.5 1.4z">
  </path>
  <path d="m45 11.8c0-.5-.3-.9-.8-1.1l-19.2-5.6v3.9l20 6z"></path>
  <path d="m45 17-20-6v5l20 5z"></path>
  <path d="m23 5.1-19.2 5.4c-.5.1-.8.6-.8 1.1v3.4l20-6z"></path>
  <path
    d="m11.6 32.2c.7.6 1.6.8 2.4.8 1.3-.1 2.5-.6 3.5-1.4 1.7-1 3.6-1.5 5.5-1.6v-12l-20 5v10c1.5-1.1 3.2-1.8 5-2 1.3 0 2.5.4 3.6 1.2z">
  </path>
  <path d="m23 11-20 6v4l20-5z"></path>
</svg>