<svg version="1.1" id="Capa_1" xmlns="http://www.w3.org/2000/svg" xmlns:xlink="http://www.w3.org/1999/xlink" x="0px"
  y="0px" viewBox="0 0 347.299 347.299" style="enable-background:new 0 0 347.299 347.299;" xml:space="preserve">
  <g>
    <path
      d="M272.375,197.211c-18.829-30.351-45.746-44.863-67.375-56.525c-6.909-3.725-13.073-7.052-18.046-10.408 c1.296-2.178,2.049-4.695,2.049-7.383c0-3.462-1.271-6.812-3.544-9.465c7.546-4.099,12.315-11.859,12.315-20.31 s-4.77-16.212-12.314-20.315c2.273-2.651,3.543-6.003,3.543-9.472c0-5.342-2.918-10.193-7.67-12.846l-6.195-49.175 C175.043,0.563,174.405,0,173.649,0s-1.394,0.563-1.488,1.313l-6.197,49.175c-4.75,2.653-7.668,7.504-7.668,12.846 c0,3.471,1.27,6.823,3.539,9.472c-7.545,4.102-12.313,11.864-12.313,20.315c0,8.452,4.769,16.211,12.314,20.31 c-2.271,2.651-3.54,6-3.54,9.465c0,2.688,0.753,5.205,2.049,7.383c-4.973,3.356-11.137,6.683-18.046,10.408 c-21.629,11.662-48.546,26.174-67.375,56.525c-22.298,35.942-27.453,84.902-15.761,149.677l0.074,0.411h228.824l0.074-0.411 C299.828,282.113,294.673,233.153,272.375,197.211z M133.786,200.013c5.117-5.117,10.922-9.119,17.117-12.018 c-10.453,22.365-6.447,49.813,12.018,68.277c18.465,18.467,45.912,22.471,68.277,12.018c-2.896,6.195-6.898,12.002-12.018,17.119 c-23.58,23.582-61.814,23.582-85.395,0C110.204,261.828,110.204,223.595,133.786,200.013z M175.48,216.087 c9.211,9.207,18.42,9.207,27.629,0c-9.209,9.207-9.209,18.418,0,27.628c-9.209-9.21-18.418-9.21-27.629,0 C184.69,234.505,184.69,225.294,175.48,216.087z">
    </path>
  </g>
</svg>