<svg xmlns="http://www.w3.org/2000/svg" viewBox="0 0 347.299 347.299" style="enable-background:new 0 0 347.299 347.299" xml:space="preserve"><path d="M272.375 197.211c-18.829-30.351-45.746-44.863-67.375-56.525-6.909-3.725-13.073-7.052-18.046-10.408a14.384 14.384 0 0 0 2.049-7.383c0-3.462-1.271-6.812-3.544-9.465 7.546-4.099 12.315-11.859 12.315-20.31s-4.77-16.212-12.314-20.315c2.273-2.651 3.543-6.003 3.543-9.472 0-5.342-2.918-10.193-7.67-12.846l-6.195-49.175a1.501 1.501 0 0 0-2.977.001l-6.197 49.175c-4.75 2.653-7.668 7.504-7.668 12.846 0 3.471 1.27 6.823 3.539 9.472-7.545 4.102-12.313 11.864-12.313 20.315 0 8.452 4.769 16.211 12.314 20.31-2.271 2.651-3.54 6-3.54 9.465 0 2.688.753 5.205 2.049 7.383-4.973 3.356-11.137 6.683-18.046 10.408-21.629 11.662-48.546 26.174-67.375 56.525-22.298 35.942-27.453 84.902-15.761 149.677l.074.411h228.824l.074-.411c11.693-64.776 6.538-113.736-15.76-149.678zm-138.589 2.802a60.332 60.332 0 0 1 17.117-12.018c-10.453 22.365-6.447 49.813 12.018 68.277 18.465 18.467 45.912 22.471 68.277 12.018a60.221 60.221 0 0 1-12.018 17.119c-23.58 23.582-61.814 23.582-85.395 0-23.581-23.581-23.581-61.814.001-85.396zm41.694 16.074c9.211 9.207 18.42 9.207 27.629 0-9.209 9.207-9.209 18.418 0 27.628-9.209-9.21-18.418-9.21-27.629 0 9.21-9.21 9.21-18.421 0-27.628z"/></svg>