<svg width="110" height="110" fill="none" xmlns="http://www.w3.org/2000/svg"><path d="M18.889 78.832c.006-2.398.1-4.8-.01-7.193-.095-2.085-.913-3.983-2.06-5.724-1.965-2.984-3.556-6.134-4.274-9.664-.16-.789-.282-1.6-.286-2.402-.025-5.404.098-10.812-.056-16.213-.086-3.047 3.36-6.085 6.817-5.022.13.04.278.023.53.04 0-2.486.007-4.947 0-7.408-.012-3.433 3.203-5.835 6.567-5.175.71.14.78-.036 1.003-.596 1.013-2.546 2.955-3.763 5.374-3.631 2.811.153 4.801 2.01 5.18 4.462 2.903-1.05 6.24.303 7.323 3.915 1.947-.384 3.837-.379 5.503.923 1.163.909 1.897 2.112 1.904 3.576.037 8.411.113 16.824-.03 25.233-.056 3.305-1.303 6.381-2.914 9.287-1.19 2.145-2.894 4.036-3.348 6.553-.149.825-.316 1.658-.334 2.491-.048 2.11-.016 4.223-.113 6.444-1.173.098-2.25.087-3.33-.021-.008-2.674-.014-5.251-.007-7.828.002-.355.062-.71.108-1.063.328-2.521 1.556-4.668 2.9-6.742 2.23-3.44 3.6-7.16 3.63-11.276.054-7.265.017-14.531.012-21.797 0-.39-.014-.793-.105-1.17-.247-1.025-1.08-1.633-2.027-1.53-.952.104-1.723.96-1.728 1.98-.014 2.505-.035 5.011.025 7.516.01.389.342.906.68 1.124.774.5.887 1.178.756 1.956-.133.791-.69 1.153-1.458 1.154-6.084.007-12.169.008-18.254 0-.852-.002-1.445-.425-1.61-1.287-.158-.832.157-1.54.937-1.839.627-.24.669-.632.668-1.16-.007-3.758.003-7.516-.008-11.274-.004-1.393-.633-2.049-1.902-2.053-1.134-.004-1.95.818-1.954 2.086-.016 6.335-.02 12.67.024 19.005.003.374.389.89.738 1.087.963.542 2.012.927 3.008 1.413 4.036 1.967 6.206 5.244 6.719 9.663.138 1.194-.509 2.096-1.539 2.183-1.067.09-1.76-.612-1.88-1.826-.194-1.975-.858-3.725-2.333-5.153-1.788-1.73-4.004-2.586-6.31-3.282-1.423-.43-1.868-.958-1.872-2.45-.006-2.54.007-5.082-.01-7.623-.002-.42-.017-.886-.19-1.252-.404-.855-1.113-1.304-2.092-1.133-.935.164-1.57 1.02-1.572 2.14-.01 4.581-.025 9.163.01 13.744.007 1.064.16 2.133.313 3.19.47 3.233 2.051 6.002 3.762 8.697 1.404 2.211 2.475 4.538 2.553 7.187.077 2.574.011 5.153-.091 7.74-1.182.005-2.265.001-3.347-.002Zm11.407-45.639c0 1.108.041 2.217-.013 3.321-.042.857.3 1.121 1.126 1.1 3.28-.081 2.727.44 2.748-2.67.033-4.536.016-9.073.003-13.608-.005-1.383-.789-2.113-2.057-1.99-1.131.11-1.794.948-1.8 2.382-.017 3.75-.007 7.5-.007 11.465m10.617-9.144c-1.514-.975-2.816-.438-3.15 1.317-.093.487-.15.989-.153 1.484-.015 2.608-.007 5.216-.007 7.825 0 3.017 0 2.994 3.025 2.944.789-.014 1.065-.276 1.059-1.064-.029-3.465.02-6.932-.042-10.396-.013-.667-.398-1.327-.733-2.11Zm23.75 54.767c.002-2.112-.069-4.228.024-6.337.105-2.357-.699-4.431-1.907-6.332-2.051-3.226-3.826-6.547-4.485-10.36-.143-.83-.273-1.677-.275-2.516-.02-8.02.042-16.042-.044-24.062-.027-2.576 2.796-5.5 5.177-5.157.722.103 1.463.076 2.294.113.385-1.443 1.22-2.76 2.665-3.52 1.438-.756 2.986-.978 4.61-.307.613-2.715 2.275-4.223 5.094-4.47 2.303-.202 4.62 1.197 5.382 3.41.236.687.414.909 1.311.764 3.435-.555 6.43 1.963 6.377 5.302-.038 2.427-.007 4.855-.007 7.348 2.487-.631 4.63-.231 6.162 1.783.579.761 1.076 1.808 1.093 2.734.1 5.62.223 11.25-.033 16.86-.107 2.334-.906 4.717-1.797 6.912-.87 2.142-2.392 4.012-3.372 6.12-.69 1.485-1.188 3.145-1.352 4.77-.226 2.233-.055 4.506-.146 6.884a16.829 16.829 0 0 1-3.343-.03c-.005-2.496-.03-4.895.005-7.292.011-.779.138-1.562.277-2.331.425-2.349 1.712-4.305 2.95-6.27 2.002-3.176 3.344-6.58 3.405-10.363.075-4.652.02-9.306.016-13.96-.001-1.484-.798-2.439-1.983-2.407-1.143.03-1.878.956-1.88 2.4-.007 2.541.001 5.083-.004 7.624-.004 1.51-.435 2.057-1.856 2.46-.654.186-1.307.384-1.94.632-3.737 1.461-6.504 3.726-6.756 8.114-.057 1.001-.888 1.61-1.854 1.522-.997-.09-1.656-.935-1.53-2.084.308-2.854 1.305-5.397 3.394-7.458 1.753-1.728 3.927-2.713 6.161-3.59.652-.257.96-.58.958-1.323-.024-6.264-.007-12.528-.02-18.792-.001-1.362-.78-2.195-1.96-2.19-1.303.007-1.897.67-1.9 2.165-.007 3.687.005 7.373-.01 11.06-.002.616.137.968.744 1.346.473.294.816 1.154.816 1.762-.001.812-.625 1.296-1.538 1.294-6.05-.011-12.099-.006-18.148-.006-.801 0-1.425-.29-1.582-1.14-.15-.807-.118-1.558.804-1.997.286-.135.62-.546.625-.835.047-2.684.056-5.37.013-8.053-.019-1.107-1.228-1.912-2.297-1.636-1.053.272-1.55 1.052-1.55 2.501-.005 7.338-.015 14.676.011 22.013.004 1.03.158 2.063.309 3.085.504 3.413 2.21 6.307 3.977 9.183 1.244 2.024 2.283 4.164 2.342 6.598.064 2.683.007 5.368-.097 8.061-1.176.005-2.253.001-3.33-.002Zm11.601-51.209v7.394c0 2.624 0 2.585 2.6 2.622.973.014 1.3-.273 1.29-1.272-.045-4.786-.02-9.572-.022-14.358 0-.286.006-.575-.04-.855-.194-1.186-1.016-1.866-2.143-1.796-1.103.068-1.672.743-1.68 2.05-.014 2-.005 4-.005 6.215Zm-3.44 9.171c.001-3.356.027-6.712-.016-10.067-.01-.765-.13-1.586-.436-2.276-.39-.88-1.306-.95-2.141-.766-1.102.243-1.426 1.187-1.44 2.131-.054 3.677-.043 7.354.003 11.03.003.26.465.7.75.733.846.098 1.714.08 2.564.004.252-.022.473-.385.716-.789Z" fill="#EBB87F"/><path d="M18.818 78.86c1.153-.025 2.236-.021 3.519-.019l20.002-.037c1.076.011 2.153.022 3.329.023 2.13.798 2.676 2.463 2.674 4.447-.003 2.396.05 4.793-.021 7.188-.037 1.24-.119 2.583-1.331 3.344-.676.424-1.484.894-2.236.9-8.26.064-16.522.044-24.782.037-2.05-.001-3.64-1.633-3.643-3.713-.004-2.682.074-5.367-.026-8.046-.072-1.963.712-3.278 2.515-4.123Zm18.912 6.416c-.612.532-.94 1.147-.626 1.98.324.864 1.013 1.171 1.848 1.194.817.023 1.644.026 2.454-.068.945-.11 1.49-.765 1.504-1.673.015-.909-.518-1.648-1.454-1.698-1.19-.062-2.39.1-3.726.265Zm50.364-6.452c1.083.018 2.166.035 3.348.03 2.003.796 2.779 2.216 2.686 4.3-.113 2.534-.096 5.08-.006 7.615.081 2.263-1.703 4.025-4.048 4.004-7.903-.071-15.807-.08-23.709.003-2.618.028-4.196-1.484-4.262-4.16a183.838 183.838 0 0 1-.002-7.83c.031-1.748.688-3.178 2.49-3.938 1.149-.029 2.226-.025 3.503-.017 6.8 0 13.4-.003 20-.007m-20.387 7.077c-.37 1.192-.024 2.217 1.023 2.377 1.14.175 2.356.184 3.483-.029.484-.09 1.053-.877 1.165-1.431.091-.452-.314-1.179-.72-1.522-.976-.827-3.966-.47-4.95.605Z" fill="#F0F4F7"/><path d="M42.334 78.707c-6.596.11-13.196.121-19.898.125-.098-2.585-.032-5.164-.109-7.738-.078-2.649-1.149-4.976-2.553-7.187-1.71-2.695-3.291-5.463-3.762-8.697-.154-1.057-.306-2.126-.313-3.19-.035-4.581-.02-9.163-.01-13.744.002-1.12.637-1.976 1.572-2.14.98-.17 1.688.278 2.092 1.133.173.367.188.831.19 1.252.016 2.541.004 5.082.01 7.624.004 1.491.449 2.018 1.873 2.449 2.305.696 4.52 1.552 6.309 3.282 1.475 1.428 2.139 3.178 2.334 5.153.119 1.214.812 1.917 1.88 1.826 1.03-.087 1.676-.989 1.538-2.183-.513-4.42-2.683-7.696-6.72-9.663-.995-.486-2.044-.871-3.007-1.413-.35-.197-.735-.713-.738-1.087-.044-6.334-.04-12.67-.024-19.005.003-1.268.82-2.09 1.954-2.087 1.27.005 1.898.661 1.902 2.054.011 3.758 0 7.516.008 11.274 0 .528-.04.92-.668 1.16-.78.299-1.095 1.007-.936 1.84.164.86.757 1.284 1.61 1.286 6.084.008 12.169.007 18.253 0 .768-.001 1.325-.363 1.458-1.154.13-.778.018-1.456-.756-1.956-.337-.218-.67-.735-.68-1.124-.06-2.505-.039-5.01-.025-7.516.005-1.02.776-1.876 1.728-1.98.946-.103 1.78.505 2.027 1.53.09.377.105.78.105 1.17.005 7.266.042 14.532-.012 21.797-.03 4.115-1.4 7.835-3.63 11.276-1.344 2.074-2.572 4.22-2.9 6.742-.046.353-.106.708-.108 1.063-.007 2.577 0 5.154.006 7.828Z" fill="#EFC89D"/><path d="M30.296 33.086c0-3.858-.01-7.608.006-11.358.007-1.434.67-2.272 1.8-2.382 1.27-.123 2.053.607 2.058 1.99.013 4.536.03 9.072-.003 13.608-.022 3.11.532 2.589-2.748 2.67-.826.021-1.168-.243-1.126-1.1.054-1.104.013-2.213.013-3.428Z" fill="#EFC89C"/><path d="M40.973 24.109c.274.723.66 1.383.672 2.05.062 3.464.013 6.93.042 10.396.006.788-.27 1.05-1.059 1.063-3.026.051-3.025.074-3.025-2.943 0-2.608-.008-5.217.007-7.825.002-.495.06-.997.152-1.484.336-1.755 1.637-2.292 3.21-1.257Z" fill="#EFC79C"/><path d="M88.09 78.726c-6.596.102-13.196.106-19.896.096-.097-2.697-.04-5.382-.105-8.065-.058-2.434-1.097-4.574-2.341-6.599-1.767-2.875-3.473-5.769-3.977-9.182-.151-1.022-.305-2.056-.309-3.085-.026-7.337-.017-14.675-.012-22.013 0-1.449.498-2.23 1.55-2.5 1.07-.277 2.28.528 2.297 1.635.044 2.684.035 5.369-.012 8.053-.005.29-.339.7-.624.835-.923.439-.955 1.19-.805 1.998.157.848.78 1.138 1.582 1.138 6.05 0 12.099-.004 18.148.007.913.002 1.537-.482 1.538-1.294 0-.608-.343-1.468-.816-1.762-.608-.378-.746-.73-.743-1.346.014-3.686.002-7.373.009-11.06.003-1.496.597-2.158 1.899-2.165 1.181-.005 1.96.828 1.962 2.19.012 6.264-.005 12.528.02 18.792.002.742-.307 1.066-.959 1.322-2.234.878-4.408 1.863-6.161 3.591-2.09 2.06-3.086 4.604-3.395 7.458-.124 1.15.534 1.994 1.531 2.084.966.088 1.797-.52 1.854-1.522.252-4.388 3.019-6.653 6.757-8.115a21.344 21.344 0 0 1 1.939-.63c1.421-.404 1.852-.952 1.856-2.46.006-2.542-.003-5.084.003-7.625.004-1.444.738-2.37 1.881-2.4 1.185-.032 1.982.923 1.983 2.408.005 4.653.059 9.307-.016 13.959-.061 3.783-1.403 7.187-3.404 10.362-1.24 1.966-2.526 3.922-2.951 6.27-.14.77-.266 1.553-.277 2.332-.034 2.397-.01 4.795-.005 7.293Z" fill="#EFC89D"/><path d="M76.264 27.5c0-2.108-.009-4.108.004-6.108.009-1.307.578-1.982 1.681-2.05 1.127-.07 1.949.61 2.143 1.796.046.28.04.57.04.855.002 4.786-.023 9.572.022 14.358.01.999-.317 1.286-1.29 1.272-2.6-.037-2.6.002-2.6-2.622V27.5Z" fill="#EFC89C"/><path d="M72.82 36.877c-.24.305-.46.668-.712.69-.85.076-1.718.094-2.563-.004-.287-.032-.748-.473-.752-.733a406.775 406.775 0 0 1-.002-11.03c.014-.944.338-1.888 1.44-2.13.835-.185 1.75-.115 2.141.765.306.69.426 1.511.436 2.276.043 3.355.017 6.711.012 10.166Z" fill="#EFC79C"/><path d="M37.8 85.226c1.266-.114 2.467-.277 3.656-.215.936.05 1.469.789 1.454 1.698-.014.908-.56 1.563-1.504 1.673-.81.094-1.637.091-2.455.068-.834-.023-1.523-.33-1.847-1.193-.313-.834.014-1.449.696-2.03Zm29.948.603c.944-1.003 3.934-1.36 4.91-.533.406.343.811 1.07.72 1.522-.112.554-.681 1.34-1.165 1.431-1.127.213-2.342.204-3.483.03-1.047-.161-1.393-1.186-.982-2.45Z" fill="#788E99"/></svg>