<svg width="110" height="110" viewBox="0 0 110 110" fill="none" xmlns="http://www.w3.org/2000/svg">
<path d="M18.8889 78.8315C18.8947 76.4339 18.9892 74.0319 18.8794 71.6392C18.7838 69.5537 17.9665 67.6558 16.8197 65.9149C14.8543 62.9314 13.2625 59.7814 12.5454 56.2506C12.3853 55.4623 12.2629 54.6507 12.259 53.8491C12.2343 48.4445 12.3565 43.0366 12.2031 37.6363C12.1166 34.5886 15.5629 31.5513 19.0195 32.6139C19.1499 32.6541 19.2979 32.6371 19.5508 32.6547C19.5508 30.1677 19.5572 27.7071 19.5493 25.2465C19.5385 21.8127 22.7535 19.4105 26.1173 20.0713C26.8263 20.2108 26.8978 20.0348 27.1202 19.4752C28.1327 16.9288 30.0749 15.7117 32.4938 15.8437C35.3051 15.9971 37.2954 17.8539 37.6731 20.306C40.5767 19.2552 43.9143 20.6095 44.9967 24.2206C46.944 23.8369 48.834 23.8421 50.4997 25.1438C51.6628 26.0526 52.3972 27.2555 52.4036 28.7201C52.441 37.1312 52.5173 45.5441 52.3742 53.9529C52.3181 57.2576 51.0714 60.3344 49.4598 63.2401C48.2702 65.3851 46.5665 67.2762 46.1121 69.7935C45.9633 70.6176 45.7963 71.4515 45.7776 72.284C45.7304 74.3946 45.7622 76.5069 45.6653 78.7282C44.4918 78.8264 43.4154 78.8152 42.3341 78.7067C42.3272 76.0328 42.3212 73.4559 42.3285 70.8789C42.3296 70.5244 42.39 70.169 42.436 69.8158C42.7636 67.2947 43.9921 65.1479 45.3359 63.074C47.566 59.6331 48.9356 55.9133 48.9661 51.798C49.0205 44.5326 48.9833 37.2666 48.9777 30.0008C48.9775 29.6102 48.9638 29.208 48.8731 28.8316C48.626 27.8064 47.7922 27.1981 46.8463 27.3013C45.8936 27.4048 45.123 28.2608 45.1176 29.2808C45.1043 31.7863 45.0833 34.2925 45.1434 36.7965C45.1529 37.1858 45.4854 37.7025 45.8234 37.921C46.597 38.4214 46.7098 39.0994 46.5788 39.8774C46.4456 40.6682 45.8887 41.0296 45.1213 41.0306C39.0367 41.0384 32.9521 41.0395 26.8675 41.0306C26.0146 41.0294 25.4223 40.6059 25.2577 39.7444C25.0987 38.9123 25.4139 38.2035 26.1944 37.9051C26.8213 37.6653 26.8628 37.273 26.8619 36.7449C26.8548 32.9869 26.8654 29.2288 26.8542 25.4706C26.8499 24.078 26.221 23.4221 24.952 23.4175C23.8178 23.4137 23.0012 24.2361 22.998 25.5041C22.9818 31.8392 22.9775 38.1745 23.0225 44.5094C23.0252 44.8828 23.4107 45.3993 23.7602 45.5961C24.7227 46.1377 25.7718 46.5231 26.7678 47.0087C30.8043 48.9762 32.974 52.2526 33.4868 56.6723C33.6254 57.866 32.9785 58.7675 31.9484 58.8549C30.8806 58.9456 30.1879 58.2426 30.0685 57.0294C29.874 55.0544 29.21 53.3036 27.7348 51.8764C25.9465 50.146 23.7308 49.2899 21.4257 48.5936C20.0017 48.1635 19.557 47.6362 19.5532 46.1448C19.5467 43.6034 19.5596 41.0622 19.5433 38.5211C19.5405 38.1002 19.5265 37.6355 19.3531 37.2687C18.9492 36.4143 18.2402 35.9651 17.2606 36.1365C16.3256 36.3 15.6911 37.1553 15.6885 38.2759C15.6782 42.8572 15.6643 47.4388 15.6984 52.0199C15.7064 53.0845 15.8585 54.1533 16.0123 55.2103C16.4828 58.4433 18.0634 61.2124 19.7742 63.9072C21.1778 66.118 22.2488 68.4451 22.3274 71.0937C22.4039 73.6682 22.3382 76.247 22.2357 78.8331C21.0538 78.8386 19.9712 78.8352 18.8889 78.8315ZM30.2958 33.1934C30.296 34.3007 30.3375 35.4099 30.2829 36.5144C30.2408 37.3706 30.5828 37.6353 31.4087 37.6144C34.6893 37.5328 34.1355 38.0533 34.1574 34.9439C34.1896 30.4079 34.1733 25.8715 34.1595 21.3357C34.1552 19.9532 33.371 19.2227 32.1028 19.3463C30.9719 19.456 30.3087 20.2937 30.3024 21.7276C30.2859 25.4779 30.2962 29.2282 30.296 33.1934M40.9125 24.049C39.3987 23.074 38.0974 23.6107 37.7625 25.3664C37.6696 25.8534 37.6125 26.3549 37.6097 26.8501C37.5947 29.4583 37.6026 32.0665 37.6026 34.6747C37.6026 37.6922 37.6022 37.669 40.6283 37.6185C41.4167 37.6052 41.6932 37.3435 41.6868 36.555C41.658 33.0896 41.707 29.6233 41.6445 26.1587C41.6324 25.4919 41.2466 24.8319 40.9125 24.049ZM64.6628 78.8159C64.6645 76.7035 64.5941 74.5877 64.6873 72.4793C64.7915 70.1222 63.988 68.0479 62.7797 66.1474C60.7286 62.9211 58.9544 59.5996 58.2953 55.7865C58.1518 54.9564 58.0224 54.1101 58.0203 53.2709C57.9997 45.2504 58.0622 37.2292 57.9765 29.2095C57.9487 26.6327 60.7724 23.7099 63.1527 24.0515C63.8746 24.1551 64.6158 24.1276 65.4466 24.1646C65.8318 22.7217 66.6673 21.4042 68.1121 20.645C69.5501 19.8892 71.0978 19.6674 72.7214 20.3382C73.3348 17.6234 74.9966 16.1146 77.8158 15.8679C80.1195 15.6664 82.4358 17.0646 83.198 19.2786C83.4344 19.9652 83.6123 20.1869 84.5094 20.0421C87.9437 19.4874 90.9393 22.0052 90.8864 25.3445C90.8478 27.7711 90.8789 30.1993 90.8789 32.6921C93.3659 32.0609 95.5097 32.4607 97.0415 34.4755C97.6196 35.2361 98.1174 36.2832 98.134 37.209C98.2335 42.8287 98.3568 48.4591 98.1007 54.0689C97.9941 56.4031 97.1947 58.7858 96.3037 60.9815C95.4345 63.1235 93.9121 64.9926 92.9322 67.1002C92.2415 68.5859 91.7445 70.2464 91.5802 71.8713C91.3544 74.1041 91.5247 76.3772 91.4341 78.7548C90.3213 78.8561 89.2013 78.8463 88.0905 78.7256C88.0855 76.2285 88.0617 73.8302 88.0963 71.4325C88.1074 70.6542 88.2338 69.8711 88.373 69.1019C88.7977 66.7532 90.0849 64.7971 91.3236 62.8311C93.3247 59.6557 94.6666 56.2519 94.7276 52.4687C94.8028 47.8169 94.7489 43.1628 94.7442 38.5095C94.7427 37.0253 93.9462 36.0701 92.7612 36.1015C91.6175 36.1318 90.8834 37.0584 90.8802 38.5022C90.8742 41.0435 90.8823 43.5849 90.8768 46.1263C90.8731 47.6354 90.4424 48.1828 89.0207 48.5867C88.3674 48.7723 87.7138 48.9702 87.0818 49.2175C83.3439 50.6793 80.5767 52.9444 80.3251 57.3319C80.2678 58.3331 79.4374 58.942 78.471 58.8541C77.4742 58.7638 76.8152 57.9193 76.9401 56.7697C77.2494 53.9159 78.2455 51.3728 80.3348 49.3124C82.0877 47.5838 84.2619 46.5994 86.4961 45.7213C87.1479 45.465 87.4569 45.1413 87.4541 44.399C87.4298 38.1352 87.4466 31.8712 87.4348 25.6072C87.4326 24.2451 86.6542 23.412 85.4732 23.4175C84.1706 23.424 83.5766 24.0863 83.5738 25.5821C83.5667 29.2688 83.5785 32.9555 83.5646 36.6422C83.5622 37.2578 83.7006 37.6101 84.3083 37.9878C84.781 38.2817 85.1235 39.142 85.1235 39.7504C85.123 40.5621 84.4993 41.0459 83.5856 41.0444C77.5365 41.0326 71.4873 41.038 65.4382 41.0375C64.6368 41.0375 64.0127 40.7471 63.8559 39.8988C63.7063 39.0906 63.7377 38.3397 64.6605 37.9014C64.9462 37.7657 65.2803 37.3555 65.2854 37.0657C65.3325 34.3821 65.3415 31.6968 65.2975 29.0129C65.2794 27.9061 64.0696 27.1013 63.0008 27.3771C61.9481 27.6489 61.4509 28.4292 61.4501 29.8781C61.4458 37.2159 61.4361 44.5537 61.4625 51.8912C61.4664 52.9203 61.62 53.9544 61.771 54.9762C62.2751 58.3892 63.9807 61.2831 65.7478 64.1586C66.9922 66.1835 68.0307 68.3229 68.0896 70.7571C68.154 73.4398 68.0967 76.1254 67.9933 78.818C66.8171 78.8227 65.7398 78.8193 64.6628 78.8159ZM76.264 27.6074V35.0008C76.264 37.6247 76.2644 37.5856 78.8636 37.623C79.8368 37.637 80.1634 37.3499 80.1541 36.3507C80.109 31.5651 80.1344 26.7788 80.1322 21.9927C80.132 21.7074 80.138 21.4176 80.0923 21.138C79.8976 19.9521 79.0763 19.2721 77.9492 19.3417C76.8462 19.4098 76.2768 20.0851 76.2682 21.3922C76.2551 23.3924 76.2642 25.3926 76.264 27.6074ZM72.8243 36.778C72.8252 33.4222 72.8514 30.0663 72.8078 26.7111C72.7977 25.946 72.6782 25.1253 72.3721 24.4353C71.9815 23.5553 71.066 23.485 70.2309 23.6691C69.1292 23.9119 68.8052 24.8557 68.7915 25.8004C68.7373 29.4766 68.7476 33.1543 68.7936 36.8305C68.7966 37.0898 69.2585 37.5306 69.5447 37.5635C70.3899 37.6613 71.2581 37.643 72.1082 37.5672C72.3596 37.5448 72.5809 37.1819 72.8243 36.778Z" fill="#EBB87F"/>
<path d="M18.8184 78.8605C19.9712 78.8352 21.0538 78.8386 22.3369 78.8412C29.138 78.8283 35.7384 78.8163 42.3388 78.804C43.4152 78.8152 44.4916 78.8264 45.6676 78.8268C47.7978 79.625 48.3439 81.2898 48.3418 83.2741C48.3392 85.67 48.3912 88.0675 48.3205 90.4615C48.284 91.7026 48.2024 93.0452 46.9896 93.8057C46.3137 94.2296 45.5059 94.7003 44.7539 94.7059C36.4936 94.7697 28.2324 94.7497 19.9717 94.7435C17.9225 94.7418 16.3329 93.1096 16.3292 91.0297C16.3249 88.3478 16.4027 85.6629 16.3034 82.9845C16.2308 81.0208 17.0146 79.7062 18.8184 78.8605ZM37.7302 85.2758C37.1179 85.8084 36.7909 86.423 37.104 87.2569C37.4279 88.1201 38.1167 88.4271 38.9516 88.4503C39.7691 88.4731 40.5956 88.4761 41.406 88.3816C42.3507 88.272 42.8955 87.6167 42.9101 86.7094C42.9249 85.8002 42.3923 85.0609 41.456 85.0113C40.2667 84.9486 39.0655 85.1116 37.7302 85.2756V85.2758ZM88.0945 78.8244C89.1771 78.8421 90.2599 78.8595 91.4418 78.8545C93.4454 79.6495 94.221 81.0696 94.1282 83.1544C94.0154 85.6883 94.0318 88.2337 94.1222 90.7693C94.203 93.0316 92.4193 94.7944 90.0739 94.7734C82.1715 94.7016 74.2674 94.6928 66.3652 94.7762C63.7469 94.8037 62.1687 93.2922 62.1025 90.6168C62.0381 88.0079 62.0538 85.3957 62.1006 82.786C62.1322 81.0376 62.7887 79.6082 64.5917 78.8479C65.7398 78.8193 66.8171 78.8227 68.0943 78.8307C74.8945 78.8315 81.4945 78.8279 88.0943 78.8242M67.7074 85.9012C67.3368 87.0931 67.6831 88.1175 68.73 88.2782C69.8709 88.4531 71.0858 88.4617 72.2133 88.2494C72.6967 88.1585 73.2656 87.3724 73.3778 86.8177C73.4693 86.3659 73.0645 85.6393 72.6584 85.296C71.6816 84.4695 68.6924 84.8261 67.7074 85.9012Z" fill="#F0F4F7"/>
<path d="M42.3341 78.7069C35.7384 78.8163 29.138 78.8283 22.4364 78.8322C22.3384 76.247 22.4041 73.6682 22.3274 71.0935C22.2488 68.4451 21.178 66.1179 19.7742 63.907C18.0634 61.2124 16.4828 58.4435 16.0123 55.2103C15.8585 54.1533 15.7064 53.0845 15.6987 52.0199C15.6643 47.4388 15.6782 42.8572 15.6886 38.2759C15.6911 37.1553 16.3256 36.3 17.2608 36.1365C18.2405 35.9651 18.9492 36.4143 19.3534 37.2687C19.5265 37.6355 19.5405 38.1002 19.5433 38.5211C19.5594 41.0622 19.5469 43.6034 19.5532 46.1448C19.557 47.6362 20.0018 48.1635 21.4257 48.5936C23.7308 49.2899 25.9465 50.146 27.7348 51.8764C29.21 53.3036 29.874 55.0544 30.0685 57.0294C30.1879 58.2429 30.8806 58.9456 31.9484 58.8549C32.9785 58.7675 33.6254 57.866 33.4869 56.6721C32.974 52.2528 30.8043 48.9762 26.7678 47.0085C25.7718 46.5231 24.723 46.1377 23.7602 45.5961C23.4107 45.3993 23.0253 44.8828 23.0225 44.5094C22.9776 38.1745 22.9816 31.8392 22.998 25.5043C23.0012 24.2361 23.8178 23.4139 24.952 23.4175C26.2211 23.4218 26.8499 24.078 26.8542 25.4706C26.8654 29.2288 26.8548 32.9869 26.8619 36.7452C26.8628 37.273 26.8211 37.6653 26.1944 37.9051C25.4139 38.2037 25.0987 38.9123 25.2577 39.7444C25.4223 40.6059 26.0146 41.0294 26.8675 41.0306C32.9519 41.0395 39.0367 41.0384 45.1213 41.0306C45.8887 41.0296 46.4458 40.6682 46.5788 39.8774C46.7098 39.0994 46.5971 38.4214 45.8234 37.921C45.4855 37.7025 45.1529 37.1858 45.1434 36.7965C45.0833 34.2925 45.1043 31.7863 45.1176 29.2808C45.123 28.2608 45.8937 27.4048 46.8463 27.3013C47.7922 27.1981 48.626 27.8064 48.8731 28.8316C48.9638 29.2082 48.9775 29.6102 48.9777 30.0008C48.9833 37.2666 49.0205 44.5328 48.9661 51.798C48.9356 55.9133 47.5658 59.6333 45.3359 63.074C43.9921 65.1479 42.7636 67.2946 42.436 69.8158C42.39 70.169 42.3296 70.5244 42.3285 70.8789C42.3212 73.4557 42.3272 76.0328 42.3341 78.7069Z" fill="#EFC89D"/>
<path d="M30.296 33.0859C30.2962 29.2282 30.2859 25.4779 30.3024 21.7276C30.3086 20.2939 30.9719 19.456 32.1028 19.346C33.3712 19.2227 34.1552 19.9532 34.1595 21.3355C34.1733 25.8715 34.1896 30.4079 34.1574 34.9437C34.1354 38.0533 34.6891 37.533 31.4089 37.6146C30.5828 37.6353 30.2408 37.3706 30.2831 36.5144C30.3374 35.4099 30.296 34.3007 30.296 33.0859Z" fill="#EFC89C"/>
<path d="M40.9729 24.1087C41.2466 24.8319 41.6324 25.4919 41.6445 26.1587C41.7068 29.6233 41.658 33.0896 41.6868 36.555C41.6932 37.3435 41.4167 37.6052 40.6282 37.6185C37.6022 37.669 37.6026 37.6922 37.6026 34.6747C37.6026 32.0665 37.5949 29.4583 37.6097 26.8501C37.6125 26.3549 37.6696 25.8532 37.7624 25.3664C38.0976 23.6107 39.3987 23.074 40.9729 24.1087Z" fill="#EFC79C"/>
<path d="M88.0902 78.7256C81.4945 78.8279 74.8945 78.8315 68.1936 78.8223C68.0969 76.1254 68.154 73.4398 68.0894 70.7571C68.0307 68.3229 66.9921 66.1835 65.7476 64.1584C63.9807 61.2831 62.275 58.3892 61.7708 54.9759C61.62 53.9544 61.4664 52.9203 61.4625 51.8912C61.4361 44.5537 61.4455 37.2159 61.45 29.8783C61.4509 28.4292 61.9478 27.6489 63.0008 27.3771C64.0696 27.1013 65.2794 27.9061 65.2975 29.0129C65.3415 31.6968 65.3325 34.3819 65.2854 37.0657C65.2803 37.3555 64.946 37.7657 64.6605 37.9014C63.7379 38.3397 63.7065 39.0906 63.8559 39.8986C64.0127 40.7471 64.6368 41.0373 65.4382 41.0373C71.4873 41.0377 77.5365 41.0326 83.5856 41.0444C84.4993 41.0461 85.123 40.5621 85.1235 39.7504C85.1235 39.142 84.7808 38.2817 84.3083 37.9878C83.7003 37.6101 83.5622 37.2578 83.5646 36.6425C83.5785 32.9557 83.5667 29.269 83.5738 25.5823C83.5766 24.0863 84.1706 23.4238 85.473 23.4175C86.6542 23.412 87.4324 24.2453 87.435 25.6072C87.4466 31.8712 87.4298 38.1352 87.4541 44.399C87.4569 45.141 87.1479 45.465 86.4961 45.7213C84.2617 46.5994 82.0875 47.5838 80.3348 49.3124C78.2455 51.3728 77.2494 53.9159 76.9401 56.7697C76.8155 57.9191 77.4739 58.7636 78.471 58.8541C79.4374 58.942 80.2678 58.3333 80.3251 57.3319C80.5767 52.9444 83.3437 50.6793 87.082 49.2173C87.7138 48.9702 88.3674 48.7725 89.0207 48.5867C90.4423 48.1828 90.8731 47.6354 90.8768 46.1263C90.8826 43.5847 90.8742 41.0435 90.8802 38.5022C90.8836 37.0584 91.6175 36.1318 92.7612 36.1015C93.9462 36.0701 94.7427 37.0253 94.7442 38.5095C94.7489 43.1628 94.8026 47.8169 94.7276 52.4687C94.6668 56.2519 93.3247 59.6557 91.3236 62.8311C90.0848 64.7969 88.7977 66.7532 88.373 69.1019C88.2338 69.8711 88.1074 70.6542 88.0963 71.4325C88.0617 73.8302 88.0855 76.2285 88.0905 78.7256H88.0902Z" fill="#EFC89D"/>
<path d="M76.2639 27.5C76.2642 25.3924 76.2551 23.3922 76.2682 21.392C76.2768 20.0851 76.8462 19.4098 77.9492 19.3417C79.0762 19.2721 79.8978 19.9519 80.0922 21.1378C80.138 21.4176 80.132 21.7074 80.1322 21.9927C80.1344 26.7788 80.1088 31.5651 80.1541 36.3507C80.1636 37.3497 79.8368 37.637 78.8635 37.623C76.2644 37.5856 76.2639 37.6247 76.2639 35.0008V27.5Z" fill="#EFC89C"/>
<path d="M72.82 36.8766C72.5806 37.1817 72.3596 37.5448 72.1082 37.5671C71.2581 37.6428 70.3899 37.6612 69.5447 37.5635C69.2585 37.5306 68.7966 37.0898 68.7934 36.8304C68.7476 33.1543 68.7373 29.4766 68.7912 25.8004C68.8052 24.8557 69.1292 23.9119 70.2307 23.6691C71.066 23.485 71.9816 23.5553 72.372 24.4353C72.6782 25.1253 72.7976 25.946 72.8077 26.7111C72.8513 30.0663 72.8251 33.4224 72.82 36.8766Z" fill="#EFC79C"/>
<path d="M37.7996 85.2264C39.0655 85.1116 40.2667 84.9486 41.4562 85.0115C42.3923 85.0609 42.9249 85.8 42.9101 86.7094C42.8955 87.6167 42.3506 88.2718 41.406 88.3818C40.5956 88.4759 39.7691 88.4731 38.9514 88.4503C38.1167 88.4271 37.4281 88.1201 37.1039 87.2569C36.7909 86.4231 37.1179 85.8084 37.7996 85.2266V85.2264ZM67.748 85.8294C68.6924 84.8261 71.6818 84.4695 72.6584 85.296C73.0645 85.6393 73.4693 86.3659 73.3779 86.8177C73.2656 87.3724 72.6969 88.1583 72.2135 88.2494C71.0858 88.4617 69.8706 88.4531 68.7302 88.2782C67.6831 88.1175 67.3368 87.0932 67.748 85.8294Z" fill="#788E99"/>
</svg>
