<svg viewBox="0 0 500 500" xmlns="http://www.w3.org/2000/svg" width="500" height="500">
  <path
    d="M248.86 7.461c-13.542 20.398-38.223 28.391-60.052 36.666-20.577 7.743-41.122 15.513-62.461 20.876-27.17 8.206-55.575 14.398-80.226 28.972-4.645 1.99 3.081 2.788 4.015 5.386 10.789 13.038 10.221 31.532 8.196 47.473-2.833 17.929-12.883 33.724-16.192 51.521-11.228 45.686-6.563 94.878 12.278 137.771 6.02 19.161 6.422 41.72-4.148 59.383-1.116 2.941-6.023 5.324-6.457 7.16 21.27 14.069 46.744 19.813 70.792 27.232 24.122 6.647 48.197 13.426 71.058 23.754 22.391 9.491 46.9 18.442 62.829 37.704 2.111 3.582 4.377-3.915 6.926-5.218 22.571-22.834 55.053-30.647 83.805-42.79 36.307-12.535 75.027-19.094 108.994-37.302 2.035-1.773 8.78-3.831 3.379-5.956-14.438-14.09-13.769-36.812-9.568-55.033 5.018-16.899 13.154-32.848 16.159-50.317 9.391-44.429 5.826-92.31-13.885-133.488-6.381-18.333-7.98-40.217 1.606-57.778 1.402-3.323 5.731-5.902 7.36-7.862-22.503-14.933-49.335-20.883-74.838-28.938-22.659-6.106-44.894-13.375-66.71-22.181-20.334-8.144-42.705-15.02-58.178-31.281-1.877-1.317-3.473-6.1-4.684-5.754h.002Zm-.534 33.856c.436-.016.893-.017 1.337 0 14.45-.632 24.638 17.42 16.461 29.407-6.897 12.593-27.351 12.073-33.556-.904-6.946-11.89 2.233-27.995 15.758-28.503Zm-39.11 18.3c1.32-.119-.459 2.695 0 4.684-12.998 3.526-26.91 8.848-39.042 15.79-19.701 7.01-37.453 22.746-41.651 43.793-6.908-.075-14.064.229-20.776 2.275-13.988 3.297-21.548 16.649-28.604 27.969 3.238-15.165 3.841-31.279-.77-46.235-3.316-4.657 1.57-5.637 5.32-7.027 42.358-12.333 84.321-25.652 125.523-41.25v.001Zm81.697.234c42.595 18.655 88.845 26.983 131.916 44.363-4.885 15.347-5.982 31.974-2.743 47.773-7.706-19.087-28.62-30.464-48.811-28.771-2.302-13.189-10.596-24.819-21.345-32.552-18.437-9.381-38.42-21.608-58.97-26.065l-.047-4.748Zm-75.005 24.457c12.085 1.025 19.74 12.618 26.864 21.177 2.483 2.774 4.869 7.69 7.026 9.466 8.136-11.48 16.569-24.528 30.009-30.142 11.593-1.577 21.88 6.415 32.318 10.271 11.112 5.383 23.284 10.391 32.15 19.002 6.526 9.387 5.114 21.553 7.56 32.251 13.231-.56 28.458-4.904 40.382 2.777 14.721 19.115 23.779 42.407 28.704 65.94 9.165 45.741-.621 95.319-27.836 133.317-10.238 7.585-24.238 4.71-36.097 4.182-6.298-2.619-5.357 3.638-5.822 8.13-1.151 11.037-3.192 24.736-14.786 29.741-14.765 8.985-30.576 16.413-46.803 22.281-11.285 4.986-20.646-5.798-27.334-13.282-4.558-5.313-8.721-11.026-12.68-16.828-8.683 11.333-16.534 25.236-30.243 30.946-11.195 1.519-21.211-6.068-31.248-9.902-11.562-5.4-23.598-10.96-33.287-19.237-7.279-9.096-8.08-21.437-7.964-32.619-13.075-.181-27.935 5.007-39.812-2.443-26.804-36.517-37.212-84.286-29.674-128.906 4.34-25.339 13.796-50.291 29.273-70.892 10.934-7.453 25.357-3.42 37.672-3.244 5.557 1.8 2.357-6.457 3.813-9.502 1.021-11.193 3.85-24.646 15.591-29.44 14.519-8.73 30.041-15.976 45.933-21.745 2.072-.518 4.146-1.176 6.29-1.306l.001.007ZM420.921 344.99c-3.426 16.264-3.773 33.966 2.809 49.58-41.579 15.837-86.051 25.171-127.225 42.79-4.785 3.232-6.604 2.464-6.088-3.045 14.319-2.233 27.405-8.901 40.012-15.691 19.578-6.677 37.129-22.41 41.351-43.256 7.382-.025 15.291-.537 22.448-3.112 13.105-3.662 19.823-16.291 26.53-26.998l.167-.268h-.004Zm-341.778.268c.067-.047.524.96.737 1.27 7.366 18.808 27.936 30.549 47.94 28.972 2.701 13.039 11.227 24.335 21.813 32.084 18.072 9.131 35.36 20.947 55.336 25.827 5.182-.256 5.416 2.376 4.448 6.724-42.371-20.621-90.022-28.279-133.884-45.498 4.657-15.315 6.971-32.978 3.613-49.313-.008-.056-.009-.06 0-.066h-.003Zm169.181 75.709c.436-.017.894-.017 1.338 0 14.45-.632 24.638 17.42 16.461 29.407-6.875 12.645-27.38 12.106-33.556-.904-6.946-11.89 2.233-27.995 15.757-28.503Z"
    fill-rule="evenodd" style="fill:#b9a0ff;fill-rule:evenodd" />
</svg>