<svg xmlns="http://www.w3.org/2000/svg" width="695" height="956"><path d="M0 0h695v956H0V0Z" fill="#232C61"/><path d="M0 0h695v956H0V0Zm5 353c-.051 54.678-.1 109.355-.127 164.033l-.001 2.452a684050.087 684050.087 0 0 0-.037 78.632l-.001 2.6c-.013 27.82-.035 55.638-.063 83.457a110376.723 110376.723 0 0 0-.056 100.28c-.004 12.793-.018 25.586-.035 38.378-.018 12.86-.025 25.72-.02 38.58.002 7.641-.004 15.282-.022 22.923-.013 5.706-.01 11.411 0 17.117 0 2.308-.003 4.617-.013 6.925-.012 3.138-.005 6.275.006 9.413l-.024 2.715c.09 11.24 3.48 19.51 11.35 27.475 7.14 6.622 13.336 7.315 22.808 7.266l3.305.007c3.675.005 7.35-.004 11.024-.012 2.654 0 5.307.002 7.96.005 5.779.004 11.558 0 17.336-.008 8.593-.012 17.186-.012 25.778-.01 14.454.002 28.908-.005 43.362-.017 14.313-.011 28.627-.02 42.94-.021h2.696l13.554-.003c32.008-.004 64.016-.017 96.025-.036 31.097-.018 62.195-.033 93.293-.041h2.904a1878418.958 1878418.958 0 0 1 87.693-.025l2.732-.001c60.211-.019 120.422-.05 180.633-.084v-2l2.063-.625c6.994-3.274 11.446-8.59 14.937-15.375l1.05-2.023c1.35-4.233 1.221-8.217 1.196-12.635l.007-2.98c.005-3.315-.004-6.63-.012-9.944 0-2.393.002-4.786.005-7.178.003-5.212 0-10.424-.008-15.636-.012-7.75-.012-15.5-.01-23.251.002-13.037-.005-26.073-.017-39.11a51792.396 51792.396 0 0 1-.024-53.386c-.004-28.87-.017-57.74-.036-86.61-.018-28.049-.033-56.097-.041-84.146v-2.62a1528134.37 1528134.37 0 0 1-.025-79.092l-.001-2.464c-.019-54.309-.05-108.617-.084-162.925-2.035-.02-4.07-.035-6.105-.047l-3.435-.026c-7.814.165-14.723 1.292-21.55 5.147-2.083 1.01-3.88 1.367-6.16 1.738-11.702 2.365-21.192 11.342-29.75 19.188l-1.563 1.426c-8.899 8.224-15.835 17.48-22.71 27.412-13.764 19.873-28.174 33.393-51.774 40.533-2.044.658-4.017 1.43-6.012 2.223-18.952 7.14-43.68 2.607-61.565-5.462-9.465-4.395-17.53-9.256-25.376-16.132l-1.996-1.73c-8.126-7.6-14.472-17.255-20.3-26.653-2.912-4.474-6.26-8.546-9.704-12.617l-2.086-2.496c-14.832-17.161-35.768-31.07-58.917-32.905-4.083-.215-8.159-.214-12.247-.161l-2.177.013c-23.124.203-42.484 7-60.573 21.549l-2.063 1.566c-9.387 7.552-16.231 18.077-22.597 28.176-15.958 25.307-34.789 40.622-64.027 48.195-27.264 5.061-53.906-2.033-76.563-17.437-3.609-2.587-6.76-5.196-9.75-8.5l-1.723-1.816c-4.06-4.383-7.657-8.988-11.09-13.872C89.543 399.44 81.668 389.175 72 380l-2.45-2.473C58.503 366.58 45.81 359.627 31 355l-2.082-.684c-5.23-1.45-10.34-1.407-15.723-1.363l-2.39.01c-1.935.01-3.87.023-5.805.037Z" fill="#8577B6"/><path d="m346.313 177.813 2.841.003c56.772.147 56.772.147 74.846 9.184v2l2.848.309c5.013.716 9.764 2.256 14.59 3.754l2.794.853c2.258.69 4.513 1.385 6.768 2.084v2l1.871.516c8.427 2.411 15.968 5.721 23.578 10.047 3.182 1.792 6.396 3.522 9.613 5.25 1.689.906 1.689.906 3.41 1.832L492 217v2l2.125.813c3.04 1.255 5.948 2.69 8.875 4.187v2l1.656.785c2.719 1.41 5.264 3.004 7.844 4.653l2.844 1.808c4.731 3.124 4.731 3.124 6.656 4.754v2h3c1.473 1.469 1.473 1.469 3.063 3.5 3.46 4.149 7.302 7.308 11.558 10.61 3.071 2.44 5.747 4.981 8.379 7.89v2l1.672.625c3.195 1.887 5.265 4.535 7.578 7.375l1.47 1.778a838.17 838.17 0 0 1 2.93 3.57 421.369 421.369 0 0 0 3.495 4.207C573.457 291.61 580.458 302.733 587 314l1.79 2.95C600.635 336.89 610.355 359.22 615 382h3c-1.411 3.175-3.115 5.363-5.5 7.875-3.451 3.801-6.488 7.747-9.438 11.938a8093.114 8093.114 0 0 0-3.823 5.434C584.167 428.572 568.873 441.559 544 450a442.798 442.798 0 0 0-4.438 1.75c-21.434 7.521-46.437 1.329-66.163-7.943-19.258-9.377-32.582-25.272-43.696-43.19-2.912-4.475-6.262-8.542-9.703-12.617l-2.016-2.46c-9.82-11.531-22.092-20.535-35.984-26.54l-1.884-.821c-20.802-8.52-49.822-6.785-70.264 1.714-9.065 3.94-17.12 8.933-24.852 15.107l-1.84 1.344c-9.13 7.046-15.732 17.745-21.822 27.4-16.258 25.765-35.043 41.427-65.026 49.193-25.783 4.786-52.504-1.137-74.125-15.851-4.768-3.386-9.256-6.73-13.187-11.086l-1.719-1.813c-4.558-4.92-8.499-10.17-12.34-15.655-3.187-4.531-6.513-8.93-9.941-13.282l-1.421-1.807C81.797 391.193 80.03 389.03 78 387c.51-3.107 1.164-5.974 2-9l.75-2.746c8.511-29.22 21.682-58.048 40.25-82.254a5548.44 5548.44 0 0 0 3.063-4.125 702.402 702.402 0 0 1 8.085-10.512 556.948 556.948 0 0 0 3.829-4.945c3.967-5.109 7.862-9.496 13.023-13.418h2l.805-1.758c3.298-6.187 8.522-10.737 14.16-14.746 2.124-1.562 4.07-3.239 6.035-4.996 7.767-6.89 16.292-13.01 25.438-17.938 4.267-2.301 8.12-5.021 12.007-7.914 3.055-1.97 6.2-3.254 9.555-4.648a577.445 577.445 0 0 0 6.938-3.5C238.779 198 238.779 198 244 198v-2c22.842-8.055 45.835-14.618 70-17l2.58-.283c9.891-.98 19.802-.918 29.733-.905Z" fill="#FBD2A9"/><path d="M0 0h695v956h-4v-2.43a593547.768 593547.768 0 0 0-.155-396.675 189072.617 189072.617 0 0 1-.04-132.375c-.003-32.197-.007-64.395-.029-96.592l-.001-2.006a231378.567 231378.567 0 0 0-.048-61.168l-.004-3.879c-.016-20.613-.015-41.227-.008-61.84.007-20.718-.004-41.435-.034-62.153-.017-12.312-.02-24.625-.003-36.938.01-8.223.001-16.447-.022-24.671-.012-4.687-.017-9.373 0-14.06.016-4.267.008-8.534-.017-12.802-.005-1.53-.002-3.06.01-4.59.099-12.889-2.141-24.394-11.395-33.946-6.01-4.999-12.974-7.996-20.798-8.004l-2.77-.01-3.036.005-3.244-.007c-3.617-.007-7.234-.007-10.85-.006l-7.823-.011c-6.434-.01-12.868-.014-19.301-.016-7.705-.003-15.41-.011-23.113-.02-18.623-.021-37.246-.032-55.868-.04l-26.424-.015a260697.89 260697.89 0 0 0-96.115-.042h-2.844l-14.267-.004h-2.86c-30.605-.009-61.21-.032-91.815-.065a101287.885 101287.885 0 0 0-107.702-.058h-2.65c-14.075-.003-28.15-.019-42.226-.04-14.145-.02-28.29-.025-42.437-.016-8.405.006-16.81 0-25.215-.022-6.274-.015-12.549-.01-18.823.005-2.54.002-5.08-.002-7.62-.014-3.45-.015-6.898-.006-10.348.01l-2.994-.031c-8.996.09-16.918 2.602-23.58 8.823-5.568 6.193-8.773 13.116-8.793 21.517l-.022 3.467.006 3.779a2846.087 2846.087 0 0 0-.038 15.113c-.004 3.983-.02 7.967-.033 11.95-.023 6.9-.038 13.8-.048 20.7-.014 9.976-.04 19.952-.068 29.928-.045 16.186-.082 32.371-.113 48.557-.03 15.722-.065 31.444-.105 47.167l-.007 2.937-.037 14.586C5.169 270.332 5.08 310.666 5 351h11v1H5c.044 54.773.092 109.546.159 164.319l.003 2.456a690431.471 690431.471 0 0 0 .1 78.77l.004 2.605c.035 27.867.061 55.734.082 83.601a111407.046 111407.046 0 0 0 .119 100.456c.018 12.814.027 25.63.031 38.444.005 12.883.02 25.765.048 38.648.015 7.654.022 15.308.018 22.962-.003 5.716.01 11.431.03 17.147.005 2.312.005 4.625 0 6.937-.007 3.143.005 6.286.021 9.429l-.019 2.72c.107 11.125 3.435 19.194 11.033 27.229C20.916 951.77 25.335 953.536 31 955v1H0V0Z" fill="#F4C9CD"/><path d="M691 0h4v956h-4V0Z" fill="#FFF"/><path d="M689 28c2 2 2 2 2.25 4.685l-.002 3.5.008 1.957c.006 2.189-.002 4.377-.01 6.566l.007 4.744c.006 4.382 0 8.764-.008 13.146-.007 4.754-.003 9.507 0 14.26.005 8.344.002 16.687-.007 25.03-.012 12.406-.012 24.812-.01 37.218.002 20.866-.005 41.731-.017 62.597-.011 20.669-.02 41.338-.021 62.007v3.89a1246173.687 1246173.687 0 0 0-.008 59.326v2.01a392221.1 392221.1 0 0 1-.031 96.845l-.014 33.615v2.106a476626.907 476626.907 0 0 0-.028 103.208l-.013 73.02c-.019 106.09-.06 212.18-.096 318.27H31v-1l1.673.002c60.098.058 120.196.104 180.294.093h2.72c19.511-.004 39.022-.01 58.533-.018l28.704-.01h2.885c30.86-.01 61.72.008 92.58.042a45368.588 45368.588 0 0 0 108.58-.003l2.672-.002c14.19-.012 28.381.008 42.572.039 14.267.03 28.534.028 42.801-.008 8.476-.02 16.952-.015 25.428.026 5.665.025 11.33.017 16.995-.017 3.226-.019 6.45-.019 9.677.012 17.342.454 17.342.454 31.858-7.812 2.817-3.256 5.254-6.412 7.028-10.344l1.038-2.017c1.365-4.234 1.241-8.218 1.224-12.64l.012-2.98c.01-3.316.008-6.63.004-9.945.005-2.393.011-4.786.018-7.178.013-5.212.019-10.424.02-15.636.001-7.75.014-15.5.03-23.251.024-13.037.04-26.073.05-39.11.011-12.91.026-25.82.046-38.73l.004-2.432.019-12.224c.046-28.87.082-57.74.113-86.61.03-28.049.065-56.097.105-84.146l.003-2.62a1534775.919 1534775.919 0 0 1 .113-79.092l.003-2.464c.076-54.309.138-108.617.198-162.925h-16v-1c5.542-.943 10.222-1 16-1V28Z" fill="#AD7D93"/><path d="M4 352h1l.003 3.682c.043 53.545.09 107.091.156 160.637l.003 2.456a690431.471 690431.471 0 0 0 .1 78.77l.004 2.605c.035 27.867.061 55.734.082 83.601a111407.046 111407.046 0 0 0 .119 100.456c.018 12.814.027 25.63.031 38.444.005 12.883.02 25.765.048 38.648.015 7.654.022 15.308.018 22.962-.003 5.716.01 11.431.03 17.147.005 2.312.005 4.625 0 6.937-.007 3.143.005 6.286.021 9.429l-.019 2.72c.107 11.125 3.435 19.194 11.033 27.229C20.916 951.77 25.335 953.536 31 955v1H0v-26h4V352Z" fill="#DDB5C0"/><path d="M36 0h655v30c-2.345-2.345-2.677-3.912-3.625-7.063C684.42 14.648 679.584 9.044 671.75 5c-4.474-2.052-8.338-3.124-13.267-3.13l-2.75-.012-3.017.003-3.222-.008c-3.593-.009-7.186-.01-10.778-.011l-7.77-.015c-5.645-.011-11.291-.019-16.937-.024-8.396-.007-16.79-.02-25.186-.034-14.121-.024-28.243-.043-42.364-.06-13.985-.016-27.971-.035-41.957-.056l-2.633-.004-13.238-.02c-31.272-.048-62.544-.091-93.816-.132-30.384-.039-60.768-.08-91.151-.125l-2.838-.004a3608570.984 3608570.984 0 0 1-88.335-.128C153.66 1.155 94.83 1.077 36 1V0Z" fill="#E9BFC8"/><path d="M0 931h6l1.066 2.379c4.55 9.68 8.772 15.877 18.918 19.797C28 954 28 954 31 956H0v-25Z" fill="#ECC1C7"/><path d="M165 246v2l-1.777.75c-2.55 1.434-3.934 2.997-5.786 5.25-2.11 2.558-3.637 4.133-6.437 6 1.42-3.153 3.15-5.538 5.438-8.125l1.808-2.07C161.944 246 161.944 246 165 246Zm-16 14 2 1c-8.563 9.945-8.563 9.945-12 13h-3c3.79-5.47 7.75-9.9 13-14Z" fill="#E3C2B2"/><path d="m33 2-16 8c1.747-4.243 3.86-5.367 7.89-7.25C27.668 1.763 30.086 1.708 33 2Z" fill="#6868AD"/><path d="M612 373c2.125 3.188 2.502 5.265 3 9h3c-1.75 3.875-1.75 3.875-4 5-.338-1.582-.67-3.166-1-4.75l-.563-2.672C612 377 612 377 612 373Z" fill="#DEB1B8"/><path d="M664 0h10v3c-1.48-.114-2.96-.241-4.438-.375-.823-.07-1.647-.14-2.496-.21L665 2l-1-2Z" fill="#F1C7CB"/><path d="M53 364c4.108 1.45 7.503 3.398 11 6v2c-4.003-1.761-7.603-4.261-11-7v-1Z" fill="#C79DBE"/><path d="M41 357c4.43 1.208 6.981 2.517 10 6a259.725 259.725 0 0 1-4.438-1.313l-2.496-.738L42 360l-1-3Z" fill="#B893B8"/><path d="M664 356c-8.262 4.592-8.262 4.592-13 4 3.415-3.005 8.572-6.214 13-4Z" fill="#68588E"/></svg>