<?xml version="1.0" encoding="UTF-8"?>
<svg version="1.1" xmlns="http://www.w3.org/2000/svg" width="695" height="956">
<path d="M0 0 C229.35 0 458.7 0 695 0 C695 315.48 695 630.96 695 956 C465.65 956 236.3 956 0 956 C0 640.52 0 325.04 0 0 Z " fill="#232C61" transform="translate(0,0)"/>
<path d="M0 0 C229.35 0 458.7 0 695 0 C695 315.48 695 630.96 695 956 C465.65 956 236.3 956 0 956 C0 640.52 0 325.04 0 0 Z M5 353 C4.94864596 407.67757517 4.90088397 462.35515263 4.87297058 517.03274536 C4.87255641 517.84196388 4.87214224 518.65118239 4.87171552 519.48492268 C4.86273684 537.0713322 4.85442629 554.65774197 4.84680401 572.24415212 C4.84306199 580.8684973 4.83917233 589.49284242 4.83520508 598.1171875 C4.8348128 598.97541446 4.83442052 599.83364142 4.83401636 600.71787525 C4.82123184 628.53652766 4.79869756 656.35516179 4.77110834 684.17380313 C4.74280881 712.76057014 4.72434326 741.34732704 4.71825503 769.93410782 C4.71739056 773.97159645 4.71641365 778.00908505 4.71536827 782.04657364 C4.715166 782.84121094 4.71496373 783.63584823 4.71475533 784.45456545 C4.7112099 797.24710907 4.69729494 810.03962142 4.6795039 822.83215229 C4.66184004 835.69231335 4.6550966 848.55244341 4.65949587 861.41261618 C4.66177794 869.05349843 4.65569136 876.69426718 4.63760737 884.33512894 C4.62502594 890.04079189 4.62812008 895.74636057 4.63730332 901.45202602 C4.63857241 903.76040172 4.6347534 906.06878695 4.62535045 908.37714384 C4.61331184 911.51479488 4.61980036 914.65189104 4.63085651 917.78953362 C4.62297547 918.68576211 4.61509443 919.5819906 4.60697457 920.50537753 C4.69647735 931.74570119 8.08635438 940.01553228 15.95703125 947.98046875 C23.09748096 954.60210949 29.29254827 955.29516415 38.7646389 955.24609566 C40.40092736 955.24955719 40.40092736 955.24955719 42.07027215 955.25308865 C45.74501879 955.25840478 49.41959205 955.24939101 53.09432983 955.24050903 C55.74763454 955.24138077 58.40092791 955.24304666 61.05423033 955.24568737 C66.83291799 955.24983472 72.61156447 955.2465475 78.39024734 955.23841095 C86.98294339 955.22634578 95.57561345 955.22573889 104.16831643 955.22749493 C118.62227309 955.2301235 133.07621147 955.22343696 147.53016281 955.21146011 C161.84348008 955.19963017 176.15678973 955.19192905 190.47011185 955.18975449 C191.35973404 955.18961701 192.24935624 955.18947953 193.16593668 955.18933788 C197.68379176 955.18866123 202.20164684 955.18805845 206.71950193 955.18748413 C238.72788277 955.18328218 270.73625367 955.1698043 302.74462891 955.15087891 C333.84228462 955.13251319 364.93993761 955.11834442 396.03759766 955.10986328 C397.47518976 955.1094687 397.47518976 955.1094687 398.94182414 955.10906615 C408.56632915 955.10642914 418.19083418 955.1038775 427.81533923 955.10138843 C447.42194709 955.09631587 467.02855476 955.09067337 486.63516235 955.08468628 C487.98741258 955.08427441 487.98741258 955.08427441 489.36698099 955.08385422 C549.57799147 955.06544975 609.78899641 955.03375898 670 955 C670 954.34 670 953.68 670 953 C670.680625 952.79375 671.36125 952.5875 672.0625 952.375 C679.05674463 949.10109826 683.50912069 943.78564181 687 937 C687.34643551 936.33237603 687.69287102 935.66475206 688.04980457 934.97689706 C689.40087104 930.74409855 689.27143939 926.75973444 689.24609566 922.34230328 C689.24955719 920.8672969 689.24955719 920.8672969 689.25308865 919.36249241 C689.25840793 916.04747714 689.24938846 912.73265379 689.24050903 909.41764832 C689.2413807 907.02507316 689.24313097 904.6324982 689.24568737 902.23992425 C689.24923455 897.02780324 689.24654567 891.81572337 689.23841095 886.60360909 C689.22634848 878.85337207 689.22573864 871.10316388 689.22749493 863.35291919 C689.23012383 850.31624087 689.22343571 837.27958281 689.21146011 824.24291039 C689.19963103 811.33268318 689.19192922 798.42246441 689.18975449 785.51223183 C689.18961701 784.70988074 689.18947953 783.90752965 689.18933788 783.0808649 C689.18866123 779.00622369 689.18805846 774.93158248 689.18748413 770.85694126 C689.18328194 741.98705991 689.1698034 713.11718959 689.15087891 684.24731445 C689.13251382 656.19848693 689.11834474 628.14966241 689.10986328 600.10083008 C689.10960023 599.23642934 689.10933718 598.37202859 689.10906615 597.48143389 C689.10642914 588.80086346 689.10387751 580.120293 689.10138843 571.43972252 C689.09631584 553.75598286 689.09067334 536.0722434 689.08468628 518.38850403 C689.0844117 517.57541239 689.08413712 516.76232075 689.08385422 515.92458998 C689.06544908 461.61638869 689.03371668 407.30819368 689 353 C686.96488668 352.97953327 684.92971222 352.96510588 682.89453125 352.953125 C681.19453979 352.94007324 681.19453979 352.94007324 679.46020508 352.92675781 C671.64563727 353.09216883 664.7370709 354.21918481 657.91015625 358.07421875 C655.82692796 359.08388154 654.02942292 359.44143115 651.75 359.8125 C640.04819966 362.17690486 630.55760693 371.15422327 622 379 C621.48405273 379.47066895 620.96810547 379.94133789 620.43652344 380.42626953 C611.53804578 388.64959285 604.60239335 397.90598198 597.72753906 407.83837891 C583.96309248 427.71140307 569.55258107 441.23141612 545.95263672 448.37109375 C543.90940933 449.02917749 541.93554005 449.80012213 539.94140625 450.59375 C520.98863026 457.73311775 496.2609968 453.20111936 478.37597656 445.13232422 C468.91144395 440.73740009 460.84673964 435.87600896 453 429 C452.34128906 428.42894531 451.68257813 427.85789062 451.00390625 427.26953125 C442.87822293 419.66929627 436.53225446 410.01461584 430.703125 400.6171875 C427.79162697 396.1430965 424.44482486 392.07057021 421 388 C419.96746094 386.76443359 419.96746094 386.76443359 418.9140625 385.50390625 C404.08203411 368.3426604 383.14649845 354.43494119 359.99731445 352.59863281 C355.91351352 352.3843741 351.83797962 352.38474804 347.75 352.4375 C346.67215744 352.44438843 346.67215744 352.44438843 345.57254028 352.45141602 C322.44946483 352.65402223 303.08946593 359.45107099 285 374 C284.319375 374.51691406 283.63875 375.03382813 282.9375 375.56640625 C273.54978943 383.11821374 266.70555727 393.64280174 260.33959961 403.74169922 C244.38177392 429.04923302 225.55121006 444.36361727 196.3125 451.9375 C169.04899326 456.99801169 142.40732679 449.90432057 119.75 434.5 C116.14132028 431.91285423 112.98919973 429.30385233 110 426 C109.43152344 425.40058594 108.86304687 424.80117188 108.27734375 424.18359375 C104.21780266 419.80122633 100.62006567 415.19631937 97.1875 410.3125 C89.54303858 399.43873418 81.66605734 389.17363555 72 380 C71.19175781 379.18402344 70.38351563 378.36804688 69.55078125 377.52734375 C58.50150508 366.57959233 45.80913983 359.62640318 31 355 C30.31292969 354.77441406 29.62585938 354.54882812 28.91796875 354.31640625 C23.68805866 352.86643118 18.57761601 352.90919702 13.1953125 352.953125 C12.40648682 352.95650879 11.61766113 352.95989258 10.80493164 352.96337891 C8.86993588 352.97216768 6.93496227 352.98561762 5 353 Z " fill="#8577B6" transform="translate(0,0)"/>
<path d="M0 0 C0.93768219 0.00126892 1.87536438 0.00253784 2.84146118 0.00384521 C59.61329386 0.15039693 59.61329386 0.15039693 77.6875 9.1875 C77.6875 9.8475 77.6875 10.5075 77.6875 11.1875 C78.62722656 11.28933594 79.56695312 11.39117187 80.53515625 11.49609375 C85.54852672 12.21228953 90.2992022 13.75257822 95.125 15.25 C96.04732422 15.53166016 96.96964844 15.81332031 97.91992188 16.10351562 C100.17723798 16.79357599 102.43299184 17.48833123 104.6875 18.1875 C104.6875 18.8475 104.6875 19.5075 104.6875 20.1875 C105.30496094 20.35765625 105.92242187 20.5278125 106.55859375 20.703125 C114.98551312 23.11448092 122.52688277 26.42469358 130.13671875 30.75 C133.31819872 32.54293205 136.53247831 34.27296076 139.75 36 C141.43802734 36.90685547 141.43802734 36.90685547 143.16015625 37.83203125 C143.99417969 38.27933594 144.82820313 38.72664063 145.6875 39.1875 C145.6875 39.8475 145.6875 40.5075 145.6875 41.1875 C146.38875 41.455625 147.09 41.72375 147.8125 42 C150.8524824 43.2556449 153.7602774 44.68985123 156.6875 46.1875 C156.6875 46.8475 156.6875 47.5075 156.6875 48.1875 C157.50734375 48.57615234 157.50734375 48.57615234 158.34375 48.97265625 C161.06223721 50.38173879 163.60705682 51.97677737 166.1875 53.625 C167.1259375 54.22183594 168.064375 54.81867188 169.03125 55.43359375 C173.76252233 58.55762504 173.76252233 58.55762504 175.6875 60.1875 C175.6875 60.8475 175.6875 61.5075 175.6875 62.1875 C176.6775 62.1875 177.6675 62.1875 178.6875 62.1875 C180.16015625 63.65625 180.16015625 63.65625 181.75 65.6875 C185.20978604 69.83631123 189.05215264 72.99569625 193.30859375 76.296875 C196.37976288 78.7376728 199.05573401 81.27870601 201.6875 84.1875 C201.6875 84.8475 201.6875 85.5075 201.6875 86.1875 C202.23921875 86.39375 202.7909375 86.6 203.359375 86.8125 C206.55498282 88.69983885 208.62412033 91.34792874 210.9375 94.1875 C211.42275146 94.77418457 211.90800293 95.36086914 212.40795898 95.96533203 C213.38769548 97.15292082 214.36422484 98.34316329 215.33740234 99.53613281 C216.49114412 100.94732799 217.66007275 102.34608393 218.83203125 103.7421875 C227.14408337 113.7979084 234.14514484 124.92011055 240.6875 136.1875 C241.57308594 137.64736328 241.57308594 137.64736328 242.4765625 139.13671875 C254.32364283 159.07851731 264.04321796 181.40729659 268.6875 204.1875 C269.6775 204.1875 270.6675 204.1875 271.6875 204.1875 C270.27645893 207.36234241 268.57270416 209.55021529 266.1875 212.0625 C262.73601018 215.86350778 259.69927765 219.80961327 256.75 224 C256.32855713 224.59828613 255.90711426 225.19657227 255.47290039 225.81298828 C254.62385717 227.01978811 253.77514083 228.22681798 252.92675781 229.43408203 C237.85462965 250.75953996 222.56079884 263.74619931 197.6875 272.1875 C196.2054901 272.76357159 194.72571813 273.3454968 193.25 273.9375 C171.81500678 281.45855025 146.81294039 275.26650978 127.08666992 265.99438477 C107.82827071 256.61710385 94.50489002 240.72254465 83.390625 222.8046875 C80.47870075 218.32994152 77.12831531 214.26214971 73.6875 210.1875 C72.68976563 208.96933594 72.68976563 208.96933594 71.671875 207.7265625 C61.85094442 196.19606252 49.57966737 187.19285971 35.6875 181.1875 C35.06584961 180.91647461 34.44419922 180.64544922 33.80371094 180.36621094 C13.00169697 171.84708784 -16.01862824 173.58134145 -36.46044922 182.08056641 C-45.52512705 186.0198603 -53.58136448 191.01305674 -61.3125 197.1875 C-61.91964844 197.6309375 -62.52679688 198.074375 -63.15234375 198.53125 C-72.28231985 205.57744332 -78.88474624 216.27620314 -84.97485352 225.93115234 C-101.23211978 251.69670688 -120.01730131 267.35839733 -150 275.125 C-175.78372119 279.91084152 -202.50451863 273.98737621 -224.125 259.2734375 C-228.89320948 255.88750151 -233.38151442 252.543457 -237.3125 248.1875 C-237.8796875 247.589375 -238.446875 246.99125 -239.03125 246.375 C-243.58997758 241.45446865 -247.53017561 236.2044967 -251.37182617 230.7199707 C-254.55848923 226.18846615 -257.88427727 221.78890182 -261.3125 217.4375 C-261.78147705 216.84106689 -262.2504541 216.24463379 -262.73364258 215.63012695 C-264.51558838 213.38133296 -266.28188114 211.21811886 -268.3125 209.1875 C-267.80315403 206.08048961 -267.14833499 203.21304853 -266.3125 200.1875 C-266.065 199.28128906 -265.8175 198.37507812 -265.5625 197.44140625 C-257.05105144 168.22129935 -243.88010216 139.39385336 -225.3125 115.1875 C-224.2910509 113.81295738 -223.27017591 112.43798784 -222.25 111.0625 C-219.5881178 107.53245675 -216.89211387 104.02994809 -214.1640625 100.55078125 C-212.87841832 98.90982191 -211.60307479 97.26076075 -210.3359375 95.60546875 C-206.36852122 90.49684586 -202.47343395 86.1098098 -197.3125 82.1875 C-196.6525 82.1875 -195.9925 82.1875 -195.3125 82.1875 C-195.04695313 81.60742188 -194.78140625 81.02734375 -194.5078125 80.4296875 C-191.20941154 74.24249094 -185.98584939 69.6922513 -180.34765625 65.68359375 C-178.2232136 64.12186336 -176.27745035 62.44480393 -174.3125 60.6875 C-166.54502882 53.79822244 -158.02080988 47.67714405 -148.875 42.75 C-144.60704101 40.44843049 -140.75424041 37.72832367 -136.8671875 34.8359375 C-133.81296535 32.8651703 -130.66741869 31.58147052 -127.3125 30.1875 C-124.99216762 29.03648957 -122.6796339 27.86962942 -120.375 26.6875 C-107.53337045 20.1875 -107.53337045 20.1875 -102.3125 20.1875 C-102.3125 19.5275 -102.3125 18.8675 -102.3125 18.1875 C-79.47036598 10.13277107 -56.47785069 3.56986842 -32.3125 1.1875 C-31.46131592 1.0939624 -30.61013184 1.0004248 -29.7331543 0.90405273 C-19.84106464 -0.07499223 -9.93016455 -0.01376564 0 0 Z " fill="#FBD2A9" transform="translate(346.3125,177.8125)"/>
<path d="M0 0 C229.35 0 458.7 0 695 0 C695 315.48 695 630.96 695 956 C693.68 956 692.36 956 691 956 C690.99991178 955.19814431 690.99982356 954.39628862 690.99973266 953.57013427 C690.98995212 866.28158945 690.97399608 778.99304656 690.92570496 691.70451355 C690.9249855 690.40089133 690.92426605 689.09726911 690.9235248 687.75414318 C690.90823422 660.11373187 690.89194442 632.47332124 690.87445398 604.83291124 C690.86566891 590.94800041 690.85708123 577.06308946 690.8486802 563.1781784 C690.84741179 561.08370574 690.84613775 558.98923309 690.84486348 556.89476044 C690.82529359 524.64686142 690.80995422 492.39896721 690.80688477 460.15106201 C690.8068187 459.45782312 690.80675263 458.76458422 690.80668457 458.05033809 C690.80564513 446.87343643 690.80496108 435.69653475 690.80432421 424.51963307 C690.80248418 392.32255783 690.79801164 360.12549266 690.77615643 327.92842388 C690.77548404 326.93503597 690.77548404 326.93503597 690.77479807 325.92157962 C690.76535401 312.03547405 690.75478302 298.14936955 690.74283885 284.26326591 C690.73725281 277.76015823 690.73185363 271.25705042 690.72656822 264.75394249 C690.72499917 262.83406122 690.72499917 262.83406122 690.72339842 260.87539447 C690.7070323 240.2616913 690.70790432 219.64802306 690.71520283 199.03431618 C690.72217088 178.31694378 690.71102561 157.5996441 690.6813371 136.88229124 C690.66424464 124.56961139 690.66109424 112.25711086 690.67782579 99.94442954 C690.68763306 91.7205318 690.67934603 83.49678097 690.65633952 75.2729099 C690.64374697 70.58636759 690.63902824 65.90018454 690.65637074 61.21364925 C690.67200866 56.94582334 690.66447185 52.67867556 690.63883928 48.4109037 C690.63364019 46.88063536 690.63671205 45.35030941 690.64931448 43.82008414 C690.74779456 30.93218423 688.50750363 19.42710052 679.25390625 9.875 C673.24489242 4.876167 666.28008872 1.87854537 658.45589817 1.87119883 C657.54211816 1.86792664 656.62833815 1.86465445 655.68686783 1.86128309 C654.18359163 1.86350853 654.18359163 1.86350853 652.64994621 1.86577892 C651.04440628 1.86225058 651.04440628 1.86225058 649.4064312 1.85865095 C645.78932584 1.85194904 642.17225631 1.85241954 638.55514526 1.85282898 C635.94782078 1.8495311 633.34049681 1.8458057 630.73317349 1.8416875 C624.29928794 1.83235576 617.86540926 1.82843849 611.43151779 1.82616853 C603.72721948 1.82320797 596.02293031 1.81451143 588.3186368 1.80575425 C569.69604048 1.7849032 551.07344257 1.77443914 532.45083731 1.76562465 C523.64273891 1.76141921 514.8346412 1.75619709 506.02654337 1.75094012 C475.88127786 1.73304965 445.73601215 1.71805304 415.59074211 1.71061993 C413.6979726 1.71014517 411.80520308 1.70966928 409.91243357 1.70919226 C408.97378159 1.70895589 408.03512961 1.70871951 407.06803364 1.70847597 C402.31228284 1.70727476 397.55653204 1.70605932 392.80078125 1.70483398 C391.85698496 1.70459383 390.91318867 1.70435368 389.9407925 1.70410626 C359.33575856 1.69621208 328.73076337 1.67277793 298.12574636 1.64027804 C265.77585092 1.60598789 233.42597815 1.58626956 201.07606423 1.58297569 C197.52545237 1.58255814 193.97484052 1.58207858 190.42422867 1.58155251 C189.11281763 1.58136772 189.11281763 1.58136772 187.77491345 1.5811792 C173.69941429 1.5788462 159.62396009 1.5631807 145.54847696 1.54271066 C131.40279827 1.52246476 117.25717364 1.51696951 103.11148314 1.52648129 C94.70626247 1.53170101 86.30122165 1.5257966 77.89602683 1.50394662 C71.62154237 1.48886743 65.34724069 1.49466597 59.07275726 1.50861714 C56.53300874 1.51100557 53.99324303 1.50660616 51.45352088 1.49478849 C48.0037381 1.47972857 44.55486082 1.48930248 41.10510063 1.50501537 C40.11696349 1.49479317 39.12882636 1.48457096 38.11074567 1.47403899 C29.11509503 1.56358278 21.19251473 4.07550511 14.53125 10.296875 C8.96269596 16.49047082 5.75771946 23.4126221 5.73828697 31.81393242 C5.73082148 32.95798227 5.72335599 34.10203212 5.71566427 35.28075016 C5.717599 36.5278313 5.71953374 37.77491245 5.7215271 39.05978394 C5.71652185 40.4055258 5.71064538 41.75126465 5.70397437 43.09699929 C5.68818801 46.78897014 5.68474444 50.48086486 5.68332577 54.17286539 C5.67962934 58.15645924 5.66447264 62.14001144 5.65071106 66.12358093 C5.62844205 73.02340127 5.6134266 79.92320678 5.60334396 86.82305527 C5.58875569 96.7990608 5.56321843 106.7750147 5.53501268 116.75098993 C5.48954741 132.93651867 5.45293149 149.12205485 5.421875 165.30761719 C5.39168838 181.0299612 5.35733759 196.75228702 5.31738281 212.47460938 C5.31369049 213.92840521 5.31369049 213.92840521 5.30992357 215.41157065 C5.29754895 220.27377018 5.28509242 225.13596949 5.27259517 229.99816871 C5.16903133 270.3320873 5.0799741 310.66602823 5 351 C8.63 351 12.26 351 16 351 C16 351.33 16 351.66 16 352 C12.37 352 8.74 352 5 352 C5.04403507 406.77292773 5.09164136 461.54585151 5.15898132 516.3187561 C5.15997689 517.12938436 5.16097246 517.94001261 5.16199819 518.77520536 C5.18365662 536.39224924 5.2059793 554.00929222 5.22898628 571.62633439 C5.24026482 580.26570063 5.25139657 588.90506706 5.26245117 597.54443359 C5.26355374 598.40415539 5.2646563 599.2638772 5.26579228 600.14965117 C5.30146219 628.01679113 5.32743874 655.88392989 5.34838969 683.75108447 C5.3699703 712.38768819 5.40132786 741.02426496 5.44499113 769.66084392 C5.45115339 773.70535968 5.45720387 777.7498756 5.46318626 781.79439163 C5.46436715 782.59041208 5.46554803 783.38643253 5.46676469 784.2065748 C5.48548776 797.02142007 5.49390127 809.83625237 5.49846124 822.65110963 C5.50326526 835.53369374 5.51892629 848.41622839 5.54566566 861.29878597 C5.56122307 868.9529818 5.56845997 876.6070801 5.56376929 884.26129086 C5.56118371 889.97689837 5.5741825 895.6923858 5.59323552 901.40795822 C5.59851187 903.72036247 5.59872948 906.03278491 5.59339563 908.34518902 C5.58688371 911.48830734 5.59879013 914.63084614 5.61523914 917.77391624 C5.60896245 918.67174908 5.60268575 919.56958192 5.59621885 920.49462181 C5.7034549 931.61949757 9.03121997 939.68769306 16.62890625 947.72265625 C20.91602259 951.77104686 25.33506751 953.53559568 31 955 C31 955.33 31 955.66 31 956 C20.77 956 10.54 956 0 956 C0 640.52 0 325.04 0 0 Z " fill="#F4C9CD" transform="translate(0,0)"/>
<path d="M0 0 C1.32 0 2.64 0 4 0 C4 315.48 4 630.96 4 956 C2.68 956 1.36 956 0 956 C0 640.52 0 325.04 0 0 Z " fill="#FFFFFF" transform="translate(691,0)"/>
<path d="M0 0 C2 2 2 2 2.24934233 4.68535275 C2.24903037 5.84054525 2.24871841 6.99573776 2.24839699 8.18593609 C2.25223125 9.1543299 2.25223125 9.1543299 2.25614297 10.14228722 C2.26232504 12.33088225 2.25410911 14.51919492 2.24609566 16.70778084 C2.2475735 18.28933916 2.24992914 19.87089686 2.25308865 21.45245272 C2.25926216 25.83441411 2.2528473 30.2162836 2.24453239 34.59823819 C2.23769415 39.35180272 2.24239979 44.10535744 2.24568737 48.85892379 C2.24984562 57.20197393 2.246529 65.54499561 2.23841095 73.88804245 C2.22637299 86.29397034 2.22573635 98.69988018 2.22749493 111.10581285 C2.23012685 131.9715089 2.22342431 152.83719231 2.21146011 173.70288467 C2.19963891 194.37202136 2.19193082 215.04115278 2.18975449 235.71029282 C2.18961701 236.99391245 2.18947953 238.27753209 2.18933788 239.6000493 C2.18866125 246.11851297 2.18805847 252.63697664 2.18748413 259.15544032 C2.18627793 272.41225567 2.18442097 285.66907092 2.18227959 298.92588615 C2.18217295 299.58921675 2.18206632 300.25254735 2.18195645 300.93597887 C2.1767111 333.21757511 2.16409503 365.49916792 2.15087891 397.78076172 C2.14629566 408.98575844 2.14174497 420.19075517 2.1373291 431.39575195 C2.13691825 432.43812852 2.13691825 432.43812852 2.13649911 433.50156321 C2.12381662 465.79197231 2.11638314 498.08238198 2.11026346 530.37279291 C2.10986232 532.48503512 2.10945772 534.59727732 2.10905199 536.70951952 C2.10437832 561.04943586 2.10002371 585.38935225 2.09576209 609.72926866 C2.07697622 715.81951896 2.03683831 821.90975131 2 928 C-215.8 928 -433.6 928 -658 928 C-658 927.67 -658 927.34 -658 927 C-657.44800823 927.0005357 -656.89601646 927.0010714 -656.32729767 927.00162334 C-596.22929814 927.0596287 -536.13129517 927.10648398 -476.03326416 927.09507751 C-474.68663036 927.09482668 -474.68663036 927.09482668 -473.31279184 927.09457078 C-453.80202564 927.09086967 -434.2912605 927.08516804 -414.78049551 927.07740569 C-405.21238776 927.07361121 -395.64427987 927.07025877 -386.07617188 927.06713867 C-385.12403135 927.06682066 -384.17189082 927.06650265 -383.19089754 927.066175 C-352.33057983 927.05607496 -321.47036408 927.07516392 -290.61006637 927.10939364 C-258.89645323 927.14441564 -227.18296801 927.14998214 -195.46934783 927.11849881 C-190.98978123 927.11406551 -186.51021438 927.10996885 -182.03064728 927.10607719 C-181.14900635 927.10530085 -180.26736542 927.10452451 -179.35900809 927.10372464 C-165.16832499 927.09209447 -150.97784602 927.11150479 -136.78719913 927.14253096 C-122.51992574 927.17306195 -108.25295418 927.17087229 -93.98568973 927.13534261 C-85.50956552 927.11522735 -77.03431928 927.12014054 -68.55826514 927.16101597 C-62.8929791 927.18586229 -57.22834365 927.17794792 -51.5631086 927.14366677 C-48.33663566 927.12507288 -45.11220921 927.12546088 -41.88577649 927.15590347 C-24.54374011 927.61009835 -24.54374011 927.61009835 -10.02792573 919.34440511 C-7.21131226 916.08822915 -4.77411226 912.93181636 -3 909 C-2.65751209 908.33455132 -2.31502418 907.66910265 -1.96215785 906.98348886 C-0.59661358 902.74916688 -0.72065958 898.76538305 -0.73828697 894.34230328 C-0.73429091 893.35896569 -0.73029485 892.37562811 -0.72617769 891.36249241 C-0.71515602 888.04749408 -0.71841141 884.73266135 -0.7215271 881.41764832 C-0.71652694 879.0250717 -0.71065197 876.63249678 -0.70397437 874.23992425 C-0.69144059 869.02781364 -0.68511597 863.81573311 -0.68421364 858.60360909 C-0.68283847 850.85335764 -0.67006015 843.10315447 -0.6549259 835.35291919 C-0.62979251 822.31625465 -0.61393592 809.27959419 -0.60334396 796.24291039 C-0.5928245 783.33267529 -0.57819561 770.42245565 -0.55806351 757.51223183 C-0.55619021 756.3087052 -0.55619021 756.3087052 -0.55427906 755.0808649 C-0.54791542 751.00622359 -0.54147821 746.93158241 -0.53501268 742.85694126 C-0.48933512 713.98707372 -0.45289385 685.11720115 -0.421875 656.24731445 C-0.39171721 628.19847885 -0.35738154 600.14965345 -0.31738281 572.10083008 C-0.31553631 570.80422896 -0.31553631 570.80422896 -0.3136525 569.48143389 C-0.30128577 560.80086332 -0.28883404 552.12029288 -0.27632002 543.43972252 C-0.25082885 525.75598371 -0.22590512 508.07224412 -0.20132446 490.38850403 C-0.20019355 489.57541239 -0.19906264 488.76232075 -0.19789747 487.92458998 C-0.12242661 433.61640514 -0.06022545 379.30820362 0 325 C-5.28 325 -10.56 325 -16 325 C-16 324.67 -16 324.34 -16 324 C-10.45847359 323.05676146 -5.77790229 323 0 323 C0 216.41 0 109.82 0 0 Z " fill="#AD7D93" transform="translate(689,28)"/>
<path d="M0 0 C0.33 0 0.66 0 1 0 C1.00097681 1.21500132 1.00195362 2.43000264 1.00296003 3.68182218 C1.04620463 57.22747575 1.09315022 110.77312502 1.15898132 164.3187561 C1.15997689 165.12938436 1.16097246 165.94001261 1.16199819 166.77520536 C1.18365662 184.39224924 1.2059793 202.00929222 1.22898628 219.62633439 C1.24026482 228.26570063 1.25139657 236.90506706 1.26245117 245.54443359 C1.26355374 246.40415539 1.2646563 247.2638772 1.26579228 248.14965117 C1.30146219 276.01679113 1.32743874 303.88392989 1.34838969 331.75108447 C1.3699703 360.38768819 1.40132786 389.02426496 1.44499113 417.66084392 C1.45115339 421.70535968 1.45720387 425.7498756 1.46318626 429.79439163 C1.46436715 430.59041208 1.46554803 431.38643253 1.46676469 432.2065748 C1.48548776 445.02142007 1.49390127 457.83625237 1.49846124 470.65110963 C1.50326526 483.53369374 1.51892629 496.41622839 1.54566566 509.29878597 C1.56122307 516.9529818 1.56845997 524.6070801 1.56376929 532.26129086 C1.56118371 537.97689837 1.5741825 543.6923858 1.59323552 549.40795822 C1.59851187 551.72036247 1.59872948 554.03278491 1.59339563 556.34518902 C1.58688371 559.48830734 1.59879013 562.63084614 1.61523914 565.77391624 C1.60896245 566.67174908 1.60268575 567.56958192 1.59621885 568.49462181 C1.7034549 579.61949757 5.03121997 587.68769306 12.62890625 595.72265625 C16.91602259 599.77104686 21.33506751 601.53559568 27 603 C27 603.33 27 603.66 27 604 C16.77 604 6.54 604 -4 604 C-4 595.42 -4 586.84 -4 578 C-2.68 578 -1.36 578 0 578 C0 387.26 0 196.52 0 0 Z " fill="#DDB5C0" transform="translate(4,352)"/>
<path d="M0 0 C216.15 0 432.3 0 655 0 C655 9.9 655 19.8 655 30 C652.65518295 27.65518295 652.32315246 26.0876701 651.375 22.9375 C648.41973107 14.64753604 643.58366956 9.04392971 635.75 5 C631.27561062 2.94805073 627.41226177 1.87627411 622.48286366 1.86938947 C621.57512191 1.86570876 620.66738015 1.86202805 619.73213106 1.85823581 C618.73671453 1.85925847 617.74129799 1.86028114 616.71571732 1.8613348 C615.65249164 1.85849258 614.58926596 1.85565036 613.49382132 1.85272202 C609.90108559 1.8443444 606.30838198 1.84310441 602.71563721 1.84178162 C600.12593437 1.83721835 597.53623228 1.83221868 594.94653106 1.82681805 C589.30062031 1.81575073 583.65471405 1.80838525 578.00879478 1.80341911 C569.61347696 1.79601796 561.21817478 1.78293594 552.82286615 1.76867336 C538.70166048 1.74484491 524.58045204 1.72564827 510.45923615 1.70907402 C496.47361114 1.69264384 482.48799132 1.67416565 468.50237274 1.65294075 C467.63340827 1.65162314 466.7644438 1.65030554 465.86914707 1.648948 C461.4562747 1.64224609 457.04340238 1.63550748 452.63053009 1.62875474 C421.35867222 1.58096744 390.08680952 1.53778939 358.81494141 1.49731445 C328.43114876 1.45797842 298.04736013 1.41655926 267.66357422 1.37231445 C266.25920379 1.37027066 266.25920379 1.37027066 264.82646224 1.36818558 C255.42444891 1.35450043 246.02243565 1.34077287 236.62042242 1.32701423 C217.46673624 1.29898625 198.31304964 1.27124136 179.15936279 1.2436676 C178.2786704 1.2423994 177.397978 1.2411312 176.49059796 1.23982458 C117.66040516 1.15514143 58.83020323 1.07705781 0 1 C0 0.67 0 0.34 0 0 Z " fill="#E9BFC8" transform="translate(36,0)"/>
<path d="M0 0 C1.98 0 3.96 0 6 0 C6.35191406 0.78503906 6.70382813 1.57007813 7.06640625 2.37890625 C11.61580491 12.05974152 15.83821795 18.25567512 25.984375 22.17578125 C28 23 28 23 31 25 C20.77 25 10.54 25 0 25 C0 16.75 0 8.5 0 0 Z " fill="#ECC1C7" transform="translate(0,931)"/>
<path d="M0 0 C0 0.66 0 1.32 0 2 C-0.87978516 2.37125 -0.87978516 2.37125 -1.77734375 2.75 C-4.32686375 4.18382496 -5.71117065 5.74692804 -7.5625 8 C-9.67356316 10.55772463 -11.19970251 12.133135 -14 14 C-12.57910701 10.84717276 -10.84968149 8.46222036 -8.5625 5.875 C-7.96566406 5.19179687 -7.36882812 4.50859375 -6.75390625 3.8046875 C-3.05627706 0 -3.05627706 0 0 0 Z M-16 14 C-15.34 14.33 -14.68 14.66 -14 15 C-22.56286722 24.94477086 -22.56286722 24.94477086 -26 28 C-26.99 28 -27.98 28 -29 28 C-25.20962911 22.52964787 -21.24972347 18.10037573 -16 14 Z " fill="#E3C2B2" transform="translate(165,246)"/>
<path d="M0 0 C-5.33333333 2.66666667 -10.66666667 5.33333333 -16 8 C-14.25274889 3.75667588 -12.14059758 2.63319887 -8.109375 0.75 C-5.33287118 -0.23720136 -2.91512932 -0.29151293 0 0 Z " fill="#6868AD" transform="translate(33,2)"/>
<path d="M0 0 C2.12508244 3.18762365 2.5020163 5.26512223 3 9 C3.99 9 4.98 9 6 9 C4.25 12.875 4.25 12.875 2 14 C1.66179834 12.4176994 1.32964061 10.83410625 1 9.25 C0.814375 8.36828125 0.62875 7.4865625 0.4375 6.578125 C0 4 0 4 0 0 Z " fill="#DEB1B8" transform="translate(612,373)"/>
<path d="M0 0 C3.3 0 6.6 0 10 0 C10 0.99 10 1.98 10 3 C8.5199159 2.88637738 7.04089926 2.75877092 5.5625 2.625 C4.73878906 2.55539062 3.91507813 2.48578125 3.06640625 2.4140625 C2.38449219 2.27742187 1.70257812 2.14078125 1 2 C0.67 1.34 0.34 0.68 0 0 Z " fill="#F1C7CB" transform="translate(664,0)"/>
<path d="M0 0 C4.10839064 1.45002023 7.50344613 3.3979134 11 6 C11 6.66 11 7.32 11 8 C6.99698968 6.23867546 3.3971023 3.73867517 0 1 C0 0.67 0 0.34 0 0 Z " fill="#C79DBE" transform="translate(53,364)"/>
<path d="M0 0 C4.43090471 1.20842856 6.98112756 2.51668565 10 6 C8.5164999 5.57742724 7.03823576 5.13643678 5.5625 4.6875 C4.73878906 4.44386719 3.91507813 4.20023437 3.06640625 3.94921875 C2.04353516 3.47935547 2.04353516 3.47935547 1 3 C0.67 2.01 0.34 1.02 0 0 Z " fill="#B893B8" transform="translate(41,357)"/>
<path d="M0 0 C-8.261959 4.59225513 -8.261959 4.59225513 -13 4 C-9.58506641 0.99485844 -4.42848328 -2.21424164 0 0 Z " fill="#68588E" transform="translate(664,356)"/>
</svg>
