<svg width="110" height="110" viewBox="0 0 110 110" fill="none" xmlns="http://www.w3.org/2000/svg">
  <path
    d="M45.1586 103.019C43.1857 102.371 41.1793 101.808 39.2466 101.057C35.2361 99.4979 31.588 97.2574 28.247 94.5793C26.4741 93.1581 24.9757 91.3941 23.3373 89.6252C24.9416 87.6089 26.6036 85.7863 28.1749 83.8884C32.2138 79.0104 36.2646 74.1406 40.2092 69.1873C43.0008 65.6822 45.4987 61.9826 46.8188 57.6089C48.457 52.1813 50.1881 46.7816 51.8371 41.3571C53.3049 36.5284 55.7954 32.4328 59.8823 29.3381C64.4179 25.9035 69.2334 22.9412 74.3127 20.3988C75.2248 19.9423 76.2086 19.7477 77.1441 20.4312L77.0977 20.6654C76.7108 21.5726 76.2945 22.4669 75.8494 23.3469C75.2743 24.2399 74.7605 25.0802 74.2464 25.9206L74.5534 26.2002C75.0127 26.0135 75.472 25.8269 76.0167 25.6299C77.9717 25.0267 79.8253 24.0309 81.7919 25.5057C82.4052 28.1973 82.4083 30.7308 81.0657 33.1535C80.7034 33.2078 80.4026 33.2064 80.166 33.3287C76.9747 34.9756 73.7893 36.634 70.6099 38.3039C70.4113 38.4084 70.2662 38.6148 70.0122 38.8521C73.8428 36.98 77.522 35.1823 81.2763 33.4171C84.1784 34.8597 85.4137 37.7942 83.9379 40.4901C83.8478 40.6549 83.8577 40.8742 83.7253 41.0685C83.2415 41.1447 82.8134 41.1394 82.4717 41.3088C80.5062 42.2857 78.5523 43.286 76.6105 44.3093C75.6921 44.7927 74.8064 45.338 73.906 45.8552L74.0056 46.0174C77.2933 44.4462 80.5806 42.8751 83.9478 41.3215C85.8912 42.5888 86.6095 44.1606 86.138 46.2086C85.9174 47.1664 85.5275 48.0853 85.1304 49.0217C83.1173 50.2119 81.1882 51.4025 79.1827 52.6108C78.9146 52.8535 78.7227 53.0786 78.4555 53.3092C78.1814 53.4067 77.983 53.499 77.7843 53.5912L77.9429 53.8396C78.1523 53.6768 78.3621 53.5141 78.6499 53.3349C78.9194 53.0911 79.1111 52.8636 79.3898 52.6325C79.8582 52.4348 80.252 52.2618 80.6191 52.0439C82.1741 51.1202 83.7212 50.1833 85.3464 49.2843C86.3621 49.8299 87.1455 50.4629 87.1357 51.6908C86.5944 52.5162 86.1613 53.3253 85.6469 54.0794C81.9279 59.5327 77.6887 64.5459 72.8287 69.0184C68.2321 73.2487 62.9904 74.1546 57.1775 71.942C56.9312 71.8483 56.679 71.7698 56.1108 71.5745C56.4856 72.3456 56.8111 72.8419 56.9742 73.3868C57.3259 74.5603 57.8042 75.7495 57.8561 76.9485C58.0027 80.325 56.21 83 54.4907 85.7257C52.7267 88.5225 51.1791 91.4565 49.5522 94.3391C48.0636 96.9735 46.5917 99.6175 45.1367 102.271C45.0334 102.459 45.1463 102.767 45.1586 103.019ZM67.9952 29.4333L73.2258 27.072C70.1153 27.2515 58.2835 34.0729 57.9397 35.4535C61.1473 33.5286 64.4914 31.5216 67.9952 29.4333ZM56.6554 36.6396L57.3632 36.0702L57.0857 35.8139C56.9094 36.0565 56.733 36.2992 56.6554 36.6396ZM55.6647 37.0139L55.7611 37.3564L56.1099 37.0115C55.9938 36.9807 55.878 36.9502 55.6647 37.0139Z"
    fill="#FECCC7" />
  <path
    d="M20.468 86.3467C23.3916 83.0848 26.3302 79.9068 29.2488 76.7107C29.5056 76.4296 29.6324 76.0296 29.8945 75.5809C30.1482 75.3831 30.3269 75.2892 30.5057 75.1955C35.1345 69.9034 39.8393 64.643 42.811 58.1807C44.796 53.8641 46.4673 49.4037 48.3022 45.0175C50.171 40.5511 52.1609 36.1488 55.183 32.3024C57.2632 29.6548 60.0053 27.78 62.6711 25.8134C63.5369 25.1746 64.4085 24.5438 65.3099 23.8332C65.3425 23.7573 65.3423 23.776 65.4019 23.7767C65.5787 23.713 65.6959 23.6489 65.8134 23.5845C69.0542 21.8902 72.2596 20.1227 75.5515 18.5341C77.0528 17.8098 77.3754 18.1516 77.3533 19.8537C77.3511 20.0122 77.3293 20.1703 77.2301 20.3798C76.2086 19.7475 75.2248 19.9421 74.3127 20.3988C69.2334 22.9412 64.4179 25.9035 59.8823 29.3379C55.7954 32.4328 53.3046 36.5281 51.8368 41.3568C50.1881 46.7813 48.4567 52.1813 46.8188 57.6089C45.4987 61.9826 43.0005 65.682 40.2092 69.1873C36.2646 74.1409 32.2137 79.0104 28.1749 83.8884C26.6038 85.7862 24.9416 87.6089 23.3078 89.5493C22.3557 88.5636 21.4164 87.4946 20.468 86.3467Z"
    fill="#FFC2BC" />
  <path
    d="M59.3835 86.0183C58.8646 86.6511 58.2578 87.231 57.841 87.9253C55.0319 92.6014 52.2618 97.3009 49.4861 101.997C49.3681 102.197 49.3186 102.437 49.2423 102.741C49.2475 102.824 49.262 102.822 49.211 102.833C49.0967 102.879 49.0477 102.927 48.954 103.035C48.8555 103.215 48.8163 103.352 48.7195 103.535C48.6064 103.716 48.5504 103.851 48.4944 103.986C47.4388 103.691 46.3835 103.395 45.2433 103.059C45.1463 102.766 45.0336 102.459 45.1369 102.271C46.5918 99.6175 48.0636 96.9735 49.5522 94.3391C51.179 91.4565 52.7266 88.5225 54.4907 85.7257C56.21 82.9998 58.0029 80.3252 57.8563 76.9485C57.8042 75.7497 57.3259 74.5603 56.9742 73.3868C56.8108 72.8419 56.4856 72.3458 56.1106 71.5745C56.6789 71.7698 56.9312 71.8483 57.1777 71.942C62.9904 74.1546 68.2321 73.2486 72.8287 69.0184C77.6886 64.5459 81.9278 59.5327 85.6469 54.0794C86.161 53.3253 86.5944 52.5162 87.1356 51.6907C87.446 54.5226 86.0298 56.8558 84.4793 59.0027C82.4583 61.8015 80.1311 64.3787 77.9421 67.0569C77.6197 67.4511 77.3343 67.8753 76.9723 68.4041C76.0971 69.2151 75.2813 69.908 74.4138 70.6354C74.3471 70.7082 74.2889 70.7882 74.2401 70.8739C74.2442 70.8679 74.2562 70.8763 74.2562 70.8763C69.0517 74.962 63.6657 78.8608 60.0703 84.6069C59.9288 84.8332 59.8868 85.122 59.8128 85.4658C59.8272 85.5499 59.833 85.534 59.7515 85.5316C59.563 85.6933 59.4561 85.8576 59.3568 86.0142C59.3648 86.0068 59.3835 86.0181 59.3835 86.0181V86.0183Z"
    fill="#FDC2BD" />
  <path
    d="M57.1693 23.2148C57.3774 23.8538 57.5316 24.4232 57.7319 24.9757C57.9698 25.6323 57.725 26.0025 57.0893 25.7685C55.1047 25.0375 53.9526 25.7968 53.3092 27.6719C53.2559 27.8271 53.0409 27.927 52.748 28.1903C52.3298 27.4641 51.926 26.8457 51.6074 26.186C51.2901 25.529 50.8334 25.3738 50.1528 25.5175C49.4701 25.6616 48.7693 25.7205 47.7721 25.8591C48.0909 24.9798 48.2492 24.3417 48.5447 23.7753C48.9771 22.9457 48.8077 22.3399 48.0632 21.8347C47.8992 21.7234 47.7512 21.5872 47.6008 21.457C46.4827 20.4893 46.5142 20.3406 47.9244 19.8414C48.033 19.803 48.1235 19.7136 48.2631 19.5724C49.3509 19.5335 49.8304 19.058 49.7377 17.9856C49.6867 17.3961 49.7285 16.7984 49.7285 15.9081C50.4452 16.1882 51.2041 16.2516 51.5457 16.6619C52.6039 17.9333 53.4541 17.301 54.4121 16.6024C54.8141 16.3093 55.3166 16.1543 55.9006 15.8759C55.9391 16.378 55.9703 16.611 55.9725 16.8443C55.9939 19.0633 55.9924 19.0633 58.1197 19.804C59.3653 20.2373 59.4198 20.4694 58.4445 21.4231C58.1423 21.7186 57.7178 21.8998 57.4528 22.2193C57.2594 22.4525 57.2354 22.8266 57.1693 23.2148Z"
    fill="#FFCC4F" />
  <path
    d="M89.2677 94.1707C88.8473 94.0429 88.5261 93.9153 88.0454 93.7248C88.8732 91.3119 88.4725 89.0018 87.0921 86.6629C86.9223 85.2155 86.8218 83.9338 86.7212 82.6522C86.9686 81.843 87.4366 81.3398 88.5066 81.531C88.8071 81.6069 88.9621 81.622 89.1841 81.6665C89.3679 81.7818 89.4851 81.8673 89.6021 81.9531C90.2267 83.0053 90.8057 84.0883 91.487 85.1025C92.4349 86.5139 93.6414 87.7809 94.4068 89.2785C95.4304 91.2821 95.2952 91.7426 93.3992 92.8203C92.1899 93.5079 90.7197 93.7368 89.2677 94.1707Z"
    fill="white" />
  <path
    d="M27.128 46.1322C22.331 44.1688 19.1913 40.5931 17.2776 35.8778C17.0811 35.394 17.1854 34.6185 17.465 34.1781C17.619 33.935 18.4572 33.9917 18.9377 34.1121C21.6473 34.7915 23.3102 36.813 24.7182 38.997C25.6428 40.4312 26.2317 42.0823 27.0521 43.7815C27.1313 44.662 27.1296 45.3971 27.128 46.1322ZM27.3843 62.0624C26.0813 61.3499 24.7782 60.6371 23.3998 59.9022C20.9133 57.6853 18.6518 55.3767 17.4888 52.2291C17.448 52.1196 17.3512 52.0266 17.3264 51.9154C16.942 50.1862 17.5859 49.612 19.298 50.148C21.9444 50.9763 23.6602 52.8943 25.0137 55.1672C25.6902 56.3035 26.1661 57.5594 26.8875 58.8514C27.2462 59.9454 27.4501 60.9496 27.5911 61.992C27.4802 62.041 27.4321 62.0516 27.3843 62.0624Z"
    fill="#7B9A84" />
  <path
    d="M55.9386 100.238C56.937 100.437 57.9306 100.663 58.9343 100.83C62.3771 101.405 65.5143 102.617 68.117 105.152C68.7628 106.069 69.7698 107.127 68.9578 108.002C68.4918 108.504 66.9716 108.381 66.0892 108.072C64.0719 107.366 62.1551 106.374 60.0816 105.393C58.1415 104.004 56.4656 102.571 55.2979 100.559C55.2822 100.456 55.277 100.415 55.2719 100.374C55.3824 100.306 55.4934 100.239 55.718 100.184C55.8321 100.196 55.9388 100.238 55.9388 100.238L55.9386 100.238Z"
    fill="#7B9A84" />
  <path
    d="M29.827 45.6351C30.8653 44.496 31.832 43.278 32.9681 42.2466C33.6732 41.6064 34.6975 40.7836 35.6308 41.4397C36.5937 42.1169 36.0873 43.3424 35.6661 44.1822C34.6192 46.2694 33.4082 48.2744 32.2514 50.3058C32.0179 50.7159 31.733 51.0966 31.3808 51.605C30.0723 52.5859 28.8548 53.4531 27.5635 54.3047C27.3905 54.2793 27.2908 54.2694 27.1912 54.2593C27.1861 54.1613 27.1811 54.0631 27.2315 53.812C27.4095 52.6685 27.5323 51.6778 27.73 50.6414C28.479 48.942 29.1529 47.2887 29.827 45.6351Z"
    fill="#7B9A84" />
  <path
    d="M28.2573 69.9387C28.5305 70.2092 28.8034 70.48 29.0934 70.8862C29.1025 71.0623 29.0948 71.1031 29.0871 71.1437C24.785 71.8123 20.8807 70.5878 17.214 68.4978C16.1397 67.8857 15.2835 66.8911 14.257 66.0258C14.3228 65.6628 14.4588 65.3454 14.6387 64.9632C19.5433 63.7601 23.2475 66.0878 26.7789 68.9345C27.2109 69.2829 27.6459 69.6269 28.167 69.9471C28.2547 69.9212 28.2573 69.9387 28.2573 69.9387Z"
    fill="#7B9A84" />
  <path
    d="M88.4 20.6284C88.0586 20.8752 87.7283 21.1394 87.374 21.3655C86.5867 21.8676 85.7872 22.3507 84.8532 22.7793C84.1546 22.2041 83.5525 21.7306 83.0452 21.1711C81.4721 19.4366 82.0244 16.8635 84.1454 15.8716C84.4635 15.7226 84.7571 15.5206 85.0619 15.3431C85.6844 15.6234 86.3217 15.8759 86.9247 16.1935C87.378 16.4325 87.7872 16.7551 88.3397 17.1191C88.4428 18.3414 88.4214 19.4849 88.3998 20.6284H88.4ZM95.1403 22.1335C94.4232 22.3118 93.7061 22.4903 92.8244 22.6212C92.4011 22.3918 92.1431 22.208 91.8832 22.0269C89.1824 20.1468 89.5649 16.5608 92.3663 15.5903C92.5159 15.5384 92.6058 15.3135 92.7235 15.1691C92.8352 15.1571 92.9469 15.1451 93.1742 15.1941C93.3462 15.2993 93.406 15.3378 93.4694 15.3712C95.4038 15.7488 96.6499 18.1958 95.9167 20.3051C95.7786 20.7029 95.9743 21.2168 96.0032 21.8152C95.775 22.0088 95.5599 22.0646 95.2933 22.1169C95.2416 22.1136 95.1403 22.1335 95.1403 22.1335ZM91.7871 74.2024C93.535 74.3715 94.8416 75.8494 94.9829 77.8172C95.1198 79.7227 93.9571 81.2778 91.9065 81.6722C91.1737 81.2007 90.5611 80.8117 90.0576 80.3125C88.3784 78.6465 88.5144 76.4808 90.373 75.0461C90.8045 74.7131 91.3136 74.4808 91.7871 74.2024ZM101.662 26.3244C101.103 27.1868 100.577 27.9645 99.9243 28.807C99.7592 28.9291 99.6054 29.0657 99.4647 29.2154C99.1337 29.2716 98.8024 29.3281 98.3313 29.3216C97.7221 28.8269 97.2341 28.414 96.7871 27.9606C95.0449 26.1944 95.2832 23.9449 97.3259 22.5594C97.6003 22.3735 97.7977 22.0747 98.0308 21.8279C98.1379 21.8359 98.245 21.844 98.4944 21.9231C98.7964 22.0254 98.9561 22.0569 99.1159 22.0881C100.913 22.5602 102.081 24.4376 101.662 26.3244ZM92.0936 65.0262C94.5807 65.767 95.4984 67.841 94.4613 70.5338C93.9929 71.9055 92.8583 72.2281 91.629 72.4965C91.1317 72.0359 90.7521 71.6355 90.3493 71.2595C89.3033 70.2839 88.6249 69.1858 89.0352 67.6738C89.4628 66.0998 90.5784 65.3363 92.0934 65.0264L92.0936 65.0262Z"
    fill="white" />
  <path
    d="M55.3084 100.621C56.4656 102.571 58.1415 104.004 60.0043 105.356C57.3586 105.177 54.6704 104.962 51.9915 104.665C50.884 104.541 49.7963 104.239 48.597 104.002C48.5504 103.851 48.6064 103.716 48.8024 103.507C51.0645 102.496 53.1864 101.558 55.3084 100.621Z"
    fill="#F0A97E" />
  <path
    d="M106.032 61.4966C105.892 59.9296 104.678 61.1161 104.012 60.572C104.503 59.6206 104.646 58.6088 103.16 57.9729C104.472 57.6087 105.349 57.1369 105.054 55.565C106.196 56.8032 107.158 56.1603 108.215 55.6505C108.047 57.0064 108.783 57.6101 110.149 57.9894L108.886 58.7656L109.408 61.3239C107.671 59.9894 107.361 61.6038 106.504 62.2245C106.368 61.9917 106.235 61.7654 106.032 61.4966Z"
    fill="#FFCC4F" />
  <path
    d="M80.646 21.6473C81.4008 22.7122 82.073 23.8046 81.7924 25.3005C79.8253 24.0309 77.9717 25.0267 76.0123 25.5256C75.9182 24.7194 75.9143 24.0069 75.9105 23.2943C76.2975 22.4612 76.6845 21.6281 77.1092 20.7176C77.9652 20.7904 78.7837 20.9403 79.735 21.1875C80.1273 21.4058 80.3865 21.5264 80.646 21.6473Z"
    fill="white" />
  <path
    d="M80.7098 21.5939C80.3865 21.5267 80.1273 21.4058 79.8198 21.2312C80.4475 20.9261 80.613 20.4872 80.5025 19.7586C80.0252 16.6105 82.6995 14.8633 85.004 15.2662C84.7568 15.5183 84.4658 15.7235 84.1452 15.8716C82.0244 16.8635 81.4721 19.4366 83.0451 21.1711C83.5525 21.7306 84.1546 22.2041 84.7611 22.7826C83.6003 23.2155 82.6716 22.6234 81.7421 21.9819C81.4548 21.7835 81.0985 21.685 80.7098 21.5939ZM91.7294 74.1267C91.3138 74.4808 90.8045 74.7131 90.373 75.0461C88.5143 76.4808 88.3786 78.6465 90.0576 80.3125C90.5609 80.8117 91.174 81.2007 91.82 81.671C91.2081 81.7758 90.5128 81.85 89.71 81.9387C89.4851 81.8673 89.3679 81.7818 89.1622 81.6208C89.032 81.4894 88.9773 81.4515 88.91 81.4322C88.7137 81.1425 88.5472 80.8269 88.3171 80.5674C86.5403 78.5658 87.0107 75.8209 89.3621 74.5202C89.6384 74.3677 89.907 74.2017 90.2541 74.0052C90.7766 73.996 91.2242 74.0234 91.7294 74.1265V74.1267ZM92.6202 15.1566C92.6058 15.3135 92.5159 15.5386 92.3662 15.5903C89.5651 16.5608 89.1824 20.1468 91.8831 22.0269C92.1678 22.2256 92.4508 22.4268 92.7321 22.6303C91.4526 23.1017 90.4057 22.5443 89.4705 21.6384C89.1562 21.334 88.8507 21.0205 88.4706 20.6698C88.4214 19.4849 88.4427 18.3414 88.4283 17.115C89.5827 15.9991 90.7274 14.8669 92.6204 15.1566H92.6202ZM97.9719 21.7652C97.7977 22.0747 97.6002 22.3735 97.3259 22.5595C95.2832 23.9449 95.0449 26.1942 96.787 27.9606C97.2341 28.414 97.722 28.8269 98.2316 29.3362C96.7092 29.7103 95.57 29.0045 94.698 27.8131C93.7627 26.5356 93.7166 25.1609 94.4974 23.7803C94.7479 23.3371 95.0547 22.9251 95.3391 22.3625C95.3428 22.226 95.3449 22.1203 95.3449 22.1203C95.5599 22.0646 95.7749 22.0088 96.0476 21.8916C96.7078 21.7873 97.3105 21.7451 97.9719 21.7652Z"
    fill="#FFE0D7" />
  <path
    d="M92.0185 64.9798C90.5785 65.3363 89.4626 66.0998 89.0352 67.6738C88.6249 69.1858 89.3033 70.2839 90.3493 71.2595C90.7522 71.6355 91.132 72.036 91.5382 72.5078C91.2831 72.723 91.0124 72.8559 90.6681 73.0195C90.1648 72.7091 89.7603 72.3276 89.3002 72.034C87.8641 71.1178 87.0175 69.4852 87.3063 68.1045C87.681 66.3138 88.8385 65.1208 90.5487 64.8542C90.9984 64.7843 91.4777 64.902 92.0185 64.9798Z"
    fill="#FFE0D7" />
  <path
    d="M27.655 50.6873C27.5323 51.6778 27.4095 52.6683 27.2375 53.7383C27.1741 51.3306 27.1599 48.8435 27.1371 46.2441C27.1299 45.3971 27.1313 44.662 27.1261 43.8283C27.28 42.1892 27.4415 40.6488 27.5957 39.0078C27.6159 38.5033 27.643 38.0995 27.7365 37.6063C27.8804 37.526 27.9534 37.5116 28.0216 37.4739C27.9736 38.5221 27.9258 39.5704 27.8751 40.8367C27.7997 44.2656 27.7274 47.4765 27.655 50.6873ZM27.1775 54.3737C27.2909 54.2694 27.3903 54.2793 27.5582 54.4145C27.638 55.6611 27.6495 56.782 27.6611 57.9032C27.7242 59.1844 27.7874 60.4655 27.7975 61.8558C27.7444 61.9651 27.6541 61.9538 27.6541 61.9538C27.4499 60.9496 27.2462 59.9454 26.9692 58.8822C26.9853 57.3778 27.0744 55.9328 27.1775 54.3737Z"
    fill="#0C7E4C" />
  <path
    d="M65.7385 23.5665C65.6959 23.6489 65.5787 23.7131 65.3925 23.7767C65.437 23.7003 65.5501 23.6244 65.7385 23.5665Z"
    fill="#CFB4EE" />
  <path
    d="M99.0782 22.0064C98.9562 22.0569 98.7964 22.0256 98.5727 21.9428C98.6861 21.9026 98.8634 21.9137 99.0782 22.0064ZM93.45 15.3142C93.406 15.3378 93.3462 15.2993 93.2568 15.2133C93.2929 15.1996 93.3618 15.2285 93.45 15.3142Z"
    fill="#885BCC" />
  <path
    d="M67.9152 29.4739C64.4914 31.5216 61.1473 33.5285 57.9397 35.4533C58.2835 34.0729 70.1153 27.2517 73.2258 27.072C71.4548 27.8708 69.6846 28.6714 67.9152 29.4739ZM81.0656 33.1535C81.1569 33.1552 81.184 33.2689 81.1925 33.3265C77.5217 35.1823 73.8427 36.98 70.012 38.8519C70.2661 38.6148 70.4112 38.4084 70.6099 38.3042C73.7892 36.6342 76.9746 34.9757 80.1659 33.3287C80.4028 33.2064 80.7033 33.2078 81.0656 33.1535ZM83.7253 41.0685C83.8302 41.107 83.8394 41.1461 83.8583 41.2446C80.5806 42.8751 77.2932 44.4462 74.0056 46.0174L73.9059 45.8552C74.8063 45.338 75.6921 44.7927 76.6105 44.3095C78.553 43.2876 80.5056 42.2844 82.4717 41.309C82.8133 41.1394 83.2414 41.1447 83.7253 41.0688V41.0685ZM85.1304 49.0215C85.2145 49.0215 85.2519 49.1344 85.2616 49.1928C83.7212 50.1833 82.1741 51.1202 80.619 52.0436C80.2519 52.2618 79.8582 52.4348 79.3785 52.6214C79.2802 52.6142 79.2588 52.5931 79.2588 52.5931C81.1879 51.4025 83.117 50.2119 85.1301 49.0215H85.1304Z"
    fill="#DB9593" />
  <path
    d="M75.8492 23.3469C75.914 24.0069 75.9181 24.7194 75.9265 25.536C75.472 25.8266 75.0127 26.0135 74.5534 26.2002L74.2463 25.9206C74.7604 25.0802 75.2743 24.2399 75.8492 23.3469Z"
    fill="#FFE0D7" />
  <path
    d="M56.606 36.5906C56.7331 36.2989 56.9094 36.0565 57.0857 35.8139L57.3632 36.0705C57.1273 36.2603 56.8914 36.45 56.606 36.5906ZM55.7133 36.9668C55.8781 36.95 55.9938 36.9807 56.1099 37.0115L55.7611 37.3564C55.7291 37.2423 55.6969 37.1282 55.7133 36.9668ZM78.531 53.3039C78.7227 53.0786 78.9146 52.8535 79.1827 52.6106C79.2589 52.5931 79.2802 52.6142 79.2915 52.625C79.1111 52.8636 78.9194 53.0911 78.6398 53.3229C78.5516 53.3272 78.531 53.3039 78.531 53.3039ZM78.5615 53.3392C78.3621 53.5141 78.1523 53.6768 77.9429 53.8397L77.7843 53.5912C77.983 53.499 78.1814 53.4067 78.4555 53.3092C78.531 53.3039 78.5516 53.3272 78.5617 53.3392H78.5615Z"
    fill="#DB9593" />
  <path
    d="M28.5819 66.3047C29.2997 64.3191 29.895 62.2779 30.769 60.3637C31.6963 58.333 33.1269 56.6348 35.2241 55.675C35.6794 55.4668 36.5079 55.3159 36.7366 55.5525C37.0667 55.8941 37.2154 56.6713 37.0795 57.1623C35.8432 61.6254 33.407 65.2798 29.5738 67.9541C29.2022 68.2136 28.8966 68.5672 28.4262 69.0011C28.3294 68.4303 28.2275 67.8309 28.1973 67.1035C28.3294 66.8391 28.4577 66.5728 28.5819 66.3047ZM28.081 37.4127C27.9534 37.5116 27.8804 37.526 27.7476 37.5059C28.1355 32.569 29.5709 28.1098 33.7983 25.0699C34.3701 24.6586 35.253 24.6793 35.9917 24.4998C36.065 25.2837 36.4037 26.1598 36.1687 26.8366C34.6533 31.2045 32.2596 34.95 28.081 37.4127Z"
    fill="#7B9A84" />
  <path
    d="M40.3906 36.9927C41.7806 36.8053 41.0585 35.595 41.5887 34.8261C42.5522 35.7385 43.5941 35.9643 44.804 34.5094C44.7408 36.175 45.036 37.2402 46.751 37.2889C45.5792 38.1913 45.2135 39.1858 46.0097 40.5633C44.4691 39.9373 43.6765 40.6275 43.0894 42.1796C42.5246 40.6839 41.8171 39.9087 40.1756 40.7647C40.6195 39.3439 40.9674 38.1826 39.372 37.5078C39.845 37.2546 40.0718 37.133 40.3906 36.9927Z"
    fill="#FECB52" />
  <path
    d="M29.3091 72.8895C29.6144 73.1898 29.8604 73.5223 30.1064 73.8548L29.6553 74.0914C29.52 73.7013 29.3848 73.3114 29.3091 72.8893V72.8895Z"
    fill="#7DA752" />
  <path
    d="M27.8355 65.2664C27.773 64.9635 27.773 64.7107 27.773 64.4582L28.3015 64.5928C28.167 64.8342 28.0324 65.0754 27.8355 65.2664ZM27.5909 61.992C27.6541 61.9538 27.7444 61.9651 27.7898 61.9644C27.9407 62.2623 28.0461 62.5609 28.1514 62.8592L27.8198 63.031C27.6752 62.7622 27.5308 62.4934 27.3855 62.1436C27.4323 62.0516 27.4799 62.041 27.5909 61.992ZM28.4997 66.3078C28.4774 66.5283 28.3729 66.752 28.1965 67.0059C28.2222 66.7945 28.32 66.5526 28.4997 66.3078Z"
    fill="#7DA752" />
  <path
    d="M29.4633 72.0657C29.3518 72.1717 29.2156 72.2188 29.0792 72.2656L29.0222 71.9651C29.1611 71.9788 29.2997 71.9927 29.4633 72.066V72.0657Z"
    fill="#7DA752" />
  <path
    d="M28.246 69.9231C28.4402 69.7855 28.6354 69.6493 28.8315 69.5145L28.9982 69.7847C28.8072 69.8369 28.6162 69.889 28.3412 69.9399C28.2571 69.9387 28.2547 69.9212 28.246 69.9231Z"
    fill="#7DA752" />
  <path
    d="M30.4233 75.1972C30.3269 75.2892 30.1482 75.3831 29.8928 75.497C29.9913 75.4112 30.1662 75.3048 30.4233 75.1972ZM29.1178 71.1632C29.0948 71.1031 29.1025 71.0623 29.1373 70.9662C29.1594 71.0013 29.1541 71.0921 29.1178 71.1632ZM29.7468 74.6079C29.7581 74.5738 29.7819 74.5627 29.8059 74.5517C29.7903 74.5781 29.7749 74.6045 29.7468 74.6079Z"
    fill="#CEB4EE" />
  <path
    d="M86.623 82.6406C86.8219 83.9338 86.9223 85.2155 87.0443 86.5978C82.9277 87.3053 78.8608 87.342 74.967 85.1556C75.1371 84.9695 75.2851 84.8073 75.5705 84.5846C75.7769 84.4522 75.8456 84.3804 75.9143 84.3083C75.9143 84.3083 75.9114 84.3227 75.9914 84.3314C76.2715 84.2488 76.4716 84.1575 76.7626 84.0753C78.7781 83.5876 80.7024 83.0911 82.7148 82.6092C83.1326 82.5498 83.4629 82.4758 83.7935 82.4021C84.7037 82.4777 85.614 82.5534 86.623 82.6406Z"
    fill="#7B9A84" />
  <path
    d="M81.6285 70.8927C82.4448 69.0852 83.2008 67.2459 84.1173 65.4908C84.3616 65.0233 85.183 64.4727 85.5835 64.5745C86.0209 64.6858 86.4589 65.4696 86.5809 66.0291C87.0821 68.3217 86.7097 70.5504 85.7781 72.6858C85.4436 73.4521 85.0482 74.1918 84.5682 74.9935C84.1651 74.9555 83.8742 74.8681 83.4833 74.7602C82.7802 74.8136 82.1784 74.9147 81.573 74.9457C81.3549 74.9567 81.1281 74.7989 80.9609 74.6478C81.9261 73.4663 81.7736 72.1789 81.6285 70.8929V70.8927Z"
    fill="#7B9A84" />
  <path
    d="M83.5833 74.7802L84.5111 75.06C86.8738 76.7436 87.3007 78.4132 85.9469 80.9162C85.8281 81.1433 85.7142 81.373 85.6053 81.605C85.0847 81.7933 84.5644 81.9817 83.8692 82.1667C81.9814 81.587 80.8879 80.3966 80.7569 78.6148C80.6296 76.8803 81.5149 75.6465 83.2357 75.0982C83.3714 75.055 83.4685 74.8892 83.5833 74.7804V74.7802ZM92.7501 56.4832C94.7153 56.684 96.1519 58.1276 96.2982 60.0483C96.4399 61.9091 95.1443 63.4529 92.8181 63.9934C92.4852 63.7051 92.2728 63.4735 92.0292 63.2811C89.6112 61.3686 89.7254 58.2986 92.306 57.0014C92.4933 56.907 92.6038 56.6595 92.7501 56.4832ZM96.3551 48.7532C98.0447 49.5171 99.0222 50.9393 98.9323 52.5032C98.8305 54.2774 97.6399 55.5626 95.4609 56.063C94.9533 55.6157 94.5529 55.2412 94.1507 54.8683C92.9769 53.7801 92.6673 52.4588 93.1696 50.966C93.6765 49.4597 94.826 48.8183 96.3551 48.7532ZM100.66 30.8151C102.557 31.3941 103.657 32.7166 103.711 34.4852C103.761 36.107 102.667 37.5349 100.696 38.1939C100.184 37.9887 99.8195 37.8206 99.5048 37.5856C96.8233 35.5845 97.1962 32.3786 100.254 31.0606C100.398 30.9986 100.525 30.898 100.66 30.8151Z"
    fill="white" />
  <path
    d="M81.5733 70.8355C81.7736 72.1789 81.9264 73.4661 80.9006 74.6858C80.5974 75.0108 80.41 75.227 80.1518 75.4778C80.0494 75.6474 80.018 75.7824 79.9925 75.9186C79.9983 75.9201 80.0002 75.9085 80.0002 75.9085C79.6069 75.9297 79.2137 75.9511 78.6458 75.9359C78.4029 75.8581 78.332 75.8197 78.2667 75.7738C77.0299 74.9027 75.959 73.9535 75.8927 72.2548C75.8278 70.5811 76.5773 69.527 78.0764 68.9079C78.1958 68.8586 78.252 68.6566 78.3375 68.5257C79.8486 68.6395 80.8252 69.5085 81.5733 70.8355Z"
    fill="white" />
  <path
    d="M100.446 40.0949C102.177 40.9275 103.005 42.3194 102.814 44.0743C102.641 45.6659 101.448 46.8868 99.5084 47.2514C98.927 46.7926 98.4374 46.443 98.0365 46.0113C97.0731 44.9735 96.4125 43.7954 97.0407 42.348C97.6737 40.8898 98.7176 39.9481 100.446 40.0949Z"
    fill="white" />
  <path
    d="M100.575 30.7793C100.525 30.898 100.398 30.9986 100.254 31.0604C97.1962 32.3785 96.8231 35.5842 99.5048 37.5856C99.8195 37.8206 100.184 37.9887 100.611 38.2073C98.9088 38.7532 96.9552 37.6978 96.2638 35.8324C95.5611 33.9362 96.5081 31.7638 98.3889 30.9943C98.7858 30.8319 99.2089 30.7332 99.6898 30.5833C99.6109 30.162 99.5378 29.7398 99.4705 29.3165C99.5757 29.1008 99.6867 28.9862 99.8524 28.8464C100.102 29.4616 100.296 30.1028 100.575 30.7793ZM80.2229 75.4434C80.4103 75.2272 80.5974 75.0108 80.8451 74.7564C81.1281 74.7989 81.3549 74.9567 81.573 74.9457C82.1784 74.9147 82.7802 74.8135 83.4834 74.7602C83.4685 74.8892 83.3714 75.055 83.2357 75.0982C81.5149 75.6464 80.6299 76.8803 80.7569 78.6148C80.8876 80.3966 81.9814 81.587 83.7844 82.176C83.874 82.1885 83.8367 82.2961 83.8151 82.349C83.4629 82.4758 83.1326 82.5498 82.6572 82.5508C81.604 81.9682 80.6964 81.4591 79.7705 80.8821C79.6802 80.7577 79.6084 80.7012 79.5363 80.6445C78.8536 79.047 78.8252 77.5068 79.9702 75.9881C80.0002 75.9085 79.9983 75.9201 80.0555 75.8838C80.1491 75.713 80.1861 75.5782 80.2229 75.4434ZM100.38 40.0331C98.7176 39.9478 97.6738 40.8898 97.0407 42.348C96.4123 43.7954 97.0732 44.9738 98.0365 46.0114C98.4375 46.4431 98.9268 46.7928 99.4171 47.2486C97.3629 47.741 95.7591 46.3338 95.2484 44.3211C94.808 42.5851 96.0745 40.374 97.8784 39.9442C98.6443 39.7617 99.4988 39.9512 100.38 40.0331H100.38Z"
    fill="#FFE0D7" />
  <path
    d="M78.2304 68.5052C78.252 68.6566 78.1958 68.8584 78.0767 68.9079C76.5773 69.5269 75.8276 70.5811 75.8929 72.2548C75.959 73.9533 77.0299 74.9027 78.2667 75.7738C78.332 75.8196 78.4029 75.8578 78.5461 75.9494C76.4529 76.4591 74.3203 74.8395 74.2281 72.6471C74.2065 72.1313 74.249 71.6127 74.2593 70.9859C74.2562 70.8763 74.2442 70.8679 74.3018 70.8523C74.3948 70.7584 74.4304 70.6796 74.4657 70.601C75.2949 69.895 76.1267 69.192 76.9612 68.4923C77.3809 68.4699 77.7521 68.4776 78.2304 68.5055V68.5052ZM96.328 48.6801C94.826 48.8183 93.6763 49.4594 93.1696 50.966C92.6673 52.4588 92.9769 53.7801 94.1507 54.8683C94.5529 55.2412 94.9534 55.6155 95.3754 56.0644C93.19 56.2735 91.3871 54.7126 91.29 52.5842C91.186 50.3055 92.7939 48.5658 95.0523 48.5312C95.4679 48.5247 95.8845 48.5802 96.328 48.6801ZM92.6488 56.4685C92.6039 56.6595 92.4934 56.9069 92.306 57.0011C89.7251 58.2986 89.6113 61.3686 92.0292 63.2808C92.2728 63.4735 92.4852 63.7053 92.7324 63.9941C90.5631 64.2007 88.7431 62.6118 88.6477 60.485C88.5458 58.2126 90.197 56.506 92.649 56.4683L92.6488 56.4685Z"
    fill="#FFE0D7" />
  <path
    d="M85.6877 81.6059C85.693 81.4198 85.781 81.2345 85.9304 81.0027C86.0714 81.0685 86.1509 81.1812 86.2367 81.3674C86.2432 81.4411 86.2343 81.4495 86.2343 81.4495C86.0556 81.5131 85.873 81.5653 85.6877 81.6059Z"
    fill="#EA896C" />
  <path
    d="M88.8176 81.4421C88.9773 81.4517 89.0321 81.4894 89.0958 81.5911C88.9622 81.622 88.8075 81.6069 88.5966 81.5332C88.6023 81.4669 88.6638 81.4596 88.8176 81.4421Z"
    fill="#CFB4EE" />
  <path
    d="M86.248 81.4376C86.2886 81.5176 86.3244 81.6009 86.3599 81.6848C86.3229 81.6382 86.2857 81.5915 86.2415 81.4974C86.2343 81.4496 86.2432 81.4412 86.248 81.4376Z"
    fill="#C6B1E5" />
  <path
    d="M95.2933 22.1169C95.345 22.1203 95.3428 22.226 95.3327 22.2779C95.2698 22.2988 95.2249 22.2589 95.1641 22.1722C95.1403 22.1338 95.2417 22.1136 95.2933 22.1169Z"
    fill="#CFB4EE" />
  <path
    d="M57.3721 98.9778C56.4397 94.949 57.4338 91.1903 58.9773 87.5078C59.1599 87.0717 59.3237 86.628 59.44 86.1029C59.3836 86.0181 59.3648 86.0068 59.44 86.0539C59.6211 85.9121 59.7271 85.7231 59.833 85.534C59.833 85.534 59.8273 85.5499 59.8335 85.5556C59.9671 85.4763 60.091 85.3846 60.2232 85.307C60.7707 84.9855 61.3206 84.6682 61.8695 84.3494C62.196 84.9125 62.6971 85.4408 62.8172 86.045C63.2316 88.1266 62.9885 90.1998 62.1016 92.1176C61.3028 93.8452 60.3029 95.4797 59.3838 97.2702C59.3756 97.385 59.3761 97.4261 59.3761 97.4261C58.8373 98.0231 58.2987 98.62 57.6344 99.2185C57.4636 99.1392 57.418 99.0585 57.3721 98.9778ZM69.9255 89.9836C69.6617 90.2416 69.398 90.4997 69.0379 90.7356C68.8928 90.6486 68.8329 90.5965 68.7628 90.5568C67.7874 85.9323 68.9088 81.6763 71.1003 77.6346C71.5368 76.8298 72.0499 75.5962 73.1271 75.9859C73.7109 76.1971 74.1046 77.4165 74.2591 78.2417C74.6963 80.5796 73.9329 82.7516 72.9729 84.8409C72.4739 85.9268 71.8486 86.955 71.315 88.0865C71.3494 88.1639 71.3643 88.166 71.2872 88.1571C71.175 88.2388 71.1401 88.3296 71.1051 88.4113C71.1051 88.4022 71.1236 88.4017 71.0513 88.405C70.9429 88.493 70.9066 88.5775 70.8627 88.7423C70.8631 88.9285 70.8716 89.0342 70.88 89.1402C70.88 89.1402 70.8684 89.1286 70.792 89.1176C70.5307 89.2809 70.3452 89.4556 70.16 89.63C70.16 89.63 70.1518 89.6153 70.0915 89.6531C69.9961 89.7883 69.9608 89.8861 69.9258 89.9836H69.9255ZM62.9609 95.6323C63.2017 95.3225 63.4484 95.0174 63.7008 94.717C63.9177 94.5517 64.0347 94.4861 64.152 94.4203C64.2574 94.4164 64.3626 94.4126 64.6288 94.4061C65.0545 94.323 65.3193 94.2427 65.584 94.162C68.1865 93.3539 70.8235 92.6132 73.5699 92.9839C74.8844 93.1612 76.1706 93.6674 77.4175 94.1577C77.8146 94.3139 78.3287 94.9421 78.278 95.277C78.2126 95.7091 77.7065 96.2413 77.2642 96.4224C74.7374 97.4564 72.0696 97.6332 69.3804 97.4307C67.1816 97.2649 65.0144 96.9125 63.0334 95.6423C62.9537 95.6255 62.9609 95.6323 62.9609 95.6323Z"
    fill="#7B9A84" />
  <path
    d="M55.2979 100.559C53.1862 101.558 51.0645 102.496 48.8596 103.461C48.8164 103.352 48.8555 103.215 49.01 103.031C49.2077 102.96 49.2534 102.907 49.2622 102.822C49.2622 102.822 49.2478 102.824 49.2493 102.831C51.1971 102.025 53.1435 101.212 55.1807 100.386C55.277 100.415 55.2823 100.456 55.2979 100.559Z"
    fill="#2C8667" />
  <path
    d="M62.7367 95.7872L61.3145 96.8164L61.0568 96.3988C61.5502 96.1418 62.0441 95.8852 62.6394 95.6678C62.741 95.7072 62.7367 95.7872 62.7367 95.7872Z"
    fill="#2C8667" />
  <path
    d="M70.9583 89.1224C70.8715 89.0342 70.8631 88.9285 70.927 88.7241C71.0409 88.5506 71.0822 88.4762 71.1236 88.4017C71.1236 88.4017 71.1053 88.4022 71.1733 88.3983C71.2821 88.3183 71.3232 88.2422 71.3643 88.166C71.3643 88.166 71.3494 88.1639 71.3487 88.1713C71.6028 88.0156 71.8579 87.8525 72.2368 87.7086C72.3975 87.7588 72.434 87.7898 72.4705 87.8208C71.9927 88.2489 71.5149 88.6768 70.9583 89.1224Z"
    fill="#2C8667" />
  <path
    d="M65.5924 94.0551C65.3193 94.2425 65.0545 94.323 64.7059 94.3881C64.9 93.9963 65.1775 93.6198 65.5592 93.277C65.6895 93.3818 65.6883 93.4524 65.6597 93.5228C65.64 93.6645 65.6205 93.8062 65.5924 94.0551Z"
    fill="#2C8667" />
  <path
    d="M68.7015 90.6188C68.8329 90.5965 68.8927 90.6486 68.9737 90.7632C68.6109 91.1505 68.2158 91.4873 67.8206 91.8239L67.6221 91.6084C67.9834 91.2802 68.3432 90.9503 68.7015 90.6188ZM79.4779 80.7029C79.6084 80.7012 79.6802 80.7577 79.7086 80.9331C79.3179 81.3655 78.9711 81.6795 78.5787 81.9452C78.5333 81.8972 78.4877 81.8494 78.4418 81.8018C78.7676 81.4549 79.0936 81.108 79.4779 80.7029ZM73.0829 86.8423C73.4005 86.5944 73.7183 86.3465 74.1222 86.0794C74.2086 86.0601 74.1894 86.0767 74.1894 86.0767C73.9461 86.3708 73.7027 86.6651 73.3335 86.942C73.166 86.8974 73.1245 86.87 73.0829 86.8423ZM66.372 92.5707L67.4263 91.71L67.6303 91.9334C67.3355 92.1953 67.0408 92.4571 66.6151 92.6949C66.4469 92.638 66.4094 92.6044 66.372 92.5707ZM65.7089 93.4836C65.6882 93.4524 65.6897 93.3818 65.6404 93.2612C65.8302 93.0241 66.0426 92.8364 66.3136 92.6097C66.4094 92.6044 66.4467 92.638 66.537 92.7252C66.3129 93.0008 66.0356 93.2225 65.7092 93.4836H65.7089Z"
    fill="#2C8667" />
  <path
    d="M55.977 100.191C55.9386 100.238 55.8322 100.196 55.7841 100.165C55.9026 99.9457 56.069 99.7578 56.2353 99.5697C56.3049 99.6418 56.3749 99.7138 56.4448 99.7854C56.3016 99.9051 56.1586 100.025 55.977 100.191Z"
    fill="#2C8667" />
  <path
    d="M76.6715 84.0664C76.4717 84.1577 76.2715 84.2487 75.9857 84.3268C76.0601 84.1277 76.2208 83.9415 76.4793 83.7623C76.6055 83.8017 76.6336 83.8339 76.6569 83.9167C76.6521 83.9672 76.6715 84.0664 76.6715 84.0664Z"
    fill="#2C8667" />
  <path
    d="M57.311 98.9934C57.4179 99.0585 57.4636 99.1394 57.5616 99.2663C57.448 99.3206 57.282 99.3287 57.116 99.3369C57.1607 99.2274 57.2051 99.1181 57.311 98.9934Z"
    fill="#2C8667" />
  <path
    d="M70.2373 89.6572C70.3454 89.4556 70.5304 89.2812 70.799 89.1217C70.6933 89.3194 70.504 89.502 70.2375 89.6574L70.2373 89.6572Z"
    fill="#2C8667" />
  <path
    d="M59.458 97.4573C59.3761 97.4261 59.3756 97.385 59.3804 97.3665C59.6257 97.3483 59.8662 97.3483 60.1067 97.3483L60.0992 97.5443C59.8842 97.5253 59.6703 97.4963 59.458 97.4573ZM74.1964 86.062C74.2521 85.9203 74.3194 85.7762 74.3867 85.6325L74.5243 85.73C74.4474 85.8184 74.3701 85.9069 74.2413 86.0359C74.1894 86.0767 74.2087 86.0599 74.1966 86.062H74.1964ZM64.0811 94.427C64.0347 94.4861 63.9177 94.5517 63.7347 94.6399C63.7827 94.586 63.8966 94.5096 64.0811 94.427Z"
    fill="#2C8667" />
  <path
    d="M62.774 95.7617C62.7367 95.7872 62.741 95.7072 62.7274 95.6697C62.7547 95.6298 62.7958 95.6274 62.8989 95.6287C62.9609 95.6323 62.9537 95.6258 62.9517 95.6222C62.8989 95.6522 62.8528 95.6914 62.774 95.7615V95.7617Z"
    fill="#7DA752" />
  <path
    d="M70.0019 89.9459C69.9611 89.8859 69.9961 89.7883 70.0999 89.6528C70.1386 89.7129 70.1083 89.8104 70.0019 89.9459ZM76.9543 83.227C77.0105 83.1641 77.0667 83.1012 77.2197 83.0553C77.348 83.1074 77.3797 83.1425 77.3879 83.2321C77.3163 83.3551 77.2517 83.3986 77.1174 83.3685C77.0276 83.2888 76.9913 83.258 76.9543 83.227ZM78.1999 82.0436C78.2319 81.9709 78.2792 81.9101 78.3921 81.8315C78.4723 81.8334 78.5028 81.8651 78.555 81.9985C78.5285 82.1671 78.4651 82.2099 78.3392 82.1823L78.1999 82.0436Z"
    fill="#2C8667" />
  <path
    d="M77.951 82.2788C77.9863 82.208 78.036 82.1491 78.1497 82.0727C78.2309 82.0744 78.2618 82.1052 78.3149 82.2366C78.2892 82.405 78.2251 82.4489 78.0963 82.4208C78.0161 82.3415 77.9834 82.3103 77.951 82.2788Z"
    fill="#2C8667" />
  <path
    d="M77.7108 82.5179C77.7453 82.4482 77.7934 82.3888 77.9029 82.3096C77.9834 82.3101 78.0159 82.3415 78.0711 82.4746C78.0437 82.6428 77.9781 82.6843 77.8506 82.6553C77.7732 82.5784 77.742 82.5481 77.7108 82.5179Z"
    fill="#2C8667" />
  <path
    d="M77.4508 82.7511C77.4916 82.6824 77.5447 82.625 77.6605 82.5484C77.742 82.5484 77.7732 82.5786 77.8272 82.71C77.8023 82.8794 77.7379 82.9231 77.6058 82.8936C77.5202 82.8136 77.4856 82.7824 77.4508 82.7511Z"
    fill="#2C8667" />
  <path
    d="M77.2711 83.0178C77.2635 82.9042 77.3096 82.8525 77.4076 82.78C77.4854 82.7824 77.5205 82.8136 77.5815 82.9479C77.5582 83.1177 77.4926 83.16 77.4114 83.1776C77.3639 83.125 77.3171 83.0718 77.2711 83.0178ZM76.7131 83.4678C76.7525 83.4012 76.8024 83.344 76.9086 83.2616C76.991 83.258 77.0275 83.2888 77.0926 83.4226C77.0698 83.5922 77.0033 83.6333 76.87 83.6021C76.7839 83.5264 76.7484 83.4971 76.7131 83.4678Z"
    fill="#2C8667" />
  <path
    d="M76.5399 83.7173C76.5391 83.6119 76.5831 83.5646 76.6734 83.4956C76.7484 83.497 76.7839 83.5264 76.844 83.6556C76.8128 83.8166 76.7436 83.8536 76.6614 83.8663C76.6194 83.8179 76.5788 83.7682 76.5399 83.7173ZM75.8403 84.3268C75.8456 84.3804 75.7769 84.4522 75.6325 84.5459C75.6265 84.4935 75.6964 84.4193 75.8403 84.3268ZM73.2655 86.9716C73.2073 87.0002 73.091 86.9817 73.0291 86.9029C73.1244 86.8699 73.166 86.8973 73.2655 86.9716ZM72.508 87.404L72.79 87.219C72.7972 87.3144 72.8044 87.4098 72.7057 87.509C72.5688 87.4763 72.5385 87.44 72.508 87.404Z"
    fill="#2C8667" />
  <path
    d="M72.6407 87.5702C72.6443 87.6807 72.6003 87.7269 72.5102 87.7937C72.4341 87.7898 72.3973 87.7588 72.3082 87.6786C72.2745 87.5469 72.3209 87.4842 72.4514 87.4227C72.5386 87.44 72.5691 87.4763 72.6407 87.5702Z"
    fill="#2C8667" />
  <path
    d="M59.7516 85.5316C59.7271 85.7231 59.6211 85.9121 59.4321 86.0613C59.4561 85.8576 59.5632 85.6933 59.7516 85.5316ZM49.2111 102.833C49.2533 102.907 49.2077 102.96 49.0693 102.987C49.0477 102.927 49.0967 102.879 49.2111 102.833ZM74.4138 70.6354C74.4304 70.6796 74.3948 70.7584 74.2978 70.8586C74.2778 70.81 74.3199 70.7399 74.4138 70.6354Z"
    fill="#CEB4EE" />
  <path
    d="M80.1518 75.4778C80.1862 75.5782 80.1494 75.713 80.0495 75.8823C80.018 75.7824 80.0495 75.6474 80.1518 75.4778Z"
    fill="#CEB4EE" />
  <path
    d="M71.0512 88.4051C71.0822 88.4762 71.0409 88.5506 70.935 88.6436C70.9066 88.5775 70.9429 88.493 71.0512 88.4051ZM71.2872 88.1571C71.3232 88.2422 71.2824 88.3183 71.173 88.4075C71.1401 88.3296 71.175 88.2391 71.2872 88.1571Z"
    fill="#CEB4ED" />
</svg>