<svg width="110" height="110" fill="none" xmlns="http://www.w3.org/2000/svg"><path d="M45.159 103.019c-1.973-.648-3.98-1.211-5.912-1.962-4.01-1.56-7.659-3.8-11-6.478-1.773-1.42-3.271-3.185-4.91-4.954 1.605-2.016 3.267-3.839 4.838-5.737 4.039-4.878 8.09-9.747 12.034-14.7 2.792-3.506 5.29-7.205 6.61-11.58 1.638-5.427 3.37-10.826 5.018-16.25 1.468-4.83 3.958-8.925 8.045-12.02 4.536-3.434 9.351-6.397 14.43-8.94.913-.456 1.897-.65 2.832.033l-.046.234a45.406 45.406 0 0 1-1.249 2.682c-.575.893-1.089 1.733-1.603 2.574l.307.28c.46-.188.919-.374 1.464-.571 1.955-.603 3.808-1.6 5.775-.124.613 2.691.616 5.225-.726 7.648-.363.054-.663.052-.9.175a1494.076 1494.076 0 0 0-9.556 4.975c-.199.104-.344.31-.598.548 3.83-1.872 7.51-3.67 11.264-5.435 2.902 1.443 4.138 4.377 2.662 7.073-.09.165-.08.384-.213.578-.483.077-.912.071-1.253.24-1.966.978-3.92 1.978-5.861 3.001-.919.484-1.805 1.029-2.705 1.546l.1.162c3.287-1.57 6.575-3.142 9.942-4.696 1.943 1.268 2.662 2.84 2.19 4.888-.22.957-.61 1.876-1.008 2.813-2.013 1.19-3.942 2.38-5.947 3.589-.268.242-.46.468-.728.698-.274.098-.472.19-.67.282l.158.249c.21-.163.42-.326.707-.505.27-.244.461-.471.74-.703.468-.197.862-.37 1.23-.588 1.554-.924 3.101-1.86 4.726-2.76 1.016.546 1.8 1.179 1.79 2.407-.542.825-.975 1.634-1.49 2.388-3.718 5.454-7.957 10.467-12.817 14.94-4.597 4.23-9.839 5.136-15.651 2.923-.247-.094-.499-.172-1.067-.367.375.77.7 1.267.863 1.812.352 1.173.83 2.362.882 3.561.147 3.377-1.646 6.052-3.365 8.778-1.764 2.796-3.312 5.73-4.939 8.613a710.8 710.8 0 0 0-4.415 7.932c-.104.188.01.496.022.748Zm22.836-73.586 5.23-2.361c-3.11.18-14.941 7-15.285 8.381 3.207-1.924 6.551-3.931 10.055-6.02Zm-11.34 7.207.708-.57-.277-.256c-.177.242-.353.485-.43.826Zm-.99.374.096.342.349-.345a.703.703 0 0 0-.445.003Z" fill="#FECCC7"/><path d="M20.468 86.347c2.924-3.262 5.862-6.44 8.78-9.636.258-.281.384-.681.646-1.13.254-.198.433-.292.612-.386 4.629-5.292 9.333-10.552 12.305-17.014 1.985-4.317 3.656-8.777 5.491-13.163 1.869-4.467 3.859-8.87 6.881-12.716 2.08-2.647 4.822-4.522 7.488-6.489.866-.638 1.738-1.27 2.639-1.98.032-.076.032-.057.092-.056.177-.064.294-.128.411-.193 3.241-1.694 6.447-3.461 9.739-5.05 1.5-.724 1.823-.382 1.801 1.32a1.18 1.18 0 0 1-.123.526c-1.021-.633-2.005-.438-2.917.019-5.08 2.542-9.895 5.505-14.43 8.939-4.088 3.095-6.578 7.19-8.046 12.019-1.649 5.424-3.38 10.824-5.018 16.252-1.32 4.374-3.819 8.073-6.61 11.578-3.944 4.954-7.995 9.823-12.034 14.701-1.571 1.898-3.233 3.72-4.867 5.661a55.324 55.324 0 0 1-2.84-3.202Z" fill="#FFC2BC"/><path d="M59.383 86.018c-.518.633-1.125 1.213-1.542 1.907-2.81 4.676-5.58 9.376-8.355 14.072-.118.2-.167.44-.244.744.006.083.02.081-.031.092-.114.046-.163.094-.257.202-.099.18-.138.317-.235.5-.113.181-.169.316-.225.451-1.055-.295-2.11-.591-3.25-.927-.098-.293-.21-.6-.107-.788a709.182 709.182 0 0 1 4.415-7.932c1.627-2.882 3.175-5.817 4.939-8.613 1.719-2.726 3.512-5.4 3.365-8.778-.052-1.198-.53-2.388-.882-3.561-.163-.545-.488-1.041-.863-1.813.568.196.82.274 1.067.368 5.812 2.213 11.054 1.307 15.65-2.924 4.86-4.472 9.1-9.485 12.819-14.939.514-.754.947-1.563 1.489-2.388.31 2.832-1.106 5.165-2.657 7.312-2.02 2.798-4.348 5.376-6.537 8.054-.322.394-.608.818-.97 1.347a66.296 66.296 0 0 1-2.558 2.231 1.32 1.32 0 0 0-.174.239c.004-.006.016.002.016.002-5.204 4.086-10.59 7.985-14.186 13.73-.141.227-.183.516-.257.86.014.084.02.068-.062.066a1.97 1.97 0 0 0-.394.482c.008-.007.026.004.026.004Z" fill="#FDC2BD"/><path d="M57.17 23.215c.207.639.362 1.208.562 1.76.238.657-.007 1.027-.643.793-1.984-.73-3.136.029-3.78 1.904-.053.155-.268.255-.561.518-.418-.726-.822-1.344-1.14-2.004-.318-.657-.775-.812-1.455-.669-.683.145-1.384.204-2.38.342.318-.88.476-1.517.772-2.084.432-.83.263-1.435-.482-1.94-.164-.112-.312-.248-.462-.378-1.118-.968-1.087-1.116.323-1.616.109-.038.2-.127.34-.269 1.087-.038 1.566-.514 1.474-1.586-.051-.59-.01-1.188-.01-2.078.717.28 1.476.344 1.818.754 1.058 1.271 1.908.639 2.866-.06.402-.293.905-.448 1.489-.726.038.502.07.735.071.968.022 2.22.02 2.22 2.148 2.96 1.245.433 1.3.665.325 1.62-.303.295-.727.476-.992.795-.194.233-.218.608-.284.996Z" fill="#FFCC4F"/><path d="M89.268 94.17c-.42-.127-.742-.255-1.223-.445.828-2.413.427-4.723-.953-7.062-.17-1.447-.27-2.73-.37-4.01.247-.81.715-1.313 1.785-1.122.3.076.455.091.677.135.184.116.301.201.418.287.625 1.052 1.204 2.135 1.885 3.15.948 1.41 2.154 2.678 2.92 4.175 1.023 2.004.888 2.465-1.008 3.542-1.21.688-2.68.917-4.131 1.35Z" fill="#fff"/><path d="M27.128 46.132c-4.797-1.963-7.937-5.539-9.85-10.254-.197-.484-.093-1.26.187-1.7.154-.243.992-.186 1.473-.066 2.71.68 4.372 2.701 5.78 4.885.925 1.434 1.514 3.085 2.334 4.785.08.88.078 1.615.076 2.35Zm.256 15.93c-1.303-.712-2.606-1.425-3.984-2.16-2.487-2.217-4.748-4.525-5.911-7.673-.041-.11-.138-.202-.163-.314-.384-1.729.26-2.303 1.972-1.767 2.646.828 4.362 2.746 5.716 5.02.676 1.136 1.152 2.391 1.873 3.683.36 1.094.563 2.099.704 3.141-.11.049-.159.06-.207.07ZM55.939 100.238c.998.199 1.992.425 2.995.592 3.443.575 6.58 1.787 9.183 4.322.646.917 1.653 1.975.84 2.85-.465.502-1.985.379-2.868.07-2.017-.706-3.934-1.698-6.007-2.679-1.94-1.389-3.616-2.822-4.784-4.834a5.831 5.831 0 0 1-.026-.185c.11-.068.221-.135.446-.19.114.012.22.054.22.054ZM29.827 45.635c1.038-1.139 2.005-2.357 3.141-3.388.705-.64 1.73-1.463 2.663-.807.963.677.456 1.902.035 2.742-1.047 2.087-2.258 4.092-3.415 6.124-.233.41-.518.79-.87 1.299a76.195 76.195 0 0 1-3.817 2.7c-.174-.026-.273-.036-.373-.046a1.516 1.516 0 0 1 .04-.447c.178-1.143.301-2.134.499-3.17.749-1.7 1.423-3.353 2.097-5.007ZM28.257 69.939c.273.27.546.541.836.947a.935.935 0 0 1-.006.258c-4.302.668-8.206-.556-11.873-2.646-1.074-.612-1.93-1.607-2.957-2.472.066-.363.202-.68.382-1.063 4.904-1.203 8.608 1.125 12.14 3.972.432.348.867.692 1.388 1.012.088-.026.09-.008.09-.008Z" fill="#7B9A84"/><path d="M88.4 20.628c-.341.247-.672.511-1.026.738-.787.502-1.587.985-2.52 1.413-.7-.575-1.302-1.048-1.809-1.608-1.573-1.734-1.02-4.308 1.1-5.3.319-.148.612-.35.917-.528.622.28 1.26.533 1.863.85.453.24.862.562 1.415.926.103 1.222.081 2.366.06 3.51Zm6.74 1.506c-.717.178-1.434.356-2.316.487-.423-.23-.68-.413-.94-.594-2.702-1.88-2.32-5.466.482-6.437.15-.052.24-.277.358-.42.111-.013.223-.025.45.024.172.105.232.144.295.177 1.935.378 3.18 2.825 2.448 4.934-.138.398.057.912.086 1.51-.228.194-.443.25-.71.302-.051-.003-.153.017-.153.017Zm-3.353 52.068c1.748.17 3.055 1.647 3.196 3.615.137 1.906-1.026 3.46-3.077 3.855-.732-.471-1.345-.86-1.848-1.36-1.68-1.665-1.544-3.831.315-5.266.431-.333.94-.565 1.414-.844Zm9.875-47.878a34.728 34.728 0 0 1-1.738 2.483 3.427 3.427 0 0 0-.46.408c-.33.057-.662.113-1.133.107-.609-.495-1.097-.908-1.544-1.361-1.742-1.767-1.504-4.016.539-5.402.274-.186.472-.484.705-.731.107.008.214.016.463.095.302.102.462.134.622.165 1.797.472 2.965 2.35 2.546 4.236Zm-9.568 38.702c2.487.741 3.404 2.815 2.367 5.508-.468 1.371-1.603 1.694-2.832 1.962-.497-.46-.877-.86-1.28-1.236-1.046-.976-1.724-2.074-1.314-3.586.428-1.574 1.543-2.338 3.058-2.648Z" fill="#fff"/><path d="M55.308 100.621c1.158 1.95 2.834 3.383 4.696 4.735a187.976 187.976 0 0 1-8.012-.691c-1.108-.124-2.196-.426-3.395-.663-.047-.151.01-.286.205-.495 2.263-1.011 4.384-1.949 6.506-2.886Z" fill="#F0A97E"/><path d="M106.032 61.497c-.14-1.567-1.354-.38-2.02-.925.491-.951.634-1.963-.852-2.6 1.312-.363 2.189-.835 1.894-2.407 1.142 1.238 2.104.595 3.161.086-.168 1.355.568 1.96 1.934 2.338l-1.263.777.522 2.558c-1.737-1.335-2.047.28-2.904.9a6.833 6.833 0 0 0-.472-.727Z" fill="#FFCC4F"/><path d="M80.646 21.647c.755 1.065 1.427 2.158 1.146 3.654-1.967-1.27-3.82-.274-5.78.225-.094-.807-.098-1.52-.102-2.232l1.2-2.576c.855.072 1.674.222 2.625.47.392.218.651.338.911.46Z" fill="#fff"/><path d="M80.71 21.594c-.323-.067-.583-.188-.89-.363.628-.305.793-.744.683-1.472-.478-3.149 2.197-4.896 4.501-4.493a2.915 2.915 0 0 1-.859.606c-2.12.991-2.673 3.565-1.1 5.3.507.559 1.11 1.032 1.716 1.61-1.16.433-2.09-.159-3.019-.8-.287-.198-.644-.297-1.032-.388Zm11.02 52.533c-.416.354-.925.586-1.357.92-1.859 1.434-1.994 3.6-.315 5.266.503.499 1.116.888 1.762 1.358-.612.105-1.307.179-2.11.268-.225-.072-.342-.157-.548-.318-.13-.132-.185-.17-.252-.189-.196-.29-.363-.605-.593-.865-1.777-2.001-1.306-4.746 1.045-6.047.276-.152.545-.318.892-.515.523-.009.97.018 1.475.121Zm.89-58.97c-.014.156-.104.382-.254.433-2.8.97-3.184 4.557-.483 6.437.285.199.568.4.85.603-1.28.472-2.327-.086-3.263-.992-.314-.304-.62-.618-1-.968-.049-1.185-.027-2.329-.042-3.555 1.155-1.116 2.3-2.248 4.192-1.958Zm5.352 6.608c-.174.31-.372.608-.646.794-2.043 1.386-2.281 3.635-.539 5.402.447.453.935.866 1.445 1.375-1.523.374-2.662-.331-3.534-1.523-.935-1.277-.981-2.652-.2-4.033.25-.443.557-.855.841-1.418l.006-.242c.215-.055.43-.111.703-.228.66-.105 1.263-.147 1.924-.127ZM92.019 64.98c-1.44.356-2.556 1.12-2.984 2.694-.41 1.512.268 2.61 1.314 3.585.403.376.783.777 1.19 1.249-.256.215-.527.348-.87.511-.504-.31-.909-.691-1.369-.985-1.436-.916-2.282-2.549-1.994-3.93.375-1.79 1.532-2.983 3.243-3.25.45-.07.929.048 1.47.126Z" fill="#FFE0D7"/><path d="M27.655 50.687a83.01 83.01 0 0 1-.418 3.051c-.063-2.407-.077-4.895-.1-7.494-.007-.847-.006-1.582-.01-2.416.153-1.639.315-3.18.469-4.82.02-.505.047-.909.14-1.402.144-.08.217-.094.286-.132a554.48 554.48 0 0 0-.147 3.363c-.075 3.429-.148 6.64-.22 9.85Zm-.478 3.687c.114-.105.213-.095.381.04.08 1.247.091 2.368.103 3.49.063 1.28.126 2.561.136 3.952-.053.11-.143.098-.143.098-.204-1.004-.408-2.009-.685-3.072.016-1.504.105-2.95.208-4.508Z" fill="#0C7E4C"/><path d="M65.739 23.567c-.043.082-.16.146-.347.21.045-.077.158-.153.347-.21Z" fill="#CFB4EE"/><path d="M99.078 22.006c-.122.05-.282.02-.505-.063.113-.04.29-.03.505.063Zm-5.628-6.692c-.044.024-.104-.015-.193-.1.036-.014.105.014.193.1Z" fill="#885BCC"/><path d="M67.915 29.474c-3.424 2.048-6.768 4.055-9.975 5.98.343-1.381 12.175-8.202 15.286-8.382-1.771.799-3.541 1.6-5.31 2.402Zm13.15 3.68c.092.001.119.115.127.172-3.67 1.856-7.35 3.654-11.18 5.526.254-.237.4-.444.598-.548 3.18-1.67 6.365-3.328 9.556-4.975.237-.123.537-.121.9-.175Zm2.66 7.914c.105.039.114.078.133.177-3.277 1.63-6.565 3.201-9.852 4.772l-.1-.162c.9-.517 1.786-1.062 2.704-1.545a277.16 277.16 0 0 1 5.862-3.001c.341-.17.77-.164 1.253-.24Zm1.405 7.954c.085 0 .122.112.132.17a152.52 152.52 0 0 1-4.643 2.852c-.367.218-.76.39-1.24.577-.099-.007-.12-.028-.12-.028 1.929-1.19 3.858-2.381 5.871-3.572Z" fill="#DB9593"/><path d="M75.85 23.347c.064.66.068 1.372.077 2.189-.455.29-.914.477-1.374.664l-.307-.28c.514-.84 1.028-1.68 1.603-2.573Z" fill="#FFE0D7"/><path d="M56.606 36.59c.127-.291.303-.534.48-.776l.277.257c-.236.19-.472.379-.757.52Zm-.893.377c.165-.017.28.014.397.044l-.349.345c-.032-.114-.064-.228-.048-.39Zm22.818 16.337a6.91 6.91 0 0 1 .652-.693c.076-.018.097.003.108.014-.18.239-.372.466-.651.698-.088.004-.109-.02-.109-.02Zm.03.035c-.199.175-.409.338-.618.5l-.159-.248c.199-.092.397-.184.671-.282.076-.005.097.018.107.03Z" fill="#DB9593"/><path d="M28.582 66.305c.718-1.986 1.313-4.027 2.187-5.941.927-2.031 2.358-3.73 4.455-4.689.455-.208 1.284-.36 1.513-.122.33.341.478 1.118.343 1.61-1.237 4.462-3.673 8.117-7.506 10.791-.372.26-.677.613-1.148 1.047-.097-.57-.198-1.17-.229-1.898.132-.264.26-.53.385-.798Zm-.501-28.892c-.128.099-.2.113-.333.093.387-4.937 1.823-9.396 6.05-12.436.572-.411 1.455-.39 2.194-.57.073.784.412 1.66.177 2.337-1.516 4.367-3.91 8.113-8.088 10.576Z" fill="#7B9A84"/><path d="M40.39 36.993c1.39-.188.669-1.398 1.199-2.167.963.913 2.005 1.138 3.215-.317-.063 1.666.232 2.731 1.947 2.78-1.172.902-1.537 1.897-.741 3.274-1.54-.626-2.334.064-2.92 1.617-.565-1.496-1.273-2.271-2.914-1.415.444-1.421.791-2.582-.804-3.257.473-.253.7-.375 1.019-.515Z" fill="#FECB52"/><path d="M29.31 72.89c.304.3.55.632.796.965l-.45.236c-.136-.39-.271-.78-.347-1.202ZM27.835 65.266c-.062-.303-.062-.555-.062-.808l.529.135c-.135.241-.27.482-.466.673Zm-.244-3.274c.063-.038.153-.027.199-.028.15.298.256.597.361.895l-.331.172a9.28 9.28 0 0 1-.434-.887c.046-.092.094-.103.205-.152Zm.909 4.316c-.023.22-.127.444-.303.698.025-.212.123-.453.303-.698ZM29.463 72.066c-.111.106-.247.153-.384.2l-.057-.3c.14.013.278.027.441.1ZM28.246 69.923c.194-.138.39-.274.585-.409l.167.27a7.326 7.326 0 0 1-.657.156c-.084-.001-.086-.019-.095-.017Z" fill="#7DA752"/><path d="M30.423 75.197c-.096.092-.275.186-.53.3.098-.086.273-.192.53-.3Zm-1.305-4.034c-.023-.06-.015-.1.02-.197.021.035.016.126-.02.197Zm.629 3.445c.011-.034.035-.045.059-.056-.016.026-.031.052-.06.056Z" fill="#CEB4EE"/><path d="M86.623 82.64c.199 1.294.3 2.576.421 3.958-4.116.707-8.183.744-12.077-1.442.17-.187.318-.349.603-.571a1.56 1.56 0 0 0 .344-.277s-.003.015.077.023c.28-.082.48-.174.772-.256 2.015-.487 3.94-.984 5.952-1.466.418-.06.748-.133 1.078-.207.91.076 1.821.151 2.83.239ZM81.629 70.893c.816-1.808 1.572-3.647 2.488-5.402.245-.468 1.066-1.018 1.466-.916.438.11.876.895.998 1.454.501 2.293.129 4.521-.803 6.657-.334.766-.73 1.506-1.21 2.307-.403-.037-.694-.125-1.085-.233-.703.054-1.305.155-1.91.186-.218.01-.445-.147-.612-.298.965-1.182.813-2.47.668-3.755Z" fill="#7B9A84"/><path d="m83.583 74.78.928.28c2.363 1.684 2.79 3.353 1.436 5.856a17.84 17.84 0 0 0-.342.689c-.52.188-1.04.377-1.736.562-1.888-.58-2.981-1.77-3.112-3.552-.127-1.735.758-2.968 2.479-3.517.135-.043.233-.209.347-.318Zm9.167-18.297c1.965.201 3.402 1.645 3.548 3.565.142 1.861-1.154 3.405-3.48 3.945-.333-.288-.545-.52-.789-.712-2.418-1.912-2.304-4.982.277-6.28.187-.094.298-.341.444-.518Zm3.605-7.73c1.69.764 2.667 2.186 2.577 3.75-.102 1.774-1.292 3.06-3.471 3.56-.508-.447-.908-.822-1.31-1.195-1.174-1.088-1.484-2.41-.981-3.902.507-1.506 1.656-2.148 3.185-2.213Zm4.305-17.938c1.897.58 2.997 1.902 3.051 3.67.05 1.622-1.044 3.05-3.015 3.709-.512-.205-.876-.373-1.191-.608-2.682-2.002-2.309-5.207.749-6.525.144-.062.271-.163.406-.246ZM81.573 70.835c.2 1.344.353 2.631-.672 3.85-.304.326-.491.542-.75.793-.102.17-.133.304-.158.44.005.002.007-.01.007-.01-.393.022-.786.043-1.354.028-.243-.078-.314-.116-.38-.162-1.236-.871-2.307-1.82-2.373-3.52-.065-1.673.684-2.727 2.183-3.346.12-.05.176-.251.262-.382 1.51.114 2.487.983 3.235 2.31ZM100.446 40.095c1.731.833 2.559 2.224 2.368 3.98-.173 1.59-1.366 2.812-3.306 3.176-.581-.458-1.07-.808-1.471-1.24-.964-1.038-1.625-2.216-.996-3.663.633-1.458 1.677-2.4 3.405-2.253Z" fill="#fff"/><path d="M100.575 30.78c-.05.118-.177.219-.321.28-3.058 1.319-3.43 4.524-.75 6.526.316.235.68.403 1.107.621-1.702.546-3.656-.51-4.347-2.375-.703-1.896.244-4.068 2.125-4.838.397-.162.82-.26 1.3-.41a46.808 46.808 0 0 1-.218-1.267c.105-.216.216-.33.381-.47.25.615.444 1.256.723 1.932ZM80.223 75.442c.187-.216.374-.432.622-.687.283.043.51.2.728.19.605-.031 1.207-.132 1.91-.186-.014.13-.112.295-.247.338-1.721.548-2.606 1.782-2.48 3.517.132 1.782 1.225 2.972 3.028 3.561.09.013.053.12.031.173-.352.127-.682.2-1.158.202a62.93 62.93 0 0 1-2.886-1.669 1.06 1.06 0 0 0-.235-.238c-.682-1.597-.71-3.137.434-4.656.03-.08.028-.068.085-.104.094-.171.131-.306.168-.44Zm20.157-35.41c-1.662-.085-2.706.857-3.34 2.315-.628 1.447.033 2.626.996 3.663.401.432.89.782 1.381 1.238-2.054.492-3.658-.915-4.169-2.928-.44-1.736.826-3.947 2.63-4.377.766-.182 1.62.007 2.502.09ZM78.23 68.505c.022.152-.034.353-.153.403-1.5.619-2.25 1.673-2.184 3.347.066 1.698 1.137 2.648 2.374 3.519.065.046.136.084.28.175-2.094.51-4.227-1.11-4.319-3.302-.021-.516.021-1.034.031-1.661-.003-.11-.015-.118.043-.134a.75.75 0 0 0 .164-.251c.829-.706 1.66-1.409 2.495-2.109.42-.022.791-.014 1.27.013ZM96.328 48.68c-1.502.138-2.652.78-3.158 2.286-.503 1.493-.193 2.814.98 3.902.403.373.803.747 1.225 1.196-2.185.21-3.988-1.351-4.085-3.48-.104-2.279 1.504-4.018 3.762-4.053.416-.006.832.05 1.276.15Zm-3.68 7.788c-.044.191-.155.439-.342.533-2.58 1.298-2.695 4.368-.277 6.28.244.193.456.424.703.713-2.169.207-3.989-1.382-4.084-3.509-.102-2.272 1.549-3.979 4.001-4.017Z" fill="#FFE0D7"/><path d="M85.688 81.606c.005-.186.093-.371.242-.603.141.066.22.178.307.364.006.074-.003.082-.003.082a4.507 4.507 0 0 1-.546.157Z" fill="#EA896C"/><path d="M88.818 81.442c.16.01.214.047.278.15-.134.03-.288.015-.5-.059.006-.066.068-.073.222-.09Z" fill="#CFB4EE"/><path d="M86.248 81.438c.04.08.076.163.112.247-.037-.047-.074-.094-.118-.188-.008-.047.001-.056.006-.06Z" fill="#C6B1E5"/><path d="M95.293 22.117c.052.003.05.109.04.16-.063.022-.108-.018-.169-.105-.024-.038.078-.058.13-.055Z" fill="#CFB4EE"/><path d="M57.372 98.978c-.932-4.029.062-7.788 1.605-11.47a8.04 8.04 0 0 0 .463-1.405c-.056-.085-.075-.096 0-.05.181-.14.287-.33.393-.519 0 0-.006.016 0 .022.134-.08.258-.171.39-.249.548-.322 1.098-.639 1.647-.958.326.563.827 1.092.947 1.696a9.748 9.748 0 0 1-.715 6.073c-.8 1.727-1.8 3.362-2.718 5.152-.008.115-.008.156-.008.156-.539.597-1.077 1.194-1.742 1.793-.17-.08-.216-.16-.262-.241Zm12.553-8.994c-.263.258-.527.516-.887.752-.145-.087-.205-.14-.275-.18-.976-4.624.146-8.88 2.337-12.921.437-.805.95-2.039 2.027-1.65.584.212.978 1.431 1.132 2.257.437 2.338-.326 4.51-1.286 6.599-.5 1.086-1.124 2.114-1.658 3.246.034.077.05.079-.028.07-.112.082-.147.173-.182.254 0-.009.019-.01-.054-.006-.108.088-.144.172-.188.337 0 .186.009.292.017.398 0 0-.012-.011-.088-.022-.261.163-.447.338-.632.512 0 0-.008-.015-.069.023-.095.135-.13.233-.165.33Zm-6.964 5.648c.24-.31.487-.615.74-.915.217-.165.334-.23.451-.297l.477-.014c.425-.083.69-.163.955-.244 2.602-.808 5.24-1.549 7.986-1.178 1.314.177 2.6.683 3.848 1.174.397.156.91.784.86 1.119-.065.432-.572.964-1.014 1.145-2.527 1.034-5.194 1.211-7.884 1.009-2.198-.166-4.366-.519-6.347-1.789-.08-.016-.072-.01-.072-.01Z" fill="#7B9A84"/><path d="M55.298 100.559c-2.112.999-4.233 1.937-6.438 2.902-.044-.109-.005-.246.15-.43.198-.071.243-.124.252-.209 0 0-.014.002-.013.009 1.948-.806 3.895-1.619 5.932-2.445.096.029.101.07.117.173ZM62.737 95.787l-1.422 1.03-.258-.418c.493-.257.987-.514 1.582-.731.102.04.098.12.098.12ZM70.958 89.122c-.087-.088-.095-.194-.031-.398.114-.173.155-.248.197-.322 0 0-.019 0 .05-.004a.606.606 0 0 0 .19-.232s-.015-.002-.015.005c.254-.155.509-.319.888-.462.16.05.197.08.234.112-.478.428-.956.856-1.513 1.301ZM65.592 94.055c-.273.188-.537.268-.886.333a3.69 3.69 0 0 1 .853-1.111c.13.105.13.175.1.246-.019.142-.038.283-.067.532Z" fill="#2C8667"/><path d="M68.701 90.619c.132-.022.192.03.273.144-.363.387-.758.724-1.153 1.06l-.199-.215c.361-.328.721-.658 1.08-.99Zm10.777-9.916c.13-.002.202.055.23.23-.39.432-.737.746-1.13 1.012a20.54 20.54 0 0 0-.136-.143c.326-.347.652-.694 1.036-1.1Zm-6.395 6.14a15.54 15.54 0 0 1 1.04-.764c.086-.019.066-.002.066-.002-.243.294-.486.588-.855.865a.701.701 0 0 1-.251-.1Zm-6.711 5.728 1.054-.861.204.223c-.294.262-.59.524-1.015.762-.168-.057-.206-.09-.243-.124Zm-.663.913c-.02-.032-.02-.102-.069-.223.19-.237.403-.425.674-.651.095-.006.133.028.223.115-.224.276-.501.498-.828.759ZM55.977 100.191c-.038.047-.145.005-.193-.026.119-.22.285-.407.451-.595l.21.215c-.143.12-.286.24-.468.406ZM76.671 84.066c-.2.092-.4.183-.685.26.074-.198.235-.384.493-.564.127.04.155.072.178.155-.005.05.014.15.014.15ZM57.311 98.993c.107.066.153.146.25.273-.113.055-.279.063-.445.07.045-.109.09-.218.195-.343ZM70.237 89.657c.108-.201.293-.376.562-.535-.106.197-.295.38-.562.535ZM59.458 97.457c-.082-.03-.082-.072-.078-.09.246-.019.486-.019.727-.019l-.008.196a6.92 6.92 0 0 1-.641-.087Zm14.738-11.395a7.51 7.51 0 0 1 .19-.43l.138.098a5.426 5.426 0 0 1-.283.306c-.052.04-.032.024-.044.026Zm-10.115 8.365c-.046.06-.163.125-.346.213.048-.054.162-.13.346-.213Z" fill="#2C8667"/><path d="M62.774 95.762c-.037.025-.033-.055-.047-.092.028-.04.069-.043.172-.041.062.003.055-.003.053-.007-.053.03-.1.07-.178.14Z" fill="#7DA752"/><path d="M70.002 89.946c-.04-.06-.006-.158.098-.293.039.06.008.157-.098.293Zm6.952-6.719a.497.497 0 0 1 .266-.172c.128.052.16.087.168.177-.072.123-.136.167-.27.136-.09-.08-.127-.11-.164-.141Zm1.246-1.183a.487.487 0 0 1 .192-.212c.08.001.11.033.163.167-.027.168-.09.21-.216.183l-.14-.138Z" fill="#2C8667"/><path d="M77.951 82.279a.518.518 0 0 1 .199-.206c.08.001.112.032.165.164-.026.168-.09.212-.219.184-.08-.08-.113-.11-.145-.142Z" fill="#2C8667"/><path d="M77.71 82.518a.546.546 0 0 1 .193-.208c.08 0 .113.031.168.165-.027.168-.093.21-.22.18a13.01 13.01 0 0 0-.14-.137Z" fill="#2C8667"/><path d="M77.45 82.751a.605.605 0 0 1 .21-.203c.082 0 .113.03.167.162-.025.17-.09.213-.221.184a9.422 9.422 0 0 0-.155-.143Z" fill="#2C8667"/><path d="M77.271 83.018c-.008-.114.039-.165.137-.238.077.002.112.034.174.168-.024.17-.09.212-.17.23a7.35 7.35 0 0 1-.14-.16Zm-.558.45a.707.707 0 0 1 .196-.206c.082-.004.118.027.184.16-.023.17-.09.211-.223.18-.086-.076-.122-.105-.157-.134Z" fill="#2C8667"/><path d="M76.54 83.717c0-.105.043-.152.133-.221.075.001.11.03.171.16-.031.16-.1.198-.183.21a3.095 3.095 0 0 1-.121-.149Zm-.7.61c.006.053-.063.125-.208.219-.006-.053.064-.127.208-.22Zm-2.575 2.645c-.058.028-.174.01-.236-.07.095-.032.137-.005.237.07Zm-.757.432.282-.185c.007.095.014.19-.084.29-.137-.033-.168-.069-.198-.105Z" fill="#2C8667"/><path d="M72.64 87.57c.004.11-.04.157-.13.224-.076-.004-.113-.035-.202-.115-.034-.132.013-.195.143-.256.088.017.118.053.19.147Z" fill="#2C8667"/><path d="M59.752 85.532a.812.812 0 0 1-.32.53c.024-.204.131-.369.32-.53Zm-10.54 17.301c.041.074-.004.127-.143.154-.021-.06.028-.108.142-.154Zm25.202-32.198c.016.045-.02.123-.116.224-.02-.049.022-.12.116-.224ZM80.152 75.478c.034.1-.003.235-.103.404-.031-.1 0-.235.103-.404Z" fill="#CEB4EE"/><path d="M71.051 88.405c.031.071-.01.146-.116.239-.028-.067.008-.151.116-.239Zm.236-.248c.036.085-.005.161-.114.25-.033-.077.002-.168.114-.25Z" fill="#CEB4ED"/></svg>